<svg xmlns="http://www.w3.org/2000/svg" xmlns:xlink="http://www.w3.org/1999/xlink" xmlns:serif="http://www.serif.com/" viewBox="0 0 32 40" version="1.1" xml:space="preserve" style="" x="0px" y="0px" fill-rule="evenodd" clip-rule="evenodd" stroke-linejoin="round" stroke-miterlimit="2"><g transform="matrix(1,0,0,1,-240,-192)"><path d="M257.61,214.531L260.776,214.531C261.081,213.146 261.25,211.612 261.25,210C261.25,208.388 261.081,206.854 260.776,205.469L258.979,205.469L259.027,204.469L260.524,204.469C260.179,203.25 259.721,202.176 259.178,201.302L259.253,199.714C259.445,199.936 259.631,200.178 259.808,200.438C260.531,201.498 261.132,202.876 261.558,204.469L265.508,204.469C264.135,202.116 261.914,200.318 259.264,199.494L259.313,198.465C262.603,199.409 265.315,201.724 266.791,204.749L266.791,204.75C267.565,206.336 268,208.118 268,210.001C268,216.623 262.623,222 256.002,222L256.001,222C249.378,222 244.001,216.623 244.001,210.001C244.001,208.118 244.436,206.336 245.21,204.75L245.21,204.749C246.687,201.724 249.398,199.41 252.687,198.466L252.736,199.495C250.087,200.318 247.866,202.117 246.494,204.469L250.444,204.469C250.869,202.876 251.471,201.498 252.193,200.438C252.37,200.178 252.555,199.937 252.747,199.716L252.822,201.304C252.28,202.178 251.823,203.251 251.477,204.469L252.973,204.469L253.021,205.469L251.226,205.469C250.92,206.854 250.751,208.388 250.751,210C250.751,211.612 250.92,213.146 251.226,214.531L254.39,214.531C254.855,214.828 255.408,215 256,215C256.592,215 257.145,214.828 257.61,214.531ZM255.501,220.949C254.575,220.759 253.735,220.048 253.019,218.998C252.39,218.075 251.864,216.893 251.477,215.531L255.501,215.531L255.501,220.949ZM260.524,215.531C260.138,216.893 259.612,218.075 258.982,218.998C258.267,220.048 257.427,220.758 256.501,220.949L256.501,215.531L260.524,215.531ZM250.444,215.531L246.493,215.531C247.916,217.971 250.252,219.815 253.032,220.594C252.737,220.294 252.457,219.948 252.193,219.562C251.471,218.502 250.869,217.124 250.444,215.531ZM265.509,215.531L261.558,215.531C261.132,217.124 260.531,218.502 259.808,219.562C259.545,219.948 259.264,220.294 258.97,220.594C261.749,219.816 264.085,217.971 265.509,215.531ZM250.206,205.469L245.977,205.469C245.35,206.851 245.001,208.385 245.001,210.001C245.001,211.615 245.35,213.149 245.976,214.531L250.206,214.531C249.914,213.135 249.751,211.605 249.751,210C249.751,208.395 249.914,206.865 250.206,205.469ZM266.025,205.469L261.795,205.469C262.088,206.865 262.25,208.395 262.25,210C262.25,211.605 262.088,213.135 261.795,214.531L266.025,214.531C266.651,213.149 267,211.615 267,210.001C267,208.385 266.651,206.851 266.025,205.469ZM256,210C254.896,210 254,210.896 254,212C254,213.104 254.896,214 256,214C257.104,214 258,213.104 258,212C258,210.896 257.104,210 256,210ZM256,211C256.552,211 257,211.448 257,212C257,212.552 256.552,213 256,213C255.448,213 255,212.552 255,212C255,211.448 255.448,211 256,211ZM258.404,196.52C258.436,195.863 258.196,195.222 257.742,194.746C257.288,194.269 256.659,194 256.001,194L255.999,194C255.341,194 254.712,194.269 254.258,194.746C253.804,195.222 253.564,195.863 253.596,196.52C253.741,199.58 254.014,205.31 254.122,207.571C254.16,208.371 254.819,209 255.62,209L256.38,209C257.181,209 257.84,208.371 257.878,207.571L258.404,196.52ZM257.405,196.473L256.879,207.524C256.867,207.79 256.647,208 256.38,208C256.38,208 255.62,208 255.62,208C255.353,208 255.133,207.79 255.121,207.524L254.595,196.473C254.576,196.089 254.716,195.714 254.981,195.436C255.247,195.157 255.614,195 255.999,195C255.999,195 256.001,195 256.001,195C256.386,195 256.753,195.157 257.019,195.436C257.284,195.714 257.424,196.089 257.405,196.473Z"/></g><text x="0" y="47" fill="#000000" font-size="5px" font-weight="bold" font-family="'Helvetica Neue', Helvetica, Arial-Unicode, Arial, Sans-serif">Created by Nice Design</text><text x="0" y="52" fill="#000000" font-size="5px" font-weight="bold" font-family="'Helvetica Neue', Helvetica, Arial-Unicode, Arial, Sans-serif">from the Noun Project</text></svg>