<svg width="25" height="22" viewBox="0 0 25 22" fill="none" xmlns="http://www.w3.org/2000/svg">
<g id="Group 318">
<g id="My Bills Stroke">
<mask id="mask0_0_3626" style="mask-type:luminance" maskUnits="userSpaceOnUse" x="0" y="0" width="25" height="22">
<path id="Rectangle 996" fill-rule="evenodd" clip-rule="evenodd" d="M0 0H25V22H0V0Z" fill="white"/>
</mask>
<g mask="url(#mask0_0_3626)">
<g id="Path 1041">
<path fill-rule="evenodd" clip-rule="evenodd" d="M21.3898 1.8363C21.3142 1.7897 21.2272 1.76489 21.1385 1.76489H6.81164C5.57993 1.76489 4.57787 2.75718 4.57787 3.97329L4.49368 16.3109H1.90453C1.63879 16.3109 1.42342 16.5263 1.42342 16.792V19.0147C1.42511 20.6469 2.74778 21.9696 4.37998 21.9714C4.41306 21.9714 4.44632 21.968 4.47883 21.9613H16.4323C16.5035 21.9664 16.5753 21.9697 16.6476 21.9697C18.3052 21.9667 19.6474 20.6227 19.648 18.9651V11.753H22.891C23.1568 11.753 23.3721 11.5376 23.3721 11.2719V4.13004C23.3663 2.98158 22.5253 2.00828 21.3898 1.83632L21.3898 1.8363ZM2.38564 19.0148V17.2733H13.6473V18.9652C13.6467 19.719 13.9303 20.4452 14.4417 20.9991H4.3142C4.29146 20.9992 4.26891 21.001 4.24655 21.0043C3.19995 20.9331 2.38696 20.0639 2.38564 19.0148ZM18.6858 4.13003V18.9651C18.6848 19.5029 18.4712 20.0183 18.0913 20.3988C17.7277 20.7718 17.2337 20.9896 16.713 21.0062C16.6871 21.0017 16.6608 20.9995 16.6343 20.9992H16.4652C15.4173 20.8961 14.6165 20.0184 14.6095 18.9655V16.792C14.6095 16.5264 14.3942 16.3109 14.1284 16.3109H5.45588L5.54008 3.97667C5.54704 3.28095 6.11572 2.72185 6.81163 2.72711H19.1637C18.8538 3.1291 18.6856 3.62242 18.6858 4.13003H18.6858ZM22.4098 10.7907H19.648V4.13002C19.6606 3.37622 20.2752 2.77202 21.029 2.77202C21.7827 2.77202 22.3972 3.37622 22.4098 4.13002V10.7907Z" fill="#1B438B"/>
<path d="M21.3898 1.8363L21.7348 1.47437L21.6968 1.43821L21.6522 1.4107L21.3898 1.8363ZM4.57787 3.97329L5.07787 3.9767V3.97329H4.57787ZM4.49368 16.3109V16.8109H4.99028L4.99366 16.3143L4.49368 16.3109ZM1.42342 19.0147L0.923416 19.0147L0.923416 19.0152L1.42342 19.0147ZM4.37998 21.9714L4.37942 22.4714H4.37998V21.9714ZM4.47883 21.9613V21.4613H4.42762L4.37748 21.4717L4.47883 21.9613ZM16.4323 21.9613L16.4677 21.4626L16.45 21.4613H16.4323V21.9613ZM16.6476 21.9697L16.6476 22.4697L16.6485 22.4697L16.6476 21.9697ZM19.648 18.9651L20.148 18.9653V18.9651H19.648ZM19.648 11.753V11.253H19.148V11.753H19.648ZM23.3721 4.13004H23.8721L23.8721 4.12753L23.3721 4.13004ZM21.3898 1.83632L21.0448 2.19826L21.159 2.30707L21.3149 2.33069L21.3898 1.83632ZM2.38564 19.0148L1.88564 19.0148L1.88564 19.0155L2.38564 19.0148ZM2.38564 17.2733V16.7733H1.88564V17.2733H2.38564ZM13.6473 17.2733H14.1473V16.7733H13.6473V17.2733ZM13.6473 18.9652L14.1473 18.9656V18.9652H13.6473ZM14.4417 20.9991V21.4991H15.584L14.8091 20.6599L14.4417 20.9991ZM4.3142 20.9991L4.3142 20.4991L4.3109 20.4991L4.3142 20.9991ZM4.24655 21.0043L4.21258 21.5032L4.26706 21.5069L4.32106 21.4988L4.24655 21.0043ZM18.6858 4.13003H19.1858V3.63003H18.6858V4.13003ZM18.6858 18.9651L19.1858 18.966V18.9651H18.6858ZM18.0913 20.3988L17.7375 20.0455L17.7333 20.0498L18.0913 20.3988ZM16.713 21.0062L16.628 21.4989L16.6781 21.5075L16.7289 21.5059L16.713 21.0062ZM16.6343 20.9992L16.6385 20.4992H16.6343V20.9992ZM16.4652 20.9992L16.4162 21.4968L16.4406 21.4992H16.4652V20.9992ZM14.6095 18.9655L14.1095 18.9655L14.1096 18.9688L14.6095 18.9655ZM5.45588 16.3109L4.95589 16.3075L4.95245 16.8109H5.45588V16.3109ZM5.54008 3.97667L5.0401 3.97167L5.04009 3.97326L5.54008 3.97667ZM6.81163 2.72711L6.80785 3.22711H6.81163V2.72711ZM19.1637 2.72711L19.5597 3.0324L20.1805 2.22711H19.1637V2.72711ZM18.6858 4.13003L18.1858 4.13025L18.186 4.63003H18.6858V4.13003ZM22.4098 10.7907V11.2907H22.9098V10.7907H22.4098ZM19.648 10.7907H19.148V11.2907H19.648V10.7907ZM19.648 4.13002L19.148 4.12167V4.13002H19.648ZM22.4098 4.13002L22.9099 4.13002L22.9098 4.12167L22.4098 4.13002ZM21.6522 1.4107C21.4982 1.31577 21.3205 1.26489 21.1385 1.26489V2.26489C21.134 2.26489 21.1302 2.26364 21.1274 2.26191L21.6522 1.4107ZM21.1385 1.26489H6.81164V2.26489H21.1385V1.26489ZM6.81164 1.26489C5.30894 1.26489 4.07787 2.47591 4.07787 3.97329H5.07787C5.07787 3.03846 5.85091 2.26489 6.81164 2.26489V1.26489ZM4.07788 3.96988L3.99369 16.3075L4.99366 16.3143L5.07785 3.9767L4.07788 3.96988ZM4.49368 15.8109H1.90453V16.8109H4.49368V15.8109ZM1.90453 15.8109C1.36262 15.8109 0.923416 16.2502 0.923416 16.792H1.92342C1.92342 16.8024 1.91495 16.8109 1.90453 16.8109V15.8109ZM0.923416 16.792V19.0147H1.92342V16.792H0.923416ZM0.923416 19.0152C0.925392 20.9231 2.47151 22.4693 4.37942 22.4714L4.38054 21.4714C3.02404 21.4699 1.92482 20.3706 1.92342 19.0142L0.923416 19.0152ZM4.37998 22.4714C4.4468 22.4714 4.51403 22.4646 4.58017 22.4509L4.37748 21.4717C4.3786 21.4715 4.37931 21.4714 4.37998 21.4714V22.4714ZM4.47883 22.4613H16.4323V21.4613H4.47883V22.4613ZM16.3969 22.4601C16.4759 22.4657 16.56 22.4697 16.6476 22.4697V21.4697C16.5905 21.4697 16.5311 21.4671 16.4677 21.4626L16.3969 22.4601ZM16.6485 22.4697C18.5818 22.4662 20.1473 20.8986 20.148 18.9653L19.148 18.9649C19.1475 20.3467 18.0286 21.4672 16.6467 21.4697L16.6485 22.4697ZM20.148 18.9651V11.753H19.148V18.9651H20.148ZM19.648 12.253H22.891V11.253H19.648V12.253ZM22.891 12.253C23.4329 12.253 23.8721 11.8137 23.8721 11.2719H22.8721C22.8721 11.2615 22.8806 11.253 22.891 11.253V12.253ZM23.8721 11.2719V4.13004H22.8721V11.2719H23.8721ZM23.8721 4.12753C23.8651 2.73288 22.8438 1.55081 21.4647 1.34196L21.3149 2.33069C22.2068 2.46576 22.8675 3.23028 22.8721 4.13256L23.8721 4.12753ZM21.7348 1.47439L21.7348 1.47437L21.0448 2.19824L21.0448 2.19826L21.7348 1.47439ZM2.88564 19.0148V17.2733H1.88564V19.0148H2.88564ZM2.38564 17.7733H13.6473V16.7733H2.38564V17.7733ZM13.1473 17.2733V18.9652H14.1473V17.2733H13.1473ZM13.1473 18.9648C13.1466 19.8445 13.4776 20.6919 14.0744 21.3383L14.8091 20.6599C14.3831 20.1985 14.1468 19.5936 14.1473 18.9656L13.1473 18.9648ZM14.4417 20.4991H4.3142V21.4991H14.4417V20.4991ZM4.3109 20.4991C4.2646 20.4994 4.21824 20.503 4.17203 20.5099L4.32106 21.4988C4.31957 21.499 4.31831 21.4991 4.31749 21.4991L4.3109 20.4991ZM4.28051 20.5055C3.49604 20.4521 2.88663 19.8006 2.88564 19.0142L1.88564 19.0155C1.88729 20.3272 2.90385 21.4141 4.21258 21.5032L4.28051 20.5055ZM18.1858 4.13003V18.9651H19.1858V4.13003H18.1858ZM18.1858 18.9642C18.1851 19.37 18.0239 19.7586 17.7375 20.0455L18.4452 20.752C18.9185 20.2779 19.1846 19.6359 19.1858 18.966L18.1858 18.9642ZM17.7333 20.0498C17.4599 20.3303 17.0884 20.494 16.6972 20.5064L16.7289 21.5059C17.3789 21.4853 17.9956 21.2134 18.4494 20.7478L17.7333 20.0498ZM16.7981 20.5135C16.744 20.5041 16.6906 20.4997 16.6385 20.4993L16.6302 21.4992C16.631 21.4992 16.6302 21.4993 16.628 21.4989L16.7981 20.5135ZM16.6343 20.4992H16.4652V21.4992H16.6343V20.4992ZM16.5142 20.5016C15.7209 20.4236 15.1148 19.7592 15.1095 18.9622L14.1096 18.9688C14.1182 20.2776 15.1136 21.3686 16.4162 21.4968L16.5142 20.5016ZM15.1095 18.9655V16.792H14.1095V18.9655H15.1095ZM15.1095 16.792C15.1095 16.2504 14.6704 15.8109 14.1284 15.8109V16.8109C14.1179 16.8109 14.1095 16.8025 14.1095 16.792H15.1095ZM14.1284 15.8109H5.45588V16.8109H14.1284V15.8109ZM5.95586 16.3143L6.04006 3.98009L5.04009 3.97326L4.95589 16.3075L5.95586 16.3143ZM6.04005 3.98167C6.04425 3.56148 6.38772 3.22392 6.80785 3.2271L6.81541 2.22713C5.84372 2.21978 5.04982 3.00042 5.0401 3.97167L6.04005 3.98167ZM6.81163 3.22711H19.1637V2.22711H6.81163V3.22711ZM18.7677 2.42183C18.3904 2.91123 18.1855 3.51196 18.1858 4.13025L19.1858 4.12982C19.1856 3.73289 19.3171 3.34697 19.5597 3.0324L18.7677 2.42183ZM18.6858 4.63003H18.6858V3.63003H18.6858V4.63003ZM22.4098 10.2907H19.648V11.2907H22.4098V10.2907ZM20.148 10.7907V4.13002H19.148V10.7907H20.148ZM20.1479 4.13837C20.156 3.65748 20.548 3.27202 21.029 3.27202V2.27202C20.0023 2.27202 19.1652 3.09496 19.1481 4.12167L20.1479 4.13837ZM21.029 3.27202C21.5099 3.27202 21.9019 3.65745 21.9099 4.13837L22.9098 4.12167C22.8926 3.095 22.0556 2.27202 21.029 2.27202V3.27202ZM21.9098 4.13002V10.7907H22.9098V4.13002H21.9098Z" fill="#1B438B"/>
</g>
<path id="Path 1042" fill-rule="evenodd" clip-rule="evenodd" d="M7.59952 7.01489H12.1561C12.4219 7.01489 12.6373 6.79107 12.6373 6.51489C12.6373 6.23873 12.4219 6.01489 12.1561 6.01489H7.59952C7.33379 6.01489 7.11841 6.23873 7.11841 6.51489C7.11841 6.79107 7.33379 7.01489 7.59952 7.01489Z" fill="#1B438B" stroke="#1B438B"/>
<path id="Path 1043" fill-rule="evenodd" clip-rule="evenodd" d="M16.0993 9.45508H7.59952C7.33379 9.45508 7.11841 9.67892 7.11841 9.95508C7.11841 10.2311 7.33379 10.4551 7.59952 10.4551H16.0993C16.3651 10.4551 16.5804 10.2311 16.5804 9.95508C16.5804 9.67892 16.3651 9.45508 16.0993 9.45508Z" fill="#1B438B" stroke="#1B438B"/>
<path id="Path 1044" fill-rule="evenodd" clip-rule="evenodd" d="M16.0993 12.895H7.59952C7.33379 12.895 7.11841 13.1191 7.11841 13.395C7.11841 13.6712 7.33379 13.895 7.59952 13.895H16.0993C16.3651 13.895 16.5804 13.6712 16.5804 13.395C16.5804 13.1191 16.3651 12.895 16.0993 12.895Z" fill="#1B438B" stroke="#1B438B"/>
</g>
</g>
</g>
</svg>
