<svg xmlns="http://www.w3.org/2000/svg" xmlns:xlink="http://www.w3.org/1999/xlink" width="30" height="30" viewBox="0 0 30 30"><defs><clipPath id="b"><rect width="30" height="30"/></clipPath></defs><g id="a" clip-path="url(#b)"><g transform="translate(1.234 0.301)"><g transform="translate(77.653 -5477.81)"><g transform="translate(-72.888 5487.994)"><path d="M24.972,60.934a1.093,1.093,0,0,1-.545.7l-.03.021c-.758.534-1.39.987-1.947,1.386a14.284,14.284,0,0,1-3.067,1.945,1.671,1.671,0,0,1-.507.084,3.328,3.328,0,0,1-1.444-.5l-.168-.084-.439-.224a2.371,2.371,0,0,0-.656-.284,1.179,1.179,0,0,0-.5.181c-.12.058-.261.126-.435.2l.054.1a.43.43,0,0,1-.165.584L12.859,66.3a.429.429,0,0,1-.584-.165L10.111,62.27a.43.43,0,0,1,.165-.584l2.261-1.266a.43.43,0,0,1,.584.165l.066.118,2.177-1.184a.521.521,0,0,1,.418-.039l3.954,1.282a.978.978,0,0,1,.583.519.858.858,0,0,1,.035.083l3.138-1.258a1.2,1.2,0,0,1,1.2,0,.863.863,0,0,1,.277.828ZM14.861,64.648l-1.968-3.516h0l-.159-.284-2.2,1.231,2.127,3.8Zm9.548-4.172c-.126-.1-.4-.075-.744.064l-3.246,1.3a1.056,1.056,0,0,1-1.422.9l-1.733-.585a.233.233,0,1,1,.149-.441l1.733.585a.593.593,0,0,0,.812-.59V61.69a.612.612,0,0,0-.057-.208.517.517,0,0,0-.306-.276L15.64,59.925a.058.058,0,0,0-.053,0l-2.173,1.181L15,63.947c.187-.083.336-.155.461-.216.689-.332.766-.308,1.573.109l.434.222.169.085c.775.391,1.1.552,1.6.393a14.489,14.489,0,0,0,2.935-1.879c.558-.4,1.19-.853,1.95-1.389l.032-.022c.147-.1.33-.231.351-.377A.44.44,0,0,0,24.409,60.476Z" transform="translate(-10.056 -53.241)" fill="#94afd8" stroke="#94afd8" stroke-width="0.1"/></g><g transform="translate(-69.997 5484.51)"><path d="M15.62,7.535l.159-.17-.34-.317-.159.17c-.109.117-.215.239-.316.363l-.147.18.361.293.147-.18C15.419,7.759,15.518,7.644,15.62,7.535ZM14,10.689c-.029.146-.054.3-.073.443l-.03.231-.461-.059.03-.231c.021-.159.047-.318.078-.475l.046-.228.456.091ZM14.4,9.4l-.092.214-.427-.183.092-.214c.063-.147.132-.293.2-.435l.106-.207.414.214L14.59,9C14.521,9.132,14.457,9.269,14.4,9.4Zm2.235-2.754-.19.134-.268-.38.19-.134c.131-.092.266-.181.4-.263l.2-.121.241.4-.2.121c-.126.075-.253.157-.375.244Zm-2.36,7.573c.052.14.109.279.17.415l.1.212-.424.191-.1-.212c-.066-.146-.127-.3-.183-.445l-.081-.218.436-.161Zm-.4-1.981.018.233c.011.149.028.3.05.447l.034.23-.46.067-.034-.23c-.023-.158-.041-.319-.053-.478l-.018-.232Zm14.321.733-1.163.907a.233.233,0,0,1-.326-.04L25.8,12.682a.233.233,0,1,1,.367-.286l.6.774a6.508,6.508,0,0,0-8.555-7.334l-.219.078-.155-.439.219-.078a6.971,6.971,0,0,1,9.191,7.728l.659-.514a.233.233,0,0,1,.286.367Z" transform="translate(-13.41 -5.001)" fill="#94afd8" stroke="#94afd8" stroke-width="0.2"/></g></g><g transform="translate(11 9.641)"><g transform="translate(2.338 2.265)"><path d="M8.056,3.687h-.38A.943.943,0,0,0,7.5,3.344h.552a.172.172,0,0,0,0-.344H6.165a.172.172,0,0,0,0,.344h.6a.6.6,0,0,1,.541.344H6.165a.172.172,0,1,0,0,.344h1.2a.6.6,0,0,1-.593.516H6.141a.112.112,0,0,0-.034,0,.119.119,0,0,0-.033.017l-.021.012h0a.129.129,0,0,0-.024.029.189.189,0,0,0-.015.024.1.1,0,0,0,0,.031.112.112,0,0,0-.021.058h0a.12.12,0,0,0,0,.024.112.112,0,0,0,0,.034.119.119,0,0,0,.017.033.025.025,0,0,0,.012.021l1.031,1.2a.172.172,0,0,0,.261-.223L6.54,4.89h.227a.945.945,0,0,0,.945-.859h.344a.172.172,0,0,0,0-.344Z" transform="translate(-5.992 -3)" fill="#94afd8"/></g><g transform="translate(0 0)" fill="none" stroke="#94afd8" stroke-width="0.45"><circle cx="3.456" cy="3.456" r="3.456" stroke="none"/><circle cx="3.456" cy="3.456" r="3.231" fill="none"/></g></g></g></g></svg>