<svg xmlns="http://www.w3.org/2000/svg" xmlns:xlink="http://www.w3.org/1999/xlink" width="30" height="30" viewBox="0 0 30 30"><defs><clipPath id="b"><rect width="30" height="30"/></clipPath></defs><g id="a" clip-path="url(#b)"><g transform="translate(-0.252 -0.334)"><path d="M21.462,8.533H21.24a.5.5,0,0,0-.1.076h0a8.726,8.726,0,0,1-7.068,2.757,1.495,1.495,0,0,0-1.557,1.493c0,1.188,0,3.179,0,5.016a8.531,8.531,0,0,0,3.809,7.1l4.9,3.254a.49.49,0,0,0,.052.031h.009a.5.5,0,0,0,.207.052h.031a.5.5,0,0,0,.207-.052h.009a.517.517,0,0,0,.052-.031l4.9-3.254a8.53,8.53,0,0,0,3.81-7.1V12.858a1.494,1.494,0,0,0-1.558-1.492A8.727,8.727,0,0,1,21.826,8.69h0a.5.5,0,0,0-.1-.076h-.26Zm0,1.21a9.693,9.693,0,0,1-7.473,2.7h0a.5.5,0,0,0-.517.5h0v5.014a7.533,7.533,0,0,0,3.364,6.274l4.63,3.076,4.63-3.076a7.533,7.533,0,0,0,3.364-6.274c0-1.836,0-3.825,0-5.014h0a.5.5,0,0,0-.517-.5h0a9.693,9.693,0,0,1-7.481-2.7Zm1.889,6.836V14.266a.486.486,0,0,0-.486-.486H20.059a.486.486,0,0,0-.486.486v2.313H17.26a.486.486,0,0,0-.486.486v2.806a.486.486,0,0,0,.486.486h2.313V22.67a.486.486,0,0,0,.486.486h2.806a.486.486,0,0,0,.486-.486V20.358h2.313a.486.486,0,0,0,.486-.486V17.065a.486.486,0,0,0-.486-.486Zm-.972.486a.486.486,0,0,0,.486.486h2.313v1.834H22.865a.486.486,0,0,0-.486.486v2.313H20.545V19.872a.486.486,0,0,0-.486-.486H17.746V17.551h2.313a.486.486,0,0,0,.486-.486V14.752h1.834Z" transform="translate(-6.263 -3.199)" fill="#94afd8" fill-rule="evenodd"/></g></g></svg>