<svg xmlns="http://www.w3.org/2000/svg" xmlns:xlink="http://www.w3.org/1999/xlink" width="30" height="30" viewBox="0 0 30 30"><defs><clipPath id="b"><rect width="30" height="30"/></clipPath></defs><g id="a" clip-path="url(#b)"><rect width="30" height="30" fill="#fff"/><g transform="translate(-203 -154)"><g transform="translate(214.569 174.142)"><path d="M25.242,29.067H18.193l3.525-3.525Z" transform="translate(-18.193 -25.542)" fill="none" stroke="#1b438b" stroke-width="1"/></g><g transform="translate(210 160)"><path d="M21.392,11.931a2.434,2.434,0,1,0,2.423,2.423,2.434,2.434,0,0,0-2.423-2.423M25.95,19a2.434,2.434,0,1,0,2.423,2.423A2.434,2.434,0,0,0,25.95,19m-9.115,0a10.483,10.483,0,1,1,.011.015m4.547-8.188a3.536,3.536,0,1,1-3.525,3.525A3.536,3.536,0,0,1,21.392,10.83ZM25.95,17.9a3.536,3.536,0,1,1-3.525,3.525A3.536,3.536,0,0,1,25.95,17.9Zm-9.115,0a3.536,3.536,0,1,1-3.525,3.525A3.536,3.536,0,0,1,16.834,17.9Z" transform="translate(-13.31 -10.83)" fill="#1b438b"/></g></g></g></svg>