<svg width="17" height="21" viewBox="0 0 17 21" fill="none" xmlns="http://www.w3.org/2000/svg">
<g id="noun-delete-5005296">
<g id="Path 1111">
<path fill-rule="evenodd" clip-rule="evenodd" d="M14.6877 3.33191H11.1312V2.69643C11.1301 1.75997 10.3712 1.0011 9.43474 1H7.59188C6.65542 1.0011 5.89655 1.75997 5.89545 2.69643V3.33191H2.33892C1.59989 3.33264 1.00091 3.93146 1 4.6705V5.37227C1.0005 5.74353 1.30134 6.04438 1.67261 6.04488H11.5225C11.7099 6.04492 11.8618 5.893 11.8618 5.70559C11.8618 5.51819 11.7099 5.36627 11.5225 5.36627L1.67855 5.37227V4.67054C1.67908 4.3061 1.97448 4.01084 2.33892 4.01049C5.98617 4.01192 11.0405 4.00987 14.6877 4.01049C15.0521 4.01085 15.3475 4.30608 15.3481 4.67051L15.354 5.36631H13.4744C13.287 5.36625 13.1351 5.51818 13.1351 5.70559C13.1351 5.89301 13.287 6.04493 13.4744 6.04493L13.9044 6.04487L13.3673 18.4169C13.3464 18.9232 12.9292 19.3226 12.4224 19.3214H4.60424C4.09746 19.3226 3.68025 18.9232 3.65927 18.4169L3.20666 7.98718C3.19865 7.79996 3.04034 7.65471 2.85313 7.66277C2.66591 7.67082 2.52066 7.82912 2.52872 8.01634L2.98136 18.446C3.01731 19.3158 3.73378 20.0018 4.60424 20H12.4224C13.2928 20.0017 14.0092 19.3157 14.0453 18.446L14.5835 6.04488H15.354C15.7253 6.04438 16.0261 5.74354 16.0267 5.37227V4.67052C16.0258 3.93147 15.4268 3.33262 14.6877 3.3319L14.6877 3.33191ZM10.4526 3.33191H6.57402V2.69643C6.57463 2.13454 7.02999 1.67919 7.59188 1.67857H9.43476C9.99665 1.67918 10.452 2.13453 10.4526 2.69643L10.4526 3.33191Z" fill="#1B438B"/>
<path d="M14.6877 3.33191V3.68191H14.8377L14.9411 3.57329L14.6877 3.33191ZM11.1312 3.33191H10.7812V3.68191H11.1312V3.33191ZM11.1312 2.69643L11.4812 2.69643L11.4812 2.69602L11.1312 2.69643ZM9.43474 1L9.43515 0.65H9.43474V1ZM7.59188 1L7.59188 0.65L7.59147 0.65L7.59188 1ZM5.89545 2.69643L5.54545 2.69602V2.69643H5.89545ZM5.89545 3.33191V3.68191H6.24545V3.33191H5.89545ZM2.33892 3.33191L2.33892 2.98191L2.33857 2.98191L2.33892 3.33191ZM1 4.6705L0.65 4.67007V4.6705H1ZM1 5.37227L0.65 5.37227L0.65 5.37274L1 5.37227ZM1.67261 6.04488L1.67214 6.39488H1.67261V6.04488ZM11.5225 6.04488L11.5225 5.69488H11.5225V6.04488ZM11.5225 5.36627L11.5225 5.01627L11.5222 5.01627L11.5225 5.36627ZM1.67855 5.37227H1.32855V5.72248L1.67876 5.72227L1.67855 5.37227ZM1.67855 4.67054L1.32855 4.67003V4.67054H1.67855ZM2.33892 4.01049L2.33906 3.66049L2.33858 3.66049L2.33892 4.01049ZM14.6877 4.01049L14.6881 3.66049L14.6878 3.66049L14.6877 4.01049ZM15.3481 4.67051L14.9981 4.67103L14.9981 4.67351L15.3481 4.67051ZM15.354 5.36631V5.71631H15.7071L15.704 5.36331L15.354 5.36631ZM13.4744 5.36631L13.4743 5.71631H13.4744V5.36631ZM13.4744 6.04493L13.4744 6.39493L13.4745 6.39493L13.4744 6.04493ZM13.9044 6.04487L14.254 6.06005L14.2699 5.69482L13.9043 5.69487L13.9044 6.04487ZM13.3673 18.4169L13.0177 18.4017L13.0176 18.4024L13.3673 18.4169ZM12.4224 19.3214L12.4232 18.9714H12.4224V19.3214ZM4.60424 19.3214L4.60424 18.9714L4.60343 18.9714L4.60424 19.3214ZM3.65927 18.4169L4.00897 18.4024L4.00894 18.4017L3.65927 18.4169ZM3.20666 7.98718L2.85698 8.00214L2.85699 8.00235L3.20666 7.98718ZM2.85313 7.66277L2.86817 8.01245L2.86818 8.01245L2.85313 7.66277ZM2.52872 8.01634L2.17904 8.03139L2.17905 8.03152L2.52872 8.01634ZM2.98136 18.446L3.33106 18.4316L3.33103 18.4309L2.98136 18.446ZM4.60424 20L4.60424 19.65L4.60351 19.65L4.60424 20ZM12.4224 20L12.4231 19.65H12.4224V20ZM14.0453 18.446L13.6956 18.4309L13.6956 18.4315L14.0453 18.446ZM14.5835 6.04488V5.69488H14.2484L14.2338 6.0297L14.5835 6.04488ZM15.354 6.04488L15.354 6.39488L15.3545 6.39488L15.354 6.04488ZM16.0267 5.37227L16.3767 5.37274V5.37227H16.0267ZM16.0267 4.67052L16.3767 4.67052L16.3767 4.67009L16.0267 4.67052ZM14.6877 3.3319L14.6881 2.9819L14.5378 2.98175L14.4343 3.09052L14.6877 3.3319ZM10.4526 3.33191V3.68191H10.8026L10.8026 3.33192L10.4526 3.33191ZM6.57402 3.33191H6.22402V3.68191H6.57402V3.33191ZM6.57402 2.69643L6.22402 2.69605V2.69643H6.57402ZM7.59188 1.67857L7.59188 1.32857L7.59149 1.32857L7.59188 1.67857ZM9.43476 1.67857L9.43514 1.32857H9.43476V1.67857ZM10.4526 2.69643L10.8026 2.69644L10.8026 2.69604L10.4526 2.69643ZM14.6877 2.98191H11.1312V3.68191H14.6877V2.98191ZM11.4812 3.33191V2.69643H10.7812V3.33191H11.4812ZM11.4812 2.69602C11.4798 1.56658 10.5646 0.651327 9.43515 0.65L9.43433 1.35C10.1778 1.35087 10.7803 1.95336 10.7812 2.69684L11.4812 2.69602ZM9.43474 0.65H7.59188V1.35H9.43474V0.65ZM7.59147 0.65C6.46203 0.651327 5.54678 1.56658 5.54545 2.69602L6.24545 2.69684C6.24632 1.95336 6.84881 1.35087 7.59229 1.35L7.59147 0.65ZM5.54545 2.69643V3.33191H6.24545V2.69643H5.54545ZM5.89545 2.98191H2.33892V3.68191H5.89545V2.98191ZM2.33857 2.98191C1.40655 2.98283 0.651148 3.73803 0.65 4.67007L1.35 4.67093C1.35067 4.12489 1.79323 3.68245 2.33927 3.68191L2.33857 2.98191ZM0.65 4.6705V5.37227H1.35V4.6705H0.65ZM0.65 5.37274C0.65076 5.93693 1.10793 6.39412 1.67214 6.39488L1.67308 5.69488C1.49475 5.69464 1.35024 5.55013 1.35 5.3718L0.65 5.37274ZM1.67261 6.39488H11.5225V5.69488H1.67261V6.39488ZM11.5224 6.39488C11.9032 6.39496 12.2118 6.08627 12.2118 5.70559H11.5118C11.5118 5.69973 11.5165 5.69488 11.5225 5.69488L11.5224 6.39488ZM12.2118 5.70559C12.2118 5.32489 11.9032 5.01627 11.5225 5.01627V5.71627C11.5166 5.71627 11.5118 5.71149 11.5118 5.70559H12.2118ZM11.5222 5.01627L1.67834 5.02227L1.67876 5.72227L11.5227 5.71627L11.5222 5.01627ZM2.02855 5.37227V4.67054H1.32855V5.37227H2.02855ZM2.02855 4.67105C2.0288 4.49957 2.16779 4.36065 2.33926 4.36049L2.33858 3.66049C1.78117 3.66103 1.32936 4.11263 1.32855 4.67003L2.02855 4.67105ZM2.33878 4.36049C5.98591 4.36192 11.0409 4.35987 14.6877 4.36049L14.6878 3.66049C11.04 3.65987 5.98643 3.66192 2.33906 3.66049L2.33878 4.36049ZM14.6874 4.36049C14.8588 4.36066 14.9978 4.49957 14.9981 4.67103L15.6981 4.66999C15.6973 4.11259 15.2455 3.66104 14.6881 3.66049L14.6874 4.36049ZM14.9981 4.67351L15.0041 5.36931L15.704 5.36331L15.6981 4.66751L14.9981 4.67351ZM15.354 5.01631H13.4744V5.71631H15.354V5.01631ZM13.4745 5.01631C13.0937 5.01619 12.7851 5.32491 12.7851 5.70559H13.4851C13.4851 5.71144 13.4803 5.71631 13.4743 5.71631L13.4745 5.01631ZM12.7851 5.70559C12.7851 6.08632 13.0937 6.39493 13.4744 6.39493V5.69493C13.4803 5.69493 13.4851 5.6997 13.4851 5.70559H12.7851ZM13.4745 6.39493L13.9044 6.39487L13.9043 5.69487L13.4744 5.69493L13.4745 6.39493ZM13.5547 6.02969L13.0177 18.4017L13.717 18.4321L14.254 6.06005L13.5547 6.02969ZM13.0176 18.4024C13.0044 18.7209 12.742 18.9722 12.4232 18.9714L12.4216 19.6714C13.1163 19.673 13.6883 19.1255 13.717 18.4314L13.0176 18.4024ZM12.4224 18.9714H4.60424V19.6714H12.4224V18.9714ZM4.60343 18.9714C4.28463 18.9722 4.02217 18.7209 4.00897 18.4024L3.30957 18.4314C3.33833 19.1255 3.91029 19.673 4.60505 19.6714L4.60343 18.9714ZM4.00894 18.4017L3.55633 7.97201L2.85699 8.00235L3.3096 18.4321L4.00894 18.4017ZM3.55634 7.97222C3.54006 7.5918 3.21841 7.29672 2.83808 7.31309L2.86818 8.01245C2.86227 8.0127 2.85724 8.00812 2.85698 8.00214L3.55634 7.97222ZM2.83809 7.31309C2.45776 7.32945 2.16267 7.65103 2.17904 8.03139L2.8784 8.00129C2.87865 8.00721 2.87406 8.01219 2.86817 8.01245L2.83809 7.31309ZM2.17905 8.03152L2.63169 18.4612L3.33103 18.4309L2.87839 8.00116L2.17905 8.03152ZM2.63166 18.4605C2.67537 19.518 3.54655 20.3522 4.60497 20.35L4.60351 19.65C3.92101 19.6514 3.35925 19.1135 3.33106 18.4316L2.63166 18.4605ZM4.60424 20.35H12.4224V19.65H4.60424V20.35ZM12.4217 20.35C13.4801 20.3521 14.3511 19.518 14.395 18.4605L13.6956 18.4315C13.6673 19.1134 13.1056 19.6513 12.4231 19.65L12.4217 20.35ZM14.3949 18.4612L14.9332 6.06006L14.2338 6.0297L13.6956 18.4309L14.3949 18.4612ZM14.5835 6.39488H15.354V5.69488H14.5835V6.39488ZM15.3545 6.39488C15.9187 6.39412 16.3759 5.93695 16.3767 5.37274L15.6767 5.3718C15.6764 5.55013 15.5319 5.69464 15.3536 5.69488L15.3545 6.39488ZM16.3767 5.37227V4.67052H15.6767V5.37227H16.3767ZM16.3767 4.67009C16.3755 3.73805 15.6201 2.98281 14.6881 2.9819L14.6874 3.6819C15.2334 3.68243 15.676 4.12489 15.6767 4.67095L16.3767 4.67009ZM14.4343 3.09052L14.4343 3.09053L14.9411 3.57329L14.9412 3.57328L14.4343 3.09052ZM10.4526 2.98191H6.57402V3.68191H10.4526V2.98191ZM6.92402 3.33191V2.69643H6.22402V3.33191H6.92402ZM6.92402 2.69681C6.92442 2.32793 7.22337 2.02898 7.59227 2.02857L7.59149 1.32857C6.83661 1.3294 6.22484 1.94115 6.22402 2.69605L6.92402 2.69681ZM7.59188 2.02857H9.43476V1.32857H7.59188V2.02857ZM9.43438 2.02857C9.80326 2.02897 10.1022 2.32791 10.1026 2.69682L10.8026 2.69604C10.8018 1.94115 10.19 1.32939 9.43514 1.32857L9.43438 2.02857ZM10.1026 2.69642L10.1026 3.3319L10.8026 3.33192L10.8026 2.69644L10.1026 2.69642Z" fill="#1B438B"/>
</g>
<path id="Path 1112" fill-rule="evenodd" clip-rule="evenodd" d="M5.83869 16.8771C5.93125 16.8772 6.01982 16.8394 6.08388 16.7726C6.14794 16.7058 6.18193 16.6157 6.17798 16.5233L5.84333 8.81377C5.83535 8.62653 5.67703 8.48128 5.48979 8.48933C5.30255 8.49739 5.1573 8.65571 5.16536 8.84295L5.50008 16.5524C5.5079 16.7338 5.65712 16.8769 5.83869 16.8771Z" fill="#1B438B" stroke="#1B438B" stroke-width="0.7"/>
<path id="Path 1113" fill-rule="evenodd" clip-rule="evenodd" d="M11.5273 16.5524L11.862 8.84293C11.8701 8.65569 11.7249 8.49738 11.5376 8.48933C11.3504 8.48128 11.1921 8.62654 11.184 8.81378L10.8494 16.5232C10.8413 16.7105 10.9866 16.8688 11.1738 16.8769C11.361 16.8849 11.5194 16.7397 11.5274 16.5524L11.5273 16.5524Z" fill="#1B438B" stroke="#1B438B" stroke-width="0.7"/>
<path id="Path 1114" fill-rule="evenodd" clip-rule="evenodd" d="M9.17397 16.5378V8.82835C9.17407 8.64094 8.95021 8.48901 8.67408 8.48901C8.39794 8.48901 8.17407 8.64095 8.17407 8.82837L8.17418 16.5378C8.17407 16.7253 8.39794 16.8772 8.67408 16.8772C8.95022 16.8772 9.17407 16.7253 9.17407 16.5379L9.17397 16.5378Z" fill="#1B438B" stroke="#1B438B" stroke-width="0.7"/>
</g>
</svg>
