<svg width="31" height="31" viewBox="0 0 31 31" fill="none" xmlns="http://www.w3.org/2000/svg">
<g id="Group 1226">
<g id="noun-three-dots-4375739">
<g id="Group 398">
<path id="Path 1105" fill-rule="evenodd" clip-rule="evenodd" d="M17.5782 15.2453C17.5782 13.981 16.5534 12.9562 15.2891 12.9562C14.0249 12.9562 13 13.981 13 15.2453C13 16.5095 14.0249 17.5344 15.2891 17.5344C16.5529 17.5333 17.5772 16.5091 17.5782 15.2453ZM13.9374 15.2453C13.9374 14.4987 14.5426 13.8935 15.2891 13.8935C16.0357 13.8935 16.6408 14.4987 16.6408 15.2453C16.6408 15.9918 16.0357 16.597 15.2891 16.597C14.543 16.5959 13.9384 15.9914 13.9374 15.2453ZM17.5782 21.2014C17.5762 19.9377 16.5504 18.9147 15.2866 18.9161C14.0229 18.9175 12.9993 19.9427 13 21.2064C13.0007 22.4702 14.0254 23.4943 15.2891 23.4943C16.5542 23.4927 17.5787 22.4665 17.5782 21.2014V21.2014ZM13.9374 21.2014C13.9395 20.4554 14.5456 19.8521 15.2916 19.8535C16.0377 19.8548 16.6415 20.4604 16.6408 21.2064C16.6401 21.9524 16.0352 22.5569 15.2891 22.5569C14.5416 22.5558 13.9364 21.949 13.9374 21.2014V21.2014ZM17.5782 9.2891C17.5782 8.02486 16.5534 7 15.2891 7C14.0249 7 13 8.02486 13 9.2891C13 10.5533 14.0249 11.5782 15.2891 11.5782C16.5529 11.5772 17.5772 10.5529 17.5782 9.2891ZM13.9374 9.2891C13.9374 8.54257 14.5426 7.93739 15.2891 7.93739C16.0357 7.93739 16.6408 8.54257 16.6408 9.2891C16.6408 10.0356 16.0357 10.6408 15.2891 10.6408C14.543 10.6398 13.9384 10.0352 13.9374 9.2891Z" fill="#1B438B"/>
</g>
</g>
</g>
</svg>
