<svg width="43" height="44" viewBox="0 0 43 44" fill="none" xmlns="http://www.w3.org/2000/svg">
<g id="Group 1161">
<g id="Group 1160">
<path id="Path 1590" fill-rule="evenodd" clip-rule="evenodd" d="M21.5 0.5C33.3741 0.5 43 10.1259 43 22C43 33.8741 33.3741 43.5 21.5 43.5C9.62588 43.5 0 33.8741 0 22C0 10.1259 9.62588 0.5 21.5 0.5Z" fill="white"/>
<g id="satellite-dish 1 (1)">
<g id="Path 1591">
<path fill-rule="evenodd" clip-rule="evenodd" d="M21.8852 21.205L22.7139 20.3765C23.0289 20.5457 23.3886 20.6418 23.7705 20.6418C25.0066 20.6418 26.0122 19.6363 26.0122 18.4002C26.0122 17.1642 25.0065 16.1585 23.7705 16.1585C22.5345 16.1585 21.5288 17.1642 21.5288 18.4002C21.5288 18.7819 21.6251 19.1417 21.7941 19.4566L20.9654 20.2853L15.0319 14.3516C14.9099 14.2297 14.7444 14.161 14.5719 14.161C14.3995 14.161 14.234 14.2297 14.112 14.3516C12.7396 15.7241 12.1931 17.7373 12.5736 20.0204C12.8435 21.6401 13.5618 23.2614 14.6394 24.723L12.0418 31.6204C11.9665 31.8203 11.994 32.0443 12.1155 32.2198C12.2371 32.3954 12.4369 32.5002 12.6504 32.5002H21.7559C21.9727 32.5002 22.175 32.3923 22.2958 32.2124C22.4166 32.0327 22.44 31.8045 22.3581 31.6038L21.4831 29.46C21.7051 29.5138 21.9277 29.5598 22.1502 29.5968C22.6241 29.6758 23.0863 29.7148 23.5338 29.7148C25.2413 29.7148 26.7312 29.1461 27.8187 28.0586C27.9407 27.9366 28.0094 27.7711 28.0094 27.5987C28.0094 27.4262 27.9409 27.2607 27.8187 27.1388L21.8852 21.205ZM23.7706 17.4595C24.2894 17.4595 24.7113 17.8814 24.7113 18.4002C24.7113 18.9189 24.2894 19.3408 23.7706 19.3408C23.2519 19.3408 22.8298 18.9189 22.8298 18.4002C22.8298 17.8814 23.2519 17.4595 23.7706 17.4595ZM22.364 28.3135C20.4265 27.9907 18.4713 26.9248 16.8584 25.312C15.2458 23.6993 14.1798 21.744 13.8569 19.8064C13.5921 18.2183 13.8589 16.8105 14.6091 15.7685L26.4019 27.5613C25.3598 28.3115 23.9521 28.5782 22.364 28.3135V28.3135ZM20.7879 31.1992H13.5904L15.5954 25.8757C15.7072 25.996 15.8216 26.1149 15.9385 26.2318C17.1112 27.4045 18.4545 28.3197 19.8564 28.9174L20.7879 31.1992Z" fill="#1B438B"/>
<path d="M21.8852 21.205L21.7792 21.099L21.6731 21.205L21.7791 21.3111L21.8852 21.205ZM22.7139 20.3765L22.7849 20.2443L22.6867 20.1916L22.6079 20.2704L22.7139 20.3765ZM21.7941 19.4566L21.9002 19.5627L21.979 19.4839L21.9263 19.3857L21.7941 19.4566ZM20.9654 20.2853L20.8593 20.3914L20.9654 20.4975L21.0714 20.3914L20.9654 20.2853ZM15.0319 14.3516L15.1379 14.2456L15.1379 14.2456L15.0319 14.3516ZM14.112 14.3516L14.2181 14.4577L14.2181 14.4577L14.112 14.3516ZM12.5736 20.0204L12.4256 20.045L12.4256 20.045L12.5736 20.0204ZM14.6394 24.723L14.7798 24.7758L14.8085 24.6996L14.7601 24.634L14.6394 24.723ZM12.0418 31.6204L12.1822 31.6733L12.1822 31.6733L12.0418 31.6204ZM12.1155 32.2198L11.9921 32.3052L11.9922 32.3053L12.1155 32.2198ZM22.2958 32.2124L22.1713 32.1286L22.1713 32.1287L22.2958 32.2124ZM22.3581 31.6038L22.497 31.5472L22.497 31.5471L22.3581 31.6038ZM21.4831 29.46L21.5185 29.3142L21.2334 29.2451L21.3443 29.5167L21.4831 29.46ZM22.1502 29.5968L22.1748 29.4488L22.1748 29.4488L22.1502 29.5968ZM27.8187 28.0586L27.7127 27.9525L27.7127 27.9525L27.8187 28.0586ZM27.8187 27.1388L27.7127 27.2448L27.7128 27.2449L27.8187 27.1388ZM22.364 28.3135L22.3394 28.4615L22.514 28.4906V28.3135H22.364ZM16.8584 25.312L16.7523 25.418L16.7523 25.418L16.8584 25.312ZM13.8569 19.8064L14.0048 19.7817L14.0048 19.7817L13.8569 19.8064ZM14.6091 15.7685L14.7152 15.6625L14.5904 15.5377L14.4874 15.6809L14.6091 15.7685ZM26.4019 27.5613L26.4895 27.683L26.6327 27.5799L26.5079 27.4552L26.4019 27.5613ZM22.364 28.3135L22.3887 28.1655L22.214 28.1364V28.3135H22.364ZM20.7879 31.1992V31.3492H21.0112L20.9268 31.1425L20.7879 31.1992ZM13.5904 31.1992L13.4501 31.1463L13.3736 31.3492H13.5904V31.1992ZM15.5954 25.8757L15.7053 25.7736L15.5404 25.5962L15.4551 25.8229L15.5954 25.8757ZM15.9385 26.2318L16.0446 26.1258L16.0446 26.1257L15.9385 26.2318ZM19.8564 28.9174L19.9953 28.8607L19.972 28.8036L19.9153 28.7795L19.8564 28.9174ZM21.9913 21.3111L22.82 20.4825L22.6079 20.2704L21.7792 21.099L21.9913 21.3111ZM22.643 20.5086C22.9791 20.6892 23.3632 20.7918 23.7705 20.7918V20.4918C23.4141 20.4918 23.0786 20.4021 22.7849 20.2443L22.643 20.5086ZM23.7705 20.7918C25.0894 20.7918 26.1622 19.7191 26.1622 18.4002H25.8622C25.8622 19.5534 24.9237 20.4918 23.7705 20.4918V20.7918ZM26.1622 18.4002C26.1622 17.0813 25.0894 16.0085 23.7705 16.0085V16.3085C24.9237 16.3085 25.8622 17.247 25.8622 18.4002H26.1622ZM23.7705 16.0085C22.4516 16.0085 21.3788 17.0813 21.3788 18.4002H21.6788C21.6788 17.247 22.6173 16.3085 23.7705 16.3085V16.0085ZM21.3788 18.4002C21.3788 18.8074 21.4816 19.1915 21.6619 19.5275L21.9263 19.3857C21.7686 19.0919 21.6788 18.7564 21.6788 18.4002H21.3788ZM21.688 19.3505L20.8593 20.1793L21.0714 20.3914L21.9002 19.5627L21.688 19.3505ZM21.0714 20.1793L15.1379 14.2456L14.9258 14.4577L20.8593 20.3914L21.0714 20.1793ZM15.1379 14.2456C14.9879 14.0955 14.7843 14.011 14.5719 14.011V14.311C14.7046 14.311 14.8319 14.3638 14.9258 14.4577L15.1379 14.2456ZM14.5719 14.011C14.3596 14.011 14.156 14.0955 14.0059 14.2456L14.2181 14.4577C14.312 14.3638 14.4393 14.311 14.5719 14.311V14.011ZM14.0059 14.2456C12.5924 15.6591 12.039 17.7246 12.4256 20.045L12.7215 19.9957C12.3473 17.75 12.8867 15.789 14.2181 14.4577L14.0059 14.2456ZM12.4256 20.045C12.6999 21.6909 13.4288 23.3338 14.5187 24.812L14.7601 24.634C13.6947 23.1889 12.9871 21.5893 12.7215 19.9957L12.4256 20.045ZM14.499 24.6701L11.9015 31.5676L12.1822 31.6733L14.7798 24.7758L14.499 24.6701ZM11.9015 31.5675C11.8088 31.8134 11.8426 32.0891 11.9921 32.3052L12.2388 32.1345C12.1454 31.9994 12.1242 31.8272 12.1822 31.6733L11.9015 31.5675ZM11.9922 32.3053C12.1418 32.5211 12.3876 32.6502 12.6504 32.6502V32.3502C12.4862 32.3502 12.3325 32.2696 12.2388 32.1344L11.9922 32.3053ZM12.6504 32.6502H21.7559V32.3502H12.6504V32.6502ZM21.7559 32.6502C22.0227 32.6502 22.2717 32.5174 22.4203 32.296L22.1713 32.1287C22.0783 32.2672 21.9227 32.3502 21.7559 32.3502V32.6502ZM22.4203 32.2961C22.569 32.0749 22.5977 31.794 22.497 31.5472L22.2192 31.6605C22.2822 31.8149 22.2642 31.9905 22.1713 32.1286L22.4203 32.2961ZM22.497 31.5471L21.622 29.4033L21.3443 29.5167L22.2193 31.6605L22.497 31.5471ZM21.4478 29.6057C21.673 29.6604 21.8992 29.7072 22.1256 29.7448L22.1748 29.4488C21.9562 29.4125 21.7371 29.3672 21.5185 29.3142L21.4478 29.6057ZM22.1255 29.7448C22.6071 29.8251 23.0776 29.8648 23.5338 29.8648V29.5648C23.095 29.5648 22.641 29.5266 22.1748 29.4488L22.1255 29.7448ZM23.5338 29.8648C25.2755 29.8648 26.8055 29.284 27.9248 28.1647L27.7127 27.9525C26.657 29.0082 25.2071 29.5648 23.5338 29.5648V29.8648ZM27.9248 28.1647C28.0749 28.0146 28.1594 27.811 28.1594 27.5987H27.8594C27.8594 27.7313 27.8066 27.8586 27.7127 27.9525L27.9248 28.1647ZM28.1594 27.5987C28.1594 27.3865 28.0751 27.1827 27.9247 27.0326L27.7128 27.2449C27.8067 27.3386 27.8594 27.466 27.8594 27.5987H28.1594ZM27.9248 27.0327L21.9913 21.099L21.7791 21.3111L27.7127 27.2448L27.9248 27.0327ZM23.7706 17.6095C24.2065 17.6095 24.5613 17.9643 24.5613 18.4002H24.8613C24.8613 17.7986 24.3722 17.3095 23.7706 17.3095V17.6095ZM24.5613 18.4002C24.5613 18.8361 24.2065 19.1908 23.7706 19.1908V19.4908C24.3722 19.4908 24.8613 19.0017 24.8613 18.4002H24.5613ZM23.7706 19.1908C23.3347 19.1908 22.9798 18.836 22.9798 18.4002H22.6798C22.6798 19.0018 23.1691 19.4908 23.7706 19.4908V19.1908ZM22.9798 18.4002C22.9798 17.9643 23.3347 17.6095 23.7706 17.6095V17.3095C23.1691 17.3095 22.6798 17.7986 22.6798 18.4002H22.9798ZM22.3887 28.1655C20.4868 27.8487 18.5589 26.8003 16.9645 25.2059L16.7523 25.418C18.3836 27.0492 20.3662 28.1327 22.3394 28.4615L22.3887 28.1655ZM16.9645 25.2059C15.3703 23.6116 14.3219 21.6838 14.0048 19.7817L13.7089 19.831C14.0378 21.8043 15.1213 23.7869 16.7523 25.418L16.9645 25.2059ZM14.0048 19.7817C13.745 18.2231 14.0093 16.8584 14.7308 15.8562L14.4874 15.6809C13.7085 16.7627 13.4392 18.2135 13.7089 19.831L14.0048 19.7817ZM14.503 15.8746L26.2958 27.6673L26.5079 27.4552L14.7152 15.6625L14.503 15.8746ZM26.3142 27.4395C25.312 28.1611 23.9473 28.4254 22.3887 28.1655L22.3394 28.4615C23.9568 28.7311 25.4077 28.4619 26.4895 27.683L26.3142 27.4395ZM22.214 28.3135V28.3135H22.514V28.3135H22.214ZM20.7879 31.0492H13.5904V31.3492H20.7879V31.0492ZM13.7308 31.2521L15.7358 25.9286L15.4551 25.8229L13.4501 31.1463L13.7308 31.2521ZM15.4856 25.9779C15.5985 26.0994 15.7141 26.2196 15.8325 26.3379L16.0446 26.1257C15.929 26.0102 15.8159 25.8927 15.7053 25.7736L15.4856 25.9779ZM15.8325 26.3379C17.0178 27.5233 18.3769 28.4497 19.7976 29.0554L19.9153 28.7795C18.5321 28.1897 17.2046 27.2858 16.0446 26.1258L15.8325 26.3379ZM19.7175 28.9741L20.649 31.2559L20.9268 31.1425L19.9953 28.8607L19.7175 28.9741Z" fill="white"/>
</g>
<path id="Path 1592" fill-rule="evenodd" clip-rule="evenodd" d="M23.7706 14.27C23.4113 14.27 23.12 14.5611 23.12 14.9204C23.12 15.2797 23.4113 15.5708 23.7706 15.5708C25.7946 15.5708 27.4413 17.2175 27.4413 19.2416C27.4413 19.6008 27.7324 19.8921 28.0917 19.8921C28.451 19.8921 28.7421 19.6008 28.7421 19.2416C28.7421 16.5001 26.5119 14.27 23.7706 14.27V14.27Z" fill="#1B438B" stroke="white" stroke-width="0.3"/>
<path id="Path 1593" fill-rule="evenodd" clip-rule="evenodd" d="M23.7706 11.5C23.4113 11.5 23.12 11.7913 23.12 12.1504C23.12 12.5097 23.4113 12.801 23.7706 12.801C27.322 12.801 30.2114 15.6903 30.2114 19.2418C30.2114 19.601 30.5027 19.8923 30.8617 19.8923C31.221 19.8923 31.5123 19.601 31.5123 19.2418C31.5123 14.9729 28.0394 11.5 23.7706 11.5V11.5Z" fill="#1B438B" stroke="white" stroke-width="0.3"/>
</g>
</g>
</g>
</svg>
