<svg width="60" height="61" viewBox="0 0 60 61" fill="none" xmlns="http://www.w3.org/2000/svg">
<g id="noun-done-3483440">
<g id="Group 517">
<path id="Path 1200" fill-rule="evenodd" clip-rule="evenodd" d="M56.6546 25.1357C55.2068 25.2761 54.1452 26.5571 54.2856 28.0048C54.3645 28.7945 54.3996 29.5929 54.3996 30.3914C54.3996 43.9387 43.3793 54.9589 29.8321 54.9589C16.2848 54.9589 5.26449 43.9387 5.26449 30.3914C5.26449 16.8441 16.2848 5.82381 29.8321 5.82381C33.4295 5.82381 36.8952 6.58716 40.1329 8.07877C41.449 8.69296 43.0196 8.11387 43.625 6.79774C44.2392 5.48162 43.6601 3.91106 42.344 3.30564C38.4044 1.48062 34.2016 0.559326 29.8321 0.559326C13.3806 0.559326 0 13.9399 0 30.3914C0 46.8429 13.3805 60.2234 29.8321 60.2234C46.2836 60.2234 59.6641 46.8429 59.6641 30.3914C59.6641 29.4262 59.6202 28.4523 59.5237 27.5047C59.3834 26.057 58.1023 25.0041 56.6546 25.1357H56.6546Z" fill="#00AB44"/>
<path id="Path 1201" fill-rule="evenodd" clip-rule="evenodd" d="M28.1033 33.7174L19.4081 25.0222C18.3816 23.9956 16.7145 23.9956 15.6879 25.0222C14.6613 26.0488 14.6613 27.7159 15.6879 28.7424L26.2168 39.2714C26.7257 39.7891 27.4014 40.0435 28.077 40.0435C28.735 40.0435 29.4018 39.7979 29.9108 39.2977L58.8654 11.2205C59.9096 10.2115 59.9359 8.54438 58.9268 7.50026C57.9178 6.45614 56.2507 6.42983 55.2066 7.44761L28.1033 33.7174Z" fill="#00AB44"/>
</g>
</g>
</svg>
