<svg xmlns="http://www.w3.org/2000/svg" width="15.25" height="15.25" viewBox="0 0 15.25 15.25"><path d="M7.605,7.605v4.013h4.013V7.605ZM6.8,6h5.618a.8.8,0,0,1,.8.8v5.618a.8.8,0,0,1-.8.8H6.8a.8.8,0,0,1-.8-.8V6.8A.8.8,0,0,1,6.8,6Z" transform="translate(-6 -6)" fill="#1b438b" fill-rule="evenodd"/><path d="M18.605,7.605v4.013h4.013V7.605ZM17.8,6h5.618a.8.8,0,0,1,.8.8v5.618a.8.8,0,0,1-.8.8H17.8a.8.8,0,0,1-.8-.8V6.8A.8.8,0,0,1,17.8,6Z" transform="translate(-8.974 -6)" fill="#1b438b" fill-rule="evenodd"/><path d="M18.605,18.605v4.013h4.013V18.605ZM17.8,17h5.618a.8.8,0,0,1,.8.8v5.618a.8.8,0,0,1-.8.8H17.8a.8.8,0,0,1-.8-.8V17.8A.8.8,0,0,1,17.8,17Z" transform="translate(-8.974 -8.974)" fill="#1b438b" fill-rule="evenodd"/><path d="M7.605,18.605v4.013h4.013V18.605ZM6.8,17h5.618a.8.8,0,0,1,.8.8v5.618a.8.8,0,0,1-.8.8H6.8a.8.8,0,0,1-.8-.8V17.8A.8.8,0,0,1,6.8,17Z" transform="translate(-6 -8.974)" fill="#1b438b" fill-rule="evenodd"/></svg>