<svg xmlns="http://www.w3.org/2000/svg" xmlns:xlink="http://www.w3.org/1999/xlink" width="30" height="30" viewBox="0 0 30 30"><defs><clipPath id="b"><rect width="30" height="30"/></clipPath></defs><g id="a" clip-path="url(#b)"><rect width="30" height="30" fill="#fff"/><g transform="translate(4.051 -41.456)"><g transform="translate(1.949 48.456)"><path d="M52.172,49.664v3.708a4.394,4.394,0,0,1-.007.578c.007-.049.013-.1.02-.145a.731.731,0,0,1-.047.163l.054-.131a.944.944,0,0,1-.051.094c-.051.087.033-.047.036-.044s-.036.04-.04.044l-.034.033c-.042.044.116-.076.044-.034a1.171,1.171,0,0,1-.105.056l.131-.054a.731.731,0,0,1-.163.047l.145-.02a2.077,2.077,0,0,1-.281.007H50.685l.544.544V51.718a.551.551,0,0,0-.544-.544H40.056c-.488,0-.975-.007-1.463,0h-.02a.551.551,0,0,0-.544.544V54.51l.544-.544H37.385a2.077,2.077,0,0,1-.281-.007l.145.02a.731.731,0,0,1-.163-.047l.131.054a.943.943,0,0,1-.094-.051c-.087-.051.047.033.044.036s-.04-.036-.044-.04L37.09,53.9c-.044-.042.076.116.034.044a1.168,1.168,0,0,1-.056-.105l.054.131a.731.731,0,0,1-.047-.163c.007.049.013.1.02.145a3.7,3.7,0,0,1-.007-.491V50.151a4.562,4.562,0,0,1,.007-.589c-.007.049-.013.1-.02.145a.731.731,0,0,1,.047-.163l-.054.131a.943.943,0,0,1,.051-.094c.051-.087-.033.047-.036.044s.036-.04.04-.044l.034-.033c.042-.044-.116.076-.044.034a1.171,1.171,0,0,1,.105-.056l-.131.054a.731.731,0,0,1,.163-.047l-.145.02a3.829,3.829,0,0,1,.479-.007H52.034a.884.884,0,0,1,.12.007l-.145-.02a.731.731,0,0,1,.163.047l-.131-.054a.942.942,0,0,1,.094.051c.087.051-.047-.033-.044-.036s.04.036.044.04l.033.034c.044.042-.076-.116-.034-.044a1.17,1.17,0,0,1,.056.105l-.054-.131a.731.731,0,0,1,.047.163c-.007-.049-.013-.1-.02-.145a.6.6,0,0,1,.009.1.544.544,0,1,0,1.088,0,1.246,1.246,0,0,0-.328-.827,1.208,1.208,0,0,0-.778-.373,1.36,1.36,0,0,0-.149-.007H38.279c-.352,0-.705,0-1.057,0a1.256,1.256,0,0,0-.825.314,1.22,1.22,0,0,0-.4.926v4.132a1.236,1.236,0,0,0,.544,1.03,1.418,1.418,0,0,0,.843.2h1.188a.551.551,0,0,0,.544-.544V51.722l-.544.544H49.2c.488,0,.975.011,1.463,0h.02l-.544-.544v2.792a.551.551,0,0,0,.544.544H52a1.227,1.227,0,0,0,1.135-.669,1.527,1.527,0,0,0,.129-.664V49.666a.545.545,0,0,0-1.09,0Z" transform="translate(-36 -48.456)" fill="#1b438b"/><g transform="translate(2.036 13.295)"><path d="M160.405,782.323V783.9a2.08,2.08,0,0,1-.007.281c.007-.049.013-.1.02-.145a.732.732,0,0,1-.047.163l.054-.131a.944.944,0,0,1-.051.094c-.051.087.033-.047.036-.044s-.036.04-.04.044l-.034.033c-.042.043.116-.076.044-.034a1.177,1.177,0,0,1-.105.056l.131-.054a.734.734,0,0,1-.163.047l.145-.02a2.765,2.765,0,0,1-.368.007H150.8c-.426,0-.854,0-1.28,0a.757.757,0,0,1-.112-.007l.145.02a.734.734,0,0,1-.163-.047l.131.054a.936.936,0,0,1-.094-.051c-.087-.051.047.033.044.036s-.04-.036-.044-.04l-.033-.034c-.044-.042.076.116.034.044a1.171,1.171,0,0,1-.056-.105l.054.131a.73.73,0,0,1-.047-.163c.007.049.013.1.02.145a4.894,4.894,0,0,1-.007-.653v-1.206H148.3a1.226,1.226,0,0,0,1.206,1.208h10.765a1.207,1.207,0,0,0,1.227-1.208.549.549,0,0,0-.544-.544.559.559,0,0,0-.549.546.889.889,0,0,1-.007.1c.007-.049.013-.1.02-.145a.732.732,0,0,1-.047.163l.054-.131a.944.944,0,0,1-.051.094c-.051.087.033-.047.036-.044s-.036.04-.04.044l-.034.033c-.042.043.116-.076.044-.034-.034.02-.069.04-.105.056l.131-.054a.734.734,0,0,1-.163.047l.145-.02a2.765,2.765,0,0,1-.368.007H150.8c-.426,0-.854,0-1.28,0a.757.757,0,0,1-.112-.007l.145.02a.734.734,0,0,1-.163-.047l.131.054a.949.949,0,0,1-.094-.051c-.087-.051.047.033.044.036s-.04-.036-.044-.04l-.033-.034c-.044-.042.076.116.034.044a1.179,1.179,0,0,1-.056-.105l.054.13a.73.73,0,0,1-.047-.163c.007.049.013.1.02.145a.919.919,0,0,1-.007-.1.544.544,0,0,0-1.088,0v1.664a1.37,1.37,0,0,0,.06.469,1.224,1.224,0,0,0,.852.8,1.759,1.759,0,0,0,.413.036h10.646a1.234,1.234,0,0,0,1.173-.843,2.816,2.816,0,0,0,.056-.89v-1.231a.548.548,0,0,0-1.1,0Z" transform="translate(-148.3 -781.776)" fill="#1b438b"/></g><g transform="translate(2.035 2.713)"><path d="M160.362,198.673v9.311c0,.417,0,.836,0,1.253a.779.779,0,0,1-.007.112c.007-.049.013-.1.02-.145a.732.732,0,0,1-.047.163l.054-.131a.941.941,0,0,1-.051.094c-.051.087.033-.047.036-.044s-.036.04-.04.044l-.034.033c-.042.044.116-.076.044-.034a1.169,1.169,0,0,1-.105.056l.131-.054a.731.731,0,0,1-.163.047l.145-.02a2.775,2.775,0,0,1-.368.007h-9.223c-.426,0-.854,0-1.28,0a.765.765,0,0,1-.112-.007l.145.02a.73.73,0,0,1-.163-.047l.131.054a.939.939,0,0,1-.094-.051c-.087-.051.047.033.043.036s-.04-.036-.043-.04l-.033-.034c-.044-.042.076.116.034.044a1.168,1.168,0,0,1-.056-.105l.054.131a.731.731,0,0,1-.047-.163c.007.049.013.1.02.145a2.656,2.656,0,0,1-.007-.361v-9c0-.431.011-.865,0-1.3v-.018l-.544.544h10.63c.488,0,.975.007,1.463,0h.02a.544.544,0,1,0,0-1.088h-10.63c-.488,0-.975-.007-1.463,0h-.02a.551.551,0,0,0-.544.544v10.372c0,.069,0,.136,0,.2a1.223,1.223,0,0,0,1.213,1.207c.256,0,.513,0,.769,0h9.781c.074,0,.149,0,.223,0a1.224,1.224,0,0,0,1.211-1.209c0-.247,0-.495,0-.742v-9.835a.55.55,0,0,0-.544-.544A.562.562,0,0,0,160.362,198.673Z" transform="translate(-148.256 -198.122)" fill="#1b438b"/></g><g transform="translate(8.093 5.778)"><g transform="translate(0 0)"><path d="M482.4,367.721v5.5a.544.544,0,0,0,1.088,0v-5.5a.544.544,0,0,0-1.088,0Z" transform="translate(-482.4 -367.177)" fill="#1b438b"/></g></g><g transform="translate(5.5 5.78)"><g transform="translate(0 0)"><path d="M340.3,370.791l.874-.874,1.394-1.394.323-.323h-.769l.872.872,1.4,1.4.319.319a.544.544,0,1,0,.769-.769l-.872-.872-1.4-1.4-.319-.319a.551.551,0,0,0-.769,0l-.874.874-1.394,1.394-.323.323a.544.544,0,0,0,.769.769Z" transform="translate(-339.372 -367.275)" fill="#1b438b"/></g></g></g></g></g></svg>