<svg width="13" height="13" viewBox="0 0 13 13" fill="none" xmlns="http://www.w3.org/2000/svg">
<g id="Group 491">
<g id="Group 491_2">
<path id="Path 1191" fill-rule="evenodd" clip-rule="evenodd" d="M3.23298 0.95264C3.23298 0.42652 2.80647 0 2.28034 0H0.95264C0.42651 0 0 0.42651 0 0.95264V2.28034C0 2.80646 0.42651 3.23299 0.95264 3.23299H2.28034C2.80647 3.23299 3.23298 2.80646 3.23298 2.28034V0.95264Z" fill="white"/>
<path id="Path 1192" fill-rule="evenodd" clip-rule="evenodd" d="M3.23298 5.61464C3.23298 5.08853 2.80647 4.662 2.28034 4.662H0.95264C0.42651 4.662 0 5.08853 0 5.61464V6.94235C0 7.46846 0.42651 7.89499 0.95264 7.89499H2.28034C2.80647 7.89499 3.23298 7.46846 3.23298 6.94235V5.61464Z" fill="white"/>
<path id="Path 1193" fill-rule="evenodd" clip-rule="evenodd" d="M3.23298 10.1407C3.23298 9.61452 2.80647 9.188 2.28034 9.188H0.95264C0.42651 9.188 0 9.61451 0 10.1407V11.4683C0 11.9945 0.42651 12.421 0.95264 12.421H2.28034C2.80647 12.421 3.23298 11.9945 3.23298 11.4683V10.1407Z" fill="white"/>
<path id="Path 1194" fill-rule="evenodd" clip-rule="evenodd" d="M12.9996 1.63221C12.9996 1.10687 12.5737 0.681 12.0484 0.681H5.6812C5.15586 0.681 4.72998 1.10687 4.72998 1.63221V1.63555C4.72998 2.16089 5.15585 2.58675 5.6812 2.58675H12.0484C12.5737 2.58675 12.9996 2.16088 12.9996 1.63555V1.63221Z" fill="white"/>
<path id="Path 1195" fill-rule="evenodd" clip-rule="evenodd" d="M12.9996 6.26024C12.9996 5.73488 12.5737 5.30901 12.0484 5.30901H5.6812C5.15586 5.30901 4.72998 5.73488 4.72998 6.26024V6.26354C4.72998 6.7889 5.15585 7.21477 5.6812 7.21477H12.0484C12.5737 7.21477 12.9996 6.7889 12.9996 6.26354V6.26024Z" fill="white"/>
<path id="Path 1196" fill-rule="evenodd" clip-rule="evenodd" d="M12.9996 10.7862C12.9996 10.2609 12.5737 9.83501 12.0484 9.83501H5.6812C5.15586 9.83501 4.72998 10.2609 4.72998 10.7862V10.7896C4.72998 11.3149 5.15585 11.7408 5.6812 11.7408H12.0484C12.5737 11.7408 12.9996 11.3149 12.9996 10.7896V10.7862Z" fill="white"/>
</g>
</g>
</svg>
