<svg width="44" height="44" viewBox="0 0 44 44" fill="none" xmlns="http://www.w3.org/2000/svg">
<g id="Group 1175">
<path id="Ellipse 27" fill-rule="evenodd" clip-rule="evenodd" d="M22.333 43.5C34.2071 43.5 43.833 33.8741 43.833 22C43.833 10.1259 34.2071 0.5 22.333 0.5C10.4589 0.5 0.833008 10.1259 0.833008 22C0.833008 33.8741 10.4589 43.5 22.333 43.5Z" fill="white"/>
<g id="health 1 (1)">
<mask id="mask0_0_2414" style="mask-type:luminance" maskUnits="userSpaceOnUse" x="11" y="9" width="22" height="26">
<path id="Rectangle 1075" fill-rule="evenodd" clip-rule="evenodd" d="M11.8326 9.5H32.8326V34.5H11.8326V9.5Z" fill="white"/>
</mask>
<g mask="url(#mask0_0_2414)">
<g id="Path 1617">
<path fill-rule="evenodd" clip-rule="evenodd" d="M30.7721 13.8078C29.8585 12.6098 28.5913 11.9501 27.2039 11.9501C25.6869 11.9501 24.3026 12.6361 23.2007 13.9341C22.8176 14.3854 22.5312 14.8363 22.3327 15.1941C22.1341 14.8363 21.8477 14.3854 21.4646 13.9341C20.3627 12.6361 18.9784 11.95 17.4614 11.95C14.5575 11.95 12.5327 14.7843 12.5327 18.154C12.5327 22.7058 16.6672 26.5384 22.0819 32.0132C22.1539 32.0859 22.2433 32.1223 22.3327 32.1223C22.4221 32.1223 22.5114 32.0859 22.5834 32.0132C28.011 26.5253 32.1327 22.6994 32.1327 18.154C32.1327 16.5017 31.6495 14.9582 30.7721 13.8077V13.8078ZM22.3327 31.0849C17.2195 25.9227 13.2983 22.2151 13.2983 18.154C13.2983 15.1264 15.088 12.8433 17.4614 12.8433C18.7792 12.8433 19.9367 13.4143 20.9017 14.5405C21.637 15.3984 21.98 16.274 21.9834 16.2827C22.045 16.4429 22.1815 16.5458 22.3321 16.5462C22.3323 16.5462 22.3325 16.5462 22.3328 16.5462C22.4833 16.5462 22.62 16.4429 22.682 16.2827C22.6853 16.274 23.0283 15.3985 23.7636 14.5405C24.7286 13.4143 25.8862 12.8433 27.204 12.8433C29.5773 12.8433 31.3671 15.1264 31.3671 18.154C31.367 22.3068 27.1871 26.1839 22.3327 31.0849Z" fill="#1B438B"/>
<path d="M30.7721 13.8078L30.6131 13.929L30.9721 14.3998V13.8078H30.7721ZM23.2007 13.9341L23.0482 13.8046L23.0482 13.8046L23.2007 13.9341ZM22.3327 15.1941L22.1578 15.2911L22.3327 15.6063L22.5076 15.2911L22.3327 15.1941ZM21.4646 13.9341L21.6171 13.8046L21.6171 13.8046L21.4646 13.9341ZM22.0819 32.0132L21.9397 32.1538L21.9398 32.1539L22.0819 32.0132ZM22.5834 32.0132L22.7255 32.1539L22.7256 32.1538L22.5834 32.0132ZM30.7721 13.8077L30.9311 13.6865L30.5721 13.2157V13.8077H30.7721ZM22.3327 31.0849L22.1906 31.2256L22.3327 31.3691L22.4748 31.2256L22.3327 31.0849ZM20.9017 14.5405L21.0536 14.4103L21.0536 14.4103L20.9017 14.5405ZM21.9834 16.2827L21.7967 16.3544L21.7967 16.3545L21.9834 16.2827ZM22.3321 16.5462L22.3316 16.7462H22.3321V16.5462ZM22.682 16.2827L22.8685 16.3549L22.8687 16.3544L22.682 16.2827ZM23.7636 14.5405L23.9155 14.6706L23.9155 14.6706L23.7636 14.5405ZM31.3671 18.154L31.5671 18.154V18.154H31.3671ZM30.9311 13.6865C29.9834 12.4438 28.6596 11.7501 27.2039 11.7501V12.1501C28.523 12.1501 29.7335 12.7758 30.6131 13.929L30.9311 13.6865ZM27.2039 11.7501C25.6206 11.7501 24.1829 12.468 23.0482 13.8046L23.3532 14.0635C24.4222 12.8042 25.7532 12.1501 27.2039 12.1501V11.7501ZM23.0482 13.8046C22.6547 14.2682 22.3611 14.7306 22.1578 15.0971L22.5076 15.2911C22.7013 14.9419 22.9805 14.5025 23.3532 14.0635L23.0482 13.8046ZM22.5076 15.097C22.3042 14.7306 22.0106 14.2683 21.6171 13.8046L21.3121 14.0635C21.6848 14.5026 21.964 14.942 22.1578 15.2911L22.5076 15.097ZM21.6171 13.8046C20.4824 12.468 19.0447 11.75 17.4614 11.75V12.15C18.9121 12.15 20.2431 12.8041 21.3121 14.0635L21.6171 13.8046ZM17.4614 11.75C14.4015 11.75 12.3327 14.7257 12.3327 18.154H12.7327C12.7327 14.8428 14.7135 12.15 17.4614 12.15V11.75ZM12.3327 18.154C12.3327 20.4944 13.3967 22.6336 15.1186 24.8598C16.8386 27.0837 19.2381 29.4222 21.9397 32.1538L22.2241 31.8725C19.5111 29.1294 17.1359 26.8142 15.435 24.6151C13.7359 22.4184 12.7327 20.3654 12.7327 18.154H12.3327ZM21.9398 32.1539C22.0475 32.2626 22.1873 32.3223 22.3327 32.3223V31.9223C22.2993 31.9223 22.2603 31.9091 22.2241 31.8725L21.9398 32.1539ZM22.3327 32.3223C22.4781 32.3223 22.6179 32.2626 22.7255 32.1539L22.4412 31.8725C22.4049 31.9091 22.366 31.9223 22.3327 31.9223V32.3223ZM22.7256 32.1538C25.4337 29.4156 27.8332 27.0755 29.5516 24.8525C31.2719 22.6271 32.3327 20.4911 32.3327 18.154H31.9327C31.9327 20.3623 30.9326 22.412 29.2352 24.6079C27.5359 26.8061 25.1607 29.1229 22.4412 31.8725L22.7256 32.1538ZM32.3327 18.154C32.3327 16.4644 31.8388 14.8766 30.9311 13.6865L30.6131 13.929C31.4602 15.0398 31.9327 16.539 31.9327 18.154H32.3327ZM30.5721 13.8077V13.8078H30.9721V13.8077H30.5721ZM22.4748 30.9441C19.9132 28.358 17.666 26.1515 16.0558 24.0837C14.4461 22.0163 13.4983 20.118 13.4983 18.154H13.0983C13.0983 20.2511 14.1111 22.2371 15.7402 24.3294C17.369 26.4212 19.639 28.6496 22.1906 31.2256L22.4748 30.9441ZM13.4983 18.154C13.4983 15.1887 15.2411 13.0433 17.4614 13.0433V12.6433C14.9349 12.6433 13.0983 15.064 13.0983 18.154H13.4983ZM17.4614 13.0433C18.713 13.0433 19.8174 13.5826 20.7499 14.6706L21.0536 14.4103C20.0559 13.2461 18.8453 12.6433 17.4614 12.6433V13.0433ZM20.7499 14.6706C21.4641 15.5041 21.7973 16.356 21.7967 16.3544L22.1701 16.2111C22.1628 16.192 21.8098 15.2927 21.0536 14.4103L20.7499 14.6706ZM21.7967 16.3545C21.8827 16.5782 22.0847 16.7456 22.3316 16.7462L22.3325 16.3462C22.2782 16.3461 22.2073 16.3077 22.1701 16.211L21.7967 16.3545ZM22.3321 16.7462C22.3321 16.7462 22.3321 16.7462 22.3321 16.7462C22.3321 16.7462 22.3321 16.7462 22.3321 16.7462C22.3321 16.7462 22.3321 16.7462 22.3321 16.7462C22.3321 16.7462 22.3321 16.7462 22.3321 16.7462C22.3321 16.7462 22.3321 16.7462 22.3321 16.7462C22.3321 16.7462 22.3321 16.7462 22.3321 16.7462C22.3321 16.7462 22.3321 16.7462 22.3321 16.7462C22.3321 16.7462 22.3321 16.7462 22.3321 16.7462C22.3321 16.7462 22.3321 16.7462 22.3321 16.7462C22.3321 16.7462 22.3321 16.7462 22.3321 16.7462C22.3321 16.7462 22.3321 16.7462 22.3321 16.7462C22.3321 16.7462 22.3321 16.7462 22.3321 16.7462C22.3321 16.7462 22.3321 16.7462 22.3321 16.7462C22.3321 16.7462 22.3321 16.7462 22.3321 16.7462C22.3321 16.7462 22.3321 16.7462 22.3321 16.7462C22.3321 16.7462 22.3321 16.7462 22.3321 16.7462C22.3321 16.7462 22.3321 16.7462 22.3321 16.7462C22.3321 16.7462 22.3321 16.7462 22.3321 16.7462C22.3321 16.7462 22.3321 16.7462 22.3321 16.7462C22.3321 16.7462 22.3321 16.7462 22.3321 16.7462C22.3321 16.7462 22.3321 16.7462 22.3321 16.7462C22.3321 16.7462 22.3321 16.7462 22.3321 16.7462C22.3321 16.7462 22.3321 16.7462 22.3321 16.7462C22.3321 16.7462 22.3321 16.7462 22.3321 16.7462C22.3321 16.7462 22.3321 16.7462 22.3321 16.7462C22.3321 16.7462 22.3321 16.7462 22.3321 16.7462C22.3321 16.7462 22.3321 16.7462 22.3321 16.7462C22.3321 16.7462 22.3321 16.7462 22.3321 16.7462C22.3321 16.7462 22.3321 16.7462 22.3321 16.7462C22.3321 16.7462 22.3321 16.7462 22.3321 16.7462C22.3321 16.7462 22.3321 16.7462 22.3321 16.7462C22.3321 16.7462 22.3321 16.7462 22.3321 16.7462C22.3321 16.7462 22.3321 16.7462 22.3321 16.7462C22.3321 16.7462 22.3321 16.7462 22.3321 16.7462C22.3321 16.7462 22.3321 16.7462 22.3321 16.7462C22.3321 16.7462 22.3321 16.7462 22.3321 16.7462C22.3321 16.7462 22.3321 16.7462 22.3321 16.7462C22.3321 16.7462 22.3321 16.7462 22.3321 16.7462C22.3321 16.7462 22.3321 16.7462 22.3321 16.7462C22.3321 16.7462 22.3321 16.7462 22.3321 16.7462C22.3321 16.7462 22.3321 16.7462 22.3321 16.7462C22.3321 16.7462 22.3321 16.7462 22.3321 16.7462C22.3321 16.7462 22.3321 16.7462 22.3321 16.7462C22.3321 16.7462 22.3321 16.7462 22.3321 16.7462C22.3321 16.7462 22.3321 16.7462 22.3321 16.7462C22.3321 16.7462 22.3321 16.7462 22.3321 16.7462C22.3321 16.7462 22.3321 16.7462 22.3321 16.7462C22.3321 16.7462 22.3321 16.7462 22.3321 16.7462C22.3321 16.7462 22.3321 16.7462 22.3321 16.7462C22.3321 16.7462 22.3321 16.7462 22.3321 16.7462C22.3321 16.7462 22.3321 16.7462 22.3321 16.7462C22.3321 16.7462 22.3321 16.7462 22.3321 16.7462C22.3321 16.7462 22.3321 16.7462 22.3321 16.7462C22.3321 16.7462 22.3321 16.7462 22.3321 16.7462C22.3321 16.7462 22.3321 16.7462 22.3321 16.7462C22.3321 16.7462 22.3321 16.7462 22.3321 16.7462C22.3321 16.7462 22.3321 16.7462 22.3321 16.7462C22.3321 16.7462 22.3321 16.7462 22.3321 16.7462C22.3321 16.7462 22.3321 16.7462 22.3321 16.7462C22.3321 16.7462 22.3321 16.7462 22.3321 16.7462C22.3321 16.7462 22.3322 16.7462 22.3322 16.7462C22.3322 16.7462 22.3322 16.7462 22.3322 16.7462C22.3322 16.7462 22.3322 16.7462 22.3322 16.7462C22.3322 16.7462 22.3322 16.7462 22.3322 16.7462C22.3322 16.7462 22.3322 16.7462 22.3322 16.7462C22.3322 16.7462 22.3322 16.7462 22.3322 16.7462C22.3322 16.7462 22.3322 16.7462 22.3322 16.7462C22.3322 16.7462 22.3322 16.7462 22.3322 16.7462C22.3322 16.7462 22.3322 16.7462 22.3322 16.7462C22.3322 16.7462 22.3322 16.7462 22.3322 16.7462C22.3322 16.7462 22.3322 16.7462 22.3322 16.7462C22.3322 16.7462 22.3322 16.7462 22.3322 16.7462C22.3322 16.7462 22.3322 16.7462 22.3322 16.7462C22.3322 16.7462 22.3322 16.7462 22.3322 16.7462C22.3322 16.7462 22.3322 16.7462 22.3322 16.7462C22.3322 16.7462 22.3322 16.7462 22.3322 16.7462C22.3322 16.7462 22.3322 16.7462 22.3322 16.7462C22.3322 16.7462 22.3322 16.7462 22.3322 16.7462C22.3322 16.7462 22.3322 16.7462 22.3322 16.7462C22.3322 16.7462 22.3322 16.7462 22.3322 16.7462C22.3322 16.7462 22.3322 16.7462 22.3322 16.7462C22.3322 16.7462 22.3322 16.7462 22.3322 16.7462C22.3322 16.7462 22.3322 16.7462 22.3322 16.7462C22.3322 16.7462 22.3322 16.7462 22.3322 16.7462C22.3322 16.7462 22.3322 16.7462 22.3322 16.7462C22.3322 16.7462 22.3322 16.7462 22.3322 16.7462C22.3322 16.7462 22.3322 16.7462 22.3322 16.7462C22.3322 16.7462 22.3322 16.7462 22.3322 16.7462C22.3322 16.7462 22.3322 16.7462 22.3322 16.7462C22.3322 16.7462 22.3322 16.7462 22.3322 16.7462C22.3322 16.7462 22.3322 16.7462 22.3322 16.7462C22.3322 16.7462 22.3322 16.7462 22.3322 16.7462C22.3322 16.7462 22.3322 16.7462 22.3322 16.7462C22.3322 16.7462 22.3322 16.7462 22.3322 16.7462C22.3322 16.7462 22.3322 16.7462 22.3322 16.7462C22.3322 16.7462 22.3322 16.7462 22.3322 16.7462C22.3322 16.7462 22.3322 16.7462 22.3322 16.7462C22.3322 16.7462 22.3322 16.7462 22.3322 16.7462C22.3322 16.7462 22.3322 16.7462 22.3322 16.7462C22.3322 16.7462 22.3322 16.7462 22.3322 16.7462C22.3322 16.7462 22.3322 16.7462 22.3322 16.7462C22.3322 16.7462 22.3322 16.7462 22.3322 16.7462C22.3322 16.7462 22.3322 16.7462 22.3322 16.7462C22.3322 16.7462 22.3322 16.7462 22.3322 16.7462C22.3322 16.7462 22.3322 16.7462 22.3322 16.7462C22.3322 16.7462 22.3322 16.7462 22.3322 16.7462C22.3322 16.7462 22.3322 16.7462 22.3322 16.7462C22.3322 16.7462 22.3322 16.7462 22.3322 16.7462C22.3322 16.7462 22.3322 16.7462 22.3322 16.7462C22.3322 16.7462 22.3322 16.7462 22.3322 16.7462C22.3322 16.7462 22.3322 16.7462 22.3322 16.7462C22.3322 16.7462 22.3322 16.7462 22.3322 16.7462C22.3322 16.7462 22.3322 16.7462 22.3322 16.7462C22.3322 16.7462 22.3322 16.7462 22.3322 16.7462C22.3322 16.7462 22.3322 16.7462 22.3322 16.7462C22.3322 16.7462 22.3322 16.7462 22.3322 16.7462C22.3322 16.7462 22.3322 16.7462 22.3322 16.7462C22.3322 16.7462 22.3322 16.7462 22.3322 16.7462C22.3322 16.7462 22.3322 16.7462 22.3322 16.7462C22.3322 16.7462 22.3322 16.7462 22.3322 16.7462C22.3322 16.7462 22.3322 16.7462 22.3322 16.7462C22.3322 16.7462 22.3322 16.7462 22.3322 16.7462C22.3322 16.7462 22.3322 16.7462 22.3322 16.7462C22.3322 16.7462 22.3322 16.7462 22.3322 16.7462C22.3322 16.7462 22.3322 16.7462 22.3322 16.7462C22.3322 16.7462 22.3322 16.7462 22.3322 16.7462C22.3323 16.7462 22.3323 16.7462 22.3323 16.7462C22.3323 16.7462 22.3323 16.7462 22.3323 16.7462C22.3323 16.7462 22.3323 16.7462 22.3323 16.7462C22.3323 16.7462 22.3323 16.7462 22.3323 16.7462C22.3323 16.7462 22.3323 16.7462 22.3323 16.7462C22.3323 16.7462 22.3323 16.7462 22.3323 16.7462C22.3323 16.7462 22.3323 16.7462 22.3323 16.7462C22.3323 16.7462 22.3323 16.7462 22.3323 16.7462C22.3323 16.7462 22.3323 16.7462 22.3323 16.7462C22.3323 16.7462 22.3323 16.7462 22.3323 16.7462C22.3323 16.7462 22.3323 16.7462 22.3323 16.7462C22.3323 16.7462 22.3323 16.7462 22.3323 16.7462C22.3323 16.7462 22.3323 16.7462 22.3323 16.7462C22.3323 16.7462 22.3323 16.7462 22.3323 16.7462C22.3323 16.7462 22.3323 16.7462 22.3323 16.7462C22.3323 16.7462 22.3323 16.7462 22.3323 16.7462C22.3323 16.7462 22.3323 16.7462 22.3323 16.7462C22.3323 16.7462 22.3323 16.7462 22.3323 16.7462C22.3323 16.7462 22.3323 16.7462 22.3323 16.7462C22.3323 16.7462 22.3323 16.7462 22.3323 16.7462C22.3323 16.7462 22.3323 16.7462 22.3323 16.7462C22.3323 16.7462 22.3323 16.7462 22.3323 16.7462C22.3323 16.7462 22.3323 16.7462 22.3323 16.7462C22.3323 16.7462 22.3323 16.7462 22.3323 16.7462C22.3323 16.7462 22.3323 16.7462 22.3323 16.7462C22.3323 16.7462 22.3323 16.7462 22.3323 16.7462C22.3323 16.7462 22.3323 16.7462 22.3323 16.7462C22.3323 16.7462 22.3323 16.7462 22.3323 16.7462C22.3323 16.7462 22.3323 16.7462 22.3323 16.7462C22.3323 16.7462 22.3323 16.7462 22.3323 16.7462C22.3323 16.7462 22.3323 16.7462 22.3323 16.7462C22.3323 16.7462 22.3323 16.7462 22.3323 16.7462C22.3323 16.7462 22.3323 16.7462 22.3323 16.7462C22.3323 16.7462 22.3323 16.7462 22.3323 16.7462C22.3323 16.7462 22.3323 16.7462 22.3323 16.7462C22.3323 16.7462 22.3323 16.7462 22.3323 16.7462C22.3323 16.7462 22.3323 16.7462 22.3323 16.7462C22.3323 16.7462 22.3323 16.7462 22.3323 16.7462C22.3323 16.7462 22.3323 16.7462 22.3323 16.7462C22.3323 16.7462 22.3323 16.7462 22.3323 16.7462C22.3323 16.7462 22.3323 16.7462 22.3323 16.7462C22.3323 16.7462 22.3323 16.7462 22.3323 16.7462C22.3323 16.7462 22.3323 16.7462 22.3323 16.7462C22.3323 16.7462 22.3323 16.7462 22.3323 16.7462C22.3323 16.7462 22.3323 16.7462 22.3323 16.7462C22.3323 16.7462 22.3323 16.7462 22.3323 16.7462C22.3323 16.7462 22.3323 16.7462 22.3323 16.7462C22.3323 16.7462 22.3323 16.7462 22.3323 16.7462C22.3323 16.7462 22.3323 16.7462 22.3323 16.7462C22.3323 16.7462 22.3323 16.7462 22.3323 16.7462C22.3323 16.7462 22.3323 16.7462 22.3323 16.7462C22.3323 16.7462 22.3323 16.7462 22.3323 16.7462C22.3323 16.7462 22.3323 16.7462 22.3323 16.7462C22.3323 16.7462 22.3323 16.7462 22.3323 16.7462C22.3323 16.7462 22.3323 16.7462 22.3323 16.7462C22.3323 16.7462 22.3323 16.7462 22.3323 16.7462C22.3323 16.7462 22.3323 16.7462 22.3323 16.7462C22.3323 16.7462 22.3323 16.7462 22.3323 16.7462C22.3323 16.7462 22.3323 16.7462 22.3323 16.7462C22.3323 16.7462 22.3323 16.7462 22.3323 16.7462C22.3323 16.7462 22.3323 16.7462 22.3323 16.7462C22.3323 16.7462 22.3323 16.7462 22.3323 16.7462C22.3323 16.7462 22.3323 16.7462 22.3323 16.7462C22.3323 16.7462 22.3323 16.7462 22.3323 16.7462C22.3323 16.7462 22.3323 16.7462 22.3323 16.7462C22.3323 16.7462 22.3323 16.7462 22.3323 16.7462C22.3323 16.7462 22.3323 16.7462 22.3323 16.7462C22.3323 16.7462 22.3323 16.7462 22.3323 16.7462C22.3323 16.7462 22.3324 16.7462 22.3324 16.7462C22.3324 16.7462 22.3324 16.7462 22.3324 16.7462C22.3324 16.7462 22.3324 16.7462 22.3324 16.7462C22.3324 16.7462 22.3324 16.7462 22.3324 16.7462C22.3324 16.7462 22.3324 16.7462 22.3324 16.7462C22.3324 16.7462 22.3324 16.7462 22.3324 16.7462C22.3324 16.7462 22.3324 16.7462 22.3324 16.7462C22.3324 16.7462 22.3324 16.7462 22.3324 16.7462C22.3324 16.7462 22.3324 16.7462 22.3324 16.7462C22.3324 16.7462 22.3324 16.7462 22.3324 16.7462C22.3324 16.7462 22.3324 16.7462 22.3324 16.7462C22.3324 16.7462 22.3324 16.7462 22.3324 16.7462C22.3324 16.7462 22.3324 16.7462 22.3324 16.7462C22.3324 16.7462 22.3324 16.7462 22.3324 16.7462C22.3324 16.7462 22.3324 16.7462 22.3324 16.7462C22.3324 16.7462 22.3324 16.7462 22.3324 16.7462C22.3324 16.7462 22.3324 16.7462 22.3324 16.7462C22.3324 16.7462 22.3324 16.7462 22.3324 16.7462C22.3324 16.7462 22.3324 16.7462 22.3324 16.7462C22.3324 16.7462 22.3324 16.7462 22.3324 16.7462C22.3324 16.7462 22.3324 16.7462 22.3324 16.7462C22.3324 16.7462 22.3324 16.7462 22.3324 16.7462C22.3324 16.7462 22.3324 16.7462 22.3324 16.7462C22.3324 16.7462 22.3324 16.7462 22.3324 16.7462C22.3324 16.7462 22.3324 16.7462 22.3324 16.7462C22.3324 16.7462 22.3324 16.7462 22.3324 16.7462C22.3324 16.7462 22.3324 16.7462 22.3324 16.7462C22.3324 16.7462 22.3324 16.7462 22.3324 16.7462C22.3324 16.7462 22.3324 16.7462 22.3324 16.7462C22.3324 16.7462 22.3324 16.7462 22.3324 16.7462C22.3324 16.7462 22.3324 16.7462 22.3324 16.7462C22.3324 16.7462 22.3324 16.7462 22.3324 16.7462C22.3324 16.7462 22.3324 16.7462 22.3324 16.7462C22.3324 16.7462 22.3324 16.7462 22.3324 16.7462C22.3324 16.7462 22.3324 16.7462 22.3324 16.7462C22.3324 16.7462 22.3324 16.7462 22.3324 16.7462C22.3324 16.7462 22.3324 16.7462 22.3324 16.7462C22.3324 16.7462 22.3324 16.7462 22.3324 16.7462C22.3324 16.7462 22.3324 16.7462 22.3324 16.7462C22.3324 16.7462 22.3324 16.7462 22.3324 16.7462C22.3324 16.7462 22.3324 16.7462 22.3324 16.7462C22.3324 16.7462 22.3324 16.7462 22.3324 16.7462C22.3324 16.7462 22.3324 16.7462 22.3324 16.7462C22.3324 16.7462 22.3324 16.7462 22.3324 16.7462C22.3324 16.7462 22.3324 16.7462 22.3324 16.7462C22.3324 16.7462 22.3324 16.7462 22.3324 16.7462C22.3324 16.7462 22.3324 16.7462 22.3324 16.7462C22.3324 16.7462 22.3324 16.7462 22.3324 16.7462C22.3324 16.7462 22.3324 16.7462 22.3324 16.7462C22.3324 16.7462 22.3324 16.7462 22.3324 16.7462C22.3324 16.7462 22.3324 16.7462 22.3324 16.7462C22.3324 16.7462 22.3324 16.7462 22.3324 16.7462C22.3324 16.7462 22.3324 16.7462 22.3324 16.7462C22.3324 16.7462 22.3324 16.7462 22.3324 16.7462C22.3324 16.7462 22.3324 16.7462 22.3324 16.7462C22.3324 16.7462 22.3324 16.7462 22.3324 16.7462C22.3324 16.7462 22.3324 16.7462 22.3324 16.7462C22.3324 16.7462 22.3324 16.7462 22.3324 16.7462C22.3324 16.7462 22.3324 16.7462 22.3324 16.7462C22.3324 16.7462 22.3324 16.7462 22.3324 16.7462C22.3324 16.7462 22.3324 16.7462 22.3324 16.7462C22.3324 16.7462 22.3324 16.7462 22.3324 16.7462C22.3324 16.7462 22.3324 16.7462 22.3324 16.7462C22.3324 16.7462 22.3324 16.7462 22.3324 16.7462C22.3324 16.7462 22.3324 16.7462 22.3324 16.7462C22.3324 16.7462 22.3324 16.7462 22.3324 16.7462C22.3324 16.7462 22.3324 16.7462 22.3324 16.7462C22.3324 16.7462 22.3324 16.7462 22.3324 16.7462C22.3324 16.7462 22.3324 16.7462 22.3324 16.7462C22.3324 16.7462 22.3324 16.7462 22.3325 16.7462C22.3325 16.7462 22.3325 16.7462 22.3325 16.7462C22.3325 16.7462 22.3325 16.7462 22.3325 16.7462C22.3325 16.7462 22.3325 16.7462 22.3325 16.7462C22.3325 16.7462 22.3325 16.7462 22.3325 16.7462C22.3325 16.7462 22.3325 16.7462 22.3325 16.7462C22.3325 16.7462 22.3325 16.7462 22.3325 16.7462C22.3325 16.7462 22.3325 16.7462 22.3325 16.7462C22.3325 16.7462 22.3325 16.7462 22.3325 16.7462C22.3325 16.7462 22.3325 16.7462 22.3325 16.7462C22.3325 16.7462 22.3325 16.7462 22.3325 16.7462C22.3325 16.7462 22.3325 16.7462 22.3325 16.7462C22.3325 16.7462 22.3325 16.7462 22.3325 16.7462C22.3325 16.7462 22.3325 16.7462 22.3325 16.7462C22.3325 16.7462 22.3325 16.7462 22.3325 16.7462C22.3325 16.7462 22.3325 16.7462 22.3325 16.7462C22.3325 16.7462 22.3325 16.7462 22.3325 16.7462C22.3325 16.7462 22.3325 16.7462 22.3325 16.7462C22.3325 16.7462 22.3325 16.7462 22.3325 16.7462C22.3325 16.7462 22.3325 16.7462 22.3325 16.7462C22.3325 16.7462 22.3325 16.7462 22.3325 16.7462C22.3325 16.7462 22.3325 16.7462 22.3325 16.7462C22.3325 16.7462 22.3325 16.7462 22.3325 16.7462C22.3325 16.7462 22.3325 16.7462 22.3325 16.7462C22.3325 16.7462 22.3325 16.7462 22.3325 16.7462C22.3325 16.7462 22.3325 16.7462 22.3325 16.7462C22.3325 16.7462 22.3325 16.7462 22.3325 16.7462C22.3325 16.7462 22.3325 16.7462 22.3325 16.7462C22.3325 16.7462 22.3325 16.7462 22.3325 16.7462C22.3325 16.7462 22.3325 16.7462 22.3325 16.7462C22.3325 16.7462 22.3325 16.7462 22.3325 16.7462C22.3325 16.7462 22.3325 16.7462 22.3325 16.7462C22.3325 16.7462 22.3325 16.7462 22.3325 16.7462C22.3325 16.7462 22.3325 16.7462 22.3325 16.7462C22.3325 16.7462 22.3325 16.7462 22.3325 16.7462C22.3325 16.7462 22.3325 16.7462 22.3325 16.7462C22.3325 16.7462 22.3325 16.7462 22.3325 16.7462C22.3325 16.7462 22.3325 16.7462 22.3325 16.7462C22.3325 16.7462 22.3325 16.7462 22.3325 16.7462C22.3325 16.7462 22.3325 16.7462 22.3325 16.7462C22.3325 16.7462 22.3325 16.7462 22.3325 16.7462C22.3325 16.7462 22.3325 16.7462 22.3325 16.7462C22.3325 16.7462 22.3325 16.7462 22.3325 16.7462C22.3325 16.7462 22.3325 16.7462 22.3325 16.7462C22.3325 16.7462 22.3325 16.7462 22.3325 16.7462C22.3325 16.7462 22.3325 16.7462 22.3325 16.7462C22.3325 16.7462 22.3325 16.7462 22.3325 16.7462C22.3325 16.7462 22.3325 16.7462 22.3325 16.7462C22.3325 16.7462 22.3325 16.7462 22.3325 16.7462C22.3325 16.7462 22.3325 16.7462 22.3325 16.7462C22.3325 16.7462 22.3325 16.7462 22.3325 16.7462C22.3325 16.7462 22.3325 16.7462 22.3325 16.7462C22.3325 16.7462 22.3325 16.7462 22.3325 16.7462C22.3325 16.7462 22.3325 16.7462 22.3325 16.7462C22.3325 16.7462 22.3325 16.7462 22.3325 16.7462C22.3325 16.7462 22.3325 16.7462 22.3325 16.7462C22.3325 16.7462 22.3325 16.7462 22.3325 16.7462C22.3325 16.7462 22.3325 16.7462 22.3325 16.7462C22.3325 16.7462 22.3325 16.7462 22.3325 16.7462C22.3325 16.7462 22.3325 16.7462 22.3325 16.7462C22.3325 16.7462 22.3325 16.7462 22.3325 16.7462C22.3325 16.7462 22.3325 16.7462 22.3325 16.7462C22.3325 16.7462 22.3325 16.7462 22.3325 16.7462C22.3325 16.7462 22.3325 16.7462 22.3325 16.7462C22.3325 16.7462 22.3325 16.7462 22.3325 16.7462C22.3325 16.7462 22.3325 16.7462 22.3325 16.7462C22.3325 16.7462 22.3325 16.7462 22.3325 16.7462C22.3325 16.7462 22.3325 16.7462 22.3325 16.7462C22.3325 16.7462 22.3325 16.7462 22.3325 16.7462C22.3325 16.7462 22.3325 16.7462 22.3325 16.7462C22.3326 16.7462 22.3326 16.7462 22.3326 16.7462C22.3326 16.7462 22.3326 16.7462 22.3326 16.7462C22.3326 16.7462 22.3326 16.7462 22.3326 16.7462C22.3326 16.7462 22.3326 16.7462 22.3326 16.7462C22.3326 16.7462 22.3326 16.7462 22.3326 16.7462C22.3326 16.7462 22.3326 16.7462 22.3326 16.7462C22.3326 16.7462 22.3326 16.7462 22.3326 16.7462C22.3326 16.7462 22.3326 16.7462 22.3326 16.7462C22.3326 16.7462 22.3326 16.7462 22.3326 16.7462C22.3326 16.7462 22.3326 16.7462 22.3326 16.7462C22.3326 16.7462 22.3326 16.7462 22.3326 16.7462C22.3326 16.7462 22.3326 16.7462 22.3326 16.7462C22.3326 16.7462 22.3326 16.7462 22.3326 16.7462C22.3326 16.7462 22.3326 16.7462 22.3326 16.7462C22.3326 16.7462 22.3326 16.7462 22.3326 16.7462C22.3326 16.7462 22.3326 16.7462 22.3326 16.7462C22.3326 16.7462 22.3326 16.7462 22.3326 16.7462C22.3326 16.7462 22.3326 16.7462 22.3326 16.7462C22.3326 16.7462 22.3326 16.7462 22.3326 16.7462C22.3326 16.7462 22.3326 16.7462 22.3326 16.7462C22.3326 16.7462 22.3326 16.7462 22.3326 16.7462C22.3326 16.7462 22.3326 16.7462 22.3326 16.7462C22.3326 16.7462 22.3326 16.7462 22.3326 16.7462C22.3326 16.7462 22.3326 16.7462 22.3326 16.7462C22.3326 16.7462 22.3326 16.7462 22.3326 16.7462C22.3326 16.7462 22.3326 16.7462 22.3326 16.7462C22.3326 16.7462 22.3326 16.7462 22.3326 16.7462C22.3326 16.7462 22.3326 16.7462 22.3326 16.7462C22.3326 16.7462 22.3326 16.7462 22.3326 16.7462C22.3326 16.7462 22.3326 16.7462 22.3326 16.7462C22.3326 16.7462 22.3326 16.7462 22.3326 16.7462C22.3326 16.7462 22.3326 16.7462 22.3326 16.7462C22.3326 16.7462 22.3326 16.7462 22.3326 16.7462C22.3326 16.7462 22.3326 16.7462 22.3326 16.7462C22.3326 16.7462 22.3326 16.7462 22.3326 16.7462C22.3326 16.7462 22.3326 16.7462 22.3326 16.7462C22.3326 16.7462 22.3326 16.7462 22.3326 16.7462C22.3326 16.7462 22.3326 16.7462 22.3326 16.7462C22.3326 16.7462 22.3326 16.7462 22.3326 16.7462C22.3326 16.7462 22.3326 16.7462 22.3326 16.7462C22.3326 16.7462 22.3326 16.7462 22.3326 16.7462C22.3326 16.7462 22.3326 16.7462 22.3326 16.7462C22.3326 16.7462 22.3326 16.7462 22.3326 16.7462C22.3326 16.7462 22.3326 16.7462 22.3326 16.7462C22.3326 16.7462 22.3326 16.7462 22.3326 16.7462C22.3326 16.7462 22.3326 16.7462 22.3326 16.7462C22.3326 16.7462 22.3326 16.7462 22.3326 16.7462C22.3326 16.7462 22.3326 16.7462 22.3326 16.7462C22.3326 16.7462 22.3326 16.7462 22.3326 16.7462C22.3326 16.7462 22.3326 16.7462 22.3326 16.7462C22.3326 16.7462 22.3326 16.7462 22.3326 16.7462C22.3326 16.7462 22.3326 16.7462 22.3326 16.7462C22.3326 16.7462 22.3326 16.7462 22.3326 16.7462C22.3326 16.7462 22.3326 16.7462 22.3326 16.7462C22.3326 16.7462 22.3326 16.7462 22.3326 16.7462C22.3326 16.7462 22.3326 16.7462 22.3326 16.7462C22.3326 16.7462 22.3326 16.7462 22.3326 16.7462C22.3326 16.7462 22.3326 16.7462 22.3326 16.7462C22.3326 16.7462 22.3326 16.7462 22.3326 16.7462C22.3326 16.7462 22.3326 16.7462 22.3326 16.7462C22.3326 16.7462 22.3326 16.7462 22.3326 16.7462C22.3326 16.7462 22.3326 16.7462 22.3326 16.7462C22.3326 16.7462 22.3326 16.7462 22.3326 16.7462C22.3326 16.7462 22.3326 16.7462 22.3326 16.7462C22.3326 16.7462 22.3326 16.7462 22.3326 16.7462C22.3326 16.7462 22.3326 16.7462 22.3326 16.7462C22.3326 16.7462 22.3326 16.7462 22.3326 16.7462C22.3326 16.7462 22.3326 16.7462 22.3327 16.7462C22.3327 16.7462 22.3327 16.7462 22.3327 16.7462C22.3327 16.7462 22.3327 16.7462 22.3327 16.7462C22.3327 16.7462 22.3327 16.7462 22.3327 16.7462C22.3327 16.7462 22.3327 16.7462 22.3327 16.7462C22.3327 16.7462 22.3327 16.7462 22.3327 16.7462C22.3327 16.7462 22.3327 16.7462 22.3327 16.7462C22.3327 16.7462 22.3327 16.7462 22.3327 16.7462C22.3327 16.7462 22.3327 16.7462 22.3327 16.7462C22.3327 16.7462 22.3327 16.7462 22.3327 16.7462C22.3327 16.7462 22.3327 16.7462 22.3327 16.7462C22.3327 16.7462 22.3327 16.7462 22.3327 16.7462C22.3327 16.7462 22.3327 16.7462 22.3327 16.7462C22.3327 16.7462 22.3327 16.7462 22.3327 16.7462C22.3327 16.7462 22.3327 16.7462 22.3327 16.7462C22.3327 16.7462 22.3327 16.7462 22.3327 16.7462C22.3327 16.7462 22.3327 16.7462 22.3327 16.7462C22.3327 16.7462 22.3327 16.7462 22.3327 16.7462C22.3327 16.7462 22.3327 16.7462 22.3327 16.7462C22.3327 16.7462 22.3327 16.7462 22.3327 16.7462C22.3327 16.7462 22.3327 16.7462 22.3327 16.7462C22.3327 16.7462 22.3327 16.7462 22.3327 16.7462C22.3327 16.7462 22.3327 16.7462 22.3327 16.7462C22.3327 16.7462 22.3327 16.7462 22.3327 16.7462C22.3327 16.7462 22.3327 16.7462 22.3327 16.7462C22.3327 16.7462 22.3327 16.7462 22.3327 16.7462C22.3327 16.7462 22.3327 16.7462 22.3327 16.7462C22.3327 16.7462 22.3327 16.7462 22.3327 16.7462C22.3327 16.7462 22.3327 16.7462 22.3327 16.7462C22.3327 16.7462 22.3327 16.7462 22.3327 16.7462C22.3327 16.7462 22.3327 16.7462 22.3327 16.7462C22.3327 16.7462 22.3327 16.7462 22.3327 16.7462C22.3327 16.7462 22.3327 16.7462 22.3327 16.7462C22.3327 16.7462 22.3327 16.7462 22.3327 16.7462C22.3327 16.7462 22.3327 16.7462 22.3327 16.7462C22.3327 16.7462 22.3327 16.7462 22.3327 16.7462C22.3327 16.7462 22.3327 16.7462 22.3327 16.7462C22.3327 16.7462 22.3327 16.7462 22.3327 16.7462C22.3327 16.7462 22.3327 16.7462 22.3327 16.7462C22.3327 16.7462 22.3327 16.7462 22.3327 16.7462C22.3327 16.7462 22.3327 16.7462 22.3327 16.7462C22.3327 16.7462 22.3327 16.7462 22.3327 16.7462C22.3327 16.7462 22.3327 16.7462 22.3327 16.7462C22.3327 16.7462 22.3327 16.7462 22.3327 16.7462C22.3327 16.7462 22.3327 16.7462 22.3327 16.7462C22.3327 16.7462 22.3327 16.7462 22.3327 16.7462C22.3327 16.7462 22.3327 16.7462 22.3327 16.7462C22.3327 16.7462 22.3327 16.7462 22.3327 16.7462C22.3327 16.7462 22.3327 16.7462 22.3327 16.7462C22.3327 16.7462 22.3327 16.7462 22.3327 16.7462C22.3327 16.7462 22.3327 16.7462 22.3327 16.7462C22.3327 16.7462 22.3327 16.7462 22.3327 16.7462C22.3327 16.7462 22.3327 16.7462 22.3327 16.7462C22.3327 16.7462 22.3327 16.7462 22.3327 16.7462C22.3327 16.7462 22.3327 16.7462 22.3327 16.7462C22.3327 16.7462 22.3327 16.7462 22.3327 16.7462C22.3327 16.7462 22.3327 16.7462 22.3327 16.7462C22.3327 16.7462 22.3327 16.7462 22.3327 16.7462C22.3327 16.7462 22.3327 16.7462 22.3327 16.7462C22.3327 16.7462 22.3327 16.7462 22.3327 16.7462C22.3327 16.7462 22.3327 16.7462 22.3327 16.7462C22.3327 16.7462 22.3327 16.7462 22.3327 16.7462C22.3327 16.7462 22.3327 16.7462 22.3327 16.7462C22.3327 16.7462 22.3327 16.7462 22.3327 16.7462C22.3327 16.7462 22.3327 16.7462 22.3327 16.7462C22.3327 16.7462 22.3327 16.7462 22.3328 16.7462C22.3328 16.7462 22.3328 16.7462 22.3328 16.7462C22.3328 16.7462 22.3328 16.7462 22.3328 16.7462C22.3328 16.7462 22.3328 16.7462 22.3328 16.7462C22.3328 16.7462 22.3328 16.7462 22.3328 16.7462C22.3328 16.7462 22.3328 16.7462 22.3328 16.7462C22.3328 16.7462 22.3328 16.7462 22.3328 16.7462C22.3328 16.7462 22.3328 16.7462 22.3328 16.7462C22.3328 16.7462 22.3328 16.7462 22.3328 16.7462C22.3328 16.7462 22.3328 16.7462 22.3328 16.7462C22.3328 16.7462 22.3328 16.7462 22.3328 16.7462C22.3328 16.7462 22.3328 16.7462 22.3328 16.7462C22.3328 16.7462 22.3328 16.7462 22.3328 16.7462C22.3328 16.7462 22.3328 16.7462 22.3328 16.7462C22.3328 16.7462 22.3328 16.7462 22.3328 16.7462C22.3328 16.7462 22.3328 16.7462 22.3328 16.7462C22.3328 16.7462 22.3328 16.7462 22.3328 16.7462C22.3328 16.7462 22.3328 16.7462 22.3328 16.7462C22.3328 16.7462 22.3328 16.7462 22.3328 16.7462C22.3328 16.7462 22.3328 16.7462 22.3328 16.7462C22.3328 16.7462 22.3328 16.7462 22.3328 16.7462C22.3328 16.7462 22.3328 16.7462 22.3328 16.7462C22.3328 16.7462 22.3328 16.7462 22.3328 16.7462C22.3328 16.7462 22.3328 16.7462 22.3328 16.7462C22.3328 16.7462 22.3328 16.7462 22.3328 16.7462C22.3328 16.7462 22.3328 16.7462 22.3328 16.7462C22.3328 16.7462 22.3328 16.7462 22.3328 16.7462C22.3328 16.7462 22.3328 16.7462 22.3328 16.7462C22.3328 16.7462 22.3328 16.7462 22.3328 16.7462C22.3328 16.7462 22.3328 16.7462 22.3328 16.7462C22.3328 16.7462 22.3328 16.7462 22.3328 16.7462C22.3328 16.7462 22.3328 16.7462 22.3328 16.7462C22.3328 16.7462 22.3328 16.7462 22.3328 16.7462C22.3328 16.7462 22.3328 16.7462 22.3328 16.7462C22.3328 16.7462 22.3328 16.7462 22.3328 16.7462C22.3328 16.7462 22.3328 16.7462 22.3328 16.7462C22.3328 16.7462 22.3328 16.7462 22.3328 16.7462C22.3328 16.7462 22.3328 16.7462 22.3328 16.7462C22.3328 16.7462 22.3328 16.7462 22.3328 16.7462C22.3328 16.7462 22.3328 16.7462 22.3328 16.7462C22.3328 16.7462 22.3328 16.7462 22.3328 16.7462C22.3328 16.7462 22.3328 16.7462 22.3328 16.7462C22.3328 16.7462 22.3328 16.7462 22.3328 16.7462C22.3328 16.7462 22.3328 16.7462 22.3328 16.7462C22.3328 16.7462 22.3328 16.7462 22.3328 16.7462C22.3328 16.7462 22.3328 16.7462 22.3328 16.7462C22.3328 16.7462 22.3328 16.7462 22.3328 16.7462V16.3462C22.3328 16.3462 22.3328 16.3462 22.3328 16.3462C22.3328 16.3462 22.3328 16.3462 22.3328 16.3462C22.3328 16.3462 22.3328 16.3462 22.3328 16.3462C22.3328 16.3462 22.3328 16.3462 22.3328 16.3462C22.3328 16.3462 22.3328 16.3462 22.3328 16.3462C22.3328 16.3462 22.3328 16.3462 22.3328 16.3462C22.3328 16.3462 22.3328 16.3462 22.3328 16.3462C22.3328 16.3462 22.3328 16.3462 22.3328 16.3462C22.3328 16.3462 22.3328 16.3462 22.3328 16.3462C22.3328 16.3462 22.3328 16.3462 22.3328 16.3462C22.3328 16.3462 22.3328 16.3462 22.3328 16.3462C22.3328 16.3462 22.3328 16.3462 22.3328 16.3462C22.3328 16.3462 22.3328 16.3462 22.3328 16.3462C22.3328 16.3462 22.3328 16.3462 22.3328 16.3462C22.3328 16.3462 22.3328 16.3462 22.3328 16.3462C22.3328 16.3462 22.3328 16.3462 22.3328 16.3462C22.3328 16.3462 22.3328 16.3462 22.3328 16.3462C22.3328 16.3462 22.3328 16.3462 22.3328 16.3462C22.3328 16.3462 22.3328 16.3462 22.3328 16.3462C22.3328 16.3462 22.3328 16.3462 22.3328 16.3462C22.3328 16.3462 22.3328 16.3462 22.3328 16.3462C22.3328 16.3462 22.3328 16.3462 22.3328 16.3462C22.3328 16.3462 22.3328 16.3462 22.3328 16.3462C22.3328 16.3462 22.3328 16.3462 22.3328 16.3462C22.3328 16.3462 22.3328 16.3462 22.3328 16.3462C22.3328 16.3462 22.3328 16.3462 22.3328 16.3462C22.3328 16.3462 22.3328 16.3462 22.3328 16.3462C22.3328 16.3462 22.3328 16.3462 22.3328 16.3462C22.3328 16.3462 22.3328 16.3462 22.3328 16.3462C22.3328 16.3462 22.3328 16.3462 22.3328 16.3462C22.3328 16.3462 22.3328 16.3462 22.3328 16.3462C22.3328 16.3462 22.3328 16.3462 22.3328 16.3462C22.3328 16.3462 22.3328 16.3462 22.3328 16.3462C22.3328 16.3462 22.3328 16.3462 22.3328 16.3462C22.3328 16.3462 22.3328 16.3462 22.3328 16.3462C22.3328 16.3462 22.3328 16.3462 22.3328 16.3462C22.3328 16.3462 22.3328 16.3462 22.3328 16.3462C22.3328 16.3462 22.3328 16.3462 22.3328 16.3462C22.3328 16.3462 22.3328 16.3462 22.3328 16.3462C22.3328 16.3462 22.3328 16.3462 22.3328 16.3462C22.3328 16.3462 22.3328 16.3462 22.3328 16.3462C22.3328 16.3462 22.3328 16.3462 22.3328 16.3462C22.3328 16.3462 22.3328 16.3462 22.3328 16.3462C22.3328 16.3462 22.3328 16.3462 22.3328 16.3462C22.3328 16.3462 22.3328 16.3462 22.3328 16.3462C22.3328 16.3462 22.3328 16.3462 22.3328 16.3462C22.3327 16.3462 22.3327 16.3462 22.3327 16.3462C22.3327 16.3462 22.3327 16.3462 22.3327 16.3462C22.3327 16.3462 22.3327 16.3462 22.3327 16.3462C22.3327 16.3462 22.3327 16.3462 22.3327 16.3462C22.3327 16.3462 22.3327 16.3462 22.3327 16.3462C22.3327 16.3462 22.3327 16.3462 22.3327 16.3462C22.3327 16.3462 22.3327 16.3462 22.3327 16.3462C22.3327 16.3462 22.3327 16.3462 22.3327 16.3462C22.3327 16.3462 22.3327 16.3462 22.3327 16.3462C22.3327 16.3462 22.3327 16.3462 22.3327 16.3462C22.3327 16.3462 22.3327 16.3462 22.3327 16.3462C22.3327 16.3462 22.3327 16.3462 22.3327 16.3462C22.3327 16.3462 22.3327 16.3462 22.3327 16.3462C22.3327 16.3462 22.3327 16.3462 22.3327 16.3462C22.3327 16.3462 22.3327 16.3462 22.3327 16.3462C22.3327 16.3462 22.3327 16.3462 22.3327 16.3462C22.3327 16.3462 22.3327 16.3462 22.3327 16.3462C22.3327 16.3462 22.3327 16.3462 22.3327 16.3462C22.3327 16.3462 22.3327 16.3462 22.3327 16.3462C22.3327 16.3462 22.3327 16.3462 22.3327 16.3462C22.3327 16.3462 22.3327 16.3462 22.3327 16.3462C22.3327 16.3462 22.3327 16.3462 22.3327 16.3462C22.3327 16.3462 22.3327 16.3462 22.3327 16.3462C22.3327 16.3462 22.3327 16.3462 22.3327 16.3462C22.3327 16.3462 22.3327 16.3462 22.3327 16.3462C22.3327 16.3462 22.3327 16.3462 22.3327 16.3462C22.3327 16.3462 22.3327 16.3462 22.3327 16.3462C22.3327 16.3462 22.3327 16.3462 22.3327 16.3462C22.3327 16.3462 22.3327 16.3462 22.3327 16.3462C22.3327 16.3462 22.3327 16.3462 22.3327 16.3462C22.3327 16.3462 22.3327 16.3462 22.3327 16.3462C22.3327 16.3462 22.3327 16.3462 22.3327 16.3462C22.3327 16.3462 22.3327 16.3462 22.3327 16.3462C22.3327 16.3462 22.3327 16.3462 22.3327 16.3462C22.3327 16.3462 22.3327 16.3462 22.3327 16.3462C22.3327 16.3462 22.3327 16.3462 22.3327 16.3462C22.3327 16.3462 22.3327 16.3462 22.3327 16.3462C22.3327 16.3462 22.3327 16.3462 22.3327 16.3462C22.3327 16.3462 22.3327 16.3462 22.3327 16.3462C22.3327 16.3462 22.3327 16.3462 22.3327 16.3462C22.3327 16.3462 22.3327 16.3462 22.3327 16.3462C22.3327 16.3462 22.3327 16.3462 22.3327 16.3462C22.3327 16.3462 22.3327 16.3462 22.3327 16.3462C22.3327 16.3462 22.3327 16.3462 22.3327 16.3462C22.3327 16.3462 22.3327 16.3462 22.3327 16.3462C22.3327 16.3462 22.3327 16.3462 22.3327 16.3462C22.3327 16.3462 22.3327 16.3462 22.3327 16.3462C22.3327 16.3462 22.3327 16.3462 22.3327 16.3462C22.3327 16.3462 22.3327 16.3462 22.3327 16.3462C22.3327 16.3462 22.3327 16.3462 22.3327 16.3462C22.3327 16.3462 22.3327 16.3462 22.3327 16.3462C22.3327 16.3462 22.3327 16.3462 22.3327 16.3462C22.3327 16.3462 22.3327 16.3462 22.3327 16.3462C22.3327 16.3462 22.3327 16.3462 22.3327 16.3462C22.3327 16.3462 22.3327 16.3462 22.3327 16.3462C22.3327 16.3462 22.3327 16.3462 22.3327 16.3462C22.3327 16.3462 22.3327 16.3462 22.3327 16.3462C22.3327 16.3462 22.3327 16.3462 22.3327 16.3462C22.3327 16.3462 22.3327 16.3462 22.3327 16.3462C22.3327 16.3462 22.3327 16.3462 22.3327 16.3462C22.3327 16.3462 22.3327 16.3462 22.3327 16.3462C22.3327 16.3462 22.3327 16.3462 22.3327 16.3462C22.3327 16.3462 22.3327 16.3462 22.3327 16.3462C22.3327 16.3462 22.3327 16.3462 22.3327 16.3462C22.3327 16.3462 22.3327 16.3462 22.3327 16.3462C22.3326 16.3462 22.3326 16.3462 22.3326 16.3462C22.3326 16.3462 22.3326 16.3462 22.3326 16.3462C22.3326 16.3462 22.3326 16.3462 22.3326 16.3462C22.3326 16.3462 22.3326 16.3462 22.3326 16.3462C22.3326 16.3462 22.3326 16.3462 22.3326 16.3462C22.3326 16.3462 22.3326 16.3462 22.3326 16.3462C22.3326 16.3462 22.3326 16.3462 22.3326 16.3462C22.3326 16.3462 22.3326 16.3462 22.3326 16.3462C22.3326 16.3462 22.3326 16.3462 22.3326 16.3462C22.3326 16.3462 22.3326 16.3462 22.3326 16.3462C22.3326 16.3462 22.3326 16.3462 22.3326 16.3462C22.3326 16.3462 22.3326 16.3462 22.3326 16.3462C22.3326 16.3462 22.3326 16.3462 22.3326 16.3462C22.3326 16.3462 22.3326 16.3462 22.3326 16.3462C22.3326 16.3462 22.3326 16.3462 22.3326 16.3462C22.3326 16.3462 22.3326 16.3462 22.3326 16.3462C22.3326 16.3462 22.3326 16.3462 22.3326 16.3462C22.3326 16.3462 22.3326 16.3462 22.3326 16.3462C22.3326 16.3462 22.3326 16.3462 22.3326 16.3462C22.3326 16.3462 22.3326 16.3462 22.3326 16.3462C22.3326 16.3462 22.3326 16.3462 22.3326 16.3462C22.3326 16.3462 22.3326 16.3462 22.3326 16.3462C22.3326 16.3462 22.3326 16.3462 22.3326 16.3462C22.3326 16.3462 22.3326 16.3462 22.3326 16.3462C22.3326 16.3462 22.3326 16.3462 22.3326 16.3462C22.3326 16.3462 22.3326 16.3462 22.3326 16.3462C22.3326 16.3462 22.3326 16.3462 22.3326 16.3462C22.3326 16.3462 22.3326 16.3462 22.3326 16.3462C22.3326 16.3462 22.3326 16.3462 22.3326 16.3462C22.3326 16.3462 22.3326 16.3462 22.3326 16.3462C22.3326 16.3462 22.3326 16.3462 22.3326 16.3462C22.3326 16.3462 22.3326 16.3462 22.3326 16.3462C22.3326 16.3462 22.3326 16.3462 22.3326 16.3462C22.3326 16.3462 22.3326 16.3462 22.3326 16.3462C22.3326 16.3462 22.3326 16.3462 22.3326 16.3462C22.3326 16.3462 22.3326 16.3462 22.3326 16.3462C22.3326 16.3462 22.3326 16.3462 22.3326 16.3462C22.3326 16.3462 22.3326 16.3462 22.3326 16.3462C22.3326 16.3462 22.3326 16.3462 22.3326 16.3462C22.3326 16.3462 22.3326 16.3462 22.3326 16.3462C22.3326 16.3462 22.3326 16.3462 22.3326 16.3462C22.3326 16.3462 22.3326 16.3462 22.3326 16.3462C22.3326 16.3462 22.3326 16.3462 22.3326 16.3462C22.3326 16.3462 22.3326 16.3462 22.3326 16.3462C22.3326 16.3462 22.3326 16.3462 22.3326 16.3462C22.3326 16.3462 22.3326 16.3462 22.3326 16.3462C22.3326 16.3462 22.3326 16.3462 22.3326 16.3462C22.3326 16.3462 22.3326 16.3462 22.3326 16.3462C22.3326 16.3462 22.3326 16.3462 22.3326 16.3462C22.3326 16.3462 22.3326 16.3462 22.3326 16.3462C22.3326 16.3462 22.3326 16.3462 22.3326 16.3462C22.3326 16.3462 22.3326 16.3462 22.3326 16.3462C22.3326 16.3462 22.3326 16.3462 22.3326 16.3462C22.3326 16.3462 22.3326 16.3462 22.3326 16.3462C22.3326 16.3462 22.3326 16.3462 22.3326 16.3462C22.3326 16.3462 22.3326 16.3462 22.3326 16.3462C22.3326 16.3462 22.3326 16.3462 22.3326 16.3462C22.3326 16.3462 22.3326 16.3462 22.3326 16.3462C22.3326 16.3462 22.3326 16.3462 22.3326 16.3462C22.3326 16.3462 22.3326 16.3462 22.3326 16.3462C22.3326 16.3462 22.3326 16.3462 22.3326 16.3462C22.3326 16.3462 22.3326 16.3462 22.3326 16.3462C22.3326 16.3462 22.3326 16.3462 22.3326 16.3462C22.3326 16.3462 22.3326 16.3462 22.3326 16.3462C22.3326 16.3462 22.3326 16.3462 22.3326 16.3462C22.3326 16.3462 22.3326 16.3462 22.3326 16.3462C22.3326 16.3462 22.3326 16.3462 22.3326 16.3462C22.3326 16.3462 22.3326 16.3462 22.3325 16.3462C22.3325 16.3462 22.3325 16.3462 22.3325 16.3462C22.3325 16.3462 22.3325 16.3462 22.3325 16.3462C22.3325 16.3462 22.3325 16.3462 22.3325 16.3462C22.3325 16.3462 22.3325 16.3462 22.3325 16.3462C22.3325 16.3462 22.3325 16.3462 22.3325 16.3462C22.3325 16.3462 22.3325 16.3462 22.3325 16.3462C22.3325 16.3462 22.3325 16.3462 22.3325 16.3462C22.3325 16.3462 22.3325 16.3462 22.3325 16.3462C22.3325 16.3462 22.3325 16.3462 22.3325 16.3462C22.3325 16.3462 22.3325 16.3462 22.3325 16.3462C22.3325 16.3462 22.3325 16.3462 22.3325 16.3462C22.3325 16.3462 22.3325 16.3462 22.3325 16.3462C22.3325 16.3462 22.3325 16.3462 22.3325 16.3462C22.3325 16.3462 22.3325 16.3462 22.3325 16.3462C22.3325 16.3462 22.3325 16.3462 22.3325 16.3462C22.3325 16.3462 22.3325 16.3462 22.3325 16.3462C22.3325 16.3462 22.3325 16.3462 22.3325 16.3462C22.3325 16.3462 22.3325 16.3462 22.3325 16.3462C22.3325 16.3462 22.3325 16.3462 22.3325 16.3462C22.3325 16.3462 22.3325 16.3462 22.3325 16.3462C22.3325 16.3462 22.3325 16.3462 22.3325 16.3462C22.3325 16.3462 22.3325 16.3462 22.3325 16.3462C22.3325 16.3462 22.3325 16.3462 22.3325 16.3462C22.3325 16.3462 22.3325 16.3462 22.3325 16.3462C22.3325 16.3462 22.3325 16.3462 22.3325 16.3462C22.3325 16.3462 22.3325 16.3462 22.3325 16.3462C22.3325 16.3462 22.3325 16.3462 22.3325 16.3462C22.3325 16.3462 22.3325 16.3462 22.3325 16.3462C22.3325 16.3462 22.3325 16.3462 22.3325 16.3462C22.3325 16.3462 22.3325 16.3462 22.3325 16.3462C22.3325 16.3462 22.3325 16.3462 22.3325 16.3462C22.3325 16.3462 22.3325 16.3462 22.3325 16.3462C22.3325 16.3462 22.3325 16.3462 22.3325 16.3462C22.3325 16.3462 22.3325 16.3462 22.3325 16.3462C22.3325 16.3462 22.3325 16.3462 22.3325 16.3462C22.3325 16.3462 22.3325 16.3462 22.3325 16.3462C22.3325 16.3462 22.3325 16.3462 22.3325 16.3462C22.3325 16.3462 22.3325 16.3462 22.3325 16.3462C22.3325 16.3462 22.3325 16.3462 22.3325 16.3462C22.3325 16.3462 22.3325 16.3462 22.3325 16.3462C22.3325 16.3462 22.3325 16.3462 22.3325 16.3462C22.3325 16.3462 22.3325 16.3462 22.3325 16.3462C22.3325 16.3462 22.3325 16.3462 22.3325 16.3462C22.3325 16.3462 22.3325 16.3462 22.3325 16.3462C22.3325 16.3462 22.3325 16.3462 22.3325 16.3462C22.3325 16.3462 22.3325 16.3462 22.3325 16.3462C22.3325 16.3462 22.3325 16.3462 22.3325 16.3462C22.3325 16.3462 22.3325 16.3462 22.3325 16.3462C22.3325 16.3462 22.3325 16.3462 22.3325 16.3462C22.3325 16.3462 22.3325 16.3462 22.3325 16.3462C22.3325 16.3462 22.3325 16.3462 22.3325 16.3462C22.3325 16.3462 22.3325 16.3462 22.3325 16.3462C22.3325 16.3462 22.3325 16.3462 22.3325 16.3462C22.3325 16.3462 22.3325 16.3462 22.3325 16.3462C22.3325 16.3462 22.3325 16.3462 22.3325 16.3462C22.3325 16.3462 22.3325 16.3462 22.3325 16.3462C22.3325 16.3462 22.3325 16.3462 22.3325 16.3462C22.3325 16.3462 22.3325 16.3462 22.3325 16.3462C22.3325 16.3462 22.3325 16.3462 22.3325 16.3462C22.3325 16.3462 22.3325 16.3462 22.3325 16.3462C22.3325 16.3462 22.3325 16.3462 22.3325 16.3462C22.3325 16.3462 22.3325 16.3462 22.3325 16.3462C22.3325 16.3462 22.3325 16.3462 22.3325 16.3462C22.3325 16.3462 22.3325 16.3462 22.3325 16.3462C22.3325 16.3462 22.3325 16.3462 22.3325 16.3462C22.3325 16.3462 22.3325 16.3462 22.3325 16.3462C22.3325 16.3462 22.3325 16.3462 22.3325 16.3462C22.3325 16.3462 22.3325 16.3462 22.3325 16.3462C22.3325 16.3462 22.3325 16.3462 22.3325 16.3462C22.3324 16.3462 22.3324 16.3462 22.3324 16.3462C22.3324 16.3462 22.3324 16.3462 22.3324 16.3462C22.3324 16.3462 22.3324 16.3462 22.3324 16.3462C22.3324 16.3462 22.3324 16.3462 22.3324 16.3462C22.3324 16.3462 22.3324 16.3462 22.3324 16.3462C22.3324 16.3462 22.3324 16.3462 22.3324 16.3462C22.3324 16.3462 22.3324 16.3462 22.3324 16.3462C22.3324 16.3462 22.3324 16.3462 22.3324 16.3462C22.3324 16.3462 22.3324 16.3462 22.3324 16.3462C22.3324 16.3462 22.3324 16.3462 22.3324 16.3462C22.3324 16.3462 22.3324 16.3462 22.3324 16.3462C22.3324 16.3462 22.3324 16.3462 22.3324 16.3462C22.3324 16.3462 22.3324 16.3462 22.3324 16.3462C22.3324 16.3462 22.3324 16.3462 22.3324 16.3462C22.3324 16.3462 22.3324 16.3462 22.3324 16.3462C22.3324 16.3462 22.3324 16.3462 22.3324 16.3462C22.3324 16.3462 22.3324 16.3462 22.3324 16.3462C22.3324 16.3462 22.3324 16.3462 22.3324 16.3462C22.3324 16.3462 22.3324 16.3462 22.3324 16.3462C22.3324 16.3462 22.3324 16.3462 22.3324 16.3462C22.3324 16.3462 22.3324 16.3462 22.3324 16.3462C22.3324 16.3462 22.3324 16.3462 22.3324 16.3462C22.3324 16.3462 22.3324 16.3462 22.3324 16.3462C22.3324 16.3462 22.3324 16.3462 22.3324 16.3462C22.3324 16.3462 22.3324 16.3462 22.3324 16.3462C22.3324 16.3462 22.3324 16.3462 22.3324 16.3462C22.3324 16.3462 22.3324 16.3462 22.3324 16.3462C22.3324 16.3462 22.3324 16.3462 22.3324 16.3462C22.3324 16.3462 22.3324 16.3462 22.3324 16.3462C22.3324 16.3462 22.3324 16.3462 22.3324 16.3462C22.3324 16.3462 22.3324 16.3462 22.3324 16.3462C22.3324 16.3462 22.3324 16.3462 22.3324 16.3462C22.3324 16.3462 22.3324 16.3462 22.3324 16.3462C22.3324 16.3462 22.3324 16.3462 22.3324 16.3462C22.3324 16.3462 22.3324 16.3462 22.3324 16.3462C22.3324 16.3462 22.3324 16.3462 22.3324 16.3462C22.3324 16.3462 22.3324 16.3462 22.3324 16.3462C22.3324 16.3462 22.3324 16.3462 22.3324 16.3462C22.3324 16.3462 22.3324 16.3462 22.3324 16.3462C22.3324 16.3462 22.3324 16.3462 22.3324 16.3462C22.3324 16.3462 22.3324 16.3462 22.3324 16.3462C22.3324 16.3462 22.3324 16.3462 22.3324 16.3462C22.3324 16.3462 22.3324 16.3462 22.3324 16.3462C22.3324 16.3462 22.3324 16.3462 22.3324 16.3462C22.3324 16.3462 22.3324 16.3462 22.3324 16.3462C22.3324 16.3462 22.3324 16.3462 22.3324 16.3462C22.3324 16.3462 22.3324 16.3462 22.3324 16.3462C22.3324 16.3462 22.3324 16.3462 22.3324 16.3462C22.3324 16.3462 22.3324 16.3462 22.3324 16.3462C22.3324 16.3462 22.3324 16.3462 22.3324 16.3462C22.3324 16.3462 22.3324 16.3462 22.3324 16.3462C22.3324 16.3462 22.3324 16.3462 22.3324 16.3462C22.3324 16.3462 22.3324 16.3462 22.3324 16.3462C22.3324 16.3462 22.3324 16.3462 22.3324 16.3462C22.3324 16.3462 22.3324 16.3462 22.3324 16.3462C22.3324 16.3462 22.3324 16.3462 22.3324 16.3462C22.3324 16.3462 22.3324 16.3462 22.3324 16.3462C22.3324 16.3462 22.3324 16.3462 22.3324 16.3462C22.3324 16.3462 22.3324 16.3462 22.3324 16.3462C22.3324 16.3462 22.3324 16.3462 22.3324 16.3462C22.3324 16.3462 22.3324 16.3462 22.3324 16.3462C22.3324 16.3462 22.3324 16.3462 22.3324 16.3462C22.3324 16.3462 22.3324 16.3462 22.3324 16.3462C22.3324 16.3462 22.3324 16.3462 22.3324 16.3462C22.3324 16.3462 22.3324 16.3462 22.3324 16.3462C22.3324 16.3462 22.3324 16.3462 22.3324 16.3462C22.3324 16.3462 22.3324 16.3462 22.3324 16.3462C22.3324 16.3462 22.3324 16.3462 22.3324 16.3462C22.3324 16.3462 22.3324 16.3462 22.3324 16.3462C22.3324 16.3462 22.3323 16.3462 22.3323 16.3462C22.3323 16.3462 22.3323 16.3462 22.3323 16.3462C22.3323 16.3462 22.3323 16.3462 22.3323 16.3462C22.3323 16.3462 22.3323 16.3462 22.3323 16.3462C22.3323 16.3462 22.3323 16.3462 22.3323 16.3462C22.3323 16.3462 22.3323 16.3462 22.3323 16.3462C22.3323 16.3462 22.3323 16.3462 22.3323 16.3462C22.3323 16.3462 22.3323 16.3462 22.3323 16.3462C22.3323 16.3462 22.3323 16.3462 22.3323 16.3462C22.3323 16.3462 22.3323 16.3462 22.3323 16.3462C22.3323 16.3462 22.3323 16.3462 22.3323 16.3462C22.3323 16.3462 22.3323 16.3462 22.3323 16.3462C22.3323 16.3462 22.3323 16.3462 22.3323 16.3462C22.3323 16.3462 22.3323 16.3462 22.3323 16.3462C22.3323 16.3462 22.3323 16.3462 22.3323 16.3462C22.3323 16.3462 22.3323 16.3462 22.3323 16.3462C22.3323 16.3462 22.3323 16.3462 22.3323 16.3462C22.3323 16.3462 22.3323 16.3462 22.3323 16.3462C22.3323 16.3462 22.3323 16.3462 22.3323 16.3462C22.3323 16.3462 22.3323 16.3462 22.3323 16.3462C22.3323 16.3462 22.3323 16.3462 22.3323 16.3462C22.3323 16.3462 22.3323 16.3462 22.3323 16.3462C22.3323 16.3462 22.3323 16.3462 22.3323 16.3462C22.3323 16.3462 22.3323 16.3462 22.3323 16.3462C22.3323 16.3462 22.3323 16.3462 22.3323 16.3462C22.3323 16.3462 22.3323 16.3462 22.3323 16.3462C22.3323 16.3462 22.3323 16.3462 22.3323 16.3462C22.3323 16.3462 22.3323 16.3462 22.3323 16.3462C22.3323 16.3462 22.3323 16.3462 22.3323 16.3462C22.3323 16.3462 22.3323 16.3462 22.3323 16.3462C22.3323 16.3462 22.3323 16.3462 22.3323 16.3462C22.3323 16.3462 22.3323 16.3462 22.3323 16.3462C22.3323 16.3462 22.3323 16.3462 22.3323 16.3462C22.3323 16.3462 22.3323 16.3462 22.3323 16.3462C22.3323 16.3462 22.3323 16.3462 22.3323 16.3462C22.3323 16.3462 22.3323 16.3462 22.3323 16.3462C22.3323 16.3462 22.3323 16.3462 22.3323 16.3462C22.3323 16.3462 22.3323 16.3462 22.3323 16.3462C22.3323 16.3462 22.3323 16.3462 22.3323 16.3462C22.3323 16.3462 22.3323 16.3462 22.3323 16.3462C22.3323 16.3462 22.3323 16.3462 22.3323 16.3462C22.3323 16.3462 22.3323 16.3462 22.3323 16.3462C22.3323 16.3462 22.3323 16.3462 22.3323 16.3462C22.3323 16.3462 22.3323 16.3462 22.3323 16.3462C22.3323 16.3462 22.3323 16.3462 22.3323 16.3462C22.3323 16.3462 22.3323 16.3462 22.3323 16.3462C22.3323 16.3462 22.3323 16.3462 22.3323 16.3462C22.3323 16.3462 22.3323 16.3462 22.3323 16.3462C22.3323 16.3462 22.3323 16.3462 22.3323 16.3462C22.3323 16.3462 22.3323 16.3462 22.3323 16.3462C22.3323 16.3462 22.3323 16.3462 22.3323 16.3462C22.3323 16.3462 22.3323 16.3462 22.3323 16.3462C22.3323 16.3462 22.3323 16.3462 22.3323 16.3462C22.3323 16.3462 22.3323 16.3462 22.3323 16.3462C22.3323 16.3462 22.3323 16.3462 22.3323 16.3462C22.3323 16.3462 22.3323 16.3462 22.3323 16.3462C22.3323 16.3462 22.3323 16.3462 22.3323 16.3462C22.3323 16.3462 22.3323 16.3462 22.3323 16.3462C22.3323 16.3462 22.3323 16.3462 22.3323 16.3462C22.3323 16.3462 22.3323 16.3462 22.3323 16.3462C22.3323 16.3462 22.3323 16.3462 22.3323 16.3462C22.3323 16.3462 22.3323 16.3462 22.3323 16.3462C22.3323 16.3462 22.3323 16.3462 22.3323 16.3462C22.3323 16.3462 22.3323 16.3462 22.3323 16.3462C22.3323 16.3462 22.3323 16.3462 22.3323 16.3462C22.3323 16.3462 22.3323 16.3462 22.3323 16.3462C22.3323 16.3462 22.3323 16.3462 22.3323 16.3462C22.3323 16.3462 22.3323 16.3462 22.3323 16.3462C22.3323 16.3462 22.3323 16.3462 22.3322 16.3462C22.3322 16.3462 22.3322 16.3462 22.3322 16.3462C22.3322 16.3462 22.3322 16.3462 22.3322 16.3462C22.3322 16.3462 22.3322 16.3462 22.3322 16.3462C22.3322 16.3462 22.3322 16.3462 22.3322 16.3462C22.3322 16.3462 22.3322 16.3462 22.3322 16.3462C22.3322 16.3462 22.3322 16.3462 22.3322 16.3462C22.3322 16.3462 22.3322 16.3462 22.3322 16.3462C22.3322 16.3462 22.3322 16.3462 22.3322 16.3462C22.3322 16.3462 22.3322 16.3462 22.3322 16.3462C22.3322 16.3462 22.3322 16.3462 22.3322 16.3462C22.3322 16.3462 22.3322 16.3462 22.3322 16.3462C22.3322 16.3462 22.3322 16.3462 22.3322 16.3462C22.3322 16.3462 22.3322 16.3462 22.3322 16.3462C22.3322 16.3462 22.3322 16.3462 22.3322 16.3462C22.3322 16.3462 22.3322 16.3462 22.3322 16.3462C22.3322 16.3462 22.3322 16.3462 22.3322 16.3462C22.3322 16.3462 22.3322 16.3462 22.3322 16.3462C22.3322 16.3462 22.3322 16.3462 22.3322 16.3462C22.3322 16.3462 22.3322 16.3462 22.3322 16.3462C22.3322 16.3462 22.3322 16.3462 22.3322 16.3462C22.3322 16.3462 22.3322 16.3462 22.3322 16.3462C22.3322 16.3462 22.3322 16.3462 22.3322 16.3462C22.3322 16.3462 22.3322 16.3462 22.3322 16.3462C22.3322 16.3462 22.3322 16.3462 22.3322 16.3462C22.3322 16.3462 22.3322 16.3462 22.3322 16.3462C22.3322 16.3462 22.3322 16.3462 22.3322 16.3462C22.3322 16.3462 22.3322 16.3462 22.3322 16.3462C22.3322 16.3462 22.3322 16.3462 22.3322 16.3462C22.3322 16.3462 22.3322 16.3462 22.3322 16.3462C22.3322 16.3462 22.3322 16.3462 22.3322 16.3462C22.3322 16.3462 22.3322 16.3462 22.3322 16.3462C22.3322 16.3462 22.3322 16.3462 22.3322 16.3462C22.3322 16.3462 22.3322 16.3462 22.3322 16.3462C22.3322 16.3462 22.3322 16.3462 22.3322 16.3462C22.3322 16.3462 22.3322 16.3462 22.3322 16.3462C22.3322 16.3462 22.3322 16.3462 22.3322 16.3462C22.3322 16.3462 22.3322 16.3462 22.3322 16.3462C22.3322 16.3462 22.3322 16.3462 22.3322 16.3462C22.3322 16.3462 22.3322 16.3462 22.3322 16.3462C22.3322 16.3462 22.3322 16.3462 22.3322 16.3462C22.3322 16.3462 22.3322 16.3462 22.3322 16.3462C22.3322 16.3462 22.3322 16.3462 22.3322 16.3462C22.3322 16.3462 22.3322 16.3462 22.3322 16.3462C22.3322 16.3462 22.3322 16.3462 22.3322 16.3462C22.3322 16.3462 22.3322 16.3462 22.3322 16.3462C22.3322 16.3462 22.3322 16.3462 22.3322 16.3462C22.3322 16.3462 22.3322 16.3462 22.3322 16.3462C22.3322 16.3462 22.3322 16.3462 22.3322 16.3462C22.3322 16.3462 22.3322 16.3462 22.3322 16.3462C22.3322 16.3462 22.3322 16.3462 22.3322 16.3462C22.3322 16.3462 22.3322 16.3462 22.3322 16.3462C22.3322 16.3462 22.3322 16.3462 22.3322 16.3462C22.3322 16.3462 22.3322 16.3462 22.3322 16.3462C22.3322 16.3462 22.3322 16.3462 22.3322 16.3462C22.3322 16.3462 22.3322 16.3462 22.3322 16.3462C22.3322 16.3462 22.3322 16.3462 22.3322 16.3462C22.3322 16.3462 22.3322 16.3462 22.3322 16.3462C22.3322 16.3462 22.3322 16.3462 22.3322 16.3462C22.3322 16.3462 22.3322 16.3462 22.3322 16.3462C22.3322 16.3462 22.3322 16.3462 22.3322 16.3462C22.3322 16.3462 22.3322 16.3462 22.3322 16.3462C22.3322 16.3462 22.3322 16.3462 22.3322 16.3462C22.3322 16.3462 22.3322 16.3462 22.3322 16.3462C22.3322 16.3462 22.3322 16.3462 22.3322 16.3462C22.3322 16.3462 22.3322 16.3462 22.3322 16.3462C22.3322 16.3462 22.3321 16.3462 22.3321 16.3462C22.3321 16.3462 22.3321 16.3462 22.3321 16.3462C22.3321 16.3462 22.3321 16.3462 22.3321 16.3462C22.3321 16.3462 22.3321 16.3462 22.3321 16.3462C22.3321 16.3462 22.3321 16.3462 22.3321 16.3462C22.3321 16.3462 22.3321 16.3462 22.3321 16.3462C22.3321 16.3462 22.3321 16.3462 22.3321 16.3462C22.3321 16.3462 22.3321 16.3462 22.3321 16.3462C22.3321 16.3462 22.3321 16.3462 22.3321 16.3462C22.3321 16.3462 22.3321 16.3462 22.3321 16.3462C22.3321 16.3462 22.3321 16.3462 22.3321 16.3462C22.3321 16.3462 22.3321 16.3462 22.3321 16.3462C22.3321 16.3462 22.3321 16.3462 22.3321 16.3462C22.3321 16.3462 22.3321 16.3462 22.3321 16.3462C22.3321 16.3462 22.3321 16.3462 22.3321 16.3462C22.3321 16.3462 22.3321 16.3462 22.3321 16.3462C22.3321 16.3462 22.3321 16.3462 22.3321 16.3462C22.3321 16.3462 22.3321 16.3462 22.3321 16.3462C22.3321 16.3462 22.3321 16.3462 22.3321 16.3462C22.3321 16.3462 22.3321 16.3462 22.3321 16.3462C22.3321 16.3462 22.3321 16.3462 22.3321 16.3462C22.3321 16.3462 22.3321 16.3462 22.3321 16.3462C22.3321 16.3462 22.3321 16.3462 22.3321 16.3462C22.3321 16.3462 22.3321 16.3462 22.3321 16.3462C22.3321 16.3462 22.3321 16.3462 22.3321 16.3462C22.3321 16.3462 22.3321 16.3462 22.3321 16.3462C22.3321 16.3462 22.3321 16.3462 22.3321 16.3462C22.3321 16.3462 22.3321 16.3462 22.3321 16.3462C22.3321 16.3462 22.3321 16.3462 22.3321 16.3462C22.3321 16.3462 22.3321 16.3462 22.3321 16.3462C22.3321 16.3462 22.3321 16.3462 22.3321 16.3462C22.3321 16.3462 22.3321 16.3462 22.3321 16.3462C22.3321 16.3462 22.3321 16.3462 22.3321 16.3462C22.3321 16.3462 22.3321 16.3462 22.3321 16.3462C22.3321 16.3462 22.3321 16.3462 22.3321 16.3462C22.3321 16.3462 22.3321 16.3462 22.3321 16.3462C22.3321 16.3462 22.3321 16.3462 22.3321 16.3462C22.3321 16.3462 22.3321 16.3462 22.3321 16.3462C22.3321 16.3462 22.3321 16.3462 22.3321 16.3462C22.3321 16.3462 22.3321 16.3462 22.3321 16.3462C22.3321 16.3462 22.3321 16.3462 22.3321 16.3462C22.3321 16.3462 22.3321 16.3462 22.3321 16.3462C22.3321 16.3462 22.3321 16.3462 22.3321 16.3462C22.3321 16.3462 22.3321 16.3462 22.3321 16.3462C22.3321 16.3462 22.3321 16.3462 22.3321 16.3462C22.3321 16.3462 22.3321 16.3462 22.3321 16.3462C22.3321 16.3462 22.3321 16.3462 22.3321 16.3462C22.3321 16.3462 22.3321 16.3462 22.3321 16.3462C22.3321 16.3462 22.3321 16.3462 22.3321 16.3462C22.3321 16.3462 22.3321 16.3462 22.3321 16.3462C22.3321 16.3462 22.3321 16.3462 22.3321 16.3462C22.3321 16.3462 22.3321 16.3462 22.3321 16.3462C22.3321 16.3462 22.3321 16.3462 22.3321 16.3462C22.3321 16.3462 22.3321 16.3462 22.3321 16.3462C22.3321 16.3462 22.3321 16.3462 22.3321 16.3462C22.3321 16.3462 22.3321 16.3462 22.3321 16.3462C22.3321 16.3462 22.3321 16.3462 22.3321 16.3462C22.3321 16.3462 22.3321 16.3462 22.3321 16.3462C22.3321 16.3462 22.3321 16.3462 22.3321 16.3462C22.3321 16.3462 22.3321 16.3462 22.3321 16.3462C22.3321 16.3462 22.3321 16.3462 22.3321 16.3462V16.7462ZM22.3328 16.7462C22.5802 16.7462 22.7823 16.5779 22.8685 16.3549L22.4955 16.2106C22.4578 16.3079 22.3864 16.3462 22.3328 16.3462V16.7462ZM22.8687 16.3544C22.8681 16.356 23.2012 15.5041 23.9155 14.6706L23.6118 14.4103C22.8555 15.2928 22.5026 16.192 22.4953 16.2111L22.8687 16.3544ZM23.9155 14.6706C24.8478 13.5825 25.9523 13.0433 27.204 13.0433V12.6433C25.82 12.6433 24.6094 13.246 23.6118 14.4103L23.9155 14.6706ZM27.204 13.0433C29.4243 13.0433 31.1671 15.1887 31.1671 18.154H31.5671C31.5671 15.064 29.7304 12.6433 27.204 12.6433V13.0433ZM31.1671 18.154C31.1671 20.1624 30.156 22.1255 28.513 24.2152C26.8704 26.3046 24.6233 28.4881 22.1906 30.9441L22.4748 31.2256C24.8965 28.7807 27.1666 26.5751 28.8275 24.4625C30.4881 22.3502 31.5671 20.2984 31.5671 18.154L31.1671 18.154Z" fill="#1B438B"/>
</g>
<path id="Path 1618" fill-rule="evenodd" clip-rule="evenodd" d="M26.0075 21.2247H23.8637V18.9977C23.8637 18.778 23.6923 18.6 23.4809 18.6H21.184C20.9726 18.6 20.8012 18.778 20.8012 18.9977V21.2247H18.6574C18.446 21.2247 18.2746 21.4027 18.2746 21.6223V24.0085C18.2746 24.2281 18.446 24.4062 18.6574 24.4062H20.8012V26.6332C20.8012 26.8528 20.9726 27.0308 21.184 27.0308H23.4809C23.6923 27.0308 23.8637 26.8528 23.8637 26.6332V24.4062H26.0075C26.2189 24.4062 26.3902 24.2281 26.3902 24.0085V21.6223C26.3902 21.4027 26.2189 21.2247 26.0075 21.2247ZM25.6246 23.6108H23.4809C23.2694 23.6108 23.0981 23.7888 23.0981 24.0084V26.2354H21.5668V24.0084C21.5668 23.7888 21.3955 23.6108 21.184 23.6108H19.0402V22.02H21.184C21.3955 22.02 21.5668 21.8419 21.5668 21.6223V19.3953H23.0981V21.6223C23.0981 21.8419 23.2694 22.02 23.4809 22.02H25.6246V23.6108Z" fill="#1B438B"/>
</g>
</g>
</g>
</svg>
