<svg width="25" height="22" viewBox="0 0 25 22" fill="none" xmlns="http://www.w3.org/2000/svg">
<g id="Group 318">
<g id="My Bills Stroke">
<mask id="mask0_0_1934" style="mask-type:luminance" maskUnits="userSpaceOnUse" x="0" y="0" width="25" height="22">
<path id="Rectangle 996" fill-rule="evenodd" clip-rule="evenodd" d="M0 0H25V22H0V0Z" fill="white"/>
</mask>
<g mask="url(#mask0_0_1934)">
<g id="Path 1041">
<path fill-rule="evenodd" clip-rule="evenodd" d="M21.3898 1.83642C21.3142 1.78982 21.2272 1.76501 21.1385 1.76501H6.81164C5.57993 1.76501 4.57787 2.7573 4.57787 3.97341L4.49368 16.311H1.90453C1.63879 16.311 1.42342 16.5264 1.42342 16.7921V19.0148C1.42511 20.647 2.74778 21.9697 4.37998 21.9715C4.41306 21.9715 4.44632 21.9682 4.47883 21.9614H16.4323C16.5035 21.9665 16.5753 21.9698 16.6476 21.9698C18.3052 21.9668 19.6474 20.6228 19.648 18.9652V11.7531H22.891C23.1568 11.7531 23.3721 11.5377 23.3721 11.272V4.13016C23.3663 2.9817 22.5253 2.0084 21.3898 1.83644L21.3898 1.83642ZM2.38564 19.015V17.2734H13.6473V18.9654C13.6467 19.7191 13.9303 20.4454 14.4417 20.9992H4.3142C4.29146 20.9993 4.26891 21.0011 4.24655 21.0045C3.19995 20.9332 2.38696 20.064 2.38564 19.015ZM18.6858 4.13015V18.9652C18.6848 19.503 18.4712 20.0184 18.0913 20.3989C17.7277 20.772 17.2337 20.9898 16.713 21.0063C16.6871 21.0018 16.6608 20.9996 16.6343 20.9994H16.4652C15.4173 20.8962 14.6165 20.0185 14.6095 18.9656V16.7921C14.6095 16.5266 14.3942 16.311 14.1284 16.311H5.45588L5.54008 3.97679C5.54704 3.28107 6.11572 2.72197 6.81163 2.72723H19.1637C18.8538 3.12922 18.6856 3.62254 18.6858 4.13015H18.6858ZM22.4098 10.7908H19.648V4.13014C19.6606 3.37634 20.2752 2.77214 21.029 2.77214C21.7827 2.77214 22.3972 3.37634 22.4098 4.13014V10.7908Z" fill="#A4B4D1"/>
<path d="M21.3898 1.83642L21.7348 1.47449L21.6968 1.43833L21.6522 1.41082L21.3898 1.83642ZM4.57787 3.97341L5.07787 3.97683V3.97341H4.57787ZM4.49368 16.311V16.811H4.99028L4.99366 16.3144L4.49368 16.311ZM1.42342 19.0148L0.923416 19.0148L0.923416 19.0153L1.42342 19.0148ZM4.37998 21.9715L4.37942 22.4715H4.37998V21.9715ZM4.47883 21.9614V21.4614H4.42762L4.37748 21.4718L4.47883 21.9614ZM16.4323 21.9614L16.4677 21.4627L16.45 21.4614H16.4323V21.9614ZM16.6476 21.9698L16.6476 22.4698L16.6485 22.4698L16.6476 21.9698ZM19.648 18.9652L20.148 18.9654V18.9652H19.648ZM19.648 11.7531V11.2531H19.148V11.7531H19.648ZM23.3721 4.13016H23.8721L23.8721 4.12765L23.3721 4.13016ZM21.3898 1.83644L21.0448 2.19838L21.159 2.30719L21.3149 2.33081L21.3898 1.83644ZM2.38564 19.015L1.88564 19.015L1.88564 19.0156L2.38564 19.015ZM2.38564 17.2734V16.7734H1.88564V17.2734H2.38564ZM13.6473 17.2734H14.1473V16.7734H13.6473V17.2734ZM13.6473 18.9654L14.1473 18.9657V18.9654H13.6473ZM14.4417 20.9992V21.4992H15.584L14.8091 20.66L14.4417 20.9992ZM4.3142 20.9992L4.3142 20.4992L4.3109 20.4992L4.3142 20.9992ZM4.24655 21.0045L4.21258 21.5033L4.26706 21.507L4.32106 21.4989L4.24655 21.0045ZM18.6858 4.13015H19.1858V3.63015H18.6858V4.13015ZM18.6858 18.9652L19.1858 18.9661V18.9652H18.6858ZM18.0913 20.3989L17.7375 20.0456L17.7333 20.0499L18.0913 20.3989ZM16.713 21.0063L16.628 21.499L16.6781 21.5077L16.7289 21.5061L16.713 21.0063ZM16.6343 20.9994L16.6385 20.4994H16.6343V20.9994ZM16.4652 20.9994L16.4162 21.497L16.4406 21.4994H16.4652V20.9994ZM14.6095 18.9656L14.1095 18.9656L14.1096 18.9689L14.6095 18.9656ZM5.45588 16.311L4.95589 16.3076L4.95245 16.811H5.45588V16.311ZM5.54008 3.97679L5.0401 3.97179L5.04009 3.97338L5.54008 3.97679ZM6.81163 2.72723L6.80785 3.22723H6.81163V2.72723ZM19.1637 2.72723L19.5597 3.03252L20.1805 2.22723H19.1637V2.72723ZM18.6858 4.13015L18.1858 4.13037L18.186 4.63015H18.6858V4.13015ZM22.4098 10.7908V11.2908H22.9098V10.7908H22.4098ZM19.648 10.7908H19.148V11.2908H19.648V10.7908ZM19.648 4.13014L19.148 4.12179V4.13014H19.648ZM22.4098 4.13014L22.9099 4.13014L22.9098 4.12179L22.4098 4.13014ZM21.6522 1.41082C21.4982 1.31589 21.3205 1.26501 21.1385 1.26501V2.26501C21.134 2.26501 21.1302 2.26376 21.1274 2.26203L21.6522 1.41082ZM21.1385 1.26501H6.81164V2.26501H21.1385V1.26501ZM6.81164 1.26501C5.30894 1.26501 4.07787 2.47603 4.07787 3.97341H5.07787C5.07787 3.03858 5.85091 2.26501 6.81164 2.26501V1.26501ZM4.07788 3.97L3.99369 16.3076L4.99366 16.3144L5.07785 3.97683L4.07788 3.97ZM4.49368 15.811H1.90453V16.811H4.49368V15.811ZM1.90453 15.811C1.36262 15.811 0.923416 16.2503 0.923416 16.7921H1.92342C1.92342 16.8025 1.91495 16.811 1.90453 16.811V15.811ZM0.923416 16.7921V19.0148H1.92342V16.7921H0.923416ZM0.923416 19.0153C0.925392 20.9233 2.47151 22.4694 4.37942 22.4715L4.38054 21.4715C3.02404 21.47 1.92482 20.3707 1.92342 19.0143L0.923416 19.0153ZM4.37998 22.4715C4.4468 22.4715 4.51403 22.4647 4.58017 22.4511L4.37748 21.4718C4.3786 21.4716 4.37931 21.4715 4.37998 21.4715V22.4715ZM4.47883 22.4614H16.4323V21.4614H4.47883V22.4614ZM16.3969 22.4602C16.4759 22.4658 16.56 22.4698 16.6476 22.4698V21.4698C16.5905 21.4698 16.5311 21.4672 16.4677 21.4627L16.3969 22.4602ZM16.6485 22.4698C18.5818 22.4663 20.1473 20.8987 20.148 18.9654L19.148 18.965C19.1475 20.3469 18.0286 21.4673 16.6467 21.4698L16.6485 22.4698ZM20.148 18.9652V11.7531H19.148V18.9652H20.148ZM19.648 12.2531H22.891V11.2531H19.648V12.2531ZM22.891 12.2531C23.4329 12.2531 23.8721 11.8138 23.8721 11.272H22.8721C22.8721 11.2616 22.8806 11.2531 22.891 11.2531V12.2531ZM23.8721 11.272V4.13016H22.8721V11.272H23.8721ZM23.8721 4.12765C23.8651 2.733 22.8438 1.55093 21.4647 1.34208L21.3149 2.33081C22.2068 2.46588 22.8675 3.23041 22.8721 4.13268L23.8721 4.12765ZM21.7348 1.47451L21.7348 1.47449L21.0448 2.19836L21.0448 2.19838L21.7348 1.47451ZM2.88564 19.015V17.2734H1.88564V19.015H2.88564ZM2.38564 17.7734H13.6473V16.7734H2.38564V17.7734ZM13.1473 17.2734V18.9654H14.1473V17.2734H13.1473ZM13.1473 18.965C13.1466 19.8446 13.4776 20.6921 14.0744 21.3384L14.8091 20.66C14.3831 20.1986 14.1468 19.5937 14.1473 18.9657L13.1473 18.965ZM14.4417 20.4992H4.3142V21.4992H14.4417V20.4992ZM4.3109 20.4992C4.2646 20.4995 4.21824 20.5031 4.17203 20.51L4.32106 21.4989C4.31957 21.4991 4.31831 21.4992 4.31749 21.4992L4.3109 20.4992ZM4.28051 20.5056C3.49604 20.4522 2.88663 19.8007 2.88564 19.0143L1.88564 19.0156C1.88729 20.3274 2.90385 21.4142 4.21258 21.5033L4.28051 20.5056ZM18.1858 4.13015V18.9652H19.1858V4.13015H18.1858ZM18.1858 18.9643C18.1851 19.3701 18.0239 19.7587 17.7375 20.0457L18.4452 20.7522C18.9185 20.278 19.1846 19.636 19.1858 18.9661L18.1858 18.9643ZM17.7333 20.0499C17.4599 20.3304 17.0884 20.4941 16.6972 20.5066L16.7289 21.5061C17.3789 21.4854 17.9956 21.2135 18.4494 20.7479L17.7333 20.0499ZM16.7981 20.5136C16.744 20.5043 16.6906 20.4998 16.6385 20.4994L16.6302 21.4993C16.631 21.4993 16.6302 21.4994 16.628 21.499L16.7981 20.5136ZM16.6343 20.4994H16.4652V21.4994H16.6343V20.4994ZM16.5142 20.5018C15.7209 20.4237 15.1148 19.7593 15.1095 18.9623L14.1096 18.9689C14.1182 20.2777 15.1136 21.3687 16.4162 21.497L16.5142 20.5018ZM15.1095 18.9656V16.7921H14.1095V18.9656H15.1095ZM15.1095 16.7921C15.1095 16.2505 14.6704 15.811 14.1284 15.811V16.811C14.1179 16.811 14.1095 16.8026 14.1095 16.7921H15.1095ZM14.1284 15.811H5.45588V16.811H14.1284V15.811ZM5.95586 16.3144L6.04006 3.98021L5.04009 3.97338L4.95589 16.3076L5.95586 16.3144ZM6.04005 3.9818C6.04425 3.56161 6.38772 3.22404 6.80785 3.22722L6.81541 2.22725C5.84372 2.2199 5.04982 3.00054 5.0401 3.97179L6.04005 3.9818ZM6.81163 3.22723H19.1637V2.22723H6.81163V3.22723ZM18.7677 2.42195C18.3904 2.91136 18.1855 3.51208 18.1858 4.13037L19.1858 4.12994C19.1856 3.73301 19.3171 3.34709 19.5597 3.03252L18.7677 2.42195ZM18.6858 4.63015H18.6858V3.63015H18.6858V4.63015ZM22.4098 10.2908H19.648V11.2908H22.4098V10.2908ZM20.148 10.7908V4.13014H19.148V10.7908H20.148ZM20.1479 4.13849C20.156 3.6576 20.548 3.27214 21.029 3.27214V2.27214C20.0023 2.27214 19.1652 3.09509 19.1481 4.12179L20.1479 4.13849ZM21.029 3.27214C21.5099 3.27214 21.9019 3.65757 21.9099 4.13849L22.9098 4.12179C22.8926 3.09512 22.0556 2.27214 21.029 2.27214V3.27214ZM21.9098 4.13014V10.7908H22.9098V4.13014H21.9098Z" fill="#A4B4D1"/>
</g>
<path id="Path 1042" fill-rule="evenodd" clip-rule="evenodd" d="M7.59952 7.01501H12.1561C12.4219 7.01501 12.6373 6.79119 12.6373 6.51501C12.6373 6.23885 12.4219 6.01501 12.1561 6.01501H7.59952C7.33379 6.01501 7.11841 6.23885 7.11841 6.51501C7.11841 6.79119 7.33379 7.01501 7.59952 7.01501Z" fill="#A4B4D1" stroke="#A4B4D1"/>
<path id="Path 1043" fill-rule="evenodd" clip-rule="evenodd" d="M16.0993 9.45502H7.59952C7.33379 9.45502 7.11841 9.67886 7.11841 9.95502C7.11841 10.231 7.33379 10.455 7.59952 10.455H16.0993C16.3651 10.455 16.5804 10.231 16.5804 9.95502C16.5804 9.67886 16.3651 9.45502 16.0993 9.45502Z" fill="#A4B4D1" stroke="#A4B4D1"/>
<path id="Path 1044" fill-rule="evenodd" clip-rule="evenodd" d="M16.0993 12.895H7.59952C7.33379 12.895 7.11841 13.1191 7.11841 13.395C7.11841 13.6712 7.33379 13.895 7.59952 13.895H16.0993C16.3651 13.895 16.5804 13.6712 16.5804 13.395C16.5804 13.1191 16.3651 12.895 16.0993 12.895Z" fill="#A4B4D1" stroke="#A4B4D1"/>
</g>
</g>
</g>
</svg>
