<svg width="43" height="43" viewBox="0 0 43 43" fill="none" xmlns="http://www.w3.org/2000/svg">
<g id="Group 1188">
<path id="Path 1639" fill-rule="evenodd" clip-rule="evenodd" d="M21.5 0C33.3741 0 43 9.62588 43 21.5C43 33.3741 33.3741 43 21.5 43C9.62588 43 0 33.3741 0 21.5C0 9.62588 9.62588 0 21.5 0Z" fill="white"/>
<g id="tap (1) 1">
<g id="Path 1640">
<path fill-rule="evenodd" clip-rule="evenodd" d="M27.0511 19.6829H27.0238C26.6502 19.6808 26.2892 19.818 26.0113 20.0678C25.7863 19.4452 25.2147 18.9977 24.5451 18.9977C24.1346 19.0006 23.7427 19.1691 23.4584 19.4652C23.1969 18.936 22.6724 18.5769 22.0694 18.5769H22.0403C21.7171 18.572 21.4017 18.6771 21.146 18.8748V15.1016C21.146 14.1897 20.4362 13.448 19.5726 13.448C18.7101 13.448 18.0038 14.1893 18.0034 15.1005L17.9962 22.5868L17.5725 22.0723C17.201 21.6097 16.6541 21.3225 16.0624 21.2792C15.4829 21.2395 14.9128 21.4411 14.4872 21.8366L14.1186 22.142C13.9997 22.2405 13.9658 22.4086 14.037 22.5455L17.6211 29.4349C18.2765 30.694 19.5234 31.4794 20.8751 31.4794H24.9144V31.4758C26.9623 31.4758 28.6228 29.6988 28.6249 27.5167C28.6257 26.5404 28.622 25.8127 28.6226 25.223C28.6247 23.6451 28.6231 23.0628 28.6191 21.3244C28.617 20.4146 27.9122 19.6829 27.0511 19.6829H27.0511ZM27.9625 25.2207C27.9618 25.8106 27.9609 26.5412 27.9599 27.5175C27.9581 29.3388 26.5833 30.8239 24.8952 30.8239H20.8754C19.7688 30.8239 18.7446 30.1735 18.2027 29.1322L14.7405 22.4793L14.9114 22.3368C14.9157 22.3332 14.9199 22.329 14.924 22.3254C15.2179 22.0488 15.6135 21.9067 16.0162 21.9331C16.4279 21.9646 16.8077 22.1658 17.0651 22.4886L18.0682 23.7091C18.1558 23.8161 18.3015 23.8563 18.4317 23.8097C18.5619 23.7631 18.6489 23.6396 18.6489 23.5013L18.6549 15.1008C18.6552 14.5507 19.0712 14.1032 19.573 14.1032C20.0747 14.1032 20.4907 14.5512 20.4907 15.1016V20.1666C20.4907 20.1842 20.4899 20.202 20.4899 20.2199C20.4899 20.2276 20.4907 20.2354 20.4907 20.243V22.4086C20.4907 22.5895 20.6374 22.7362 20.8184 22.7362C20.9993 22.7362 21.146 22.5895 21.146 22.4086V20.1777C21.146 19.647 21.5515 19.2323 22.0403 19.2323H22.0694C22.5715 19.2323 22.9893 19.6699 22.9893 20.2203V22.2019C22.9893 22.3828 23.136 22.5295 23.3169 22.5295C23.4979 22.5295 23.6446 22.3828 23.6446 22.2019V20.6471C23.6446 20.0966 24.0423 19.6488 24.5472 19.6488C25.0491 19.6488 25.4469 20.0964 25.4469 20.6471V22.1139C25.4469 22.2948 25.5936 22.4415 25.7745 22.4415C25.9555 22.4415 26.1022 22.2948 26.1022 22.1139V21.3196C26.1022 20.7691 26.5217 20.3382 27.0238 20.3382H27.0511C27.5519 20.3382 27.9601 20.7764 27.9613 21.3252C27.9654 23.0624 27.9645 23.644 27.9625 25.2207H27.9625Z" fill="#1B438B"/>
<path d="M27.0238 19.6829L27.0226 19.8829H27.0238V19.6829ZM26.0113 20.0678L25.8232 20.1358L25.9242 20.415L26.145 20.2165L26.0113 20.0678ZM24.5451 18.9977V18.7977L24.5437 18.7978L24.5451 18.9977ZM23.4584 19.4652L23.2791 19.5538L23.4053 19.8093L23.6026 19.6038L23.4584 19.4652ZM22.0403 18.5769L22.0372 18.7769H22.0403V18.5769ZM21.146 18.8748H20.946V19.2823L21.2684 19.033L21.146 18.8748ZM18.0034 15.1005L18.2034 15.1007L18.2034 15.1006L18.0034 15.1005ZM17.9962 22.5868L17.8418 22.7139L18.1956 23.1437L18.1962 22.587L17.9962 22.5868ZM17.5725 22.0723L17.4165 22.1975L17.4181 22.1994L17.5725 22.0723ZM16.0624 21.2792L16.077 21.0797L16.0761 21.0796L16.0624 21.2792ZM14.4872 21.8366L14.615 21.9908L14.6234 21.9831L14.4872 21.8366ZM14.1186 22.142L14.2462 22.296L14.2462 22.296L14.1186 22.142ZM14.037 22.5455L13.8595 22.6378L13.8596 22.6378L14.037 22.5455ZM17.6211 29.4349L17.4437 29.5272L17.4437 29.5273L17.6211 29.4349ZM24.9144 31.4794V31.6794H25.1144V31.4794H24.9144ZM24.9144 31.4758V31.2758H24.7144V31.4758H24.9144ZM28.6249 27.5167L28.8249 27.5169L28.8249 27.5169L28.6249 27.5167ZM28.6226 25.223L28.4226 25.2227L28.4226 25.2227L28.6226 25.223ZM28.6191 21.3244L28.4191 21.3249L28.4191 21.3249L28.6191 21.3244ZM27.9625 25.2207V25.0207H27.7628L27.7625 25.2205L27.9625 25.2207ZM27.9599 27.5175L28.1599 27.5177L28.1599 27.5177L27.9599 27.5175ZM18.2027 29.1322L18.0253 29.2246L18.0253 29.2246L18.2027 29.1322ZM14.7405 22.4793L14.6124 22.3257L14.4888 22.4289L14.5631 22.5716L14.7405 22.4793ZM14.9114 22.3368L14.7844 22.1822L14.7833 22.1832L14.9114 22.3368ZM14.924 22.3254L15.0568 22.475L15.0611 22.471L14.924 22.3254ZM16.0162 21.9331L16.0314 21.7336L16.0292 21.7335L16.0162 21.9331ZM17.0651 22.4886L16.9088 22.6133L16.9106 22.6156L17.0651 22.4886ZM18.0682 23.7091L18.2229 23.5823L18.2227 23.5821L18.0682 23.7091ZM18.4317 23.8097L18.3644 23.6213L18.3643 23.6214L18.4317 23.8097ZM18.6489 23.5013L18.4489 23.5012V23.5013H18.6489ZM18.6549 15.1008L18.8549 15.1009L18.8549 15.1009L18.6549 15.1008ZM27.9613 21.3252L27.7613 21.3257L27.7613 21.3257L27.9613 21.3252ZM27.9625 25.2207V25.4207H28.1623L28.1625 25.221L27.9625 25.2207ZM27.0511 19.4829H27.0238V19.8829H27.0511V19.4829ZM27.0249 19.4829C26.6015 19.4805 26.1925 19.636 25.8776 19.919L26.145 20.2165C26.3859 20 26.6988 19.881 27.0226 19.8829L27.0249 19.4829ZM26.1994 19.9998C25.949 19.3068 25.3079 18.7977 24.5451 18.7977V19.1977C25.1215 19.1977 25.6237 19.5836 25.8232 20.1358L26.1994 19.9998ZM24.5437 18.7978C24.0793 18.801 23.6358 18.9916 23.3141 19.3267L23.6026 19.6038C23.8496 19.3466 24.19 19.2002 24.5465 19.1977L24.5437 18.7978ZM23.6377 19.3767C23.3456 18.7854 22.7552 18.3769 22.0694 18.3769V18.7769C22.5896 18.7769 23.0482 19.0866 23.2791 19.5538L23.6377 19.3767ZM22.0694 18.3769H22.0403V18.7769H22.0694V18.3769ZM22.0433 18.377C21.6748 18.3713 21.3152 18.4912 21.0237 18.7166L21.2684 19.033C21.4882 18.863 21.7594 18.7727 22.0372 18.7769L22.0433 18.377ZM21.346 18.8748V15.1016H20.946V18.8748H21.346ZM21.346 15.1016C21.346 14.0884 20.5555 13.248 19.5726 13.248V13.648C20.3168 13.648 20.946 14.2911 20.946 15.1016H21.346ZM19.5726 13.248C18.5902 13.248 17.8039 14.0885 17.8034 15.1004L18.2034 15.1006C18.2038 14.29 18.83 13.648 19.5726 13.648V13.248ZM17.8034 15.1003L17.7962 22.5866L18.1962 22.587L18.2034 15.1007L17.8034 15.1003ZM18.1506 22.4597L17.7269 21.9451L17.4181 22.1994L17.8418 22.7139L18.1506 22.4597ZM17.7284 21.947C17.3221 21.4412 16.7241 21.1271 16.077 21.0797L16.0478 21.4786C16.5841 21.5179 17.0798 21.7782 17.4165 22.1975L17.7284 21.947ZM16.0761 21.0796C15.4415 21.0362 14.8172 21.2569 14.3511 21.69L14.6234 21.9831C15.0085 21.6252 15.5243 21.4428 16.0487 21.4787L16.0761 21.0796ZM14.3596 21.6826L13.991 21.988L14.2462 22.296L14.6148 21.9906L14.3596 21.6826ZM13.991 21.988C13.7995 22.1467 13.745 22.4173 13.8595 22.6378L14.2145 22.4533C14.1866 22.3998 14.1999 22.3344 14.2462 22.296L13.991 21.988ZM13.8596 22.6378L17.4437 29.5272L17.7985 29.3426L14.2144 22.4532L13.8596 22.6378ZM17.4437 29.5273C18.1312 30.848 19.4439 31.6794 20.8751 31.6794V31.2794C19.6028 31.2794 18.4218 30.5399 17.7985 29.3426L17.4437 29.5273ZM20.8751 31.6794H24.9144V31.2794H20.8751V31.6794ZM25.1144 31.4794V31.4758H24.7144V31.4794H25.1144ZM24.9144 31.6758C27.0851 31.6758 28.8227 29.7966 28.8249 27.5169L28.4249 27.5165C28.4229 29.601 26.8396 31.2758 24.9144 31.2758V31.6758ZM28.8249 27.5169C28.8257 26.5279 28.822 25.824 28.8226 25.2232L28.4226 25.2227C28.422 25.8014 28.4257 26.5529 28.4249 27.5165L28.8249 27.5169ZM28.8226 25.2232C28.8247 23.6449 28.8231 23.0624 28.8191 21.3239L28.4191 21.3249C28.4231 23.0632 28.4247 23.6452 28.4226 25.2227L28.8226 25.2232ZM28.8191 21.3239C28.8168 20.3126 28.031 19.4829 27.0511 19.4829V19.8829C27.7934 19.8829 28.4172 20.5167 28.4191 21.3249L28.8191 21.3239ZM27.0511 19.8829H27.0511V19.4829H27.0511V19.8829ZM27.7625 25.2205C27.7618 25.8104 27.7609 26.541 27.7599 27.5173L28.1599 27.5177C28.1609 26.5414 28.1618 25.8108 28.1625 25.221L27.7625 25.2205ZM27.7599 27.5173C27.7582 29.243 26.4587 30.6239 24.8952 30.6239V31.0239C26.708 31.0239 28.158 29.4345 28.1599 27.5177L27.7599 27.5173ZM24.8952 30.6239H20.8754V31.0239H24.8952V30.6239ZM20.8754 30.6239C19.8493 30.6239 18.8904 30.0204 18.3802 29.0399L18.0253 29.2246C18.5988 30.3265 19.6883 31.0239 20.8754 31.0239V30.6239ZM18.3802 29.0399L14.9179 22.387L14.5631 22.5716L18.0253 29.2246L18.3802 29.0399ZM14.8686 22.6329L15.0395 22.4903L14.7833 22.1832L14.6124 22.3257L14.8686 22.6329ZM15.0384 22.4913C15.0454 22.4855 15.0512 22.4802 15.0538 22.4778C15.0545 22.4771 15.0552 22.4764 15.0556 22.476C15.0562 22.4755 15.0565 22.4752 15.0568 22.4749C15.0574 22.4744 15.0572 22.4745 15.0567 22.475L14.7913 22.1757C14.7887 22.178 14.7865 22.1801 14.785 22.1814C14.7843 22.1822 14.7835 22.1828 14.783 22.1833C14.7825 22.1838 14.7821 22.1842 14.7818 22.1845C14.7802 22.186 14.7817 22.1845 14.7844 22.1822L15.0384 22.4913ZM15.0611 22.471C15.3146 22.2324 15.6557 22.1099 16.0031 22.1326L16.0292 21.7335C15.5712 21.7035 15.1213 21.8651 14.787 22.1797L15.0611 22.471ZM16.0009 22.1325C16.3572 22.1597 16.6859 22.3339 16.9088 22.6133L17.2215 22.3639C16.9295 21.9978 16.4985 21.7694 16.0314 21.7336L16.0009 22.1325ZM16.9106 22.6156L17.9136 23.8361L18.2227 23.5821L17.2196 22.3616L16.9106 22.6156ZM17.9135 23.8358C18.0548 24.0084 18.2894 24.073 18.4991 23.998L18.3643 23.6214C18.3135 23.6396 18.2568 23.6238 18.2229 23.5823L17.9135 23.8358ZM18.499 23.998C18.7088 23.923 18.8489 23.7242 18.8489 23.5013H18.4489C18.4489 23.5551 18.4151 23.6032 18.3644 23.6213L18.499 23.998ZM18.8489 23.5015L18.8549 15.1009L18.4549 15.1007L18.4489 23.5012L18.8489 23.5015ZM18.8549 15.1009C18.8551 14.6458 19.1964 14.3032 19.573 14.3032V13.9032C18.9459 13.9032 18.4553 14.4557 18.4549 15.1007L18.8549 15.1009ZM19.573 14.3032C19.9493 14.3032 20.2907 14.6461 20.2907 15.1016H20.6907C20.6907 14.4563 20.2001 13.9032 19.573 13.9032V14.3032ZM20.2907 15.1016V20.1666H20.6907V15.1016H20.2907ZM20.2907 20.1666C20.2907 20.1727 20.2906 20.1792 20.2903 20.1885C20.2901 20.197 20.2899 20.2083 20.2899 20.2199H20.6899C20.6899 20.2137 20.69 20.2071 20.6902 20.1978C20.6904 20.1894 20.6907 20.1782 20.6907 20.1666H20.2907ZM20.2899 20.2199C20.2899 20.23 20.2904 20.2393 20.2906 20.2423C20.2907 20.2444 20.2907 20.245 20.2907 20.2454C20.2908 20.2456 20.2907 20.2447 20.2907 20.243H20.6907C20.6907 20.2376 20.6906 20.2328 20.6904 20.2292C20.6903 20.2257 20.6901 20.2225 20.69 20.2208C20.6898 20.2161 20.6899 20.2175 20.6899 20.2199H20.2899ZM20.2907 20.243V22.4086H20.6907V20.243H20.2907ZM20.2907 22.4086C20.2907 22.7 20.527 22.9362 20.8184 22.9362V22.5362C20.7479 22.5362 20.6907 22.4791 20.6907 22.4086H20.2907ZM20.8184 22.9362C21.1098 22.9362 21.346 22.7 21.346 22.4086H20.946C20.946 22.4791 20.8889 22.5362 20.8184 22.5362V22.9362ZM21.346 22.4086V20.1777H20.946V22.4086H21.346ZM21.346 20.1777C21.346 19.7488 21.6704 19.4323 22.0403 19.4323V19.0323C21.4326 19.0323 20.946 19.5453 20.946 20.1777H21.346ZM22.0403 19.4323H22.0694V19.0323H22.0403V19.4323ZM22.0694 19.4323C22.4492 19.4323 22.7893 19.7681 22.7893 20.2203H23.1893C23.1893 19.5716 22.6938 19.0323 22.0694 19.0323V19.4323ZM22.7893 20.2203V22.2019H23.1893V20.2203H22.7893ZM22.7893 22.2019C22.7893 22.4933 23.0255 22.7295 23.3169 22.7295V22.3295C23.2465 22.3295 23.1893 22.2724 23.1893 22.2019H22.7893ZM23.3169 22.7295C23.6084 22.7295 23.8446 22.4933 23.8446 22.2019H23.4446C23.4446 22.2724 23.3874 22.3295 23.3169 22.3295V22.7295ZM23.8446 22.2019V20.6471H23.4446V22.2019H23.8446ZM23.8446 20.6471C23.8446 20.1865 24.1723 19.8488 24.5472 19.8488V19.4488C23.9124 19.4488 23.4446 20.0067 23.4446 20.6471H23.8446ZM24.5472 19.8488C24.9188 19.8488 25.2469 20.186 25.2469 20.6471H25.6469C25.6469 20.0069 25.1794 19.4488 24.5472 19.4488V19.8488ZM25.2469 20.6471V22.1139H25.6469V20.6471H25.2469ZM25.2469 22.1139C25.2469 22.4053 25.4831 22.6415 25.7745 22.6415V22.2415C25.704 22.2415 25.6469 22.1844 25.6469 22.1139H25.2469ZM25.7745 22.6415C26.0659 22.6415 26.3022 22.4053 26.3022 22.1139H25.9022C25.9022 22.1844 25.845 22.2415 25.7745 22.2415V22.6415ZM26.3022 22.1139V21.3196H25.9022V22.1139H26.3022ZM26.3022 21.3196C26.3022 20.8697 26.6418 20.5382 27.0238 20.5382V20.1382C26.4016 20.1382 25.9022 20.6685 25.9022 21.3196H26.3022ZM27.0238 20.5382H27.0511V20.1382H27.0238V20.5382ZM27.0511 20.5382C27.4269 20.5382 27.7603 20.8718 27.7613 21.3257L28.1613 21.3248C28.1599 20.6811 27.677 20.1382 27.0511 20.1382V20.5382ZM27.7613 21.3257C27.7654 23.0625 27.7645 23.6438 27.7625 25.2205L28.1625 25.221C28.1645 23.6441 28.1654 23.0622 28.1613 21.3248L27.7613 21.3257ZM27.9625 25.0207H27.9625V25.4207H27.9625V25.0207Z" fill="#1B438B"/>
</g>
<path id="Path 1641" fill-rule="evenodd" clip-rule="evenodd" d="M16.9627 15.2429C17.1436 15.2429 17.2904 15.0961 17.2904 14.9152C17.2956 13.6648 18.3108 12.6541 19.5611 12.6541C20.8115 12.6541 21.8265 13.6648 21.8318 14.9152C21.8318 15.0961 21.9785 15.2429 22.1594 15.2429C22.3404 15.2429 22.4871 15.0961 22.4871 14.9152C22.4811 13.3033 21.1729 12 19.5611 12C17.9494 12 16.6411 13.3033 16.635 14.9152C16.635 15.0961 16.7817 15.2429 16.9627 15.2429H16.9627Z" fill="#1B438B" stroke="#1B438B" stroke-width="0.4"/>
</g>
</g>
</svg>
