<svg xmlns="http://www.w3.org/2000/svg" xmlns:xlink="http://www.w3.org/1999/xlink" width="30" height="30" viewBox="0 0 30 30"><defs><clipPath id="b"><rect width="30" height="30"/></clipPath></defs><g id="a" clip-path="url(#b)"><g transform="translate(0 -0.003)"><g transform="translate(-4.4 5.029)"><path d="M15.816,5.3a.959.959,0,1,0-.281.685A.966.966,0,0,0,15.816,5.3Zm-1.43,0a.464.464,0,1,1,.464.464.449.449,0,0,1-.463-.464Zm11.159,7.278a.88.88,0,0,0-.65.111l-2.8,1.782a2.031,2.031,0,0,0-1.6-.817,1.939,1.939,0,0,0-1.523.724,5.174,5.174,0,0,1-4.362-5.12,5,5,0,0,1,.5-2.21,2.055,2.055,0,0,0,.483-.13l1.931,2.117a.2.2,0,0,0,.167.074h.019a.259.259,0,0,0,.167-.056l.408-.371.65.706a.2.2,0,0,0,.167.074h.019a.259.259,0,0,0,.167-.056l1-.91a.2.2,0,0,0,.074-.167.314.314,0,0,0-.056-.186l-.65-.706.408-.371a.258.258,0,0,0,.019-.353l-4.735-5.2A.258.258,0,0,0,15,1.5l-.408.371-.743-.817a.258.258,0,0,0-.353-.019l-1,.91a.2.2,0,0,0-.074.167.314.314,0,0,0,.056.186l.743.817-.408.371a.2.2,0,0,0-.074.167.314.314,0,0,0,.056.186l.538.594a1.744,1.744,0,0,0-.223.873,1.636,1.636,0,0,0,.111.613A7.541,7.541,0,0,0,12.4,9.276a6.985,6.985,0,0,0,.408,2.4.24.24,0,0,0,.241.167.112.112,0,0,0,.074-.019.234.234,0,0,0,.149-.316,7.038,7.038,0,0,1-.372-2.25,6.8,6.8,0,0,1,.613-2.841,1.758,1.758,0,0,0,1.058.613,5.7,5.7,0,0,0,4.141,7.8,1.955,1.955,0,0,0-.186.817v.39a6.9,6.9,0,0,1-4.066-2.414.251.251,0,1,0-.39.316,7.448,7.448,0,0,0,4.419,2.6H15.556a.246.246,0,0,0-.241.241V18.9a.246.246,0,0,0,.241.241h1.931a.241.241,0,0,0,0-.483H15.816V17.038h9.377v1.615H19.678a.241.241,0,1,0,0,.483h5.756a.246.246,0,0,0,.241-.241v-2.08a.246.246,0,0,0-.241-.241H22.482v-.26l3.342-2.135a.852.852,0,0,0,.26-1.188.8.8,0,0,0-.538-.41ZM19.734,8.311l-.631.576-.483-.52.631-.576ZM12.976,2.146l.631-.576.576.631-.631.576Zm1.727.26h0l.408-.371,4.4,4.828-.408.371h0L17.692,8.515,16,6.658A1.779,1.779,0,0,0,14.851,3.52a1.754,1.754,0,0,0-1.244.5l-.316-.353ZM13.57,5.3a1.281,1.281,0,1,1,1.355,1.281h-.056A1.288,1.288,0,0,1,13.57,5.3Zm5.44,11.252v-.891a1.5,1.5,0,0,1,.26-.854l.019-.019a1.494,1.494,0,0,1,1.207-.613,1.514,1.514,0,0,1,1.3.761c0,.019.019.019.019.037h0a1.467,1.467,0,0,1,.167.706v.891H19.01Zm6.554-2.8L22.482,15.7v-.037a1.963,1.963,0,0,0-.149-.743l2.822-1.8a.366.366,0,0,1,.279-.056.3.3,0,0,1,.223.167.361.361,0,0,1-.093.52ZM20.087,10.5a.58.58,0,0,0-.167-.2.776.776,0,1,0-1.04,1.151.766.766,0,0,0,1.1-.056h0a.764.764,0,0,0,.186-.39l.538-.13A1.944,1.944,0,0,0,22.6,12.49h.093a1.866,1.866,0,0,0,1.337-.631,1.93,1.93,0,0,0,.5-1.393A1.866,1.866,0,0,0,23.9,9.129a2.2,2.2,0,0,0-.427-.3l.111-.167c.056,0,.093.019.149.019h.037a.831.831,0,0,0,.557-.26.4.4,0,0,0,.074-.093l.39-.149a.718.718,0,0,0,.223.353.857.857,0,0,0,.557.2H25.6a.831.831,0,0,0,.557-.26.78.78,0,0,0,.2-.594.831.831,0,0,0-.26-.557.819.819,0,0,0-1.151.056.779.779,0,0,0-.167.26l-.26.111a.738.738,0,0,0-.26-.483.763.763,0,0,0-.576-.2l-.111-.353c.019-.019.056-.037.074-.074A.936.936,0,0,0,23.6,5.321a.906.906,0,0,0-.668-.241,1.057,1.057,0,0,0-.65.3.906.906,0,0,0-.241.668.965.965,0,0,0,.3.65.93.93,0,0,0,.631.241.514.514,0,0,0,.167-.019l.093.3c-.037.037-.074.056-.111.093a.808.808,0,0,0,.019,1.114l-.167.223a1.96,1.96,0,0,0-.464-.037,1.866,1.866,0,0,0-1.337.631,1.951,1.951,0,0,0-.483,1.1Zm2.581-4.159a.458.458,0,0,1-.149-.3.5.5,0,0,1,.111-.316.458.458,0,0,1,.3-.149h.019a.455.455,0,0,1,.3.111.439.439,0,0,1,.037.613h0a.458.458,0,0,1-.3.149.356.356,0,0,1-.318-.106Zm2.9,1.281a.357.357,0,0,1,.223.074.424.424,0,0,1,.111.223.3.3,0,0,1-.074.223h0a.424.424,0,0,1-.223.111.3.3,0,0,1-.242-.52.213.213,0,0,1,.2-.109Zm-1.615.019a.424.424,0,0,1,.111.223.3.3,0,0,1-.074.223h0a.424.424,0,0,1-.223.111.409.409,0,0,1-.149-.019H23.6c-.019-.019-.056-.037-.074-.056a.324.324,0,0,1,.222-.557.346.346,0,0,1,.2.076Zm-4.326,3.416a.276.276,0,1,1-.408-.371.3.3,0,0,1,.2-.093.238.238,0,0,1,.186.074.258.258,0,0,1,.093.186.389.389,0,0,1-.075.206Zm1.912-1.448a1.455,1.455,0,0,1,1-.464h.074A1.413,1.413,0,0,1,23,9.2h.019a1.22,1.22,0,0,1,.538.316,1.449,1.449,0,0,1,.464.984,1.369,1.369,0,0,1-.371,1.021h0a1.449,1.449,0,0,1-.984.464,1.4,1.4,0,0,1-1.021-.371,1.415,1.415,0,0,1-.11-2Z" fill="#94afd8" stroke="#94afd8" stroke-width="0.2"/></g></g></g></svg>