<svg xmlns="http://www.w3.org/2000/svg" xmlns:xlink="http://www.w3.org/1999/xlink" width="30" height="30" viewBox="0 0 30 30"><defs><clipPath id="b"><rect width="30" height="30"/></clipPath></defs><g id="a" clip-path="url(#b)"><g transform="translate(4.428 7.589)"><g transform="translate(20.169 -0.588) rotate(90)"><path d="M15.345,0A1.754,1.754,0,0,0,14.9,3.451V6.23H2.8A2.739,2.739,0,0,0,.06,8.966v2.08A2.739,2.739,0,0,0,2.8,13.782H15.784a2.739,2.739,0,0,0,2.736-2.736V8.966a2.738,2.738,0,0,0-2.709-2.734V3.446A1.754,1.754,0,0,0,15.345,0Zm0,.9a.852.852,0,1,1-.852.852A.845.845,0,0,1,15.345.9ZM2.8,7.142H15.784a1.824,1.824,0,0,1,1.824,1.824v2.08a1.824,1.824,0,0,1-1.824,1.824H2.8A1.824,1.824,0,0,1,.972,11.046V8.966A1.824,1.824,0,0,1,2.8,7.142Zm8.059,1.612a1.454,1.454,0,1,0,0,2.909h3.713a1.454,1.454,0,1,0,0-2.909Zm0,.9h3.713a.552.552,0,1,1,0,1.1H10.855a.552.552,0,0,1,0-1.1Zm-8.083.029a.451.451,0,1,0,.319.77A.451.451,0,0,0,2.772,9.686Zm1.588,0a.451.451,0,1,0,.319.77A.451.451,0,0,0,4.36,9.686Zm1.588,0a.451.451,0,1,0,.319.77A.451.451,0,0,0,5.947,9.686ZM.471,14.541a.452.452,0,1,0,0,.9H18.029a.451.451,0,1,0,0-.9Z" transform="translate(0 19.597) rotate(-90)" fill="#94afd8"/><path d="M0,.451.78,0" transform="translate(1.003 0.78) rotate(-90)" fill="#94afd8"/></g></g></g></svg>