<svg width="43" height="43" viewBox="0 0 43 43" fill="none" xmlns="http://www.w3.org/2000/svg">
<g id="Group 1197">
<path id="Path 1657" fill-rule="evenodd" clip-rule="evenodd" d="M21.5 0C33.3741 0 43 9.62588 43 21.5C43 33.3741 33.3741 43 21.5 43C9.62588 43 0 33.3741 0 21.5C0 9.62588 9.62588 0 21.5 0Z" fill="white"/>
<g id="h2o 1">
<path id="Path 1658" fill-rule="evenodd" clip-rule="evenodd" d="M14.406 21.4529C13.4993 22.5853 13 24.0231 13 25.5015C13 29.0414 15.8799 31.9214 19.4198 31.9214C22.9597 31.9214 25.8396 29.0414 25.8396 25.5015C25.8396 24.023 25.3402 22.5852 24.4336 21.4529L19.4198 15.191L14.406 21.4529ZM24.6724 25.5016C24.6724 28.3978 22.3161 30.7541 19.4198 30.7541C16.5236 30.7541 14.1673 28.3978 14.1673 25.5016C14.1673 24.2873 14.5757 23.1085 15.3172 22.1824L19.4198 17.0585L23.5225 22.1825C24.264 23.1085 24.6724 24.2873 24.6724 25.5016Z" fill="#1B438B"/>
<path id="Path 1659" fill-rule="evenodd" clip-rule="evenodd" d="M16.5013 25.501H15.334C15.334 27.7536 17.1667 29.5864 19.4194 29.5864V28.4191C17.8102 28.4191 16.5013 27.1101 16.5013 25.501Z" fill="#1B438B"/>
<path id="Path 1660" fill-rule="evenodd" clip-rule="evenodd" d="M29.3411 16.708C29.3411 16.0381 29.1212 15.409 28.705 14.8888L26.4231 12L24.1412 14.8888C23.7251 15.409 23.505 16.0381 23.505 16.7081C23.505 18.3171 24.814 19.6262 26.4231 19.6262C28.0321 19.6262 29.3412 18.3171 29.3412 16.708H29.3411ZM24.6722 16.708C24.6722 16.3055 24.8041 15.9281 25.0536 15.6168L26.4231 13.8831L27.7926 15.6168C28.0421 15.9281 28.1739 16.3054 28.1739 16.708C28.1739 17.6735 27.3885 18.4589 26.4231 18.4589C25.4577 18.4589 24.6722 17.6735 24.6722 16.708H24.6722Z" fill="#1B438B"/>
</g>
</g>
</svg>
