<svg xmlns="http://www.w3.org/2000/svg" xmlns:xlink="http://www.w3.org/1999/xlink" width="30" height="30" viewBox="0 0 30 30"><defs><clipPath id="b"><rect width="30" height="30"/></clipPath></defs><g id="a" clip-path="url(#b)"><rect width="30" height="30" fill="#fff"/><g transform="translate(-2.25 6)"><g transform="translate(10.25)"><path d="M33.559,30.67c-1.579-1.128-2.961.175-3.48.784-.517-.607-1.9-1.912-3.48-.784a2.446,2.446,0,0,0-1.132,1.995c-.051,2.495,3.606,5.465,4.339,6.037a.442.442,0,0,0,.545,0c.733-.57,4.39-3.542,4.339-6.037A2.446,2.446,0,0,0,33.559,30.67Zm-3.48,7.514c-.686-.543-4.08-3.346-4.036-5.508a1.88,1.88,0,0,1,.891-1.538,1.617,1.617,0,0,1,.951-.329,2.64,2.64,0,0,1,1.846,1.126.442.442,0,0,0,.7,0c.425-.538,1.545-1.692,2.8-.8h0a1.88,1.88,0,0,1,.891,1.538C34.159,34.838,30.766,37.639,30.079,38.185Z" transform="translate(-22.606 -24.544)" fill="#1b438b" stroke="#1b438b" stroke-width="0.25"/><path d="M41.018,44.75h-.991L39.643,43.6a.321.321,0,0,0-.6-.011l-.664,1.741-.2-.493a.318.318,0,0,0-.3-.2H36.348a.288.288,0,1,0,0,.575h1.363l.376.938a.318.318,0,0,0,.3.2h0a.32.32,0,0,0,.3-.207l.641-1.684.216.65a.319.319,0,0,0,.3.22h1.175a.288.288,0,0,0,.288-.288A.291.291,0,0,0,41.018,44.75Z" transform="translate(-31.208 -35.225)" fill="#1b438b" stroke="#1b438b" stroke-width="0.25"/><path d="M25.194,9.981,24.98,4.373a.516.516,0,0,0-.521-.5s-.009,0-.009,0C21.1,3.927,18.774,1.085,18.14.212A.514.514,0,0,0,17.723,0h0a.514.514,0,0,0-.417.212c-.634.872-2.957,3.713-6.309,3.662h-.009a.516.516,0,0,0-.521.5l-.216,5.61v.011a8.9,8.9,0,0,0,.917,3.531,10.177,10.177,0,0,0,6.394,5.253.527.527,0,0,0,.162.024.507.507,0,0,0,.16-.024,10.177,10.177,0,0,0,6.394-5.253,8.9,8.9,0,0,0,.917-3.531A.012.012,0,0,0,25.194,9.981ZM23.76,13.273a9.576,9.576,0,0,1-6.037,4.95A9.578,9.578,0,0,1,11.7,13.3a8.547,8.547,0,0,1-.872-3.3l.212-5.546h.049c3.493,0,5.905-2.848,6.634-3.835.729.987,3.141,3.835,6.634,3.835H24.4L24.617,10A8.354,8.354,0,0,1,23.76,13.273Z" transform="translate(-10.25 0)" fill="#1b438b" stroke="#1b438b" stroke-width="0.25"/></g></g></g></svg>