<svg xmlns="http://www.w3.org/2000/svg" xmlns:xlink="http://www.w3.org/1999/xlink" width="30" height="30" viewBox="0 0 30 30"><defs><clipPath id="b"><rect width="30" height="30"/></clipPath></defs><g id="a" clip-path="url(#b)"><g transform="translate(0.007)"><g transform="translate(3.917 4)"><g transform="translate(1.083 1)"><g transform="translate(2.322 5.854)"><path d="M10.244,19.89H8.886a.31.31,0,0,0-.31.31v1.772a.31.31,0,0,0,.31.31h1.358a.31.31,0,0,0,.31-.31V20.2a.31.31,0,0,0-.31-.31Zm-.31,1.771H9.2V20.51h.738Z" transform="translate(-8.576 -19.89)" fill="#94afd8"/><path d="M19.3,19.89H17.941a.31.31,0,0,0-.31.31v1.772a.31.31,0,0,0,.31.31H19.3a.31.31,0,0,0,.31-.31V20.2a.31.31,0,0,0-.31-.31Zm-.31,1.771h-.738V20.51h.738Z" transform="translate(-14.825 -19.89)" fill="#94afd8"/><path d="M28.354,19.89H27a.31.31,0,0,0-.31.31v1.772a.31.31,0,0,0,.31.31h1.359a.31.31,0,0,0,.31-.31V20.2a.31.31,0,0,0-.315-.31Zm-.31,1.771h-.739V20.51h.739Z" transform="translate(-21.074 -19.89)" fill="#94afd8"/><path d="M37.41,19.89H36.052a.31.31,0,0,0-.31.31v1.772a.31.31,0,0,0,.31.31H37.41a.31.31,0,0,0,.31-.31V20.2a.31.31,0,0,0-.31-.31Zm-.31,1.771h-.738V20.51H37.1Z" transform="translate(-27.323 -19.89)" fill="#94afd8"/><path d="M10.244,29.913H8.886a.31.31,0,0,0-.31.31v1.772a.31.31,0,0,0,.31.31h1.358a.31.31,0,0,0,.31-.31V30.223A.31.31,0,0,0,10.244,29.913Zm-.31,1.772H9.2V30.533h.738Z" transform="translate(-8.576 -26.807)" fill="#94afd8"/><path d="M19.3,29.913H17.941a.31.31,0,0,0-.31.31v1.772a.31.31,0,0,0,.31.31H19.3a.31.31,0,0,0,.31-.31V30.223A.31.31,0,0,0,19.3,29.913Zm-.31,1.772h-.738V30.533h.738Z" transform="translate(-14.825 -26.807)" fill="#94afd8"/><path d="M28.354,29.913H27a.31.31,0,0,0-.31.31v1.772a.31.31,0,0,0,.31.31h1.359a.31.31,0,0,0,.31-.31V30.223a.31.31,0,0,0-.315-.31Zm-.31,1.772h-.739V30.533h.739Z" transform="translate(-21.074 -26.807)" fill="#94afd8"/><path d="M37.41,29.913H36.052a.31.31,0,0,0-.31.31v1.772a.31.31,0,0,0,.31.31H37.41a.31.31,0,0,0,.31-.31V30.223A.31.31,0,0,0,37.41,29.913Zm-.31,1.772h-.738V30.533H37.1Z" transform="translate(-27.323 -26.807)" fill="#94afd8"/><path d="M10.244,41.077H8.886a.31.31,0,0,0-.31.31v1.772a.31.31,0,0,0,.31.31h1.358a.31.31,0,0,0,.31-.31V41.387A.31.31,0,0,0,10.244,41.077Zm-.31,1.772H9.2V41.7h.738Z" transform="translate(-8.576 -34.511)" fill="#94afd8"/><path d="M19.3,41.077H17.941a.31.31,0,0,0-.31.31v1.772a.31.31,0,0,0,.31.31H19.3a.31.31,0,0,0,.31-.31V41.387A.31.31,0,0,0,19.3,41.077Zm-.31,1.772h-.738V41.7h.738Z" transform="translate(-14.825 -34.511)" fill="#94afd8"/><path d="M28.354,41.077H27a.31.31,0,0,0-.31.31v1.772a.31.31,0,0,0,.31.31h1.359a.31.31,0,0,0,.31-.31V41.387a.31.31,0,0,0-.315-.31Zm-.31,1.772h-.739V41.7h.739Z" transform="translate(-21.074 -34.511)" fill="#94afd8"/><path d="M37.41,41.077H36.052a.31.31,0,0,0-.31.31v1.772a.31.31,0,0,0,.31.31H37.41a.31.31,0,0,0,.31-.31V41.387A.31.31,0,0,0,37.41,41.077Zm-.31,1.772h-.738V41.7H37.1Z" transform="translate(-27.323 -34.511)" fill="#94afd8"/><path d="M10.244,52.242H8.886a.31.31,0,0,0-.31.31v1.772a.31.31,0,0,0,.31.31h1.358a.31.31,0,0,0,.31-.31V52.552A.31.31,0,0,0,10.244,52.242Zm-.31,1.772H9.2V52.862h.738Z" transform="translate(-8.576 -42.216)" fill="#94afd8"/><path d="M37.41,52.242H36.052a.31.31,0,0,0-.31.31v1.772a.31.31,0,0,0,.31.31H37.41a.31.31,0,0,0,.31-.31V52.552A.31.31,0,0,0,37.41,52.242Zm-.31,1.772h-.738V52.862H37.1Z" transform="translate(-27.323 -42.216)" fill="#94afd8"/></g><path d="M20.555,20.214H18.194V17.886a.3.3,0,0,0-.014-.069,2.132,2.132,0,0,0,1.83-2.107c0-1.036-.837-4.03-2.131-4.03s-2.131,2.994-2.131,4.03a2.133,2.133,0,0,0,1.839,2.109.29.29,0,0,0-.014.068v2.327H15.135V5.948h.286a.31.31,0,1,0,0-.62h-1.8l-1.14-1.854a.31.31,0,0,0-.264-.148H8.862V1.31a.31.31,0,1,0-.62,0V3.327H4.906a.31.31,0,0,0-.264.148L3.5,5.329H1.7a.31.31,0,1,0,0,.62h.286V20.214h-.6a.31.31,0,0,0,0,.62H20.555a.31.31,0,0,0,0-.62Zm-4.186-4.5c0-1.1.846-3.41,1.511-3.41s1.511,2.312,1.511,3.41a1.511,1.511,0,1,1-3.022,0ZM5.079,3.947h6.966l.85,1.382H4.228ZM6.687,20.214V17.145H8.243v3.068Zm2.176,0V17.145h1.574v3.068Zm2.194,0V16.835a.31.31,0,0,0-.31-.31H6.377a.31.31,0,0,0-.31.31v3.378H2.608V5.993H14.515V20.214Z" transform="translate(-1.083 -1)" fill="#94afd8" stroke="#94afd8" stroke-width="0.2"/><path d="M55.43,9.127a1.831,1.831,0,0,1,.615.591.309.309,0,0,0,.558-.135,1.646,1.646,0,0,1,.553-.5.31.31,0,0,0-.327-.527,2.917,2.917,0,0,0-.567.45,1.306,1.306,0,0,0-.828-.5.312.312,0,0,0-.313.31.308.308,0,0,0,.309.311Z" transform="translate(-38.375 -6.181)" fill="#94afd8"/><path d="M52.609,14.7a.307.307,0,0,0,.307.31,1.832,1.832,0,0,1,.615.591.309.309,0,0,0,.558-.136,1.638,1.638,0,0,1,.553-.5.31.31,0,1,0-.327-.527,2.909,2.909,0,0,0-.567.451,1.3,1.3,0,0,0-.827-.5.312.312,0,0,0-.312.311Z" transform="translate(-36.641 -10.24)" fill="#94afd8"/><path d="M46.191,6.612a1.835,1.835,0,0,1,.615.591.309.309,0,0,0,.558-.136,1.638,1.638,0,0,1,.553-.5.31.31,0,1,0-.327-.527,2.918,2.918,0,0,0-.567.451,1.3,1.3,0,0,0-.828-.5.312.312,0,0,0-.313.31.308.308,0,0,0,.309.311Z" transform="translate(-32 -4.446)" fill="#94afd8"/></g></g></g></g></svg>