<svg xmlns="http://www.w3.org/2000/svg" xmlns:xlink="http://www.w3.org/1999/xlink" width="30" height="30" viewBox="0 0 30 30"><defs><clipPath id="b"><rect width="30" height="30"/></clipPath></defs><g id="a" clip-path="url(#b)"><g transform="translate(0 -0.765)"><path d="M14.622,4.4c-.557-.526-1.427-.154-1.983.372l-8.487,8.04a.481.481,0,0,0,.332.828H5.928v9.15a.481.481,0,0,0,.481.481H20.852a.481.481,0,0,0,.481-.481V13.643h1.444a.48.48,0,0,0,.332-.828ZM12.186,22.3v.667h2.889V22.3Zm8.666-9.628a.481.481,0,0,0-.481.481V22.3H16.038c0-.006-.213,0-.479,0H11.707c-.266,0,.008.025,0,0H6.891V13.162a.481.481,0,0,0-.481-.481H5.692L13.3,5.459a.481.481,0,0,1,.664,0L21.57,12.68Z" transform="translate(0.996 1.619)" fill="#94afd8"/><g transform="translate(-9.712 2.575)"><path d="M27.064,11.279H21.639a.439.439,0,0,1,0-.879h5.425a.439.439,0,0,1,0,.879Z" transform="translate(-0.011 -0.089)" fill="#94afd8"/><path d="M27.064,31.279H21.639a.439.439,0,1,1,0-.879h5.425a.439.439,0,0,1,0,.879Z" transform="translate(-0.011 -17.893)" fill="#94afd8"/><path d="M23.232,15.22H21.639a.439.439,0,0,1,0-.879h1.592a1.582,1.582,0,1,0,0-3.163H21.639a.439.439,0,0,1,0-.879h1.592a2.46,2.46,0,0,1,0,4.92Z" transform="translate(-0.011)" fill="#94afd8"/><path d="M25.559,51.756a.472.472,0,0,1-.307-.121L21.32,47.846a.443.443,0,0,1,.615-.637l3.931,3.778a.447.447,0,0,1,.011.626.494.494,0,0,1-.318.143Z" transform="translate(0 -32.747)" fill="#94afd8"/></g></g></g></svg>