<svg width="12" height="12" viewBox="0 0 12 12" fill="none" xmlns="http://www.w3.org/2000/svg">
<g id="Group 1312">
<path id="Ellipse 36" fill-rule="evenodd" clip-rule="evenodd" d="M6 12C9.31371 12 12 9.31371 12 6C12 2.68629 9.31371 0 6 0C2.68629 0 0 2.68629 0 6C0 9.31371 2.68629 12 6 12Z" fill="#982F67"/>
<g id="noun-wait-2970197">
<path id="Path 1707" fill-rule="evenodd" clip-rule="evenodd" d="M8.50491 8.59733H8.13368V7.87226C8.13368 7.38654 7.90802 6.92897 7.52223 6.62627L6.72881 5.99976L7.51496 5.38029C7.90803 5.07055 8.12641 4.62003 8.12641 4.1343V3.40219H8.49764C8.70874 3.40219 8.88344 3.23324 8.88344 3.0291C8.88344 2.82496 8.70874 2.65601 8.49764 2.65601H3.72979C3.51869 2.65601 3.344 2.82496 3.344 3.0291C3.344 3.23324 3.5187 3.40219 3.72979 3.40219H4.10831V4.1343C4.10831 4.62002 4.33396 5.07759 4.71976 5.38029L5.50591 5.99976L4.71976 6.61923C4.32668 6.92897 4.10831 7.37949 4.10831 7.86522V8.59732H3.72979C3.51869 8.59732 3.344 8.76627 3.344 8.97041C3.344 9.17455 3.5187 9.3435 3.72979 9.3435H8.50491C8.71601 9.3435 8.89071 9.17455 8.89071 8.97041C8.89071 8.76626 8.71601 8.59732 8.50491 8.59732V8.59733ZM4.87261 4.12727V3.4022H7.3548V4.13431C7.3548 4.39477 7.23106 4.64115 7.02724 4.80306L6.11734 5.1404L5.20745 4.80306C4.99635 4.63411 4.87261 4.38773 4.87261 4.12727ZM4.87261 7.64743C4.87261 7.38697 4.99635 7.36542 5.20017 7.20352L6.11734 6.47845L7.02724 7.19648C7.23833 7.35839 7.3548 7.37993 7.3548 7.64039H4.87261V7.64743Z" fill="white"/>
</g>
</g>
</svg>
