<svg width="44" height="44" viewBox="0 0 44 44" fill="none" xmlns="http://www.w3.org/2000/svg">
<g id="Group 1180">
<path id="Ellipse 28" fill-rule="evenodd" clip-rule="evenodd" d="M22.333 43.5C34.2071 43.5 43.833 33.8741 43.833 22C43.833 10.1259 34.2071 0.5 22.333 0.5C10.4589 0.5 0.833 10.1259 0.833 22C0.833 33.8741 10.4589 43.5 22.333 43.5Z" fill="white"/>
<g id="money-bag 1">
<mask id="mask0_0_2452" style="mask-type:luminance" maskUnits="userSpaceOnUse" x="11" y="10" width="23" height="25">
<path id="Rectangle 1079" fill-rule="evenodd" clip-rule="evenodd" d="M11.8326 10.5H33.8326V34.5H11.8326V10.5Z" fill="white"/>
</mask>
<g mask="url(#mask0_0_2452)">
<g id="Path 1622">
<path fill-rule="evenodd" clip-rule="evenodd" d="M29.6713 28.401C29.6904 30.6596 28.1202 32.6936 26.3112 32.7532C26.307 32.7532 26.3026 32.7532 26.2989 32.7532H18.6428C16.3772 32.7532 15.3357 30.5004 15.3267 28.4073C15.3088 24.2419 18.3391 19.2017 20.5937 17.5497C19.4022 16.4616 17.991 14.2755 18.0097 13.1713C18.0277 12.7577 18.0908 12.3259 18.4259 12.1583C18.7826 11.98 19.1079 12.2579 19.3944 12.502C19.5828 12.6626 19.8653 12.9036 20.0116 12.8698C20.0956 12.8493 20.2052 12.707 20.3051 12.49C20.3161 12.466 20.3291 12.4438 20.3438 12.4224C20.8562 11.6785 21.2525 11.373 21.6596 11.4077C22.1545 11.4472 22.4105 11.9604 22.6584 12.4567C22.819 12.7786 22.9849 13.1113 23.2094 13.3559C23.2327 13.3808 23.2514 13.3985 23.2657 13.4106C23.3309 13.351 23.4357 13.2118 23.5091 13.1139C23.9094 12.5821 24.6545 11.5913 26.2251 12.2762C26.3801 12.3433 26.4815 12.5074 26.4815 12.6893C26.4815 13.7009 25.9268 15.1222 25.2423 16.2708C25.9651 16.0218 26.7412 15.8532 27.2512 15.8532C28.5882 15.8532 28.7329 16.7275 28.7329 17.1037C28.7329 17.6782 28.4696 18.6423 26.7058 18.6423C26.2847 18.6423 25.8298 18.5863 25.3997 18.5058C27.437 20.6892 29.6411 24.8559 29.6712 28.401L29.6713 28.401ZM27.2512 16.7426C26.4514 16.7426 25.3756 17.121 24.7108 17.4363C25.2603 17.5897 26.0311 17.7529 26.7062 17.7529C27.9181 17.7529 27.9181 17.2642 27.9181 17.1037C27.9177 16.9863 27.9177 16.7426 27.2512 16.7426V16.7426ZM21.4946 17.1731C21.5044 17.1797 21.5097 17.1904 21.5186 17.198C21.5268 17.2024 21.5357 17.2011 21.5435 17.206C22.106 17.5488 22.669 17.5359 23.4394 17.1837C23.452 17.1775 23.4663 17.1793 23.4801 17.1748C24.319 16.4709 25.4768 14.3448 25.6459 12.9992C24.8335 12.7546 24.4956 13.2047 24.1401 13.6778C23.911 13.9824 23.6742 14.2968 23.3041 14.3168C23.0677 14.3359 22.8475 14.2177 22.6335 13.9851C22.3254 13.6489 22.1219 13.2416 21.9426 12.8818C21.8345 12.6657 21.6715 12.3384 21.5851 12.2908C21.5908 12.2979 21.4216 12.3455 21.0168 12.9267C20.7988 13.3839 20.5212 13.6569 20.1914 13.7378C19.6705 13.8655 19.2216 13.483 18.8931 13.2033C18.8731 13.186 18.8507 13.1673 18.8279 13.1477C18.8266 13.1646 18.8258 13.1824 18.825 13.2011C18.8116 13.9833 20.3267 16.3784 21.4946 17.1731V17.1731ZM28.856 28.409C28.8287 25.1214 26.7094 21.2646 24.9077 19.2538C25.1596 19.7358 25.4877 20.2512 25.9108 20.7119C26.0707 20.8858 26.0707 21.1668 25.9117 21.3407C25.8322 21.4279 25.7275 21.4714 25.6231 21.4714C25.5187 21.4714 25.4144 21.4279 25.3353 21.3416C24.6448 20.5896 24.1776 19.7242 23.8788 19.026C23.7227 19.4641 23.503 19.9457 23.1981 20.3695C23.0586 20.5638 22.8027 20.5972 22.6257 20.4446C22.4489 20.293 22.4179 20.0133 22.5569 19.8207C22.9278 19.3053 23.1508 18.6641 23.2772 18.191C22.5581 18.424 21.9373 18.3902 21.3421 18.0909C19.4752 19.1973 16.124 24.2685 16.142 28.4028C16.1493 30.0699 16.9348 31.8638 18.6428 31.8638H26.2924C27.7762 31.8105 28.8695 29.9979 28.856 28.409L28.856 28.409Z" fill="#1B438B"/>
<path d="M29.6713 28.401L29.7713 28.4002L29.5818 28.3563L29.6713 28.401ZM26.3112 32.7532V32.8533L26.3145 32.8532L26.3112 32.7532ZM15.3267 28.4073L15.4267 28.4068L15.4267 28.4068L15.3267 28.4073ZM20.5937 17.5497L20.6528 17.6304L20.7513 17.5582L20.6611 17.4759L20.5937 17.5497ZM18.0097 13.1713L17.9098 13.167L17.9097 13.1696L18.0097 13.1713ZM18.4259 12.1583L18.3812 12.0689L18.3812 12.0689L18.4259 12.1583ZM19.3944 12.502L19.4593 12.4259L19.4593 12.4259L19.3944 12.502ZM20.0116 12.8698L20.0341 12.9673L20.0353 12.967L20.0116 12.8698ZM20.3051 12.49L20.3959 12.5318L20.3961 12.5316L20.3051 12.49ZM20.3438 12.4224L20.2615 12.3657L20.2614 12.3658L20.3438 12.4224ZM21.6596 11.4077L21.6511 11.5073L21.6517 11.5074L21.6596 11.4077ZM22.6584 12.4567L22.7478 12.4121L22.7478 12.412L22.6584 12.4567ZM23.2094 13.3559L23.1358 13.4235L23.1364 13.4241L23.2094 13.3559ZM23.2657 13.4106L23.2013 13.487L23.2684 13.5436L23.3332 13.4844L23.2657 13.4106ZM23.5091 13.1139L23.4292 13.0538L23.4291 13.0539L23.5091 13.1139ZM26.2251 12.2762L26.1851 12.3678L26.1854 12.3679L26.2251 12.2762ZM25.2423 16.2708L25.1564 16.2196L25.0165 16.4544L25.2749 16.3653L25.2423 16.2708ZM25.3997 18.5058L25.4181 18.4075L25.1189 18.3515L25.3265 18.574L25.3997 18.5058ZM29.6712 28.401L29.5713 28.4019L29.7607 28.4458L29.6712 28.401ZM27.2512 16.7426H27.3512V16.6426H27.2512V16.7426ZM24.7108 17.4363L24.6679 17.346L24.4261 17.4607L24.6839 17.5326L24.7108 17.4363ZM27.9181 17.1037H28.0181L28.0181 17.1033L27.9181 17.1037ZM27.2512 16.7426H27.1512V16.8426H27.2512V16.7426ZM21.4946 17.1731L21.5508 17.0904L21.3946 16.9841V17.1731H21.4946ZM21.5186 17.198L21.454 17.2743L21.4619 17.2809L21.4709 17.2858L21.5186 17.198ZM21.5435 17.206L21.4901 17.2905L21.4915 17.2914L21.5435 17.206ZM23.4394 17.1837L23.481 17.2747L23.4835 17.2735L23.4394 17.1837ZM23.4801 17.1748L23.5107 17.2701L23.5294 17.2641L23.5444 17.2514L23.4801 17.1748ZM25.6459 12.9992L25.7451 13.0117L25.7556 12.9278L25.6747 12.9035L25.6459 12.9992ZM24.1401 13.6778L24.22 13.7379L24.2201 13.7379L24.1401 13.6778ZM23.3041 14.3168L23.2987 14.2169L23.296 14.2172L23.3041 14.3168ZM22.6335 13.9851L22.5598 14.0527L22.5599 14.0528L22.6335 13.9851ZM21.9426 12.8818L22.0321 12.8372L22.032 12.8371L21.9426 12.8818ZM21.5851 12.2908L21.6333 12.2032L21.5072 12.3536L21.5851 12.2908ZM21.0168 12.9267L20.9348 12.8696L20.9301 12.8763L20.9266 12.8837L21.0168 12.9267ZM20.1914 13.7378L20.2152 13.835L20.2153 13.835L20.1914 13.7378ZM18.8931 13.2033L18.8276 13.2789L18.8283 13.2795L18.8931 13.2033ZM18.8279 13.1477L18.8929 13.0718L18.7428 12.9434L18.7281 13.1403L18.8279 13.1477ZM18.825 13.2011L18.7251 13.1966L18.725 13.1994L18.825 13.2011ZM21.4946 17.1731L21.4383 17.2557L21.5946 17.3621V17.1731H21.4946ZM28.856 28.409L28.756 28.4098L28.7563 28.4508L28.7853 28.4797L28.856 28.409ZM24.9077 19.2538L24.9822 19.187L24.8191 19.3001L24.9077 19.2538ZM25.9108 20.7119L25.8372 20.7795L25.8372 20.7795L25.9108 20.7119ZM25.9117 21.3407L25.8379 21.2732L25.8378 21.2733L25.9117 21.3407ZM25.3353 21.3416L25.409 21.274L25.409 21.2739L25.3353 21.3416ZM23.8788 19.026L23.9707 18.9867L23.8703 18.752L23.7846 18.9925L23.8788 19.026ZM23.1981 20.3695L23.1169 20.3111L23.1168 20.3112L23.1981 20.3695ZM22.6257 20.4446L22.691 20.3689L22.6908 20.3687L22.6257 20.4446ZM22.5569 19.8207L22.638 19.8793L22.6381 19.8792L22.5569 19.8207ZM23.2772 18.191L23.3738 18.2168L23.4212 18.0392L23.2464 18.0958L23.2772 18.191ZM21.3421 18.0909L21.3871 18.0016L21.3382 17.977L21.2912 18.0049L21.3421 18.0909ZM16.142 28.4028L16.042 28.4032L16.042 28.4032L16.142 28.4028ZM26.2924 31.8638V31.9639L26.296 31.9638L26.2924 31.8638ZM28.856 28.409L28.956 28.4082L28.9557 28.3672L28.9267 28.3383L28.856 28.409ZM29.5713 28.4019C29.5806 29.5084 29.2004 30.5598 28.5976 31.3406C27.9943 32.1221 27.1749 32.6247 26.3079 32.6533L26.3145 32.8532C27.2565 32.8221 28.1267 32.2779 28.7559 31.4628C29.3857 30.6471 29.781 29.5522 29.7713 28.4002L29.5713 28.4019ZM26.3112 32.6532C26.3112 32.6532 26.3112 32.6532 26.3111 32.6532C26.3111 32.6532 26.3111 32.6532 26.3111 32.6532C26.3111 32.6532 26.3111 32.6532 26.3111 32.6532C26.3111 32.6532 26.3111 32.6532 26.3111 32.6532C26.3111 32.6532 26.3111 32.6532 26.311 32.6532C26.311 32.6532 26.311 32.6532 26.311 32.6532C26.311 32.6532 26.311 32.6532 26.311 32.6532C26.311 32.6532 26.311 32.6532 26.311 32.6532C26.311 32.6532 26.311 32.6532 26.311 32.6532C26.3109 32.6532 26.3109 32.6532 26.3109 32.6532C26.3109 32.6532 26.3109 32.6532 26.3109 32.6532C26.3109 32.6532 26.3109 32.6532 26.3109 32.6532C26.3109 32.6532 26.3109 32.6532 26.3109 32.6532C26.3108 32.6532 26.3108 32.6532 26.3108 32.6532C26.3108 32.6532 26.3108 32.6532 26.3108 32.6532C26.3108 32.6532 26.3108 32.6532 26.3108 32.6532C26.3108 32.6532 26.3108 32.6532 26.3108 32.6532C26.3107 32.6532 26.3107 32.6532 26.3107 32.6532C26.3107 32.6532 26.3107 32.6532 26.3107 32.6532C26.3107 32.6532 26.3107 32.6532 26.3107 32.6532C26.3107 32.6532 26.3107 32.6532 26.3107 32.6532C26.3107 32.6532 26.3106 32.6532 26.3106 32.6532C26.3106 32.6532 26.3106 32.6532 26.3106 32.6532C26.3106 32.6532 26.3106 32.6532 26.3106 32.6532C26.3106 32.6532 26.3106 32.6532 26.3106 32.6532C26.3106 32.6532 26.3105 32.6532 26.3105 32.6532C26.3105 32.6532 26.3105 32.6532 26.3105 32.6532C26.3105 32.6532 26.3105 32.6532 26.3105 32.6532C26.3105 32.6532 26.3105 32.6532 26.3105 32.6532C26.3105 32.6532 26.3104 32.6532 26.3104 32.6532C26.3104 32.6532 26.3104 32.6532 26.3104 32.6532C26.3104 32.6532 26.3104 32.6532 26.3104 32.6532C26.3104 32.6532 26.3104 32.6532 26.3104 32.6532C26.3104 32.6532 26.3104 32.6532 26.3103 32.6532C26.3103 32.6532 26.3103 32.6532 26.3103 32.6532C26.3103 32.6532 26.3103 32.6532 26.3103 32.6532C26.3103 32.6532 26.3103 32.6532 26.3103 32.6532C26.3103 32.6532 26.3103 32.6532 26.3102 32.6532C26.3102 32.6532 26.3102 32.6532 26.3102 32.6532C26.3102 32.6532 26.3102 32.6532 26.3102 32.6532C26.3102 32.6532 26.3102 32.6532 26.3102 32.6532C26.3102 32.6532 26.3102 32.6532 26.3101 32.6532C26.3101 32.6532 26.3101 32.6532 26.3101 32.6532C26.3101 32.6532 26.3101 32.6532 26.3101 32.6532C26.3101 32.6532 26.3101 32.6532 26.3101 32.6532C26.3101 32.6532 26.3101 32.6532 26.3101 32.6532C26.31 32.6532 26.31 32.6532 26.31 32.6532C26.31 32.6532 26.31 32.6532 26.31 32.6532C26.31 32.6532 26.31 32.6532 26.31 32.6532C26.31 32.6532 26.31 32.6532 26.31 32.6532C26.3099 32.6532 26.3099 32.6532 26.3099 32.6532C26.3099 32.6532 26.3099 32.6532 26.3099 32.6532C26.3099 32.6532 26.3099 32.6532 26.3099 32.6532C26.3099 32.6532 26.3099 32.6532 26.3099 32.6532C26.3098 32.6532 26.3098 32.6532 26.3098 32.6532C26.3098 32.6532 26.3098 32.6532 26.3098 32.6532C26.3098 32.6532 26.3098 32.6532 26.3098 32.6532C26.3098 32.6532 26.3098 32.6532 26.3098 32.6532C26.3097 32.6532 26.3097 32.6532 26.3097 32.6532C26.3097 32.6532 26.3097 32.6532 26.3097 32.6532C26.3097 32.6532 26.3097 32.6532 26.3097 32.6532C26.3097 32.6532 26.3097 32.6532 26.3097 32.6532C26.3097 32.6532 26.3096 32.6532 26.3096 32.6532C26.3096 32.6532 26.3096 32.6532 26.3096 32.6532C26.3096 32.6532 26.3096 32.6532 26.3096 32.6532C26.3096 32.6532 26.3096 32.6532 26.3096 32.6532C26.3096 32.6532 26.3095 32.6532 26.3095 32.6532C26.3095 32.6532 26.3095 32.6532 26.3095 32.6532C26.3095 32.6532 26.3095 32.6532 26.3095 32.6532C26.3095 32.6532 26.3095 32.6532 26.3095 32.6532C26.3095 32.6532 26.3094 32.6532 26.3094 32.6532C26.3094 32.6532 26.3094 32.6532 26.3094 32.6532C26.3094 32.6532 26.3094 32.6532 26.3094 32.6532C26.3094 32.6532 26.3094 32.6532 26.3094 32.6532C26.3094 32.6532 26.3093 32.6532 26.3093 32.6532C26.3093 32.6532 26.3093 32.6532 26.3093 32.6532C26.3093 32.6532 26.3093 32.6532 26.3093 32.6532C26.3093 32.6532 26.3093 32.6532 26.3093 32.6532C26.3093 32.6532 26.3092 32.6532 26.3092 32.6532C26.3092 32.6532 26.3092 32.6532 26.3092 32.6532C26.3092 32.6532 26.3092 32.6532 26.3092 32.6532C26.3092 32.6532 26.3092 32.6532 26.3092 32.6532C26.3092 32.6532 26.3092 32.6532 26.3091 32.6532C26.3091 32.6532 26.3091 32.6532 26.3091 32.6532C26.3091 32.6532 26.3091 32.6532 26.3091 32.6532C26.3091 32.6532 26.3091 32.6532 26.3091 32.6532C26.3091 32.6532 26.3091 32.6532 26.309 32.6532C26.309 32.6532 26.309 32.6532 26.309 32.6532C26.309 32.6532 26.309 32.6532 26.309 32.6532C26.309 32.6532 26.309 32.6532 26.309 32.6532C26.309 32.6532 26.309 32.6532 26.3089 32.6532C26.3089 32.6532 26.3089 32.6532 26.3089 32.6532C26.3089 32.6532 26.3089 32.6532 26.3089 32.6532C26.3089 32.6532 26.3089 32.6532 26.3089 32.6532C26.3089 32.6532 26.3089 32.6532 26.3088 32.6532C26.3088 32.6532 26.3088 32.6532 26.3088 32.6532C26.3088 32.6532 26.3088 32.6532 26.3088 32.6532C26.3088 32.6532 26.3088 32.6532 26.3088 32.6532C26.3088 32.6532 26.3088 32.6532 26.3087 32.6532C26.3087 32.6532 26.3087 32.6532 26.3087 32.6532C26.3087 32.6532 26.3087 32.6532 26.3087 32.6532C26.3087 32.6532 26.3087 32.6532 26.3087 32.6532C26.3087 32.6532 26.3087 32.6532 26.3086 32.6532C26.3086 32.6532 26.3086 32.6532 26.3086 32.6532C26.3086 32.6532 26.3086 32.6532 26.3086 32.6532C26.3086 32.6532 26.3086 32.6532 26.3086 32.6532C26.3086 32.6532 26.3086 32.6532 26.3085 32.6532C26.3085 32.6532 26.3085 32.6532 26.3085 32.6532C26.3085 32.6532 26.3085 32.6532 26.3085 32.6532C26.3085 32.6532 26.3085 32.6532 26.3085 32.6532C26.3085 32.6532 26.3085 32.6532 26.3085 32.6532C26.3084 32.6532 26.3084 32.6532 26.3084 32.6532C26.3084 32.6532 26.3084 32.6532 26.3084 32.6532C26.3084 32.6532 26.3084 32.6532 26.3084 32.6532C26.3084 32.6532 26.3084 32.6532 26.3084 32.6532C26.3083 32.6532 26.3083 32.6532 26.3083 32.6532C26.3083 32.6532 26.3083 32.6532 26.3083 32.6532C26.3083 32.6532 26.3083 32.6532 26.3083 32.6532C26.3083 32.6532 26.3083 32.6532 26.3083 32.6532C26.3082 32.6532 26.3082 32.6532 26.3082 32.6532C26.3082 32.6532 26.3082 32.6532 26.3082 32.6532C26.3082 32.6532 26.3082 32.6532 26.3082 32.6532C26.3082 32.6532 26.3082 32.6532 26.3082 32.6532C26.3081 32.6532 26.3081 32.6532 26.3081 32.6532C26.3081 32.6532 26.3081 32.6532 26.3081 32.6532C26.3081 32.6532 26.3081 32.6532 26.3081 32.6532C26.3081 32.6532 26.3081 32.6532 26.3081 32.6532C26.308 32.6532 26.308 32.6532 26.308 32.6532C26.308 32.6532 26.308 32.6532 26.308 32.6532C26.308 32.6532 26.308 32.6532 26.308 32.6532C26.308 32.6532 26.308 32.6532 26.308 32.6532C26.3079 32.6532 26.3079 32.6532 26.3079 32.6532C26.3079 32.6532 26.3079 32.6532 26.3079 32.6532C26.3079 32.6532 26.3079 32.6532 26.3079 32.6532C26.3079 32.6532 26.3079 32.6532 26.3079 32.6532C26.3078 32.6532 26.3078 32.6532 26.3078 32.6532C26.3078 32.6532 26.3078 32.6532 26.3078 32.6532C26.3078 32.6532 26.3078 32.6532 26.3078 32.6532C26.3078 32.6532 26.3078 32.6532 26.3078 32.6532C26.3077 32.6532 26.3077 32.6532 26.3077 32.6532C26.3077 32.6532 26.3077 32.6532 26.3077 32.6532C26.3077 32.6532 26.3077 32.6532 26.3077 32.6532C26.3077 32.6532 26.3077 32.6532 26.3077 32.6532C26.3077 32.6532 26.3076 32.6532 26.3076 32.6532C26.3076 32.6532 26.3076 32.6532 26.3076 32.6532C26.3076 32.6532 26.3076 32.6532 26.3076 32.6532C26.3076 32.6532 26.3076 32.6532 26.3076 32.6532C26.3076 32.6532 26.3075 32.6532 26.3075 32.6532C26.3075 32.6532 26.3075 32.6532 26.3075 32.6532C26.3075 32.6532 26.3075 32.6532 26.3075 32.6532C26.3075 32.6532 26.3075 32.6532 26.3075 32.6532C26.3075 32.6532 26.3074 32.6532 26.3074 32.6532C26.3074 32.6532 26.3074 32.6532 26.3074 32.6532C26.3074 32.6532 26.3074 32.6532 26.3074 32.6532C26.3074 32.6532 26.3074 32.6532 26.3074 32.6532C26.3074 32.6532 26.3073 32.6532 26.3073 32.6532C26.3073 32.6532 26.3073 32.6532 26.3073 32.6532C26.3073 32.6532 26.3073 32.6532 26.3073 32.6532C26.3073 32.6532 26.3073 32.6532 26.3073 32.6532C26.3073 32.6532 26.3072 32.6532 26.3072 32.6532C26.3072 32.6532 26.3072 32.6532 26.3072 32.6532C26.3072 32.6532 26.3072 32.6532 26.3072 32.6532C26.3072 32.6532 26.3072 32.6532 26.3072 32.6532C26.3072 32.6532 26.3071 32.6532 26.3071 32.6532C26.3071 32.6532 26.3071 32.6532 26.3071 32.6532C26.3071 32.6532 26.3071 32.6532 26.3071 32.6532C26.3071 32.6532 26.3071 32.6532 26.3071 32.6532C26.3071 32.6532 26.307 32.6532 26.307 32.6532C26.307 32.6532 26.307 32.6532 26.307 32.6532C26.307 32.6532 26.307 32.6532 26.307 32.6532C26.307 32.6532 26.307 32.6532 26.307 32.6532C26.307 32.6532 26.3069 32.6532 26.3069 32.6532C26.3069 32.6532 26.3069 32.6532 26.3069 32.6532C26.3069 32.6532 26.3069 32.6532 26.3069 32.6532C26.3069 32.6532 26.3069 32.6532 26.3069 32.6532C26.3069 32.6532 26.3068 32.6532 26.3068 32.6532C26.3068 32.6532 26.3068 32.6532 26.3068 32.6532C26.3068 32.6532 26.3068 32.6532 26.3068 32.6532C26.3068 32.6532 26.3068 32.6532 26.3068 32.6532C26.3068 32.6532 26.3068 32.6532 26.3067 32.6532C26.3067 32.6532 26.3067 32.6532 26.3067 32.6532C26.3067 32.6532 26.3067 32.6532 26.3067 32.6532C26.3067 32.6532 26.3067 32.6532 26.3067 32.6532C26.3067 32.6532 26.3067 32.6532 26.3066 32.6532C26.3066 32.6532 26.3066 32.6532 26.3066 32.6532C26.3066 32.6532 26.3066 32.6532 26.3066 32.6532C26.3066 32.6532 26.3066 32.6532 26.3066 32.6532C26.3066 32.6532 26.3066 32.6532 26.3065 32.6532C26.3065 32.6532 26.3065 32.6532 26.3065 32.6532C26.3065 32.6532 26.3065 32.6532 26.3065 32.6532C26.3065 32.6532 26.3065 32.6532 26.3065 32.6532C26.3065 32.6532 26.3065 32.6532 26.3064 32.6532C26.3064 32.6532 26.3064 32.6532 26.3064 32.6532C26.3064 32.6532 26.3064 32.6532 26.3064 32.6532C26.3064 32.6532 26.3064 32.6532 26.3064 32.6532C26.3064 32.6532 26.3064 32.6532 26.3063 32.6532C26.3063 32.6532 26.3063 32.6532 26.3063 32.6532C26.3063 32.6532 26.3063 32.6532 26.3063 32.6532C26.3063 32.6532 26.3063 32.6532 26.3063 32.6532C26.3063 32.6532 26.3063 32.6532 26.3062 32.6532C26.3062 32.6532 26.3062 32.6532 26.3062 32.6532C26.3062 32.6532 26.3062 32.6532 26.3062 32.6532C26.3062 32.6532 26.3062 32.6532 26.3062 32.6532C26.3062 32.6532 26.3062 32.6532 26.3061 32.6532C26.3061 32.6532 26.3061 32.6532 26.3061 32.6532C26.3061 32.6532 26.3061 32.6532 26.3061 32.6532C26.3061 32.6532 26.3061 32.6532 26.3061 32.6532C26.3061 32.6532 26.3061 32.6532 26.3061 32.6532C26.306 32.6532 26.306 32.6532 26.306 32.6532C26.306 32.6532 26.306 32.6532 26.306 32.6532C26.306 32.6532 26.306 32.6532 26.306 32.6532C26.306 32.6532 26.306 32.6532 26.306 32.6532C26.3059 32.6532 26.3059 32.6532 26.3059 32.6532C26.3059 32.6532 26.3059 32.6532 26.3059 32.6532C26.3059 32.6532 26.3059 32.6532 26.3059 32.6532C26.3059 32.6532 26.3059 32.6532 26.3059 32.6532C26.3058 32.6532 26.3058 32.6532 26.3058 32.6532C26.3058 32.6532 26.3058 32.6532 26.3058 32.6532C26.3058 32.6532 26.3058 32.6532 26.3058 32.6532C26.3058 32.6532 26.3058 32.6532 26.3058 32.6532C26.3057 32.6532 26.3057 32.6532 26.3057 32.6532C26.3057 32.6532 26.3057 32.6532 26.3057 32.6532C26.3057 32.6532 26.3057 32.6532 26.3057 32.6532C26.3057 32.6532 26.3057 32.6532 26.3057 32.6532C26.3056 32.6532 26.3056 32.6532 26.3056 32.6532C26.3056 32.6532 26.3056 32.6532 26.3056 32.6532C26.3056 32.6532 26.3056 32.6532 26.3056 32.6532C26.3056 32.6532 26.3056 32.6532 26.3056 32.6532C26.3055 32.6532 26.3055 32.6532 26.3055 32.6532C26.3055 32.6532 26.3055 32.6532 26.3055 32.6532C26.3055 32.6532 26.3055 32.6532 26.3055 32.6532C26.3055 32.6532 26.3055 32.6532 26.3055 32.6532C26.3055 32.6532 26.3054 32.6532 26.3054 32.6532C26.3054 32.6532 26.3054 32.6532 26.3054 32.6532C26.3054 32.6532 26.3054 32.6532 26.3054 32.6532C26.3054 32.6532 26.3054 32.6532 26.3054 32.6532C26.3054 32.6532 26.3053 32.6532 26.3053 32.6532C26.3053 32.6532 26.3053 32.6532 26.3053 32.6532C26.3053 32.6532 26.3053 32.6532 26.3053 32.6532C26.3053 32.6532 26.3053 32.6532 26.3053 32.6532C26.3053 32.6532 26.3052 32.6532 26.3052 32.6532C26.3052 32.6532 26.3052 32.6532 26.3052 32.6532C26.3052 32.6532 26.3052 32.6532 26.3052 32.6532C26.3052 32.6532 26.3052 32.6532 26.3052 32.6532C26.3052 32.6532 26.3051 32.6532 26.3051 32.6532C26.3051 32.6532 26.3051 32.6532 26.3051 32.6532C26.3051 32.6532 26.3051 32.6532 26.3051 32.6532C26.3051 32.6532 26.3051 32.6532 26.3051 32.6532C26.3051 32.6532 26.305 32.6532 26.305 32.6532C26.305 32.6532 26.305 32.6532 26.305 32.6532C26.305 32.6532 26.305 32.6532 26.305 32.6532C26.305 32.6532 26.305 32.6532 26.305 32.6532C26.305 32.6532 26.305 32.6532 26.3049 32.6532C26.3049 32.6532 26.3049 32.6532 26.3049 32.6532C26.3049 32.6532 26.3049 32.6532 26.3049 32.6532C26.3049 32.6532 26.3049 32.6532 26.3049 32.6532C26.3049 32.6532 26.3049 32.6532 26.3048 32.6532C26.3048 32.6532 26.3048 32.6532 26.3048 32.6532C26.3048 32.6532 26.3048 32.6532 26.3048 32.6532C26.3048 32.6532 26.3048 32.6532 26.3048 32.6532C26.3048 32.6532 26.3048 32.6532 26.3047 32.6532C26.3047 32.6532 26.3047 32.6532 26.3047 32.6532C26.3047 32.6532 26.3047 32.6532 26.3047 32.6532C26.3047 32.6532 26.3047 32.6532 26.3047 32.6532C26.3047 32.6532 26.3047 32.6532 26.3046 32.6532C26.3046 32.6532 26.3046 32.6532 26.3046 32.6532C26.3046 32.6532 26.3046 32.6532 26.3046 32.6532C26.3046 32.6532 26.3046 32.6532 26.3046 32.6532C26.3046 32.6532 26.3046 32.6532 26.3046 32.6532C26.3045 32.6532 26.3045 32.6532 26.3045 32.6532C26.3045 32.6532 26.3045 32.6532 26.3045 32.6532C26.3045 32.6532 26.3045 32.6532 26.3045 32.6532C26.3045 32.6532 26.3045 32.6532 26.3045 32.6532C26.3044 32.6532 26.3044 32.6532 26.3044 32.6532C26.3044 32.6532 26.3044 32.6532 26.3044 32.6532C26.3044 32.6532 26.3044 32.6532 26.3044 32.6532C26.3044 32.6532 26.3044 32.6532 26.3044 32.6532C26.3043 32.6532 26.3043 32.6532 26.3043 32.6532C26.3043 32.6532 26.3043 32.6532 26.3043 32.6532C26.3043 32.6532 26.3043 32.6532 26.3043 32.6532C26.3043 32.6532 26.3043 32.6532 26.3043 32.6532C26.3043 32.6532 26.3042 32.6532 26.3042 32.6532C26.3042 32.6532 26.3042 32.6532 26.3042 32.6532C26.3042 32.6532 26.3042 32.6532 26.3042 32.6532C26.3042 32.6532 26.3042 32.6532 26.3042 32.6532C26.3042 32.6532 26.3041 32.6532 26.3041 32.6532C26.3041 32.6532 26.3041 32.6532 26.3041 32.6532C26.3041 32.6532 26.3041 32.6532 26.3041 32.6532C26.3041 32.6532 26.3041 32.6532 26.3041 32.6532C26.3041 32.6532 26.304 32.6532 26.304 32.6532C26.304 32.6532 26.304 32.6532 26.304 32.6532C26.304 32.6532 26.304 32.6532 26.304 32.6532C26.304 32.6532 26.304 32.6532 26.304 32.6532C26.304 32.6532 26.304 32.6532 26.3039 32.6532C26.3039 32.6532 26.3039 32.6532 26.3039 32.6532C26.3039 32.6532 26.3039 32.6532 26.3039 32.6532C26.3039 32.6532 26.3039 32.6532 26.3039 32.6532C26.3039 32.6532 26.3039 32.6532 26.3038 32.6532C26.3038 32.6532 26.3038 32.6532 26.3038 32.6532C26.3038 32.6532 26.3038 32.6532 26.3038 32.6532C26.3038 32.6532 26.3038 32.6532 26.3038 32.6532C26.3038 32.6532 26.3038 32.6532 26.3038 32.6532C26.3037 32.6532 26.3037 32.6532 26.3037 32.6532C26.3037 32.6532 26.3037 32.6532 26.3037 32.6532C26.3037 32.6532 26.3037 32.6532 26.3037 32.6532C26.3037 32.6532 26.3037 32.6532 26.3037 32.6532C26.3036 32.6532 26.3036 32.6532 26.3036 32.6532C26.3036 32.6532 26.3036 32.6532 26.3036 32.6532C26.3036 32.6532 26.3036 32.6532 26.3036 32.6532C26.3036 32.6532 26.3036 32.6532 26.3036 32.6532C26.3035 32.6532 26.3035 32.6532 26.3035 32.6532C26.3035 32.6532 26.3035 32.6532 26.3035 32.6532C26.3035 32.6532 26.3035 32.6532 26.3035 32.6532C26.3035 32.6532 26.3035 32.6532 26.3035 32.6532C26.3035 32.6532 26.3034 32.6532 26.3034 32.6532C26.3034 32.6532 26.3034 32.6532 26.3034 32.6532C26.3034 32.6532 26.3034 32.6532 26.3034 32.6532C26.3034 32.6532 26.3034 32.6532 26.3034 32.6532C26.3034 32.6532 26.3033 32.6532 26.3033 32.6532C26.3033 32.6532 26.3033 32.6532 26.3033 32.6532C26.3033 32.6532 26.3033 32.6532 26.3033 32.6532C26.3033 32.6532 26.3033 32.6532 26.3033 32.6532C26.3033 32.6532 26.3033 32.6532 26.3032 32.6532C26.3032 32.6532 26.3032 32.6532 26.3032 32.6532C26.3032 32.6532 26.3032 32.6532 26.3032 32.6532C26.3032 32.6532 26.3032 32.6532 26.3032 32.6532C26.3032 32.6532 26.3032 32.6532 26.3031 32.6532C26.3031 32.6532 26.3031 32.6532 26.3031 32.6532C26.3031 32.6532 26.3031 32.6532 26.3031 32.6532C26.3031 32.6532 26.3031 32.6532 26.3031 32.6532C26.3031 32.6532 26.3031 32.6532 26.3031 32.6532C26.303 32.6532 26.303 32.6532 26.303 32.6532C26.303 32.6532 26.303 32.6532 26.303 32.6532C26.303 32.6532 26.303 32.6532 26.303 32.6532C26.303 32.6532 26.303 32.6532 26.303 32.6532C26.303 32.6532 26.3029 32.6532 26.3029 32.6532C26.3029 32.6532 26.3029 32.6532 26.3029 32.6532C26.3029 32.6532 26.3029 32.6532 26.3029 32.6532C26.3029 32.6532 26.3029 32.6532 26.3029 32.6532C26.3029 32.6532 26.3028 32.6532 26.3028 32.6532C26.3028 32.6532 26.3028 32.6532 26.3028 32.6532C26.3028 32.6532 26.3028 32.6532 26.3028 32.6532C26.3028 32.6532 26.3028 32.6532 26.3028 32.6532C26.3028 32.6532 26.3028 32.6532 26.3027 32.6532C26.3027 32.6532 26.3027 32.6532 26.3027 32.6532C26.3027 32.6532 26.3027 32.6532 26.3027 32.6532C26.3027 32.6532 26.3027 32.6532 26.3027 32.6532C26.3027 32.6532 26.3027 32.6532 26.3026 32.6532C26.3026 32.6532 26.3026 32.6532 26.3026 32.6532C26.3026 32.6532 26.3026 32.6532 26.3026 32.6532C26.3026 32.6532 26.3026 32.6532 26.3026 32.6532C26.3026 32.6532 26.3026 32.6532 26.3026 32.6532C26.3025 32.6532 26.3025 32.6532 26.3025 32.6532C26.3025 32.6532 26.3025 32.6532 26.3025 32.6532C26.3025 32.6532 26.3025 32.6532 26.3025 32.6532C26.3025 32.6532 26.3025 32.6532 26.3025 32.6532C26.3025 32.6532 26.3024 32.6532 26.3024 32.6532C26.3024 32.6532 26.3024 32.6532 26.3024 32.6532C26.3024 32.6532 26.3024 32.6532 26.3024 32.6532C26.3024 32.6532 26.3024 32.6532 26.3024 32.6532C26.3024 32.6532 26.3023 32.6532 26.3023 32.6532C26.3023 32.6532 26.3023 32.6532 26.3023 32.6532C26.3023 32.6532 26.3023 32.6532 26.3023 32.6532C26.3023 32.6532 26.3023 32.6532 26.3023 32.6532C26.3023 32.6532 26.3023 32.6532 26.3022 32.6532C26.3022 32.6532 26.3022 32.6532 26.3022 32.6532C26.3022 32.6532 26.3022 32.6532 26.3022 32.6532C26.3022 32.6532 26.3022 32.6532 26.3022 32.6532C26.3022 32.6532 26.3022 32.6532 26.3022 32.6532C26.3021 32.6532 26.3021 32.6532 26.3021 32.6532C26.3021 32.6532 26.3021 32.6532 26.3021 32.6532C26.3021 32.6532 26.3021 32.6532 26.3021 32.6532C26.3021 32.6532 26.3021 32.6532 26.3021 32.6532C26.3021 32.6532 26.302 32.6532 26.302 32.6532C26.302 32.6532 26.302 32.6532 26.302 32.6532C26.302 32.6532 26.302 32.6532 26.302 32.6532C26.302 32.6532 26.302 32.6532 26.302 32.6532C26.302 32.6532 26.3019 32.6532 26.3019 32.6532C26.3019 32.6532 26.3019 32.6532 26.3019 32.6532C26.3019 32.6532 26.3019 32.6532 26.3019 32.6532C26.3019 32.6532 26.3019 32.6532 26.3019 32.6532C26.3019 32.6532 26.3019 32.6532 26.3018 32.6532C26.3018 32.6532 26.3018 32.6532 26.3018 32.6532C26.3018 32.6532 26.3018 32.6532 26.3018 32.6532C26.3018 32.6532 26.3018 32.6532 26.3018 32.6532C26.3018 32.6532 26.3018 32.6532 26.3018 32.6532C26.3017 32.6532 26.3017 32.6532 26.3017 32.6532C26.3017 32.6532 26.3017 32.6532 26.3017 32.6532C26.3017 32.6532 26.3017 32.6532 26.3017 32.6532C26.3017 32.6532 26.3017 32.6532 26.3017 32.6532C26.3017 32.6532 26.3016 32.6532 26.3016 32.6532C26.3016 32.6532 26.3016 32.6532 26.3016 32.6532C26.3016 32.6532 26.3016 32.6532 26.3016 32.6532C26.3016 32.6532 26.3016 32.6532 26.3016 32.6532C26.3016 32.6532 26.3016 32.6532 26.3015 32.6532C26.3015 32.6532 26.3015 32.6532 26.3015 32.6532C26.3015 32.6532 26.3015 32.6532 26.3015 32.6532C26.3015 32.6532 26.3015 32.6532 26.3015 32.6532C26.3015 32.6532 26.3015 32.6532 26.3015 32.6532C26.3014 32.6532 26.3014 32.6532 26.3014 32.6532C26.3014 32.6532 26.3014 32.6532 26.3014 32.6532C26.3014 32.6532 26.3014 32.6532 26.3014 32.6532C26.3014 32.6532 26.3014 32.6532 26.3014 32.6532C26.3014 32.6532 26.3013 32.6532 26.3013 32.6532C26.3013 32.6532 26.3013 32.6532 26.3013 32.6532C26.3013 32.6532 26.3013 32.6532 26.3013 32.6532C26.3013 32.6532 26.3013 32.6532 26.3013 32.6532C26.3013 32.6532 26.3013 32.6532 26.3012 32.6532C26.3012 32.6532 26.3012 32.6532 26.3012 32.6532C26.3012 32.6532 26.3012 32.6532 26.3012 32.6532C26.3012 32.6532 26.3012 32.6532 26.3012 32.6532C26.3012 32.6532 26.3012 32.6532 26.3012 32.6532C26.3011 32.6532 26.3011 32.6532 26.3011 32.6532C26.3011 32.6532 26.3011 32.6532 26.3011 32.6532C26.3011 32.6532 26.3011 32.6532 26.3011 32.6532C26.3011 32.6532 26.3011 32.6532 26.3011 32.6532C26.3011 32.6532 26.301 32.6532 26.301 32.6532C26.301 32.6532 26.301 32.6532 26.301 32.6532C26.301 32.6532 26.301 32.6532 26.301 32.6532C26.301 32.6532 26.301 32.6532 26.301 32.6532C26.301 32.6532 26.301 32.6532 26.3009 32.6532C26.3009 32.6532 26.3009 32.6532 26.3009 32.6532C26.3009 32.6532 26.3009 32.6532 26.3009 32.6532C26.3009 32.6532 26.3009 32.6532 26.3009 32.6532C26.3009 32.6532 26.3009 32.6532 26.3009 32.6532C26.3008 32.6532 26.3008 32.6532 26.3008 32.6532C26.3008 32.6532 26.3008 32.6532 26.3008 32.6532C26.3008 32.6532 26.3008 32.6532 26.3008 32.6532C26.3008 32.6532 26.3008 32.6532 26.3008 32.6532C26.3008 32.6532 26.3008 32.6532 26.3007 32.6532C26.3007 32.6532 26.3007 32.6532 26.3007 32.6532C26.3007 32.6532 26.3007 32.6532 26.3007 32.6532C26.3007 32.6532 26.3007 32.6532 26.3007 32.6532C26.3007 32.6532 26.3007 32.6532 26.3007 32.6532C26.3006 32.6532 26.3006 32.6532 26.3006 32.6532C26.3006 32.6532 26.3006 32.6532 26.3006 32.6532C26.3006 32.6532 26.3006 32.6532 26.3006 32.6532C26.3006 32.6532 26.3006 32.6532 26.3006 32.6532C26.3006 32.6532 26.3005 32.6532 26.3005 32.6532C26.3005 32.6532 26.3005 32.6532 26.3005 32.6532C26.3005 32.6532 26.3005 32.6532 26.3005 32.6532C26.3005 32.6532 26.3005 32.6532 26.3005 32.6532C26.3005 32.6532 26.3005 32.6532 26.3004 32.6532C26.3004 32.6532 26.3004 32.6532 26.3004 32.6532C26.3004 32.6532 26.3004 32.6532 26.3004 32.6532C26.3004 32.6532 26.3004 32.6532 26.3004 32.6532C26.3004 32.6532 26.3004 32.6532 26.3004 32.6532C26.3004 32.6532 26.3003 32.6532 26.3003 32.6532C26.3003 32.6532 26.3003 32.6532 26.3003 32.6532C26.3003 32.6532 26.3003 32.6532 26.3003 32.6532C26.3003 32.6532 26.3003 32.6532 26.3003 32.6532C26.3003 32.6532 26.3003 32.6532 26.3002 32.6532C26.3002 32.6532 26.3002 32.6532 26.3002 32.6532C26.3002 32.6532 26.3002 32.6532 26.3002 32.6532C26.3002 32.6532 26.3002 32.6532 26.3002 32.6532C26.3002 32.6532 26.3002 32.6532 26.3002 32.6532C26.3002 32.6532 26.3001 32.6532 26.3001 32.6532C26.3001 32.6532 26.3001 32.6532 26.3001 32.6532C26.3001 32.6532 26.3001 32.6532 26.3001 32.6532C26.3001 32.6532 26.3001 32.6532 26.3001 32.6532C26.3001 32.6532 26.3001 32.6532 26.3 32.6532C26.3 32.6532 26.3 32.6532 26.3 32.6532C26.3 32.6532 26.3 32.6532 26.3 32.6532C26.3 32.6532 26.3 32.6532 26.3 32.6532C26.3 32.6532 26.3 32.6532 26.3 32.6532C26.3 32.6532 26.2999 32.6532 26.2999 32.6532C26.2999 32.6532 26.2999 32.6532 26.2999 32.6532C26.2999 32.6532 26.2999 32.6532 26.2999 32.6532C26.2999 32.6532 26.2999 32.6532 26.2999 32.6532C26.2999 32.6532 26.2999 32.6532 26.2998 32.6532C26.2998 32.6532 26.2998 32.6532 26.2998 32.6532C26.2998 32.6532 26.2998 32.6532 26.2998 32.6532C26.2998 32.6532 26.2998 32.6532 26.2998 32.6532C26.2998 32.6532 26.2998 32.6532 26.2998 32.6532C26.2998 32.6532 26.2997 32.6532 26.2997 32.6532C26.2997 32.6532 26.2997 32.6532 26.2997 32.6532C26.2997 32.6532 26.2997 32.6532 26.2997 32.6532C26.2997 32.6532 26.2997 32.6532 26.2997 32.6532C26.2997 32.6532 26.2997 32.6532 26.2997 32.6532C26.2996 32.6532 26.2996 32.6532 26.2996 32.6532C26.2996 32.6532 26.2996 32.6532 26.2996 32.6532C26.2996 32.6532 26.2996 32.6532 26.2996 32.6532C26.2996 32.6532 26.2996 32.6532 26.2996 32.6532C26.2996 32.6532 26.2995 32.6532 26.2995 32.6532C26.2995 32.6532 26.2995 32.6532 26.2995 32.6532C26.2995 32.6532 26.2995 32.6532 26.2995 32.6532C26.2995 32.6532 26.2995 32.6532 26.2995 32.6532C26.2995 32.6532 26.2995 32.6532 26.2995 32.6532C26.2994 32.6532 26.2994 32.6532 26.2994 32.6532C26.2994 32.6532 26.2994 32.6532 26.2994 32.6532C26.2994 32.6532 26.2994 32.6532 26.2994 32.6532C26.2994 32.6532 26.2994 32.6532 26.2994 32.6532C26.2994 32.6532 26.2994 32.6532 26.2993 32.6532C26.2993 32.6532 26.2993 32.6532 26.2993 32.6532C26.2993 32.6532 26.2993 32.6532 26.2993 32.6532C26.2993 32.6532 26.2993 32.6532 26.2993 32.6532C26.2993 32.6532 26.2993 32.6532 26.2993 32.6532C26.2993 32.6532 26.2992 32.6532 26.2992 32.6532C26.2992 32.6532 26.2992 32.6532 26.2992 32.6532C26.2992 32.6532 26.2992 32.6532 26.2992 32.6532C26.2992 32.6532 26.2992 32.6532 26.2992 32.6532C26.2992 32.6532 26.2992 32.6532 26.2992 32.6532C26.2991 32.6532 26.2991 32.6532 26.2991 32.6532C26.2991 32.6532 26.2991 32.6532 26.2991 32.6532C26.2991 32.6532 26.2991 32.6532 26.2991 32.6532C26.2991 32.6532 26.2991 32.6532 26.2991 32.6532C26.2991 32.6532 26.2991 32.6532 26.299 32.6532C26.299 32.6532 26.299 32.6532 26.299 32.6532C26.299 32.6532 26.299 32.6532 26.299 32.6532C26.299 32.6532 26.299 32.6532 26.299 32.6532C26.299 32.6532 26.299 32.6532 26.299 32.6532C26.299 32.6532 26.2989 32.6532 26.2989 32.6532V32.8532C26.2989 32.8532 26.299 32.8532 26.299 32.8532C26.299 32.8532 26.299 32.8532 26.299 32.8532C26.299 32.8532 26.299 32.8532 26.299 32.8532C26.299 32.8532 26.299 32.8532 26.299 32.8532C26.299 32.8532 26.299 32.8532 26.299 32.8532C26.2991 32.8532 26.2991 32.8532 26.2991 32.8532C26.2991 32.8532 26.2991 32.8532 26.2991 32.8532C26.2991 32.8532 26.2991 32.8532 26.2991 32.8532C26.2991 32.8532 26.2991 32.8532 26.2991 32.8532C26.2991 32.8532 26.2991 32.8532 26.2992 32.8532C26.2992 32.8532 26.2992 32.8532 26.2992 32.8532C26.2992 32.8532 26.2992 32.8532 26.2992 32.8532C26.2992 32.8532 26.2992 32.8532 26.2992 32.8532C26.2992 32.8532 26.2992 32.8532 26.2992 32.8532C26.2992 32.8532 26.2993 32.8532 26.2993 32.8532C26.2993 32.8532 26.2993 32.8532 26.2993 32.8532C26.2993 32.8532 26.2993 32.8532 26.2993 32.8532C26.2993 32.8532 26.2993 32.8532 26.2993 32.8532C26.2993 32.8532 26.2993 32.8532 26.2993 32.8532C26.2994 32.8532 26.2994 32.8532 26.2994 32.8532C26.2994 32.8532 26.2994 32.8532 26.2994 32.8532C26.2994 32.8532 26.2994 32.8532 26.2994 32.8532C26.2994 32.8532 26.2994 32.8532 26.2994 32.8532C26.2994 32.8532 26.2994 32.8532 26.2995 32.8532C26.2995 32.8532 26.2995 32.8532 26.2995 32.8532C26.2995 32.8532 26.2995 32.8532 26.2995 32.8532C26.2995 32.8532 26.2995 32.8532 26.2995 32.8532C26.2995 32.8532 26.2995 32.8532 26.2995 32.8532C26.2995 32.8532 26.2996 32.8532 26.2996 32.8532C26.2996 32.8532 26.2996 32.8532 26.2996 32.8532C26.2996 32.8532 26.2996 32.8532 26.2996 32.8532C26.2996 32.8532 26.2996 32.8532 26.2996 32.8532C26.2996 32.8532 26.2996 32.8532 26.2997 32.8532C26.2997 32.8532 26.2997 32.8532 26.2997 32.8532C26.2997 32.8532 26.2997 32.8532 26.2997 32.8532C26.2997 32.8532 26.2997 32.8532 26.2997 32.8532C26.2997 32.8532 26.2997 32.8532 26.2997 32.8532C26.2997 32.8532 26.2998 32.8532 26.2998 32.8532C26.2998 32.8532 26.2998 32.8532 26.2998 32.8532C26.2998 32.8532 26.2998 32.8532 26.2998 32.8532C26.2998 32.8532 26.2998 32.8532 26.2998 32.8532C26.2998 32.8532 26.2998 32.8532 26.2998 32.8532C26.2999 32.8532 26.2999 32.8532 26.2999 32.8532C26.2999 32.8532 26.2999 32.8532 26.2999 32.8532C26.2999 32.8532 26.2999 32.8532 26.2999 32.8532C26.2999 32.8532 26.2999 32.8532 26.2999 32.8532C26.2999 32.8532 26.3 32.8532 26.3 32.8532C26.3 32.8532 26.3 32.8532 26.3 32.8532C26.3 32.8532 26.3 32.8532 26.3 32.8532C26.3 32.8532 26.3 32.8532 26.3 32.8532C26.3 32.8532 26.3 32.8532 26.3 32.8532C26.3001 32.8532 26.3001 32.8532 26.3001 32.8532C26.3001 32.8532 26.3001 32.8532 26.3001 32.8532C26.3001 32.8532 26.3001 32.8532 26.3001 32.8532C26.3001 32.8532 26.3001 32.8532 26.3001 32.8532C26.3001 32.8532 26.3002 32.8532 26.3002 32.8532C26.3002 32.8532 26.3002 32.8532 26.3002 32.8532C26.3002 32.8532 26.3002 32.8532 26.3002 32.8532C26.3002 32.8532 26.3002 32.8532 26.3002 32.8532C26.3002 32.8532 26.3002 32.8532 26.3002 32.8532C26.3003 32.8532 26.3003 32.8532 26.3003 32.8532C26.3003 32.8532 26.3003 32.8532 26.3003 32.8532C26.3003 32.8532 26.3003 32.8532 26.3003 32.8532C26.3003 32.8532 26.3003 32.8532 26.3003 32.8532C26.3003 32.8532 26.3004 32.8532 26.3004 32.8532C26.3004 32.8532 26.3004 32.8532 26.3004 32.8532C26.3004 32.8532 26.3004 32.8532 26.3004 32.8532C26.3004 32.8532 26.3004 32.8532 26.3004 32.8532C26.3004 32.8532 26.3004 32.8532 26.3004 32.8532C26.3005 32.8532 26.3005 32.8532 26.3005 32.8532C26.3005 32.8532 26.3005 32.8532 26.3005 32.8532C26.3005 32.8532 26.3005 32.8532 26.3005 32.8532C26.3005 32.8532 26.3005 32.8532 26.3005 32.8532C26.3005 32.8532 26.3006 32.8532 26.3006 32.8532C26.3006 32.8532 26.3006 32.8532 26.3006 32.8532C26.3006 32.8532 26.3006 32.8532 26.3006 32.8532C26.3006 32.8532 26.3006 32.8532 26.3006 32.8532C26.3006 32.8532 26.3006 32.8532 26.3007 32.8532C26.3007 32.8532 26.3007 32.8532 26.3007 32.8532C26.3007 32.8532 26.3007 32.8532 26.3007 32.8532C26.3007 32.8532 26.3007 32.8532 26.3007 32.8532C26.3007 32.8532 26.3007 32.8532 26.3007 32.8532C26.3008 32.8532 26.3008 32.8532 26.3008 32.8532C26.3008 32.8532 26.3008 32.8532 26.3008 32.8532C26.3008 32.8532 26.3008 32.8532 26.3008 32.8532C26.3008 32.8532 26.3008 32.8532 26.3008 32.8532C26.3008 32.8532 26.3008 32.8532 26.3009 32.8532C26.3009 32.8532 26.3009 32.8532 26.3009 32.8532C26.3009 32.8532 26.3009 32.8532 26.3009 32.8532C26.3009 32.8532 26.3009 32.8532 26.3009 32.8532C26.3009 32.8532 26.3009 32.8532 26.3009 32.8532C26.301 32.8532 26.301 32.8532 26.301 32.8532C26.301 32.8532 26.301 32.8532 26.301 32.8532C26.301 32.8532 26.301 32.8532 26.301 32.8532C26.301 32.8532 26.301 32.8532 26.301 32.8532C26.301 32.8532 26.3011 32.8532 26.3011 32.8532C26.3011 32.8532 26.3011 32.8532 26.3011 32.8532C26.3011 32.8532 26.3011 32.8532 26.3011 32.8532C26.3011 32.8532 26.3011 32.8532 26.3011 32.8532C26.3011 32.8532 26.3011 32.8532 26.3012 32.8532C26.3012 32.8532 26.3012 32.8532 26.3012 32.8532C26.3012 32.8532 26.3012 32.8532 26.3012 32.8532C26.3012 32.8532 26.3012 32.8532 26.3012 32.8532C26.3012 32.8532 26.3012 32.8532 26.3012 32.8532C26.3013 32.8532 26.3013 32.8532 26.3013 32.8532C26.3013 32.8532 26.3013 32.8532 26.3013 32.8532C26.3013 32.8532 26.3013 32.8532 26.3013 32.8532C26.3013 32.8532 26.3013 32.8532 26.3013 32.8532C26.3013 32.8532 26.3014 32.8532 26.3014 32.8532C26.3014 32.8532 26.3014 32.8532 26.3014 32.8532C26.3014 32.8532 26.3014 32.8532 26.3014 32.8532C26.3014 32.8532 26.3014 32.8532 26.3014 32.8532C26.3014 32.8532 26.3014 32.8532 26.3015 32.8532C26.3015 32.8532 26.3015 32.8532 26.3015 32.8532C26.3015 32.8532 26.3015 32.8532 26.3015 32.8532C26.3015 32.8532 26.3015 32.8532 26.3015 32.8532C26.3015 32.8532 26.3015 32.8532 26.3015 32.8532C26.3016 32.8532 26.3016 32.8532 26.3016 32.8532C26.3016 32.8532 26.3016 32.8532 26.3016 32.8532C26.3016 32.8532 26.3016 32.8532 26.3016 32.8532C26.3016 32.8532 26.3016 32.8532 26.3016 32.8532C26.3016 32.8532 26.3017 32.8532 26.3017 32.8532C26.3017 32.8532 26.3017 32.8532 26.3017 32.8532C26.3017 32.8532 26.3017 32.8532 26.3017 32.8532C26.3017 32.8532 26.3017 32.8532 26.3017 32.8532C26.3017 32.8532 26.3017 32.8532 26.3018 32.8532C26.3018 32.8532 26.3018 32.8532 26.3018 32.8532C26.3018 32.8532 26.3018 32.8532 26.3018 32.8532C26.3018 32.8532 26.3018 32.8532 26.3018 32.8532C26.3018 32.8532 26.3018 32.8532 26.3018 32.8532C26.3019 32.8532 26.3019 32.8532 26.3019 32.8532C26.3019 32.8532 26.3019 32.8532 26.3019 32.8532C26.3019 32.8532 26.3019 32.8532 26.3019 32.8532C26.3019 32.8532 26.3019 32.8532 26.3019 32.8532C26.3019 32.8532 26.302 32.8532 26.302 32.8532C26.302 32.8532 26.302 32.8532 26.302 32.8532C26.302 32.8532 26.302 32.8532 26.302 32.8532C26.302 32.8532 26.302 32.8532 26.302 32.8532C26.302 32.8532 26.3021 32.8532 26.3021 32.8532C26.3021 32.8532 26.3021 32.8532 26.3021 32.8532C26.3021 32.8532 26.3021 32.8532 26.3021 32.8532C26.3021 32.8532 26.3021 32.8532 26.3021 32.8532C26.3021 32.8532 26.3021 32.8532 26.3022 32.8532C26.3022 32.8532 26.3022 32.8532 26.3022 32.8532C26.3022 32.8532 26.3022 32.8532 26.3022 32.8532C26.3022 32.8532 26.3022 32.8532 26.3022 32.8532C26.3022 32.8532 26.3022 32.8532 26.3022 32.8532C26.3023 32.8532 26.3023 32.8532 26.3023 32.8532C26.3023 32.8532 26.3023 32.8532 26.3023 32.8532C26.3023 32.8532 26.3023 32.8532 26.3023 32.8532C26.3023 32.8532 26.3023 32.8532 26.3023 32.8532C26.3023 32.8532 26.3024 32.8532 26.3024 32.8532C26.3024 32.8532 26.3024 32.8532 26.3024 32.8532C26.3024 32.8532 26.3024 32.8532 26.3024 32.8532C26.3024 32.8532 26.3024 32.8532 26.3024 32.8532C26.3024 32.8532 26.3025 32.8532 26.3025 32.8532C26.3025 32.8532 26.3025 32.8532 26.3025 32.8532C26.3025 32.8532 26.3025 32.8532 26.3025 32.8532C26.3025 32.8532 26.3025 32.8532 26.3025 32.8532C26.3025 32.8532 26.3025 32.8532 26.3026 32.8532C26.3026 32.8532 26.3026 32.8532 26.3026 32.8532C26.3026 32.8532 26.3026 32.8532 26.3026 32.8532C26.3026 32.8532 26.3026 32.8532 26.3026 32.8532C26.3026 32.8532 26.3026 32.8532 26.3026 32.8532C26.3027 32.8532 26.3027 32.8532 26.3027 32.8532C26.3027 32.8532 26.3027 32.8532 26.3027 32.8532C26.3027 32.8532 26.3027 32.8532 26.3027 32.8532C26.3027 32.8532 26.3027 32.8532 26.3027 32.8532C26.3028 32.8532 26.3028 32.8532 26.3028 32.8532C26.3028 32.8532 26.3028 32.8532 26.3028 32.8532C26.3028 32.8532 26.3028 32.8532 26.3028 32.8532C26.3028 32.8532 26.3028 32.8532 26.3028 32.8532C26.3028 32.8532 26.3029 32.8532 26.3029 32.8532C26.3029 32.8532 26.3029 32.8532 26.3029 32.8532C26.3029 32.8532 26.3029 32.8532 26.3029 32.8532C26.3029 32.8532 26.3029 32.8532 26.3029 32.8532C26.3029 32.8532 26.303 32.8532 26.303 32.8532C26.303 32.8532 26.303 32.8532 26.303 32.8532C26.303 32.8532 26.303 32.8532 26.303 32.8532C26.303 32.8532 26.303 32.8532 26.303 32.8532C26.303 32.8532 26.303 32.8532 26.3031 32.8532C26.3031 32.8532 26.3031 32.8532 26.3031 32.8532C26.3031 32.8532 26.3031 32.8532 26.3031 32.8532C26.3031 32.8532 26.3031 32.8532 26.3031 32.8532C26.3031 32.8532 26.3031 32.8532 26.3031 32.8532C26.3032 32.8532 26.3032 32.8532 26.3032 32.8532C26.3032 32.8532 26.3032 32.8532 26.3032 32.8532C26.3032 32.8532 26.3032 32.8532 26.3032 32.8532C26.3032 32.8532 26.3032 32.8532 26.3032 32.8532C26.3033 32.8532 26.3033 32.8532 26.3033 32.8532C26.3033 32.8532 26.3033 32.8532 26.3033 32.8532C26.3033 32.8532 26.3033 32.8532 26.3033 32.8532C26.3033 32.8532 26.3033 32.8532 26.3033 32.8532C26.3033 32.8532 26.3034 32.8532 26.3034 32.8532C26.3034 32.8532 26.3034 32.8532 26.3034 32.8532C26.3034 32.8532 26.3034 32.8532 26.3034 32.8532C26.3034 32.8532 26.3034 32.8532 26.3034 32.8532C26.3034 32.8532 26.3035 32.8532 26.3035 32.8532C26.3035 32.8532 26.3035 32.8532 26.3035 32.8532C26.3035 32.8532 26.3035 32.8532 26.3035 32.8532C26.3035 32.8532 26.3035 32.8532 26.3035 32.8532C26.3035 32.8532 26.3035 32.8532 26.3036 32.8532C26.3036 32.8532 26.3036 32.8532 26.3036 32.8532C26.3036 32.8532 26.3036 32.8532 26.3036 32.8532C26.3036 32.8532 26.3036 32.8532 26.3036 32.8532C26.3036 32.8532 26.3036 32.8532 26.3037 32.8532C26.3037 32.8532 26.3037 32.8532 26.3037 32.8532C26.3037 32.8532 26.3037 32.8532 26.3037 32.8532C26.3037 32.8532 26.3037 32.8532 26.3037 32.8532C26.3037 32.8532 26.3037 32.8532 26.3038 32.8532C26.3038 32.8532 26.3038 32.8532 26.3038 32.8532C26.3038 32.8532 26.3038 32.8532 26.3038 32.8532C26.3038 32.8532 26.3038 32.8532 26.3038 32.8532C26.3038 32.8532 26.3038 32.8532 26.3038 32.8532C26.3039 32.8532 26.3039 32.8532 26.3039 32.8532C26.3039 32.8532 26.3039 32.8532 26.3039 32.8532C26.3039 32.8532 26.3039 32.8532 26.3039 32.8532C26.3039 32.8532 26.3039 32.8532 26.3039 32.8532C26.304 32.8532 26.304 32.8532 26.304 32.8532C26.304 32.8532 26.304 32.8532 26.304 32.8532C26.304 32.8532 26.304 32.8532 26.304 32.8532C26.304 32.8532 26.304 32.8532 26.304 32.8532C26.304 32.8532 26.3041 32.8532 26.3041 32.8532C26.3041 32.8532 26.3041 32.8532 26.3041 32.8532C26.3041 32.8532 26.3041 32.8532 26.3041 32.8532C26.3041 32.8532 26.3041 32.8532 26.3041 32.8532C26.3041 32.8532 26.3042 32.8532 26.3042 32.8532C26.3042 32.8532 26.3042 32.8532 26.3042 32.8532C26.3042 32.8532 26.3042 32.8532 26.3042 32.8532C26.3042 32.8532 26.3042 32.8532 26.3042 32.8532C26.3042 32.8532 26.3043 32.8532 26.3043 32.8532C26.3043 32.8532 26.3043 32.8532 26.3043 32.8532C26.3043 32.8532 26.3043 32.8532 26.3043 32.8532C26.3043 32.8532 26.3043 32.8532 26.3043 32.8532C26.3043 32.8532 26.3043 32.8532 26.3044 32.8532C26.3044 32.8532 26.3044 32.8532 26.3044 32.8532C26.3044 32.8532 26.3044 32.8532 26.3044 32.8532C26.3044 32.8532 26.3044 32.8532 26.3044 32.8532C26.3044 32.8532 26.3044 32.8532 26.3045 32.8532C26.3045 32.8532 26.3045 32.8532 26.3045 32.8532C26.3045 32.8532 26.3045 32.8532 26.3045 32.8532C26.3045 32.8532 26.3045 32.8532 26.3045 32.8532C26.3045 32.8532 26.3045 32.8532 26.3046 32.8532C26.3046 32.8532 26.3046 32.8532 26.3046 32.8532C26.3046 32.8532 26.3046 32.8532 26.3046 32.8532C26.3046 32.8532 26.3046 32.8532 26.3046 32.8532C26.3046 32.8532 26.3046 32.8532 26.3046 32.8532C26.3047 32.8532 26.3047 32.8532 26.3047 32.8532C26.3047 32.8532 26.3047 32.8532 26.3047 32.8532C26.3047 32.8532 26.3047 32.8532 26.3047 32.8532C26.3047 32.8532 26.3047 32.8532 26.3047 32.8532C26.3048 32.8532 26.3048 32.8532 26.3048 32.8532C26.3048 32.8532 26.3048 32.8532 26.3048 32.8532C26.3048 32.8532 26.3048 32.8532 26.3048 32.8532C26.3048 32.8532 26.3048 32.8532 26.3048 32.8532C26.3049 32.8532 26.3049 32.8532 26.3049 32.8532C26.3049 32.8532 26.3049 32.8532 26.3049 32.8532C26.3049 32.8532 26.3049 32.8532 26.3049 32.8532C26.3049 32.8532 26.3049 32.8532 26.3049 32.8532C26.305 32.8532 26.305 32.8532 26.305 32.8532C26.305 32.8532 26.305 32.8532 26.305 32.8532C26.305 32.8532 26.305 32.8532 26.305 32.8532C26.305 32.8532 26.305 32.8532 26.305 32.8532C26.305 32.8532 26.3051 32.8532 26.3051 32.8532C26.3051 32.8532 26.3051 32.8532 26.3051 32.8532C26.3051 32.8532 26.3051 32.8532 26.3051 32.8532C26.3051 32.8532 26.3051 32.8532 26.3051 32.8532C26.3051 32.8532 26.3052 32.8532 26.3052 32.8532C26.3052 32.8532 26.3052 32.8532 26.3052 32.8532C26.3052 32.8532 26.3052 32.8532 26.3052 32.8532C26.3052 32.8532 26.3052 32.8532 26.3052 32.8532C26.3052 32.8532 26.3053 32.8532 26.3053 32.8532C26.3053 32.8532 26.3053 32.8532 26.3053 32.8532C26.3053 32.8532 26.3053 32.8532 26.3053 32.8532C26.3053 32.8532 26.3053 32.8532 26.3053 32.8532C26.3053 32.8532 26.3054 32.8532 26.3054 32.8532C26.3054 32.8532 26.3054 32.8532 26.3054 32.8532C26.3054 32.8532 26.3054 32.8532 26.3054 32.8532C26.3054 32.8532 26.3054 32.8532 26.3054 32.8532C26.3054 32.8532 26.3055 32.8532 26.3055 32.8532C26.3055 32.8532 26.3055 32.8532 26.3055 32.8532C26.3055 32.8532 26.3055 32.8532 26.3055 32.8532C26.3055 32.8532 26.3055 32.8532 26.3055 32.8532C26.3055 32.8532 26.3055 32.8532 26.3056 32.8532C26.3056 32.8532 26.3056 32.8532 26.3056 32.8532C26.3056 32.8532 26.3056 32.8532 26.3056 32.8532C26.3056 32.8532 26.3056 32.8532 26.3056 32.8532C26.3056 32.8532 26.3056 32.8532 26.3057 32.8532C26.3057 32.8532 26.3057 32.8532 26.3057 32.8532C26.3057 32.8532 26.3057 32.8532 26.3057 32.8532C26.3057 32.8532 26.3057 32.8532 26.3057 32.8532C26.3057 32.8532 26.3057 32.8532 26.3058 32.8532C26.3058 32.8532 26.3058 32.8532 26.3058 32.8532C26.3058 32.8532 26.3058 32.8532 26.3058 32.8532C26.3058 32.8532 26.3058 32.8532 26.3058 32.8532C26.3058 32.8532 26.3058 32.8532 26.3059 32.8532C26.3059 32.8532 26.3059 32.8532 26.3059 32.8532C26.3059 32.8532 26.3059 32.8532 26.3059 32.8532C26.3059 32.8532 26.3059 32.8532 26.3059 32.8532C26.3059 32.8532 26.3059 32.8532 26.306 32.8532C26.306 32.8532 26.306 32.8532 26.306 32.8532C26.306 32.8532 26.306 32.8532 26.306 32.8532C26.306 32.8532 26.306 32.8532 26.306 32.8532C26.306 32.8532 26.306 32.8532 26.3061 32.8532C26.3061 32.8532 26.3061 32.8532 26.3061 32.8532C26.3061 32.8532 26.3061 32.8532 26.3061 32.8532C26.3061 32.8532 26.3061 32.8532 26.3061 32.8532C26.3061 32.8532 26.3061 32.8532 26.3061 32.8532C26.3062 32.8532 26.3062 32.8532 26.3062 32.8532C26.3062 32.8532 26.3062 32.8532 26.3062 32.8532C26.3062 32.8532 26.3062 32.8532 26.3062 32.8532C26.3062 32.8532 26.3062 32.8532 26.3062 32.8532C26.3063 32.8532 26.3063 32.8532 26.3063 32.8532C26.3063 32.8532 26.3063 32.8532 26.3063 32.8532C26.3063 32.8532 26.3063 32.8532 26.3063 32.8532C26.3063 32.8532 26.3063 32.8532 26.3063 32.8532C26.3064 32.8532 26.3064 32.8532 26.3064 32.8532C26.3064 32.8532 26.3064 32.8532 26.3064 32.8532C26.3064 32.8532 26.3064 32.8532 26.3064 32.8532C26.3064 32.8532 26.3064 32.8532 26.3064 32.8532C26.3065 32.8532 26.3065 32.8532 26.3065 32.8532C26.3065 32.8532 26.3065 32.8532 26.3065 32.8532C26.3065 32.8532 26.3065 32.8532 26.3065 32.8532C26.3065 32.8532 26.3065 32.8532 26.3065 32.8532C26.3066 32.8532 26.3066 32.8532 26.3066 32.8532C26.3066 32.8532 26.3066 32.8532 26.3066 32.8532C26.3066 32.8532 26.3066 32.8532 26.3066 32.8532C26.3066 32.8532 26.3066 32.8532 26.3066 32.8532C26.3067 32.8532 26.3067 32.8532 26.3067 32.8532C26.3067 32.8532 26.3067 32.8532 26.3067 32.8532C26.3067 32.8532 26.3067 32.8532 26.3067 32.8532C26.3067 32.8532 26.3067 32.8532 26.3067 32.8532C26.3068 32.8532 26.3068 32.8532 26.3068 32.8532C26.3068 32.8532 26.3068 32.8532 26.3068 32.8532C26.3068 32.8532 26.3068 32.8532 26.3068 32.8532C26.3068 32.8532 26.3068 32.8532 26.3068 32.8532C26.3068 32.8532 26.3069 32.8532 26.3069 32.8532C26.3069 32.8532 26.3069 32.8532 26.3069 32.8532C26.3069 32.8532 26.3069 32.8532 26.3069 32.8532C26.3069 32.8532 26.3069 32.8532 26.3069 32.8532C26.3069 32.8532 26.307 32.8532 26.307 32.8532C26.307 32.8532 26.307 32.8532 26.307 32.8532C26.307 32.8532 26.307 32.8532 26.307 32.8532C26.307 32.8532 26.307 32.8532 26.307 32.8532C26.307 32.8532 26.3071 32.8532 26.3071 32.8532C26.3071 32.8532 26.3071 32.8532 26.3071 32.8532C26.3071 32.8532 26.3071 32.8532 26.3071 32.8532C26.3071 32.8532 26.3071 32.8532 26.3071 32.8532C26.3071 32.8532 26.3072 32.8532 26.3072 32.8532C26.3072 32.8532 26.3072 32.8532 26.3072 32.8532C26.3072 32.8532 26.3072 32.8532 26.3072 32.8532C26.3072 32.8532 26.3072 32.8532 26.3072 32.8532C26.3072 32.8532 26.3073 32.8532 26.3073 32.8532C26.3073 32.8532 26.3073 32.8532 26.3073 32.8532C26.3073 32.8532 26.3073 32.8532 26.3073 32.8532C26.3073 32.8532 26.3073 32.8532 26.3073 32.8532C26.3073 32.8532 26.3074 32.8532 26.3074 32.8532C26.3074 32.8532 26.3074 32.8532 26.3074 32.8532C26.3074 32.8532 26.3074 32.8532 26.3074 32.8532C26.3074 32.8532 26.3074 32.8532 26.3074 32.8532C26.3074 32.8532 26.3075 32.8532 26.3075 32.8532C26.3075 32.8532 26.3075 32.8532 26.3075 32.8532C26.3075 32.8532 26.3075 32.8532 26.3075 32.8532C26.3075 32.8532 26.3075 32.8532 26.3075 32.8532C26.3075 32.8532 26.3076 32.8532 26.3076 32.8532C26.3076 32.8532 26.3076 32.8532 26.3076 32.8532C26.3076 32.8532 26.3076 32.8532 26.3076 32.8532C26.3076 32.8532 26.3076 32.8532 26.3076 32.8532C26.3076 32.8532 26.3077 32.8532 26.3077 32.8532C26.3077 32.8532 26.3077 32.8532 26.3077 32.8532C26.3077 32.8532 26.3077 32.8532 26.3077 32.8532C26.3077 32.8532 26.3077 32.8532 26.3077 32.8532C26.3077 32.8532 26.3077 32.8532 26.3078 32.8532C26.3078 32.8532 26.3078 32.8532 26.3078 32.8532C26.3078 32.8532 26.3078 32.8532 26.3078 32.8532C26.3078 32.8532 26.3078 32.8532 26.3078 32.8532C26.3078 32.8532 26.3078 32.8532 26.3079 32.8532C26.3079 32.8532 26.3079 32.8532 26.3079 32.8532C26.3079 32.8532 26.3079 32.8532 26.3079 32.8532C26.3079 32.8532 26.3079 32.8532 26.3079 32.8532C26.3079 32.8532 26.3079 32.8532 26.308 32.8532C26.308 32.8532 26.308 32.8532 26.308 32.8532C26.308 32.8532 26.308 32.8532 26.308 32.8532C26.308 32.8532 26.308 32.8532 26.308 32.8532C26.308 32.8532 26.308 32.8532 26.3081 32.8532C26.3081 32.8532 26.3081 32.8532 26.3081 32.8532C26.3081 32.8532 26.3081 32.8532 26.3081 32.8532C26.3081 32.8532 26.3081 32.8532 26.3081 32.8532C26.3081 32.8532 26.3081 32.8532 26.3082 32.8532C26.3082 32.8532 26.3082 32.8532 26.3082 32.8532C26.3082 32.8532 26.3082 32.8532 26.3082 32.8532C26.3082 32.8532 26.3082 32.8532 26.3082 32.8532C26.3082 32.8532 26.3082 32.8532 26.3083 32.8532C26.3083 32.8532 26.3083 32.8532 26.3083 32.8532C26.3083 32.8532 26.3083 32.8532 26.3083 32.8532C26.3083 32.8532 26.3083 32.8532 26.3083 32.8532C26.3083 32.8532 26.3083 32.8532 26.3084 32.8532C26.3084 32.8532 26.3084 32.8532 26.3084 32.8532C26.3084 32.8532 26.3084 32.8532 26.3084 32.8532C26.3084 32.8532 26.3084 32.8532 26.3084 32.8532C26.3084 32.8532 26.3084 32.8532 26.3085 32.8532C26.3085 32.8532 26.3085 32.8532 26.3085 32.8532C26.3085 32.8532 26.3085 32.8532 26.3085 32.8532C26.3085 32.8532 26.3085 32.8532 26.3085 32.8532C26.3085 32.8532 26.3085 32.8532 26.3085 32.8532C26.3086 32.8532 26.3086 32.8532 26.3086 32.8532C26.3086 32.8532 26.3086 32.8532 26.3086 32.8532C26.3086 32.8532 26.3086 32.8532 26.3086 32.8532C26.3086 32.8532 26.3086 32.8532 26.3086 32.8532C26.3087 32.8532 26.3087 32.8532 26.3087 32.8532C26.3087 32.8532 26.3087 32.8532 26.3087 32.8532C26.3087 32.8532 26.3087 32.8532 26.3087 32.8532C26.3087 32.8532 26.3087 32.8532 26.3087 32.8532C26.3088 32.8532 26.3088 32.8532 26.3088 32.8532C26.3088 32.8532 26.3088 32.8532 26.3088 32.8532C26.3088 32.8532 26.3088 32.8532 26.3088 32.8532C26.3088 32.8532 26.3088 32.8532 26.3088 32.8532C26.3089 32.8532 26.3089 32.8532 26.3089 32.8532C26.3089 32.8532 26.3089 32.8532 26.3089 32.8532C26.3089 32.8532 26.3089 32.8532 26.3089 32.8532C26.3089 32.8532 26.3089 32.8532 26.3089 32.8532C26.309 32.8532 26.309 32.8532 26.309 32.8532C26.309 32.8532 26.309 32.8532 26.309 32.8532C26.309 32.8532 26.309 32.8532 26.309 32.8532C26.309 32.8532 26.309 32.8532 26.309 32.8532C26.3091 32.8532 26.3091 32.8532 26.3091 32.8532C26.3091 32.8532 26.3091 32.8532 26.3091 32.8532C26.3091 32.8532 26.3091 32.8532 26.3091 32.8532C26.3091 32.8532 26.3091 32.8532 26.3091 32.8532C26.3092 32.8532 26.3092 32.8532 26.3092 32.8532C26.3092 32.8532 26.3092 32.8532 26.3092 32.8532C26.3092 32.8532 26.3092 32.8532 26.3092 32.8532C26.3092 32.8532 26.3092 32.8532 26.3092 32.8532C26.3092 32.8532 26.3093 32.8532 26.3093 32.8532C26.3093 32.8532 26.3093 32.8532 26.3093 32.8532C26.3093 32.8532 26.3093 32.8532 26.3093 32.8532C26.3093 32.8532 26.3093 32.8532 26.3093 32.8532C26.3093 32.8532 26.3094 32.8532 26.3094 32.8532C26.3094 32.8532 26.3094 32.8532 26.3094 32.8532C26.3094 32.8532 26.3094 32.8532 26.3094 32.8532C26.3094 32.8532 26.3094 32.8532 26.3094 32.8532C26.3094 32.8532 26.3095 32.8532 26.3095 32.8532C26.3095 32.8532 26.3095 32.8532 26.3095 32.8532C26.3095 32.8532 26.3095 32.8532 26.3095 32.8532C26.3095 32.8532 26.3095 32.8532 26.3095 32.8532C26.3095 32.8532 26.3096 32.8532 26.3096 32.8532C26.3096 32.8532 26.3096 32.8532 26.3096 32.8532C26.3096 32.8532 26.3096 32.8532 26.3096 32.8532C26.3096 32.8532 26.3096 32.8532 26.3096 32.8532C26.3096 32.8532 26.3097 32.8532 26.3097 32.8532C26.3097 32.8532 26.3097 32.8532 26.3097 32.8532C26.3097 32.8532 26.3097 32.8532 26.3097 32.8532C26.3097 32.8532 26.3097 32.8532 26.3097 32.8532C26.3097 32.8532 26.3097 32.8532 26.3098 32.8532C26.3098 32.8532 26.3098 32.8532 26.3098 32.8532C26.3098 32.8532 26.3098 32.8532 26.3098 32.8532C26.3098 32.8532 26.3098 32.8532 26.3098 32.8532C26.3098 32.8532 26.3098 32.8532 26.3099 32.8532C26.3099 32.8532 26.3099 32.8532 26.3099 32.8532C26.3099 32.8532 26.3099 32.8532 26.3099 32.8532C26.3099 32.8532 26.3099 32.8532 26.3099 32.8532C26.3099 32.8532 26.3099 32.8532 26.31 32.8532C26.31 32.8532 26.31 32.8532 26.31 32.8532C26.31 32.8532 26.31 32.8532 26.31 32.8532C26.31 32.8532 26.31 32.8532 26.31 32.8532C26.31 32.8532 26.31 32.8532 26.3101 32.8532C26.3101 32.8532 26.3101 32.8532 26.3101 32.8532C26.3101 32.8532 26.3101 32.8532 26.3101 32.8532C26.3101 32.8532 26.3101 32.8532 26.3101 32.8532C26.3101 32.8532 26.3101 32.8532 26.3101 32.8532C26.3102 32.8532 26.3102 32.8532 26.3102 32.8532C26.3102 32.8532 26.3102 32.8532 26.3102 32.8532C26.3102 32.8532 26.3102 32.8532 26.3102 32.8532C26.3102 32.8532 26.3102 32.8532 26.3102 32.8532C26.3103 32.8532 26.3103 32.8532 26.3103 32.8532C26.3103 32.8532 26.3103 32.8532 26.3103 32.8532C26.3103 32.8532 26.3103 32.8532 26.3103 32.8532C26.3103 32.8532 26.3103 32.8532 26.3103 32.8532C26.3104 32.8532 26.3104 32.8532 26.3104 32.8532C26.3104 32.8532 26.3104 32.8532 26.3104 32.8532C26.3104 32.8532 26.3104 32.8532 26.3104 32.8532C26.3104 32.8532 26.3104 32.8532 26.3104 32.8532C26.3104 32.8532 26.3105 32.8532 26.3105 32.8532C26.3105 32.8532 26.3105 32.8532 26.3105 32.8532C26.3105 32.8532 26.3105 32.8532 26.3105 32.8532C26.3105 32.8532 26.3105 32.8532 26.3105 32.8532C26.3105 32.8532 26.3106 32.8532 26.3106 32.8532C26.3106 32.8532 26.3106 32.8532 26.3106 32.8532C26.3106 32.8532 26.3106 32.8532 26.3106 32.8532C26.3106 32.8532 26.3106 32.8532 26.3106 32.8532C26.3106 32.8532 26.3107 32.8532 26.3107 32.8532C26.3107 32.8532 26.3107 32.8532 26.3107 32.8532C26.3107 32.8532 26.3107 32.8532 26.3107 32.8532C26.3107 32.8532 26.3107 32.8532 26.3107 32.8532C26.3107 32.8532 26.3107 32.8532 26.3108 32.8532C26.3108 32.8532 26.3108 32.8532 26.3108 32.8532C26.3108 32.8532 26.3108 32.8532 26.3108 32.8532C26.3108 32.8532 26.3108 32.8532 26.3108 32.8532C26.3108 32.8532 26.3108 32.8532 26.3109 32.8532C26.3109 32.8532 26.3109 32.8532 26.3109 32.8532C26.3109 32.8532 26.3109 32.8532 26.3109 32.8532C26.3109 32.8532 26.3109 32.8532 26.3109 32.8532C26.3109 32.8532 26.3109 32.8532 26.311 32.8532C26.311 32.8532 26.311 32.8532 26.311 32.8532C26.311 32.8532 26.311 32.8532 26.311 32.8532C26.311 32.8532 26.311 32.8532 26.311 32.8532C26.311 32.8532 26.311 32.8532 26.311 32.8532C26.3111 32.8532 26.3111 32.8532 26.3111 32.8532C26.3111 32.8532 26.3111 32.8532 26.3111 32.8532C26.3111 32.8532 26.3111 32.8532 26.3111 32.8532C26.3111 32.8532 26.3111 32.8532 26.3111 32.8532C26.3112 32.8532 26.3112 32.8532 26.3112 32.8532V32.6532ZM26.2989 32.6532H18.6428V32.8532H26.2989V32.6532ZM18.6428 32.6532C17.5489 32.6532 16.7513 32.1116 16.222 31.3101C15.6905 30.5052 15.4311 29.439 15.4267 28.4068L15.2267 28.4077C15.2313 29.4687 15.4972 30.5754 16.0551 31.4203C16.6151 32.2684 17.4711 32.8532 18.6428 32.8532V32.6532ZM15.4267 28.4068C15.4178 26.3461 16.1638 24.0611 17.1967 22.0822C18.23 20.1023 19.5425 18.4439 20.6528 17.6304L20.5346 17.4691C19.3903 18.3075 18.0603 19.9952 17.0194 21.9897C15.9779 23.9852 15.2177 26.303 15.2267 28.4077L15.4267 28.4068ZM20.6611 17.4759C20.0738 16.9395 19.4289 16.1288 18.9333 15.3145C18.6857 14.9078 18.4767 14.5022 18.3311 14.1317C18.1848 13.7594 18.1054 13.43 18.1097 13.173L17.9097 13.1696C17.9047 13.4647 17.9947 13.8226 18.1449 14.2048C18.2959 14.5887 18.5106 15.0047 18.7625 15.4185C19.2657 16.2454 19.9221 17.0718 20.5263 17.6236L20.6611 17.4759ZM18.1096 13.1756C18.1185 12.9706 18.1385 12.7709 18.1938 12.6041C18.2486 12.4389 18.3347 12.3157 18.4707 12.2477L18.3812 12.0689C18.182 12.1685 18.069 12.3451 18.004 12.5411C17.9395 12.7355 17.9189 12.9584 17.9098 13.167L18.1096 13.1756ZM18.4706 12.2478C18.6134 12.1764 18.7502 12.1932 18.8932 12.2619C19.041 12.3329 19.1839 12.454 19.3296 12.5782L19.4593 12.4259C19.3185 12.306 19.1554 12.166 18.9798 12.0816C18.7993 11.9949 18.5951 11.9619 18.3812 12.0689L18.4706 12.2478ZM19.3296 12.5782C19.4228 12.6576 19.5448 12.7618 19.6627 12.8416C19.7217 12.8815 19.7831 12.9177 19.8423 12.9418C19.8989 12.9649 19.9675 12.9826 20.0341 12.9672L19.9891 12.7724C19.9826 12.7739 19.961 12.7742 19.9176 12.7566C19.8768 12.7399 19.8283 12.7122 19.7748 12.676C19.6678 12.6036 19.5544 12.507 19.4593 12.4259L19.3296 12.5782ZM20.0353 12.967C20.1126 12.9481 20.179 12.8828 20.2315 12.8147C20.288 12.7417 20.344 12.6448 20.3959 12.5318L20.2143 12.4482C20.1664 12.5523 20.1176 12.635 20.0732 12.6925C20.0511 12.7212 20.0314 12.7418 20.015 12.7554C20.007 12.7621 20.0004 12.7665 19.9955 12.7692C19.9931 12.7706 19.9912 12.7714 19.9899 12.772C19.9886 12.7725 19.988 12.7727 19.988 12.7727L20.0353 12.967ZM20.3961 12.5316C20.4042 12.5137 20.4142 12.4965 20.4262 12.4791L20.2614 12.3658C20.2441 12.391 20.2279 12.4183 20.2142 12.4485L20.3961 12.5316ZM20.4262 12.4792C20.6801 12.1104 20.9003 11.8579 21.1022 11.7023C21.3021 11.5482 21.4788 11.4926 21.6511 11.5073L21.6681 11.308C21.4334 11.288 21.2083 11.3679 20.9801 11.5439C20.754 11.7182 20.5199 11.9905 20.2615 12.3657L20.4262 12.4792ZM21.6517 11.5074C21.8617 11.5242 22.0266 11.6405 22.1737 11.8235C22.3225 12.0088 22.4437 12.2508 22.5689 12.5014L22.7478 12.412C22.6251 12.1664 22.4945 11.9036 22.3296 11.6983C22.163 11.4908 21.9524 11.3308 21.6676 11.308L21.6517 11.5074ZM22.5689 12.5013C22.7279 12.8201 22.8999 13.1665 23.1358 13.4235L23.2831 13.2882C23.0699 13.056 22.91 12.7372 22.7478 12.4121L22.5689 12.5013ZM23.1364 13.4241C23.1615 13.451 23.1832 13.4718 23.2013 13.487L23.3301 13.3341C23.3197 13.3253 23.3039 13.3105 23.2825 13.2876L23.1364 13.4241ZM23.3332 13.4844C23.4071 13.4168 23.5187 13.2678 23.5891 13.174L23.4291 13.0539C23.3527 13.1558 23.2547 13.2851 23.1982 13.3367L23.3332 13.4844ZM23.589 13.1741C23.7903 12.9066 24.0647 12.544 24.475 12.3272C24.878 12.1143 25.4248 12.0363 26.1851 12.3678L26.2651 12.1845C25.4548 11.8312 24.8438 11.9062 24.3815 12.1504C23.9265 12.3908 23.6281 12.7895 23.4292 13.0538L23.589 13.1741ZM26.1854 12.3679C26.3 12.4176 26.3815 12.543 26.3815 12.6893H26.5815C26.5815 12.4718 26.4601 12.269 26.2649 12.1844L26.1854 12.3679ZM26.3815 12.6893C26.3815 13.6739 25.8377 15.0763 25.1564 16.2196L25.3282 16.322C26.0158 15.1681 26.5815 13.728 26.5815 12.6893H26.3815ZM25.2749 16.3653C25.9931 16.1179 26.7572 15.9532 27.2512 15.9532V15.7532C26.7252 15.7532 25.937 15.9257 25.2098 16.1763L25.2749 16.3653ZM27.2512 15.9532C27.896 15.9532 28.2337 16.1627 28.414 16.3982C28.5982 16.6387 28.6329 16.9256 28.6329 17.1037H28.8329C28.8329 16.9056 28.7953 16.5672 28.5728 16.2766C28.3465 15.9809 27.9433 15.7532 27.2512 15.7532V15.9532ZM28.6329 17.1037C28.6329 17.3776 28.5699 17.7336 28.307 18.021C28.0456 18.3066 27.5698 18.5423 26.7058 18.5423V18.7423C27.6055 18.7423 28.1433 18.496 28.4545 18.156C28.7642 17.8176 28.8329 17.4043 28.8329 17.1037H28.6329ZM26.7058 18.5423C26.2928 18.5423 25.8444 18.4873 25.4181 18.4075L25.3813 18.6041C25.8151 18.6853 26.2765 18.7423 26.7058 18.7423V18.5423ZM25.3265 18.574C26.337 19.6569 27.3917 21.2352 28.1973 22.9846C29.0031 24.7345 29.5563 26.6481 29.5713 28.4019L29.7712 28.4002C29.756 26.6089 29.1921 24.6666 28.379 22.901C27.5657 21.1349 26.4997 19.5381 25.4728 18.4376L25.3265 18.574ZM29.7607 28.4458L29.7607 28.4457L29.5818 28.3563L29.5818 28.3563L29.7607 28.4458ZM27.2512 16.6426C26.4288 16.6426 25.3367 17.0288 24.6679 17.346L24.7536 17.5267C25.4146 17.2132 26.474 16.8426 27.2512 16.8426V16.6426ZM24.6839 17.5326C25.237 17.687 26.0179 17.8529 26.7062 17.8529V17.6529C26.0444 17.6529 25.2837 17.4924 24.7377 17.34L24.6839 17.5326ZM26.7062 17.8529C27.3213 17.8529 27.6558 17.7297 27.835 17.5614C28.0189 17.3888 28.0181 17.1883 28.0181 17.1037H27.8181C27.8181 17.1796 27.8172 17.3038 27.6981 17.4156C27.5744 17.5318 27.3029 17.6529 26.7062 17.6529V17.8529ZM28.0181 17.1033C28.0179 17.0438 28.0197 16.9122 27.9016 16.8051C27.7898 16.7037 27.5912 16.6426 27.2512 16.6426V16.8426C27.5777 16.8426 27.7123 16.9034 27.7672 16.9532C27.8158 16.9972 27.8179 17.0462 27.8181 17.1041L28.0181 17.1033ZM27.3512 16.7426V16.7426H27.1512V16.7426H27.3512ZM21.4383 17.2557C21.434 17.2528 21.4311 17.25 21.4298 17.2487C21.4287 17.2475 21.4283 17.247 21.4298 17.2488C21.4305 17.2497 21.4341 17.2541 21.4374 17.2579C21.4412 17.2622 21.4468 17.2682 21.454 17.2743L21.5832 17.1216C21.5846 17.1228 21.5857 17.1239 21.5864 17.1246C21.5871 17.1253 21.5875 17.1257 21.5875 17.1258C21.5875 17.1258 21.5873 17.1255 21.5867 17.1248C21.5853 17.123 21.5861 17.124 21.5841 17.1215C21.5802 17.1168 21.5686 17.1025 21.5508 17.0904L21.4383 17.2557ZM21.4709 17.2858C21.4816 17.2916 21.4914 17.2949 21.4985 17.2969C21.502 17.2978 21.5051 17.2985 21.5073 17.299C21.5092 17.2994 21.5113 17.2998 21.5118 17.2999C21.5141 17.3003 21.5115 17.2999 21.508 17.2988C21.5039 17.2976 21.4974 17.2951 21.4901 17.2905L21.5969 17.1214C21.5857 17.1144 21.5752 17.1102 21.5669 17.1077C21.5593 17.1054 21.5526 17.1041 21.5506 17.1037C21.5471 17.103 21.5491 17.1033 21.5512 17.1039C21.5541 17.1047 21.5597 17.1065 21.5663 17.1101L21.4709 17.2858ZM21.4915 17.2914C21.7871 17.4715 22.0868 17.5602 22.4149 17.5555C22.741 17.5508 23.0885 17.4541 23.481 17.2747L23.3978 17.0928C23.0199 17.2656 22.7007 17.3514 22.4121 17.3555C22.1255 17.3596 21.8624 17.2832 21.5955 17.1206L21.4915 17.2914ZM23.4835 17.2735C23.4783 17.2761 23.474 17.2772 23.4719 17.2777C23.4702 17.2781 23.4695 17.2781 23.4722 17.2778C23.4728 17.2777 23.4734 17.2776 23.4743 17.2775C23.4751 17.2774 23.4762 17.2773 23.4772 17.2772C23.4794 17.2769 23.4823 17.2765 23.4855 17.276C23.4919 17.275 23.5007 17.2733 23.5107 17.2701L23.4496 17.0796C23.4526 17.0786 23.4545 17.0784 23.454 17.0785C23.4524 17.0787 23.4522 17.0787 23.4465 17.0794C23.4389 17.0804 23.4177 17.083 23.3953 17.094L23.4835 17.2735ZM23.5444 17.2514C23.9788 16.8869 24.4853 16.1657 24.9026 15.3743C25.3206 14.5818 25.6584 13.7016 25.7451 13.0117L25.5467 12.9867C25.4643 13.6424 25.1387 14.4981 24.7257 15.281C24.3122 16.065 23.8204 16.7588 23.4159 17.0982L23.5444 17.2514ZM25.6747 12.9035C25.2454 12.7742 24.9276 12.826 24.6694 12.9841C24.4197 13.137 24.2351 13.3848 24.0602 13.6177L24.2201 13.7379C24.4005 13.4976 24.5627 13.2839 24.7739 13.1546C24.9766 13.0305 25.234 12.9796 25.6171 13.095L25.6747 12.9035ZM24.0602 13.6177C23.9443 13.7718 23.8338 13.918 23.7085 14.0293C23.5852 14.1389 23.4541 14.2086 23.2987 14.217L23.3095 14.4167C23.5242 14.4051 23.6965 14.3075 23.8414 14.1788C23.9844 14.0518 24.1068 13.8885 24.22 13.7379L24.0602 13.6177ZM23.296 14.2172C23.1029 14.2328 22.9107 14.1386 22.7071 13.9174L22.5599 14.0528C22.7843 14.2967 23.0324 14.4391 23.3122 14.4165L23.296 14.2172ZM22.7072 13.9175C22.4101 13.5933 22.2123 13.1987 22.0321 12.8372L21.8531 12.9264C22.0316 13.2844 22.2407 13.7045 22.5598 14.0527L22.7072 13.9175ZM22.032 12.8371C21.9783 12.7296 21.9093 12.5913 21.8427 12.4738C21.8095 12.4151 21.7756 12.3596 21.7436 12.3147C21.7275 12.2923 21.7109 12.2711 21.6941 12.253C21.6781 12.2358 21.6577 12.2166 21.6333 12.2032L21.5368 12.3784C21.5341 12.3769 21.5376 12.3784 21.5476 12.3891C21.5566 12.3988 21.5678 12.4127 21.5808 12.431C21.607 12.4676 21.6369 12.5163 21.6687 12.5724C21.7322 12.6845 21.7988 12.8179 21.8531 12.9265L22.032 12.8371ZM21.5072 12.3536C21.4949 12.3382 21.486 12.3177 21.4853 12.2941C21.4846 12.2723 21.4912 12.2554 21.4964 12.2455C21.5054 12.2281 21.5174 12.2183 21.5189 12.217C21.5241 12.2124 21.5286 12.2098 21.525 12.2121C21.5219 12.2141 21.5116 12.2205 21.4994 12.2288C21.4738 12.2462 21.4366 12.2741 21.3869 12.3201C21.288 12.4118 21.14 12.575 20.9348 12.8696L21.0989 12.9839C21.2985 12.6973 21.4374 12.5461 21.5229 12.4668C21.5654 12.4275 21.5947 12.4058 21.6119 12.3941C21.621 12.3879 21.6262 12.3848 21.6328 12.3806C21.6341 12.3798 21.642 12.3749 21.6493 12.3685C21.6519 12.3664 21.6645 12.3558 21.6738 12.3378C21.6792 12.3275 21.6858 12.3103 21.6852 12.2883C21.6845 12.2644 21.6755 12.2436 21.663 12.2281L21.5072 12.3536ZM20.9266 12.8837C20.7149 13.3274 20.4561 13.5699 20.1676 13.6407L20.2153 13.835C20.5862 13.7439 20.8826 13.4403 21.1071 12.9698L20.9266 12.8837ZM20.1676 13.6407C19.9386 13.6968 19.7217 13.6425 19.5166 13.5348C19.3096 13.4262 19.1235 13.2682 18.9579 13.1272L18.8283 13.2795C18.9912 13.4182 19.1938 13.5912 19.4236 13.7119C19.6553 13.8334 19.9233 13.9065 20.2152 13.835L20.1676 13.6407ZM18.9586 13.1278C18.9386 13.1104 18.9142 13.09 18.8929 13.0718L18.7629 13.2237C18.7872 13.2446 18.8076 13.2616 18.8276 13.2789L18.9586 13.1278ZM18.7281 13.1403C18.7268 13.159 18.7259 13.1784 18.7251 13.1966L18.9249 13.2056C18.9258 13.1864 18.9265 13.1703 18.9276 13.1552L18.7281 13.1403ZM18.725 13.1994C18.7212 13.4193 18.8224 13.7335 18.9813 14.0815C19.1422 14.4341 19.3696 14.8362 19.6332 15.2373C20.1587 16.0368 20.8381 16.8473 21.4383 17.2557L21.5508 17.0904C20.9832 16.7042 20.3211 15.9198 19.8004 15.1275C19.5409 14.7328 19.319 14.3397 19.1632 13.9984C19.0053 13.6525 18.922 13.374 18.925 13.2028L18.725 13.1994ZM21.5946 17.1731V17.1731H21.3946V17.1731H21.5946ZM28.956 28.4082C28.9422 26.745 28.3998 24.9443 27.6379 23.3103C26.8757 21.6758 25.8902 20.2005 24.9822 19.187L24.8332 19.3205C25.7269 20.3179 26.7019 21.7764 27.4566 23.3949C28.2116 25.0139 28.7425 26.7854 28.756 28.4098L28.956 28.4082ZM24.8191 19.3001C25.0738 19.7874 25.4066 20.3107 25.8372 20.7795L25.9845 20.6442C25.5689 20.1917 25.2454 19.6841 24.9963 19.2075L24.8191 19.3001ZM25.8372 20.7795C25.9619 20.9152 25.9619 21.1376 25.8379 21.2732L25.9855 21.4082C26.1794 21.196 26.1795 20.8563 25.9845 20.6442L25.8372 20.7795ZM25.8378 21.2733C25.7772 21.3398 25.6992 21.3714 25.6231 21.3714V21.5714C25.7558 21.5714 25.8873 21.5159 25.9856 21.4081L25.8378 21.2733ZM25.6231 21.3714C25.547 21.3714 25.4693 21.3398 25.409 21.274L25.2616 21.4091C25.3594 21.5159 25.4904 21.5714 25.6231 21.5714V21.3714ZM25.409 21.2739C24.7286 20.533 24.2669 19.6785 23.9707 18.9867L23.7869 19.0654C24.0884 19.7699 24.561 20.6462 25.2617 21.4092L25.409 21.2739ZM23.7846 18.9925C23.6305 19.4251 23.4146 19.8974 23.1169 20.3111L23.2792 20.4279C23.5914 19.994 23.815 19.5031 23.973 19.0596L23.7846 18.9925ZM23.1168 20.3112C23.0103 20.4597 22.8217 20.4816 22.691 20.3689L22.5605 20.5204C22.7837 20.7128 23.107 20.6679 23.2793 20.4278L23.1168 20.3112ZM22.6908 20.3687C22.5546 20.2519 22.5285 20.0309 22.638 19.8793L22.4758 19.7622C22.3073 19.9957 22.3431 20.3341 22.5607 20.5206L22.6908 20.3687ZM22.6381 19.8792C23.0194 19.3493 23.2462 18.6944 23.3738 18.2168L23.1806 18.1652C23.0554 18.6338 22.8362 19.2614 22.4757 19.7623L22.6381 19.8792ZM23.2464 18.0958C22.5489 18.3218 21.9557 18.2875 21.3871 18.0016L21.2972 18.1802C21.9188 18.4928 22.5673 18.5261 23.308 18.2861L23.2464 18.0958ZM21.2912 18.0049C20.81 18.29 20.2419 18.8245 19.6625 19.5237C19.0818 20.2245 18.485 21.0965 17.9478 22.0628C16.8747 23.9933 16.0329 26.3121 16.042 28.4032L16.242 28.4023C16.2331 26.3592 17.0579 24.0753 18.1226 22.16C18.6544 21.2034 19.2443 20.3418 19.8165 19.6513C20.3899 18.9593 20.9408 18.445 21.3931 18.1769L21.2912 18.0049ZM16.042 28.4032C16.0457 29.2502 16.2468 30.135 16.6699 30.8115C17.0949 31.4911 17.7473 31.9638 18.6428 31.9638V31.7638C17.8303 31.7638 17.236 31.3396 16.8394 30.7055C16.4409 30.0682 16.2456 29.2224 16.242 28.4023L16.042 28.4032ZM18.6428 31.9638H26.2924V31.7638H18.6428V31.9638ZM26.296 31.9638C27.08 31.9356 27.7498 31.4434 28.2178 30.7693C28.6863 30.0944 28.9629 29.224 28.956 28.4082L28.756 28.4099C28.7626 29.1829 28.4993 30.0132 28.0536 30.6552C27.6074 31.2979 26.9887 31.7387 26.2889 31.7639L26.296 31.9638ZM28.9267 28.3383L28.9267 28.3383L28.7853 28.4797L28.7853 28.4797L28.9267 28.3383Z" fill="#1B438B"/>
</g>
<g id="Group 1179">
<mask id="mask1_0_2452" style="mask-type:luminance" maskUnits="userSpaceOnUse" x="18" y="22" width="8" height="9">
<path id="Rectangle 1078" fill-rule="evenodd" clip-rule="evenodd" d="M18.8326 22.5H25.8326V30.5H18.8326V22.5Z" fill="white"/>
</mask>
<g mask="url(#mask1_0_2452)">
<path id="Path 1623" fill-rule="evenodd" clip-rule="evenodd" d="M24.5169 25.1983H23.692C23.6449 24.7022 23.3997 24.2417 23.0409 23.9582H24.5169C24.6062 23.9582 24.6792 23.8786 24.6792 23.7811C24.6792 23.6837 24.6062 23.604 24.5169 23.604H21.081C20.9917 23.604 20.9186 23.6837 20.9186 23.7811C20.9186 23.8786 20.9917 23.9582 21.081 23.9582H22.065C22.734 23.9582 23.2861 24.5074 23.3657 25.1983H21.081C20.9917 25.1983 20.9186 25.2779 20.9186 25.3754C20.9186 25.4728 20.9917 25.5526 21.081 25.5526H23.3657C23.2845 26.2699 22.7259 26.8085 22.065 26.8102H21.0826C20.9917 26.812 20.9186 26.8935 20.9202 26.9927C20.9202 27.0405 20.9397 27.0866 20.9706 27.1202L23.4273 29.6551C23.4923 29.7224 23.5946 29.7189 23.6563 29.6481C23.718 29.5754 23.7148 29.4638 23.6498 29.3947L21.4886 27.1645H22.0634C22.911 27.1645 23.6109 26.456 23.692 25.5526H24.5169C24.6062 25.5526 24.6793 25.4728 24.6793 25.3754C24.6793 25.2779 24.6062 25.1983 24.5169 25.1983L24.5169 25.1983Z" fill="#CF1E2E" stroke="#1B438B" stroke-width="0.4"/>
</g>
</g>
</g>
</g>
</g>
</svg>
