<svg xmlns="http://www.w3.org/2000/svg" xmlns:xlink="http://www.w3.org/1999/xlink" width="30" height="30" viewBox="0 0 30 30"><defs><clipPath id="b"><rect width="30" height="30"/></clipPath></defs><g id="a" clip-path="url(#b)"><g transform="translate(-4.879 0.233)"><path d="M39.225,12.289v8.217a1.5,1.5,0,0,1-.7,1.177,3.085,3.085,0,0,1-1.728.5H25.156a3.014,3.014,0,0,1-1.728-.5h0a1.461,1.461,0,0,1-.728-1.177V17.822h.91v2.684a.9.9,0,0,0,.455.723h0a1.983,1.983,0,0,0,1.092.31H36.769a1.983,1.983,0,0,0,1.092-.31.932.932,0,0,0,.455-.723V12.289Zm-16.5,4.728v-7.7a3.256,3.256,0,0,1,1.607-2.622A7.08,7.08,0,0,1,28.188,5.6H33.8a6.91,6.91,0,0,1,3.851,1.094,3.228,3.228,0,0,1,1.607,2.622v2.209h-.91V9.316a2.7,2.7,0,0,0-1.334-2.168A5.809,5.809,0,0,0,33.8,6.24h-5.61a5.809,5.809,0,0,0-3.214.908A2.7,2.7,0,0,0,23.64,9.316v7.7Z" transform="translate(-11.11 0)" fill="#94afd8"/><path d="M32.995,83.626v.681a.858.858,0,0,1-.268.619.9.9,0,0,1-.619.268h-.619a.824.824,0,0,1-.619-.268h0a.858.858,0,0,1-.268-.619V82.8h2.085v.619H31.219v.888a.224.224,0,0,0,.083.186h0a.262.262,0,0,0,.186.083h.619a.224.224,0,0,0,.186-.083.308.308,0,0,0,.083-.186v-.681Z" transform="translate(-15.751 -61.262)" fill="#94afd8"/><path d="M59.41,82.8h2.085v1.507a.918.918,0,0,1-.888.888h-.619a.918.918,0,0,1-.888-.888v-.661h.619v.661a.224.224,0,0,0,.083.186.307.307,0,0,0,.186.083h.619a.224.224,0,0,0,.186-.083.308.308,0,0,0,.083-.186v-.888H59.41Z" transform="translate(-36.25 -61.262)" fill="#94afd8"/><path d="M24.261,17.019c-.246,0-.461-.145-.461-.31s.215-.31.461-.31h2.428c.246,0,.461.145.461.31,0,.186-.215.31-.461.31Zm3.718,0c-.246,0-.461-.145-.461-.31s.215-.31.461-.31h0c.246,0,.461.145.461.31.031.186-.184.31-.461.31Zm1.291,0c-.246,0-.461-.145-.461-.31s.215-.31.461-.31H39.441c.246,0,.461.145.461.31,0,.186-.215.31-.461.31Z" transform="translate(-11.983 -8.57)" fill="#94afd8"/><path d="M31.948,22.84c-.3,0-.5-.145-.5-.31s.232-.31.5-.31H42.319c.265,0,.5.145.5.31v4.563c0,.165-.232.31-.5.31H29.3c-.265,0-.5-.145-.5-.31V22.51c0-.165.232-.31.5-.31h1.16c.265,0,.5.145.5.31,0,.186-.232.31-.5.31h-.663v3.943H41.822V22.84Z" transform="translate(-15.95 -13.173)" fill="#94afd8"/><rect width="0.619" height="4.563" transform="translate(19.555 9.337)" fill="#94afd8"/><path d="M23.255,77.219c-.243,0-.455-.145-.455-.31s.212-.31.455-.31h6.8c.243,0,.455.145.455.31,0,.186-.212.31-.455.31Zm9.011,0c-.273,0-.455-.145-.455-.31s.212-.31.455-.31H38.88c.243,0,.455.145.455.31,0,.186-.212.31-.455.31Z" transform="translate(-11.189 -56.342)" fill="#94afd8"/><path d="M23.11,62.9h2.271a1.219,1.219,0,0,1,.846.351h0a1.219,1.219,0,0,1,.351.846v1.2H22.8V62.9Zm2.271.64H23.419v1.136h2.539V64.1a.5.5,0,0,0-.165-.392h0a.576.576,0,0,0-.413-.165Z" transform="translate(-10.032 -45.47)" fill="#94afd8"/><path d="M62.059,63.54H60.1a.576.576,0,0,0-.413.165h0a.564.564,0,0,0-.165.392v.578h2.539ZM60.1,62.9h2.581v2.395H58.9V64.1a1.259,1.259,0,0,1,.351-.846h0A1.219,1.219,0,0,1,60.1,62.9Z" transform="translate(-35.718 -45.47)" fill="#94afd8"/><g transform="translate(0.432)"><path d="M44.276,60.229a.307.307,0,0,1-.434-.434,1.695,1.695,0,0,1,2.395,0,.307.307,0,0,1-.434.434,1.1,1.1,0,0,0-1.528,0Z" transform="translate(-25.162 -41.924)" fill="#94afd8"/><path d="M41.476,56.477a.307.307,0,0,1-.434-.434h0a2.492,2.492,0,0,1,3.551,0h0a.307.307,0,0,1-.434.434h0a1.874,1.874,0,0,0-1.342-.557,2,2,0,0,0-1.342.557Z" transform="translate(-22.94 -39.14)" fill="#94afd8"/><path d="M38.776,52.8a.307.307,0,0,1-.434-.434h0A3.312,3.312,0,0,1,40.7,51.4a3.347,3.347,0,0,1,2.354.97h0a.307.307,0,0,1-.434.434h0a2.707,2.707,0,0,0-1.9-.785,2.648,2.648,0,0,0-1.941.785Z" transform="translate(-20.803 -36.344)" fill="#94afd8"/></g><path d="M75.146,28.8h1.982a.7.7,0,0,1,.7.7v3.3a.918.918,0,0,1-.268.661.936.936,0,0,1-.681.289h-.268a.858.858,0,0,1-.661-.289.955.955,0,0,1-.268-.661V31.112a.854.854,0,0,1,.764-.867V30.2H74.3V29.11h.619v.475h2.147v1.28H76.55a.234.234,0,0,0-.165.062.262.262,0,0,0-.083.186v1.693a.355.355,0,0,0,.33.33H76.9a.355.355,0,0,0,.33-.33V29.5c0-.021-.021-.041-.021-.062a.076.076,0,0,0-.062-.021H75.167V28.8Z" transform="translate(-46.773 -18.41)" fill="#94afd8"/><path d="M11.3,29.419H9.381a.076.076,0,0,0-.062.021c-.021.021-.021.021-.021.062v3.3a.355.355,0,0,0,.33.33H9.9a.355.355,0,0,0,.33-.33V31.112a.252.252,0,0,0-.083-.186.234.234,0,0,0-.165-.062H9.464v-1.28h2.147V29.11h.619V30.2H10.083v.041a.934.934,0,0,1,.516.248.84.84,0,0,1,.248.619v1.693a.918.918,0,0,1-.268.661.891.891,0,0,1-.661.289H9.65a.936.936,0,0,1-.681-.289.955.955,0,0,1-.268-.661V29.5a.7.7,0,0,1,.7-.7h1.92v.619Z" transform="translate(0 -18.41)" fill="#94afd8"/><path d="M33.388,41.58a.314.314,0,0,1-.578-.248l.351-.846.083-.186h2.085a.31.31,0,1,1,0,.619H33.656Z" transform="translate(-17.266 -27.536)" fill="#94afd8"/><path d="M53.088,41.58a.314.314,0,0,1-.578-.248l.351-.846.083-.186h2.085a.3.3,0,0,1,.31.31.318.318,0,0,1-.31.31H53.356Z" transform="translate(-31.388 -27.536)" fill="#94afd8"/><rect width="0.619" height="1.59" transform="translate(17.019 5.93)" fill="#94afd8"/><rect width="0.619" height="1.59" transform="translate(21.901 5.93)" fill="#94afd8"/><rect width="0.619" height="1.776" transform="translate(14.046 17.76)" fill="#94afd8"/><rect width="0.619" height="1.776" transform="translate(25.065 17.76)" fill="#94afd8"/><circle cx="0.5" cy="0.5" r="0.5" transform="translate(19.879 18.767)" fill="#94afd8"/></g></g></svg>