<svg xmlns="http://www.w3.org/2000/svg" xmlns:xlink="http://www.w3.org/1999/xlink" width="30" height="30" viewBox="0 0 30 30"><defs><clipPath id="b"><rect width="30" height="30"/></clipPath></defs><g id="a" clip-path="url(#b)"><g transform="translate(0.002)"><g transform="translate(2.99 1)"><path d="M22.372,22.643h-.687V20.917a.348.348,0,0,0-.348-.345H20.3V19.536a.347.347,0,0,0-.348-.345h-.688V13.667h.343a.347.347,0,0,0,.348-.345V12.286h1.378a.348.348,0,0,0,.348-.345V10.9h.694a.345.345,0,0,0,.137-.662L12.546,4.052a.345.345,0,0,0-.364,0L2.173,10.266a.345.345,0,0,0,.182.639h.687v1.036a.348.348,0,0,0,.348.345H4.768v1.036a.347.347,0,0,0,.348.345h.343v5.524H4.771a.347.347,0,0,0-.348.345v1.036H3.39a.348.348,0,0,0-.348.345v1.726H2.355a.345.345,0,0,0,0,.69H22.372a.345.345,0,1,0,0-.69Zm-2.759-2.762v.69H16.852v-.69Zm-11.392-.69H7.53V13.667h.347a.344.344,0,0,0,.344-.345V12.286h8.286v1.036a.344.344,0,0,0,.344.345H17.2v5.524h-.692a.344.344,0,0,0-.344.345v1.036h-7.6V19.536a.344.344,0,0,0-.342-.345ZM5.806,12.976H5.459v-.69H7.53v.69Zm1.034.69V19.19H6.15V13.667ZM17.888,19.19V13.667h.69v5.524Zm1.381-6.214H17.2v-.69h2.071Zm-6.9-8.225,8.8,5.463H3.565ZM5.116,11.6H3.733v-.69H21v.69Zm0,8.286h2.76v.69H5.114ZM21,22.648H3.733V21.262H21ZM12.364,6.417A1.381,1.381,0,1,0,13.744,7.8a1.381,1.381,0,0,0-1.38-1.383Zm0,2.071a.69.69,0,1,1,.69-.69A.69.69,0,0,1,12.364,8.488Z" fill="#94afd8" stroke="#94afd8" stroke-width="0.15"/></g></g></g></svg>