<svg width="43" height="43" viewBox="0 0 43 43" fill="none" xmlns="http://www.w3.org/2000/svg">
<g id="Group 1198">
<path id="Ellipse 31" fill-rule="evenodd" clip-rule="evenodd" d="M21.5 43C33.3741 43 43 33.3741 43 21.5C43 9.62588 33.3741 0 21.5 0C9.62588 0 0 9.62588 0 21.5C0 33.3741 9.62588 43 21.5 43Z" fill="white"/>
<g id="Group">
<g id="Path 1661">
<path fill-rule="evenodd" clip-rule="evenodd" d="M27.4274 19.4009C27.4274 17.1805 25.8118 15.3306 23.6944 14.9647V12.8494C23.8421 12.7762 23.9437 12.624 23.9437 12.4479C23.9437 12.2005 23.7432 12 23.4959 12H18.9312C18.6838 12 18.4833 12.2005 18.4833 12.4479C18.4833 12.624 18.5849 12.7762 18.7326 12.8494V14.9647C16.6152 15.3306 14.9996 17.1805 14.9996 19.4009V29.4899C14.9996 30.0612 15.2158 30.5831 15.5705 30.9779C15.5026 31.0563 15.4615 31.1587 15.4615 31.2707C15.4615 31.518 15.662 31.7185 15.9094 31.7185H26.5176C26.765 31.7185 26.9655 31.518 26.9655 31.2707C26.9655 31.1587 26.9244 31.0563 26.8565 30.9779C27.2112 30.5831 27.4274 30.0612 27.4274 29.4899V19.4009ZM15.8954 20.0255H26.5316V28.4369H15.8954V20.0255ZM22.7987 12.8957V14.8989H21.6614V14.282C21.8731 14.2464 22.0345 14.0622 22.0345 13.8403C22.0345 13.593 21.834 13.3925 21.5866 13.3925H20.8404C20.5931 13.3925 20.3925 13.593 20.3925 13.8403C20.3925 14.0622 20.5539 14.2464 20.7656 14.282V14.8989H19.6283V12.8957H22.7987ZM19.5016 15.7947H22.9254C24.8226 15.7947 26.3825 17.2675 26.5215 19.1297H15.9055C16.0445 17.2675 17.6044 15.7947 19.5016 15.7947ZM17.2283 30.8228C16.4934 30.8228 15.8954 30.2248 15.8954 29.4899V29.3326H26.5317V29.4899C26.5317 30.2248 25.9337 30.8228 25.1988 30.8228H17.2283Z" fill="#1B438B"/>
<path d="M23.6944 14.9647H23.5944V15.0489L23.6774 15.0632L23.6944 14.9647ZM23.6944 12.8494L23.65 12.7598L23.5944 12.7873V12.8494H23.6944ZM18.7326 12.8494H18.8326V12.7873L18.777 12.7598L18.7326 12.8494ZM18.7326 14.9647L18.7496 15.0632L18.8326 15.0489V14.9647H18.7326ZM15.5705 30.9779L15.6461 31.0433L15.7038 30.9766L15.6448 30.9111L15.5705 30.9779ZM26.8565 30.9779L26.7821 30.911L26.7232 30.9766L26.7809 31.0433L26.8565 30.9779ZM15.8954 20.0255V19.9255H15.7954V20.0255H15.8954ZM26.5316 20.0255H26.6316V19.9255H26.5316V20.0255ZM26.5316 28.4369V28.5369H26.6316V28.4369H26.5316ZM15.8954 28.4369H15.7954V28.5369H15.8954V28.4369ZM22.7987 12.8957H22.8987V12.7957H22.7987V12.8957ZM22.7987 14.8989V14.9989H22.8987V14.8989H22.7987ZM21.6614 14.8989H21.5614V14.9989H21.6614V14.8989ZM21.6614 14.282L21.6448 14.1834L21.5614 14.1974V14.282H21.6614ZM20.7656 14.282H20.8656V14.1974L20.7822 14.1834L20.7656 14.282ZM20.7656 14.8989V14.9989H20.8656V14.8989H20.7656ZM19.6283 14.8989H19.5283V14.9989H19.6283V14.8989ZM19.6283 12.8957V12.7957H19.5283V12.8957H19.6283ZM26.5215 19.1297V19.2297H26.6292L26.6212 19.1223L26.5215 19.1297ZM15.9055 19.1297L15.8058 19.1223L15.7977 19.2297H15.9055V19.1297ZM15.8954 29.3326V29.2326H15.7954V29.3326H15.8954ZM26.5317 29.3326H26.6317V29.2326H26.5317V29.3326ZM27.5274 19.4009C27.5274 17.1309 25.8759 15.2402 23.7115 14.8661L23.6774 15.0632C25.7477 15.421 27.3274 17.23 27.3274 19.4009H27.5274ZM23.7944 14.9647V12.8494H23.5944V14.9647H23.7944ZM23.7388 12.939C23.9192 12.8496 24.0437 12.6635 24.0437 12.4479H23.8437C23.8437 12.5845 23.765 12.7028 23.65 12.7598L23.7388 12.939ZM24.0437 12.4479C24.0437 12.1453 23.7984 11.9 23.4959 11.9V12.1C23.688 12.1 23.8437 12.2557 23.8437 12.4479H24.0437ZM23.4959 11.9H18.9312V12.1H23.4959V11.9ZM18.9312 11.9C18.6286 11.9 18.3833 12.1453 18.3833 12.4479H18.5833C18.5833 12.2557 18.739 12.1 18.9312 12.1V11.9ZM18.3833 12.4479C18.3833 12.6635 18.5078 12.8496 18.6882 12.939L18.777 12.7598C18.6621 12.7028 18.5833 12.5845 18.5833 12.4479H18.3833ZM18.6326 12.8494V14.9647H18.8326V12.8494H18.6326ZM18.7156 14.8661C16.5511 15.2402 14.8996 17.1309 14.8996 19.4009H15.0996C15.0996 17.23 16.6793 15.421 18.7496 15.0632L18.7156 14.8661ZM14.8996 19.4009V29.4899H15.0996V19.4009H14.8996ZM14.8996 29.4899C14.8996 30.0869 15.1256 30.6324 15.4961 31.0447L15.6448 30.9111C15.306 30.5339 15.0996 30.0355 15.0996 29.4899H14.8996ZM15.4948 30.9125C15.4119 31.0084 15.3615 31.1338 15.3615 31.2707H15.5615C15.5615 31.1836 15.5934 31.1042 15.6461 31.0433L15.4948 30.9125ZM15.3615 31.2707C15.3615 31.5732 15.6068 31.8185 15.9094 31.8185V31.6185C15.7173 31.6185 15.5615 31.4627 15.5615 31.2707H15.3615ZM15.9094 31.8185H26.5176V31.6185H15.9094V31.8185ZM26.5176 31.8185C26.8202 31.8185 27.0655 31.5732 27.0655 31.2707H26.8655C26.8655 31.4627 26.7098 31.6185 26.5176 31.6185V31.8185ZM27.0655 31.2707C27.0655 31.1337 27.0151 31.0083 26.9321 30.9125L26.7809 31.0433C26.8336 31.1042 26.8655 31.1836 26.8655 31.2707H27.0655ZM26.9309 31.0447C27.3014 30.6324 27.5274 30.0869 27.5274 29.4899H27.3274C27.3274 30.0355 27.121 30.5339 26.7821 30.911L26.9309 31.0447ZM27.5274 29.4899V19.4009H27.3274V29.4899H27.5274ZM15.8954 20.1255H26.5316V19.9255H15.8954V20.1255ZM26.4316 20.0255V28.4369H26.6316V20.0255H26.4316ZM26.5316 28.3369H15.8954V28.5369H26.5316V28.3369ZM15.9954 28.4369V20.0255H15.7954V28.4369H15.9954ZM22.6987 12.8957V14.8989H22.8987V12.8957H22.6987ZM22.7987 14.7989H21.6614V14.9989H22.7987V14.7989ZM21.7614 14.8989V14.282H21.5614V14.8989H21.7614ZM21.678 14.3806C21.9371 14.337 22.1345 14.1119 22.1345 13.8403H21.9345C21.9345 14.0126 21.8092 14.1557 21.6448 14.1834L21.678 14.3806ZM22.1345 13.8403C22.1345 13.5377 21.8892 13.2925 21.5866 13.2925V13.4925C21.7788 13.4925 21.9345 13.6482 21.9345 13.8403H22.1345ZM21.5866 13.2925H20.8404V13.4925H21.5866V13.2925ZM20.8404 13.2925C20.5378 13.2925 20.2925 13.5377 20.2925 13.8403H20.4925C20.4925 13.6482 20.6483 13.4925 20.8404 13.4925V13.2925ZM20.2925 13.8403C20.2925 14.1119 20.49 14.337 20.7491 14.3806L20.7822 14.1834C20.6178 14.1557 20.4925 14.0126 20.4925 13.8403H20.2925ZM20.6656 14.282V14.8989H20.8656V14.282H20.6656ZM20.7656 14.7989H19.6283V14.9989H20.7656V14.7989ZM19.7283 14.8989V12.8957H19.5283V14.8989H19.7283ZM19.6283 12.9957H22.7987V12.7957H19.6283V12.9957ZM19.5016 15.8947H22.9254V15.6947H19.5016V15.8947ZM22.9254 15.8947C24.7699 15.8947 26.2866 17.3267 26.4218 19.1371L26.6212 19.1223C26.4783 17.2082 24.8754 15.6947 22.9254 15.6947V15.8947ZM26.5215 19.0297H15.9055V19.2297H26.5215V19.0297ZM16.0052 19.1371C16.1404 17.3267 17.6571 15.8947 19.5016 15.8947V15.6947C17.5516 15.6947 15.9487 17.2083 15.8058 19.1223L16.0052 19.1371ZM17.2283 30.7228C16.5486 30.7228 15.9954 30.1696 15.9954 29.4899H15.7954C15.7954 30.28 16.4381 30.9228 17.2283 30.9228V30.7228ZM15.9954 29.4899V29.3326H15.7954V29.4899H15.9954ZM15.8954 29.4326H26.5317V29.2326H15.8954V29.4326ZM26.4317 29.3326V29.4899H26.6317V29.3326H26.4317ZM26.4317 29.4899C26.4317 30.1696 25.8784 30.7228 25.1988 30.7228V30.9228C25.9889 30.9228 26.6317 30.2801 26.6317 29.4899H26.4317ZM25.1988 30.7228H17.2283V30.9228H25.1988V30.7228Z" fill="#1B438B"/>
</g>
<path id="Path 1662" fill-rule="evenodd" clip-rule="evenodd" d="M23.2349 24.1104C23.2271 24.0713 23.218 24.0265 23.2076 23.9704C23.1805 23.8236 23.0704 23.7061 22.9256 23.6693C22.8483 23.6497 22.7688 23.655 22.697 23.682C22.6978 22.4661 21.7526 21.9894 21.3181 21.7703C21.2496 21.7357 21.1905 21.7059 21.1491 21.6814C21.0242 21.6075 20.8683 21.6105 20.7464 21.6893C20.6245 21.7681 20.5577 21.9091 20.5739 22.0533C20.6337 22.5847 20.6026 22.8657 20.5677 23.0061C20.5357 22.962 20.4959 22.9 20.4463 22.813C20.3935 22.7201 20.2699 22.5025 20.0025 22.5435C19.8432 22.5677 19.7181 22.6859 19.6837 22.8444C19.6318 23.0834 19.5452 23.2911 19.4536 23.511C19.3017 23.8752 19.1296 24.2882 19.1296 24.859C19.1296 25.3821 19.3288 25.8689 19.6904 26.2299C20.0805 26.6194 20.6189 26.8337 21.2069 26.8337H21.2111C21.8001 26.8326 22.3405 26.6109 22.7328 26.2093C23.1082 25.825 23.3085 25.3101 23.2966 24.7593C23.2887 24.3898 23.2729 24.2986 23.2349 24.1104L23.2349 24.1104ZM22.1855 25.6746C21.938 25.9279 21.5915 26.0678 21.2098 26.0684H21.2069C20.8231 26.0684 20.4765 25.9335 20.2309 25.6884C20.011 25.4688 19.8947 25.182 19.8947 24.859C19.8947 24.4413 20.0175 24.1465 20.1598 23.8053C20.1724 23.7751 20.185 23.7448 20.1976 23.7143C20.2982 23.7891 20.4162 23.8444 20.5535 23.8592C20.7372 23.8793 20.9224 23.8105 21.0616 23.6708C21.2592 23.4724 21.3613 23.1508 21.3724 22.6793C21.7845 22.955 22.0445 23.3306 21.8861 24.0906C21.8645 24.1944 21.8869 24.3025 21.948 24.3892C22.0355 24.5132 22.2125 24.6486 22.4468 24.6564C22.4742 24.6574 22.5014 24.6565 22.5284 24.6541C22.5296 24.6898 22.5306 24.73 22.5316 24.7758C22.539 25.1193 22.4161 25.4385 22.1854 25.6746L22.1855 25.6746Z" fill="#1B438B"/>
</g>
</g>
</svg>
