<svg width="43" height="43" viewBox="0 0 43 43" fill="none" xmlns="http://www.w3.org/2000/svg">
<g id="Group 1185">
<path id="Ellipse 29" fill-rule="evenodd" clip-rule="evenodd" d="M21.5 43C33.3741 43 43 33.3741 43 21.5C43 9.62588 33.3741 0 21.5 0C9.62588 0 0 9.62588 0 21.5C0 33.3741 9.62588 43 21.5 43Z" fill="white"/>
<g id="Group (2)">
<g id="Path 1625">
<path fill-rule="evenodd" clip-rule="evenodd" d="M31.1542 14.1067H19.3919C19.2803 13.479 18.7336 13 18.0744 13H14.0788C13.4195 13 12.8729 13.479 12.7613 14.1067H12.3032C11.5846 14.1067 10.9996 14.6917 10.9996 15.4103V27.3337C10.9996 28.0528 11.5846 28.6377 12.3032 28.6377H12.7612C12.8723 29.2661 13.4191 29.7458 14.0788 29.7458H18.0744C18.7341 29.7458 19.2809 29.2661 19.3919 28.6377H31.1542C31.8733 28.6377 32.4583 28.0528 32.4583 27.3337V15.4103C32.4583 14.6917 31.8733 14.1067 31.1542 14.1067H31.1542ZM11.8937 27.3337V15.4103C11.8937 15.1846 12.1115 15.0008 12.379 15.0008H12.8937V27.7436H12.379C12.1115 27.7436 11.8937 27.5598 11.8937 27.3337V27.3337ZM18.5214 28.4047C18.5214 28.6513 18.321 28.8517 18.0744 28.8517H14.0788C13.8321 28.8517 13.6317 28.6513 13.6317 28.4047C13.6317 23.8323 13.6317 18.785 13.6317 14.3412C13.6317 14.0945 13.8321 13.8941 14.0788 13.8941H18.0744C18.321 13.8941 18.5214 14.0945 18.5214 14.3412V28.4047ZM31.5641 27.3337C31.5641 27.5637 31.3843 27.7436 31.1542 27.7436H19.4155V15.0008H31.1542C31.3804 15.0008 31.5641 15.1846 31.5641 15.4103V27.3337Z" fill="#1B438B"/>
<path d="M19.3919 14.1067L19.2934 14.1242L19.3081 14.2067H19.3919V14.1067ZM12.7613 14.1067V14.2067H12.8451L12.8598 14.1242L12.7613 14.1067ZM12.7612 28.6377L12.8597 28.6203L12.8451 28.5377H12.7612V28.6377ZM19.3919 28.6377V28.5377H19.3081L19.2935 28.6203L19.3919 28.6377ZM12.8937 15.0008H12.9937V14.9008H12.8937V15.0008ZM12.8937 27.7436V27.8436H12.9937V27.7436H12.8937ZM19.4155 27.7436H19.3155V27.8436H19.4155V27.7436ZM19.4155 15.0008V14.9008H19.3155V15.0008H19.4155ZM31.1542 14.0067H19.3919V14.2067H31.1542V14.0067ZM19.4903 14.0892C19.3705 13.415 18.7834 12.9 18.0744 12.9V13.1C18.6839 13.1 19.1901 13.5429 19.2934 14.1242L19.4903 14.0892ZM18.0744 12.9H14.0788V13.1H18.0744V12.9ZM14.0788 12.9C13.3698 12.9 12.7827 13.415 12.6629 14.0892L12.8598 14.1242C12.9631 13.5429 13.4693 13.1 14.0788 13.1V12.9ZM12.7613 14.0067H12.3032V14.2067H12.7613V14.0067ZM12.3032 14.0067C11.5294 14.0067 10.8996 14.6365 10.8996 15.4103H11.0996C11.0996 14.7469 11.6399 14.2067 12.3032 14.2067V14.0067ZM10.8996 15.4103V27.3337H11.0996V15.4103H10.8996ZM10.8996 27.3337C10.8996 28.108 11.5294 28.7377 12.3032 28.7377V28.5377C11.6399 28.5377 11.0996 27.9975 11.0996 27.3337H10.8996ZM12.3032 28.7377H12.7612V28.5377H12.3032V28.7377ZM12.6627 28.6551C12.782 29.33 13.3693 29.8458 14.0788 29.8458V29.6458C13.4689 29.6458 12.9625 29.2022 12.8597 28.6203L12.6627 28.6551ZM14.0788 29.8458H18.0744V29.6458H14.0788V29.8458ZM18.0744 29.8458C18.7839 29.8458 19.3712 29.33 19.4904 28.6551L19.2935 28.6203C19.1907 29.2022 18.6843 29.6458 18.0744 29.6458V29.8458ZM19.3919 28.7377H31.1542V28.5377H19.3919V28.7377ZM31.1542 28.7377C31.9285 28.7377 32.5583 28.108 32.5583 27.3337H32.3583C32.3583 27.9975 31.8181 28.5377 31.1542 28.5377V28.7377ZM32.5583 27.3337V15.4103H32.3583V27.3337H32.5583ZM32.5583 15.4103C32.5583 14.6365 31.9285 14.0067 31.1542 14.0067V14.2067C31.8181 14.2067 32.3583 14.7469 32.3583 15.4103H32.5583ZM31.1542 14.0067H31.1542V14.2067H31.1542V14.0067ZM11.9937 27.3337V15.4103H11.7937V27.3337H11.9937ZM11.9937 15.4103C11.9937 15.2551 12.1502 15.1008 12.379 15.1008V14.9008C12.0728 14.9008 11.7937 15.1142 11.7937 15.4103H11.9937ZM12.379 15.1008H12.8937V14.9008H12.379V15.1008ZM12.7937 15.0008V27.7436H12.9937V15.0008H12.7937ZM12.8937 27.6436H12.379V27.8436H12.8937V27.6436ZM12.379 27.6436C12.1502 27.6436 11.9937 27.4894 11.9937 27.3337H11.7937C11.7937 27.6302 12.0728 27.8436 12.379 27.8436V27.6436ZM11.7937 27.3337V27.3337H11.9937V27.3337H11.7937ZM18.4214 28.4047C18.4214 28.5961 18.2658 28.7517 18.0744 28.7517V28.9517C18.3762 28.9517 18.6214 28.7065 18.6214 28.4047H18.4214ZM18.0744 28.7517H14.0788V28.9517H18.0744V28.7517ZM14.0788 28.7517C13.8873 28.7517 13.7317 28.5961 13.7317 28.4047H13.5317C13.5317 28.7065 13.7769 28.9517 14.0788 28.9517V28.7517ZM13.7317 28.4047C13.7317 28.3957 13.7317 28.3868 13.7317 28.3779C13.7317 28.3689 13.7317 28.36 13.7317 28.3511C13.7317 28.3421 13.7317 28.3332 13.7317 28.3242C13.7317 28.3153 13.7317 28.3064 13.7317 28.2974C13.7317 28.2885 13.7317 28.2795 13.7317 28.2706C13.7317 28.2616 13.7317 28.2527 13.7317 28.2437C13.7317 28.2348 13.7317 28.2258 13.7317 28.2169C13.7317 28.2079 13.7317 28.1989 13.7317 28.19C13.7317 28.181 13.7317 28.1721 13.7317 28.1631C13.7317 28.1541 13.7317 28.1452 13.7317 28.1362C13.7317 28.1272 13.7317 28.1183 13.7317 28.1093C13.7317 28.1003 13.7317 28.0914 13.7317 28.0824C13.7317 28.0734 13.7317 28.0644 13.7317 28.0555C13.7317 28.0465 13.7317 28.0375 13.7317 28.0285C13.7317 28.0196 13.7317 28.0106 13.7317 28.0016C13.7317 27.9926 13.7317 27.9836 13.7317 27.9746C13.7317 27.9657 13.7317 27.9567 13.7317 27.9477C13.7317 27.9387 13.7317 27.9297 13.7317 27.9207C13.7317 27.9117 13.7317 27.9027 13.7317 27.8937C13.7317 27.8847 13.7317 27.8757 13.7317 27.8667C13.7317 27.8577 13.7317 27.8487 13.7317 27.8397C13.7317 27.8307 13.7317 27.8217 13.7317 27.8127C13.7317 27.8037 13.7317 27.7947 13.7317 27.7857C13.7317 27.7767 13.7317 27.7677 13.7317 27.7586C13.7317 27.7496 13.7317 27.7406 13.7317 27.7316C13.7317 27.7226 13.7317 27.7136 13.7317 27.7045C13.7317 27.6955 13.7317 27.6865 13.7317 27.6775C13.7317 27.6685 13.7317 27.6594 13.7317 27.6504C13.7317 27.6414 13.7317 27.6324 13.7317 27.6233C13.7317 27.6143 13.7317 27.6053 13.7317 27.5962C13.7317 27.5872 13.7317 27.5782 13.7317 27.5691C13.7317 27.5601 13.7317 27.5511 13.7317 27.542C13.7317 27.533 13.7317 27.524 13.7317 27.5149C13.7317 27.5059 13.7317 27.4968 13.7317 27.4878C13.7317 27.4787 13.7317 27.4697 13.7317 27.4606C13.7317 27.4516 13.7317 27.4426 13.7317 27.4335C13.7317 27.4244 13.7317 27.4154 13.7317 27.4063C13.7317 27.3973 13.7317 27.3882 13.7317 27.3792C13.7317 27.3701 13.7317 27.3611 13.7317 27.352C13.7317 27.3429 13.7317 27.3339 13.7317 27.3248C13.7317 27.3158 13.7317 27.3067 13.7317 27.2976C13.7317 27.2886 13.7317 27.2795 13.7317 27.2704C13.7317 27.2614 13.7317 27.2523 13.7317 27.2432C13.7317 27.2341 13.7317 27.2251 13.7317 27.216C13.7317 27.2069 13.7317 27.1978 13.7317 27.1888C13.7317 27.1797 13.7317 27.1706 13.7317 27.1615C13.7317 27.1525 13.7317 27.1434 13.7317 27.1343C13.7317 27.1252 13.7317 27.1161 13.7317 27.107C13.7317 27.098 13.7317 27.0889 13.7317 27.0798C13.7317 27.0707 13.7317 27.0616 13.7317 27.0525C13.7317 27.0434 13.7317 27.0343 13.7317 27.0252C13.7317 27.0161 13.7317 27.007 13.7317 26.9979C13.7317 26.9888 13.7317 26.9797 13.7317 26.9706C13.7317 26.9615 13.7317 26.9524 13.7317 26.9433C13.7317 26.9342 13.7317 26.9251 13.7317 26.916C13.7317 26.9069 13.7317 26.8978 13.7317 26.8887C13.7317 26.8796 13.7317 26.8705 13.7317 26.8614C13.7317 26.8523 13.7317 26.8432 13.7317 26.834C13.7317 26.8249 13.7317 26.8158 13.7317 26.8067C13.7317 26.7976 13.7317 26.7885 13.7317 26.7793C13.7317 26.7702 13.7317 26.7611 13.7317 26.752C13.7317 26.7429 13.7317 26.7337 13.7317 26.7246C13.7317 26.7155 13.7317 26.7064 13.7317 26.6972C13.7317 26.6881 13.7317 26.679 13.7317 26.6699C13.7317 26.6607 13.7317 26.6516 13.7317 26.6425C13.7317 26.6333 13.7317 26.6242 13.7317 26.6151C13.7317 26.6059 13.7317 26.5968 13.7317 26.5877C13.7317 26.5785 13.7317 26.5694 13.7317 26.5602C13.7317 26.5511 13.7317 26.542 13.7317 26.5328C13.7317 26.5237 13.7317 26.5145 13.7317 26.5054C13.7317 26.4962 13.7317 26.4871 13.7317 26.4779C13.7317 26.4688 13.7317 26.4597 13.7317 26.4505C13.7317 26.4414 13.7317 26.4322 13.7317 26.4231C13.7317 26.4139 13.7317 26.4047 13.7317 26.3956C13.7317 26.3864 13.7317 26.3773 13.7317 26.3681C13.7317 26.359 13.7317 26.3498 13.7317 26.3406C13.7317 26.3315 13.7317 26.3223 13.7317 26.3132C13.7317 26.304 13.7317 26.2948 13.7317 26.2857C13.7317 26.2765 13.7317 26.2673 13.7317 26.2582C13.7317 26.249 13.7317 26.2398 13.7317 26.2307C13.7317 26.2215 13.7317 26.2123 13.7317 26.2032C13.7317 26.194 13.7317 26.1848 13.7317 26.1757C13.7317 26.1665 13.7317 26.1573 13.7317 26.1481C13.7317 26.139 13.7317 26.1298 13.7317 26.1206C13.7317 26.1114 13.7317 26.1022 13.7317 26.0931C13.7317 26.0839 13.7317 26.0747 13.7317 26.0655C13.7317 26.0563 13.7317 26.0471 13.7317 26.038C13.7317 26.0288 13.7317 26.0196 13.7317 26.0104C13.7317 26.0012 13.7317 25.992 13.7317 25.9828C13.7317 25.9737 13.7317 25.9645 13.7317 25.9553C13.7317 25.9461 13.7317 25.9369 13.7317 25.9277C13.7317 25.9185 13.7317 25.9093 13.7317 25.9001C13.7317 25.8909 13.7317 25.8817 13.7317 25.8725C13.7317 25.8633 13.7317 25.8541 13.7317 25.8449C13.7317 25.8357 13.7317 25.8265 13.7317 25.8173C13.7317 25.8081 13.7317 25.7989 13.7317 25.7897C13.7317 25.7805 13.7317 25.7713 13.7317 25.7621C13.7317 25.7529 13.7317 25.7437 13.7317 25.7345C13.7317 25.7253 13.7317 25.7161 13.7317 25.7068C13.7317 25.6976 13.7317 25.6884 13.7317 25.6792C13.7317 25.67 13.7317 25.6608 13.7317 25.6516C13.7317 25.6424 13.7317 25.6331 13.7317 25.6239C13.7317 25.6147 13.7317 25.6055 13.7317 25.5963C13.7317 25.5871 13.7317 25.5778 13.7317 25.5686C13.7317 25.5594 13.7317 25.5502 13.7317 25.5409C13.7317 25.5317 13.7317 25.5225 13.7317 25.5133C13.7317 25.5041 13.7317 25.4948 13.7317 25.4856C13.7317 25.4764 13.7317 25.4671 13.7317 25.4579C13.7317 25.4487 13.7317 25.4395 13.7317 25.4302C13.7317 25.421 13.7317 25.4118 13.7317 25.4025C13.7317 25.3933 13.7317 25.3841 13.7317 25.3748C13.7317 25.3656 13.7317 25.3564 13.7317 25.3471C13.7317 25.3379 13.7317 25.3287 13.7317 25.3194C13.7317 25.3102 13.7317 25.301 13.7317 25.2917C13.7317 25.2825 13.7317 25.2732 13.7317 25.264C13.7317 25.2548 13.7317 25.2455 13.7317 25.2363C13.7317 25.227 13.7317 25.2178 13.7317 25.2085C13.7317 25.1993 13.7317 25.1901 13.7317 25.1808C13.7317 25.1716 13.7317 25.1623 13.7317 25.1531C13.7317 25.1438 13.7317 25.1346 13.7317 25.1253C13.7317 25.1161 13.7317 25.1068 13.7317 25.0976C13.7317 25.0883 13.7317 25.0791 13.7317 25.0698C13.7317 25.0606 13.7317 25.0513 13.7317 25.042C13.7317 25.0328 13.7317 25.0235 13.7317 25.0143C13.7317 25.005 13.7317 24.9958 13.7317 24.9865C13.7317 24.9773 13.7317 24.968 13.7317 24.9587C13.7317 24.9495 13.7317 24.9402 13.7317 24.931C13.7317 24.9217 13.7317 24.9124 13.7317 24.9032C13.7317 24.8939 13.7317 24.8846 13.7317 24.8754C13.7317 24.8661 13.7317 24.8569 13.7317 24.8476C13.7317 24.8383 13.7317 24.8291 13.7317 24.8198C13.7317 24.8105 13.7317 24.8013 13.7317 24.792C13.7317 24.7827 13.7317 24.7734 13.7317 24.7642C13.7317 24.7549 13.7317 24.7456 13.7317 24.7364C13.7317 24.7271 13.7317 24.7178 13.7317 24.7085C13.7317 24.6993 13.7317 24.69 13.7317 24.6807C13.7317 24.6714 13.7317 24.6622 13.7317 24.6529C13.7317 24.6436 13.7317 24.6343 13.7317 24.6251C13.7317 24.6158 13.7317 24.6065 13.7317 24.5972C13.7317 24.588 13.7317 24.5787 13.7317 24.5694C13.7317 24.5601 13.7317 24.5508 13.7317 24.5416C13.7317 24.5323 13.7317 24.523 13.7317 24.5137C13.7317 24.5044 13.7317 24.4951 13.7317 24.4859C13.7317 24.4766 13.7317 24.4673 13.7317 24.458C13.7317 24.4487 13.7317 24.4394 13.7317 24.4301C13.7317 24.4209 13.7317 24.4116 13.7317 24.4023C13.7317 24.393 13.7317 24.3837 13.7317 24.3744C13.7317 24.3651 13.7317 24.3558 13.7317 24.3465C13.7317 24.3373 13.7317 24.328 13.7317 24.3187C13.7317 24.3094 13.7317 24.3001 13.7317 24.2908C13.7317 24.2815 13.7317 24.2722 13.7317 24.2629C13.7317 24.2536 13.7317 24.2443 13.7317 24.235C13.7317 24.2257 13.7317 24.2164 13.7317 24.2071C13.7317 24.1978 13.7317 24.1885 13.7317 24.1792C13.7317 24.1699 13.7317 24.1606 13.7317 24.1513C13.7317 24.142 13.7317 24.1327 13.7317 24.1234C13.7317 24.1141 13.7317 24.1048 13.7317 24.0955C13.7317 24.0862 13.7317 24.0769 13.7317 24.0676C13.7317 24.0583 13.7317 24.049 13.7317 24.0397C13.7317 24.0304 13.7317 24.0211 13.7317 24.0118C13.7317 24.0025 13.7317 23.9932 13.7317 23.9839C13.7317 23.9746 13.7317 23.9653 13.7317 23.956C13.7317 23.9467 13.7317 23.9374 13.7317 23.9281C13.7317 23.9188 13.7317 23.9095 13.7317 23.9001C13.7317 23.8908 13.7317 23.8815 13.7317 23.8722C13.7317 23.8629 13.7317 23.8536 13.7317 23.8443C13.7317 23.835 13.7317 23.8257 13.7317 23.8164C13.7317 23.807 13.7317 23.7977 13.7317 23.7884C13.7317 23.7791 13.7317 23.7698 13.7317 23.7605C13.7317 23.7512 13.7317 23.7419 13.7317 23.7325C13.7317 23.7232 13.7317 23.7139 13.7317 23.7046C13.7317 23.6953 13.7317 23.686 13.7317 23.6766C13.7317 23.6673 13.7317 23.658 13.7317 23.6487C13.7317 23.6394 13.7317 23.6301 13.7317 23.6207C13.7317 23.6114 13.7317 23.6021 13.7317 23.5928C13.7317 23.5835 13.7317 23.5742 13.7317 23.5648C13.7317 23.5555 13.7317 23.5462 13.7317 23.5369C13.7317 23.5276 13.7317 23.5182 13.7317 23.5089C13.7317 23.4996 13.7317 23.4903 13.7317 23.481C13.7317 23.4716 13.7317 23.4623 13.7317 23.453C13.7317 23.4437 13.7317 23.4343 13.7317 23.425C13.7317 23.4157 13.7317 23.4064 13.7317 23.3971C13.7317 23.3877 13.7317 23.3784 13.7317 23.3691C13.7317 23.3598 13.7317 23.3504 13.7317 23.3411C13.7317 23.3318 13.7317 23.3225 13.7317 23.3131C13.7317 23.3038 13.7317 23.2945 13.7317 23.2851C13.7317 23.2758 13.7317 23.2665 13.7317 23.2572C13.7317 23.2478 13.7317 23.2385 13.7317 23.2292C13.7317 23.2199 13.7317 23.2105 13.7317 23.2012C13.7317 23.1919 13.7317 23.1825 13.7317 23.1732C13.7317 23.1639 13.7317 23.1546 13.7317 23.1452C13.7317 23.1359 13.7317 23.1266 13.7317 23.1172C13.7317 23.1079 13.7317 23.0986 13.7317 23.0893C13.7317 23.0799 13.7317 23.0706 13.7317 23.0613C13.7317 23.0519 13.7317 23.0426 13.7317 23.0333C13.7317 23.0239 13.7317 23.0146 13.7317 23.0053C13.7317 22.9959 13.7317 22.9866 13.7317 22.9773C13.7317 22.9679 13.7317 22.9586 13.7317 22.9493C13.7317 22.9399 13.7317 22.9306 13.7317 22.9213C13.7317 22.9119 13.7317 22.9026 13.7317 22.8933C13.7317 22.8839 13.7317 22.8746 13.7317 22.8653C13.7317 22.8559 13.7317 22.8466 13.7317 22.8373C13.7317 22.8279 13.7317 22.8186 13.7317 22.8093C13.7317 22.7999 13.7317 22.7906 13.7317 22.7813C13.7317 22.7719 13.7317 22.7626 13.7317 22.7533C13.7317 22.7439 13.7317 22.7346 13.7317 22.7253C13.7317 22.7159 13.7317 22.7066 13.7317 22.6972C13.7317 22.6879 13.7317 22.6786 13.7317 22.6692C13.7317 22.6599 13.7317 22.6506 13.7317 22.6412C13.7317 22.6319 13.7317 22.6226 13.7317 22.6132C13.7317 22.6039 13.7317 22.5945 13.7317 22.5852C13.7317 22.5759 13.7317 22.5665 13.7317 22.5572C13.7317 22.5479 13.7317 22.5385 13.7317 22.5292C13.7317 22.5198 13.7317 22.5105 13.7317 22.5012C13.7317 22.4918 13.7317 22.4825 13.7317 22.4732C13.7317 22.4638 13.7317 22.4545 13.7317 22.4451C13.7317 22.4358 13.7317 22.4265 13.7317 22.4171C13.7317 22.4078 13.7317 22.3984 13.7317 22.3891C13.7317 22.3798 13.7317 22.3704 13.7317 22.3611C13.7317 22.3518 13.7317 22.3424 13.7317 22.3331C13.7317 22.3237 13.7317 22.3144 13.7317 22.3051C13.7317 22.2957 13.7317 22.2864 13.7317 22.277C13.7317 22.2677 13.7317 22.2584 13.7317 22.249C13.7317 22.2397 13.7317 22.2303 13.7317 22.221C13.7317 22.2117 13.7317 22.2023 13.7317 22.193C13.7317 22.1837 13.7317 22.1743 13.7317 22.165C13.7317 22.1556 13.7317 22.1463 13.7317 22.137C13.7317 22.1276 13.7317 22.1183 13.7317 22.1089C13.7317 22.0996 13.7317 22.0903 13.7317 22.0809C13.7317 22.0716 13.7317 22.0622 13.7317 22.0529C13.7317 22.0436 13.7317 22.0342 13.7317 22.0249C13.7317 22.0156 13.7317 22.0062 13.7317 21.9969C13.7317 21.9875 13.7317 21.9782 13.7317 21.9689C13.7317 21.9595 13.7317 21.9502 13.7317 21.9408C13.7317 21.9315 13.7317 21.9222 13.7317 21.9128C13.7317 21.9035 13.7317 21.8942 13.7317 21.8848C13.7317 21.8755 13.7317 21.8661 13.7317 21.8568C13.7317 21.8475 13.7317 21.8381 13.7317 21.8288C13.7317 21.8195 13.7317 21.8101 13.7317 21.8008C13.7317 21.7914 13.7317 21.7821 13.7317 21.7728C13.7317 21.7634 13.7317 21.7541 13.7317 21.7448C13.7317 21.7354 13.7317 21.7261 13.7317 21.7167C13.7317 21.7074 13.7317 21.6981 13.7317 21.6887C13.7317 21.6794 13.7317 21.6701 13.7317 21.6607C13.7317 21.6514 13.7317 21.6421 13.7317 21.6327C13.7317 21.6234 13.7317 21.614 13.7317 21.6047C13.7317 21.5954 13.7317 21.586 13.7317 21.5767C13.7317 21.5674 13.7317 21.558 13.7317 21.5487C13.7317 21.5394 13.7317 21.53 13.7317 21.5207C13.7317 21.5114 13.7317 21.502 13.7317 21.4927C13.7317 21.4834 13.7317 21.474 13.7317 21.4647C13.7317 21.4554 13.7317 21.446 13.7317 21.4367C13.7317 21.4274 13.7317 21.418 13.7317 21.4087C13.7317 21.3994 13.7317 21.39 13.7317 21.3807C13.7317 21.3714 13.7317 21.362 13.7317 21.3527C13.7317 21.3434 13.7317 21.334 13.7317 21.3247C13.7317 21.3154 13.7317 21.306 13.7317 21.2967C13.7317 21.2874 13.7317 21.278 13.7317 21.2687C13.7317 21.2594 13.7317 21.2501 13.7317 21.2407C13.7317 21.2314 13.7317 21.2221 13.7317 21.2127C13.7317 21.2034 13.7317 21.1941 13.7317 21.1848C13.7317 21.1754 13.7317 21.1661 13.7317 21.1568C13.7317 21.1474 13.7317 21.1381 13.7317 21.1288C13.7317 21.1195 13.7317 21.1101 13.7317 21.1008C13.7317 21.0915 13.7317 21.0821 13.7317 21.0728C13.7317 21.0635 13.7317 21.0542 13.7317 21.0448C13.7317 21.0355 13.7317 21.0262 13.7317 21.0169C13.7317 21.0075 13.7317 20.9982 13.7317 20.9889C13.7317 20.9796 13.7317 20.9702 13.7317 20.9609C13.7317 20.9516 13.7317 20.9423 13.7317 20.933C13.7317 20.9236 13.7317 20.9143 13.7317 20.905C13.7317 20.8957 13.7317 20.8863 13.7317 20.877C13.7317 20.8677 13.7317 20.8584 13.7317 20.8491C13.7317 20.8397 13.7317 20.8304 13.7317 20.8211C13.7317 20.8118 13.7317 20.8025 13.7317 20.7931C13.7317 20.7838 13.7317 20.7745 13.7317 20.7652C13.7317 20.7559 13.7317 20.7465 13.7317 20.7372C13.7317 20.7279 13.7317 20.7186 13.7317 20.7093C13.7317 20.7 13.7317 20.6906 13.7317 20.6813C13.7317 20.672 13.7317 20.6627 13.7317 20.6534C13.7317 20.6441 13.7317 20.6347 13.7317 20.6254C13.7317 20.6161 13.7317 20.6068 13.7317 20.5975C13.7317 20.5882 13.7317 20.5789 13.7317 20.5696C13.7317 20.5602 13.7317 20.5509 13.7317 20.5416C13.7317 20.5323 13.7317 20.523 13.7317 20.5137C13.7317 20.5044 13.7317 20.4951 13.7317 20.4858C13.7317 20.4764 13.7317 20.4671 13.7317 20.4578C13.7317 20.4485 13.7317 20.4392 13.7317 20.4299C13.7317 20.4206 13.7317 20.4113 13.7317 20.402C13.7317 20.3927 13.7317 20.3834 13.7317 20.3741C13.7317 20.3648 13.7317 20.3555 13.7317 20.3462C13.7317 20.3368 13.7317 20.3275 13.7317 20.3182C13.7317 20.3089 13.7317 20.2996 13.7317 20.2903C13.7317 20.281 13.7317 20.2717 13.7317 20.2624C13.7317 20.2531 13.7317 20.2438 13.7317 20.2345C13.7317 20.2252 13.7317 20.2159 13.7317 20.2066C13.7317 20.1973 13.7317 20.188 13.7317 20.1787C13.7317 20.1694 13.7317 20.1601 13.7317 20.1508C13.7317 20.1415 13.7317 20.1322 13.7317 20.123C13.7317 20.1137 13.7317 20.1044 13.7317 20.0951C13.7317 20.0858 13.7317 20.0765 13.7317 20.0672C13.7317 20.0579 13.7317 20.0486 13.7317 20.0393C13.7317 20.03 13.7317 20.0207 13.7317 20.0114C13.7317 20.0021 13.7317 19.9929 13.7317 19.9836C13.7317 19.9743 13.7317 19.965 13.7317 19.9557C13.7317 19.9464 13.7317 19.9371 13.7317 19.9278C13.7317 19.9185 13.7317 19.9093 13.7317 19.9C13.7317 19.8907 13.7317 19.8814 13.7317 19.8721C13.7317 19.8628 13.7317 19.8536 13.7317 19.8443C13.7317 19.835 13.7317 19.8257 13.7317 19.8164C13.7317 19.8071 13.7317 19.7979 13.7317 19.7886C13.7317 19.7793 13.7317 19.77 13.7317 19.7607C13.7317 19.7515 13.7317 19.7422 13.7317 19.7329C13.7317 19.7236 13.7317 19.7144 13.7317 19.7051C13.7317 19.6958 13.7317 19.6865 13.7317 19.6773C13.7317 19.668 13.7317 19.6587 13.7317 19.6494C13.7317 19.6402 13.7317 19.6309 13.7317 19.6216C13.7317 19.6123 13.7317 19.6031 13.7317 19.5938C13.7317 19.5845 13.7317 19.5753 13.7317 19.566C13.7317 19.5567 13.7317 19.5475 13.7317 19.5382C13.7317 19.5289 13.7317 19.5197 13.7317 19.5104C13.7317 19.5011 13.7317 19.4919 13.7317 19.4826C13.7317 19.4733 13.7317 19.4641 13.7317 19.4548C13.7317 19.4455 13.7317 19.4363 13.7317 19.427C13.7317 19.4178 13.7317 19.4085 13.7317 19.3992C13.7317 19.39 13.7317 19.3807 13.7317 19.3715C13.7317 19.3622 13.7317 19.353 13.7317 19.3437C13.7317 19.3344 13.7317 19.3252 13.7317 19.3159C13.7317 19.3067 13.7317 19.2974 13.7317 19.2882C13.7317 19.2789 13.7317 19.2697 13.7317 19.2604C13.7317 19.2512 13.7317 19.2419 13.7317 19.2327C13.7317 19.2234 13.7317 19.2142 13.7317 19.2049C13.7317 19.1957 13.7317 19.1864 13.7317 19.1772C13.7317 19.1679 13.7317 19.1587 13.7317 19.1494C13.7317 19.1402 13.7317 19.131 13.7317 19.1217C13.7317 19.1125 13.7317 19.1032 13.7317 19.094C13.7317 19.0847 13.7317 19.0755 13.7317 19.0663C13.7317 19.057 13.7317 19.0478 13.7317 19.0386C13.7317 19.0293 13.7317 19.0201 13.7317 19.0108C13.7317 19.0016 13.7317 18.9924 13.7317 18.9831C13.7317 18.9739 13.7317 18.9647 13.7317 18.9554C13.7317 18.9462 13.7317 18.937 13.7317 18.9277C13.7317 18.9185 13.7317 18.9093 13.7317 18.9001C13.7317 18.8908 13.7317 18.8816 13.7317 18.8724C13.7317 18.8632 13.7317 18.8539 13.7317 18.8447C13.7317 18.8355 13.7317 18.8263 13.7317 18.817C13.7317 18.8078 13.7317 18.7986 13.7317 18.7894C13.7317 18.7802 13.7317 18.7709 13.7317 18.7617C13.7317 18.7525 13.7317 18.7433 13.7317 18.7341C13.7317 18.7248 13.7317 18.7156 13.7317 18.7064C13.7317 18.6972 13.7317 18.688 13.7317 18.6788C13.7317 18.6696 13.7317 18.6604 13.7317 18.6511C13.7317 18.6419 13.7317 18.6327 13.7317 18.6235C13.7317 18.6143 13.7317 18.6051 13.7317 18.5959C13.7317 18.5867 13.7317 18.5775 13.7317 18.5683C13.7317 18.5591 13.7317 18.5499 13.7317 18.5407C13.7317 18.5315 13.7317 18.5223 13.7317 18.5131C13.7317 18.5039 13.7317 18.4947 13.7317 18.4855C13.7317 18.4763 13.7317 18.4671 13.7317 18.4579C13.7317 18.4487 13.7317 18.4395 13.7317 18.4303C13.7317 18.4211 13.7317 18.4119 13.7317 18.4027C13.7317 18.3935 13.7317 18.3843 13.7317 18.3751C13.7317 18.366 13.7317 18.3568 13.7317 18.3476C13.7317 18.3384 13.7317 18.3292 13.7317 18.32C13.7317 18.3108 13.7317 18.3017 13.7317 18.2925C13.7317 18.2833 13.7317 18.2741 13.7317 18.2649C13.7317 18.2558 13.7317 18.2466 13.7317 18.2374C13.7317 18.2282 13.7317 18.219 13.7317 18.2099C13.7317 18.2007 13.7317 18.1915 13.7317 18.1823C13.7317 18.1732 13.7317 18.164 13.7317 18.1548C13.7317 18.1457 13.7317 18.1365 13.7317 18.1273C13.7317 18.1181 13.7317 18.109 13.7317 18.0998C13.7317 18.0906 13.7317 18.0815 13.7317 18.0723C13.7317 18.0631 13.7317 18.054 13.7317 18.0448C13.7317 18.0357 13.7317 18.0265 13.7317 18.0173C13.7317 18.0082 13.7317 17.999 13.7317 17.9899C13.7317 17.9807 13.7317 17.9716 13.7317 17.9624C13.7317 17.9532 13.7317 17.9441 13.7317 17.9349C13.7317 17.9258 13.7317 17.9166 13.7317 17.9075C13.7317 17.8983 13.7317 17.8892 13.7317 17.88C13.7317 17.8709 13.7317 17.8618 13.7317 17.8526C13.7317 17.8435 13.7317 17.8343 13.7317 17.8252C13.7317 17.816 13.7317 17.8069 13.7317 17.7978C13.7317 17.7886 13.7317 17.7795 13.7317 17.7703C13.7317 17.7612 13.7317 17.7521 13.7317 17.7429C13.7317 17.7338 13.7317 17.7247 13.7317 17.7155C13.7317 17.7064 13.7317 17.6973 13.7317 17.6881C13.7317 17.679 13.7317 17.6699 13.7317 17.6608C13.7317 17.6516 13.7317 17.6425 13.7317 17.6334C13.7317 17.6243 13.7317 17.6151 13.7317 17.606C13.7317 17.5969 13.7317 17.5878 13.7317 17.5787C13.7317 17.5695 13.7317 17.5604 13.7317 17.5513C13.7317 17.5422 13.7317 17.5331 13.7317 17.524C13.7317 17.5148 13.7317 17.5057 13.7317 17.4966C13.7317 17.4875 13.7317 17.4784 13.7317 17.4693C13.7317 17.4602 13.7317 17.4511 13.7317 17.442C13.7317 17.4329 13.7317 17.4238 13.7317 17.4147C13.7317 17.4056 13.7317 17.3965 13.7317 17.3874C13.7317 17.3783 13.7317 17.3692 13.7317 17.3601C13.7317 17.351 13.7317 17.3419 13.7317 17.3328C13.7317 17.3237 13.7317 17.3146 13.7317 17.3055C13.7317 17.2964 13.7317 17.2873 13.7317 17.2782C13.7317 17.2691 13.7317 17.26 13.7317 17.251C13.7317 17.2419 13.7317 17.2328 13.7317 17.2237C13.7317 17.2146 13.7317 17.2055 13.7317 17.1965C13.7317 17.1874 13.7317 17.1783 13.7317 17.1692C13.7317 17.1602 13.7317 17.1511 13.7317 17.142C13.7317 17.1329 13.7317 17.1239 13.7317 17.1148C13.7317 17.1057 13.7317 17.0966 13.7317 17.0876C13.7317 17.0785 13.7317 17.0694 13.7317 17.0604C13.7317 17.0513 13.7317 17.0422 13.7317 17.0332C13.7317 17.0241 13.7317 17.0151 13.7317 17.006C13.7317 16.9969 13.7317 16.9879 13.7317 16.9788C13.7317 16.9698 13.7317 16.9607 13.7317 16.9517C13.7317 16.9426 13.7317 16.9336 13.7317 16.9245C13.7317 16.9155 13.7317 16.9064 13.7317 16.8974C13.7317 16.8883 13.7317 16.8793 13.7317 16.8702C13.7317 16.8612 13.7317 16.8521 13.7317 16.8431C13.7317 16.8341 13.7317 16.825 13.7317 16.816C13.7317 16.8069 13.7317 16.7979 13.7317 16.7889C13.7317 16.7798 13.7317 16.7708 13.7317 16.7618C13.7317 16.7527 13.7317 16.7437 13.7317 16.7347C13.7317 16.7256 13.7317 16.7166 13.7317 16.7076C13.7317 16.6986 13.7317 16.6895 13.7317 16.6805C13.7317 16.6715 13.7317 16.6625 13.7317 16.6535C13.7317 16.6444 13.7317 16.6354 13.7317 16.6264C13.7317 16.6174 13.7317 16.6084 13.7317 16.5994C13.7317 16.5904 13.7317 16.5813 13.7317 16.5723C13.7317 16.5633 13.7317 16.5543 13.7317 16.5453C13.7317 16.5363 13.7317 16.5273 13.7317 16.5183C13.7317 16.5093 13.7317 16.5003 13.7317 16.4913C13.7317 16.4823 13.7317 16.4733 13.7317 16.4643C13.7317 16.4553 13.7317 16.4463 13.7317 16.4373C13.7317 16.4283 13.7317 16.4193 13.7317 16.4103C13.7317 16.4014 13.7317 16.3924 13.7317 16.3834C13.7317 16.3744 13.7317 16.3654 13.7317 16.3564C13.7317 16.3474 13.7317 16.3385 13.7317 16.3295C13.7317 16.3205 13.7317 16.3115 13.7317 16.3025C13.7317 16.2936 13.7317 16.2846 13.7317 16.2756C13.7317 16.2667 13.7317 16.2577 13.7317 16.2487C13.7317 16.2397 13.7317 16.2308 13.7317 16.2218C13.7317 16.2128 13.7317 16.2039 13.7317 16.1949C13.7317 16.186 13.7317 16.177 13.7317 16.168C13.7317 16.1591 13.7317 16.1501 13.7317 16.1412C13.7317 16.1322 13.7317 16.1233 13.7317 16.1143C13.7317 16.1054 13.7317 16.0964 13.7317 16.0875C13.7317 16.0785 13.7317 16.0696 13.7317 16.0606C13.7317 16.0517 13.7317 16.0427 13.7317 16.0338C13.7317 16.0248 13.7317 16.0159 13.7317 16.007C13.7317 15.998 13.7317 15.9891 13.7317 15.9802C13.7317 15.9712 13.7317 15.9623 13.7317 15.9534C13.7317 15.9444 13.7317 15.9355 13.7317 15.9266C13.7317 15.9177 13.7317 15.9087 13.7317 15.8998C13.7317 15.8909 13.7317 15.882 13.7317 15.873C13.7317 15.8641 13.7317 15.8552 13.7317 15.8463C13.7317 15.8374 13.7317 15.8285 13.7317 15.8195C13.7317 15.8106 13.7317 15.8017 13.7317 15.7928C13.7317 15.7839 13.7317 15.775 13.7317 15.7661C13.7317 15.7572 13.7317 15.7483 13.7317 15.7394C13.7317 15.7305 13.7317 15.7216 13.7317 15.7127C13.7317 15.7038 13.7317 15.6949 13.7317 15.686C13.7317 15.6771 13.7317 15.6682 13.7317 15.6593C13.7317 15.6504 13.7317 15.6416 13.7317 15.6327C13.7317 15.6238 13.7317 15.6149 13.7317 15.606C13.7317 15.5971 13.7317 15.5883 13.7317 15.5794C13.7317 15.5705 13.7317 15.5616 13.7317 15.5527C13.7317 15.5439 13.7317 15.535 13.7317 15.5261C13.7317 15.5173 13.7317 15.5084 13.7317 15.4995C13.7317 15.4907 13.7317 15.4818 13.7317 15.4729C13.7317 15.4641 13.7317 15.4552 13.7317 15.4464C13.7317 15.4375 13.7317 15.4286 13.7317 15.4198C13.7317 15.4109 13.7317 15.4021 13.7317 15.3932C13.7317 15.3844 13.7317 15.3755 13.7317 15.3667C13.7317 15.3578 13.7317 15.349 13.7317 15.3401C13.7317 15.3313 13.7317 15.3225 13.7317 15.3136C13.7317 15.3048 13.7317 15.2959 13.7317 15.2871C13.7317 15.2783 13.7317 15.2694 13.7317 15.2606C13.7317 15.2518 13.7317 15.243 13.7317 15.2341C13.7317 15.2253 13.7317 15.2165 13.7317 15.2077C13.7317 15.1988 13.7317 15.19 13.7317 15.1812C13.7317 15.1724 13.7317 15.1636 13.7317 15.1547C13.7317 15.1459 13.7317 15.1371 13.7317 15.1283C13.7317 15.1195 13.7317 15.1107 13.7317 15.1019C13.7317 15.0931 13.7317 15.0843 13.7317 15.0755C13.7317 15.0667 13.7317 15.0579 13.7317 15.0491C13.7317 15.0403 13.7317 15.0315 13.7317 15.0227C13.7317 15.0139 13.7317 15.0051 13.7317 14.9963C13.7317 14.9875 13.7317 14.9787 13.7317 14.9699C13.7317 14.9612 13.7317 14.9524 13.7317 14.9436C13.7317 14.9348 13.7317 14.926 13.7317 14.9173C13.7317 14.9085 13.7317 14.8997 13.7317 14.8909C13.7317 14.8822 13.7317 14.8734 13.7317 14.8646C13.7317 14.8559 13.7317 14.8471 13.7317 14.8383C13.7317 14.8296 13.7317 14.8208 13.7317 14.812C13.7317 14.8033 13.7317 14.7945 13.7317 14.7858C13.7317 14.777 13.7317 14.7683 13.7317 14.7595C13.7317 14.7508 13.7317 14.742 13.7317 14.7333C13.7317 14.7245 13.7317 14.7158 13.7317 14.707C13.7317 14.6983 13.7317 14.6895 13.7317 14.6808C13.7317 14.6721 13.7317 14.6633 13.7317 14.6546C13.7317 14.6459 13.7317 14.6371 13.7317 14.6284C13.7317 14.6197 13.7317 14.6109 13.7317 14.6022C13.7317 14.5935 13.7317 14.5848 13.7317 14.5761C13.7317 14.5673 13.7317 14.5586 13.7317 14.5499C13.7317 14.5412 13.7317 14.5325 13.7317 14.5238C13.7317 14.5151 13.7317 14.5063 13.7317 14.4976C13.7317 14.4889 13.7317 14.4802 13.7317 14.4715C13.7317 14.4628 13.7317 14.4541 13.7317 14.4454C13.7317 14.4367 13.7317 14.428 13.7317 14.4193C13.7317 14.4106 13.7317 14.402 13.7317 14.3933C13.7317 14.3846 13.7317 14.3759 13.7317 14.3672C13.7317 14.3585 13.7317 14.3498 13.7317 14.3412H13.5317C13.5317 14.3498 13.5317 14.3585 13.5317 14.3672C13.5317 14.3759 13.5317 14.3846 13.5317 14.3933C13.5317 14.402 13.5317 14.4106 13.5317 14.4193C13.5317 14.428 13.5317 14.4367 13.5317 14.4454C13.5317 14.4541 13.5317 14.4628 13.5317 14.4715C13.5317 14.4802 13.5317 14.4889 13.5317 14.4976C13.5317 14.5063 13.5317 14.5151 13.5317 14.5238C13.5317 14.5325 13.5317 14.5412 13.5317 14.5499C13.5317 14.5586 13.5317 14.5673 13.5317 14.5761C13.5317 14.5848 13.5317 14.5935 13.5317 14.6022C13.5317 14.6109 13.5317 14.6197 13.5317 14.6284C13.5317 14.6371 13.5317 14.6459 13.5317 14.6546C13.5317 14.6633 13.5317 14.6721 13.5317 14.6808C13.5317 14.6895 13.5317 14.6983 13.5317 14.707C13.5317 14.7158 13.5317 14.7245 13.5317 14.7333C13.5317 14.742 13.5317 14.7508 13.5317 14.7595C13.5317 14.7683 13.5317 14.777 13.5317 14.7858C13.5317 14.7945 13.5317 14.8033 13.5317 14.812C13.5317 14.8208 13.5317 14.8296 13.5317 14.8383C13.5317 14.8471 13.5317 14.8559 13.5317 14.8646C13.5317 14.8734 13.5317 14.8822 13.5317 14.8909C13.5317 14.8997 13.5317 14.9085 13.5317 14.9173C13.5317 14.926 13.5317 14.9348 13.5317 14.9436C13.5317 14.9524 13.5317 14.9612 13.5317 14.9699C13.5317 14.9787 13.5317 14.9875 13.5317 14.9963C13.5317 15.0051 13.5317 15.0139 13.5317 15.0227C13.5317 15.0315 13.5317 15.0403 13.5317 15.0491C13.5317 15.0579 13.5317 15.0667 13.5317 15.0755C13.5317 15.0843 13.5317 15.0931 13.5317 15.1019C13.5317 15.1107 13.5317 15.1195 13.5317 15.1283C13.5317 15.1371 13.5317 15.1459 13.5317 15.1547C13.5317 15.1636 13.5317 15.1724 13.5317 15.1812C13.5317 15.19 13.5317 15.1988 13.5317 15.2077C13.5317 15.2165 13.5317 15.2253 13.5317 15.2341C13.5317 15.243 13.5317 15.2518 13.5317 15.2606C13.5317 15.2694 13.5317 15.2783 13.5317 15.2871C13.5317 15.2959 13.5317 15.3048 13.5317 15.3136C13.5317 15.3225 13.5317 15.3313 13.5317 15.3401C13.5317 15.349 13.5317 15.3578 13.5317 15.3667C13.5317 15.3755 13.5317 15.3844 13.5317 15.3932C13.5317 15.4021 13.5317 15.4109 13.5317 15.4198C13.5317 15.4286 13.5317 15.4375 13.5317 15.4464C13.5317 15.4552 13.5317 15.4641 13.5317 15.4729C13.5317 15.4818 13.5317 15.4907 13.5317 15.4995C13.5317 15.5084 13.5317 15.5173 13.5317 15.5261C13.5317 15.535 13.5317 15.5439 13.5317 15.5527C13.5317 15.5616 13.5317 15.5705 13.5317 15.5794C13.5317 15.5883 13.5317 15.5971 13.5317 15.606C13.5317 15.6149 13.5317 15.6238 13.5317 15.6327C13.5317 15.6416 13.5317 15.6504 13.5317 15.6593C13.5317 15.6682 13.5317 15.6771 13.5317 15.686C13.5317 15.6949 13.5317 15.7038 13.5317 15.7127C13.5317 15.7216 13.5317 15.7305 13.5317 15.7394C13.5317 15.7483 13.5317 15.7572 13.5317 15.7661C13.5317 15.775 13.5317 15.7839 13.5317 15.7928C13.5317 15.8017 13.5317 15.8106 13.5317 15.8195C13.5317 15.8285 13.5317 15.8374 13.5317 15.8463C13.5317 15.8552 13.5317 15.8641 13.5317 15.873C13.5317 15.882 13.5317 15.8909 13.5317 15.8998C13.5317 15.9087 13.5317 15.9177 13.5317 15.9266C13.5317 15.9355 13.5317 15.9444 13.5317 15.9534C13.5317 15.9623 13.5317 15.9712 13.5317 15.9802C13.5317 15.9891 13.5317 15.998 13.5317 16.007C13.5317 16.0159 13.5317 16.0248 13.5317 16.0338C13.5317 16.0427 13.5317 16.0517 13.5317 16.0606C13.5317 16.0696 13.5317 16.0785 13.5317 16.0875C13.5317 16.0964 13.5317 16.1054 13.5317 16.1143C13.5317 16.1233 13.5317 16.1322 13.5317 16.1412C13.5317 16.1501 13.5317 16.1591 13.5317 16.168C13.5317 16.177 13.5317 16.186 13.5317 16.1949C13.5317 16.2039 13.5317 16.2128 13.5317 16.2218C13.5317 16.2308 13.5317 16.2397 13.5317 16.2487C13.5317 16.2577 13.5317 16.2667 13.5317 16.2756C13.5317 16.2846 13.5317 16.2936 13.5317 16.3025C13.5317 16.3115 13.5317 16.3205 13.5317 16.3295C13.5317 16.3385 13.5317 16.3474 13.5317 16.3564C13.5317 16.3654 13.5317 16.3744 13.5317 16.3834C13.5317 16.3924 13.5317 16.4014 13.5317 16.4103C13.5317 16.4193 13.5317 16.4283 13.5317 16.4373C13.5317 16.4463 13.5317 16.4553 13.5317 16.4643C13.5317 16.4733 13.5317 16.4823 13.5317 16.4913C13.5317 16.5003 13.5317 16.5093 13.5317 16.5183C13.5317 16.5273 13.5317 16.5363 13.5317 16.5453C13.5317 16.5543 13.5317 16.5633 13.5317 16.5723C13.5317 16.5813 13.5317 16.5904 13.5317 16.5994C13.5317 16.6084 13.5317 16.6174 13.5317 16.6264C13.5317 16.6354 13.5317 16.6444 13.5317 16.6535C13.5317 16.6625 13.5317 16.6715 13.5317 16.6805C13.5317 16.6895 13.5317 16.6986 13.5317 16.7076C13.5317 16.7166 13.5317 16.7256 13.5317 16.7347C13.5317 16.7437 13.5317 16.7527 13.5317 16.7618C13.5317 16.7708 13.5317 16.7798 13.5317 16.7889C13.5317 16.7979 13.5317 16.8069 13.5317 16.816C13.5317 16.825 13.5317 16.8341 13.5317 16.8431C13.5317 16.8521 13.5317 16.8612 13.5317 16.8702C13.5317 16.8793 13.5317 16.8883 13.5317 16.8974C13.5317 16.9064 13.5317 16.9155 13.5317 16.9245C13.5317 16.9336 13.5317 16.9426 13.5317 16.9517C13.5317 16.9607 13.5317 16.9698 13.5317 16.9788C13.5317 16.9879 13.5317 16.9969 13.5317 17.006C13.5317 17.0151 13.5317 17.0241 13.5317 17.0332C13.5317 17.0422 13.5317 17.0513 13.5317 17.0604C13.5317 17.0694 13.5317 17.0785 13.5317 17.0876C13.5317 17.0966 13.5317 17.1057 13.5317 17.1148C13.5317 17.1239 13.5317 17.1329 13.5317 17.142C13.5317 17.1511 13.5317 17.1602 13.5317 17.1692C13.5317 17.1783 13.5317 17.1874 13.5317 17.1965C13.5317 17.2055 13.5317 17.2146 13.5317 17.2237C13.5317 17.2328 13.5317 17.2419 13.5317 17.251C13.5317 17.26 13.5317 17.2691 13.5317 17.2782C13.5317 17.2873 13.5317 17.2964 13.5317 17.3055C13.5317 17.3146 13.5317 17.3237 13.5317 17.3328C13.5317 17.3419 13.5317 17.351 13.5317 17.3601C13.5317 17.3692 13.5317 17.3783 13.5317 17.3874C13.5317 17.3965 13.5317 17.4056 13.5317 17.4147C13.5317 17.4238 13.5317 17.4329 13.5317 17.442C13.5317 17.4511 13.5317 17.4602 13.5317 17.4693C13.5317 17.4784 13.5317 17.4875 13.5317 17.4966C13.5317 17.5057 13.5317 17.5148 13.5317 17.524C13.5317 17.5331 13.5317 17.5422 13.5317 17.5513C13.5317 17.5604 13.5317 17.5695 13.5317 17.5787C13.5317 17.5878 13.5317 17.5969 13.5317 17.606C13.5317 17.6151 13.5317 17.6243 13.5317 17.6334C13.5317 17.6425 13.5317 17.6516 13.5317 17.6608C13.5317 17.6699 13.5317 17.679 13.5317 17.6881C13.5317 17.6973 13.5317 17.7064 13.5317 17.7155C13.5317 17.7247 13.5317 17.7338 13.5317 17.7429C13.5317 17.7521 13.5317 17.7612 13.5317 17.7703C13.5317 17.7795 13.5317 17.7886 13.5317 17.7978C13.5317 17.8069 13.5317 17.816 13.5317 17.8252C13.5317 17.8343 13.5317 17.8435 13.5317 17.8526C13.5317 17.8618 13.5317 17.8709 13.5317 17.88C13.5317 17.8892 13.5317 17.8983 13.5317 17.9075C13.5317 17.9166 13.5317 17.9258 13.5317 17.9349C13.5317 17.9441 13.5317 17.9532 13.5317 17.9624C13.5317 17.9716 13.5317 17.9807 13.5317 17.9899C13.5317 17.999 13.5317 18.0082 13.5317 18.0173C13.5317 18.0265 13.5317 18.0357 13.5317 18.0448C13.5317 18.054 13.5317 18.0631 13.5317 18.0723C13.5317 18.0815 13.5317 18.0906 13.5317 18.0998C13.5317 18.109 13.5317 18.1181 13.5317 18.1273C13.5317 18.1365 13.5317 18.1457 13.5317 18.1548C13.5317 18.164 13.5317 18.1732 13.5317 18.1823C13.5317 18.1915 13.5317 18.2007 13.5317 18.2099C13.5317 18.219 13.5317 18.2282 13.5317 18.2374C13.5317 18.2466 13.5317 18.2558 13.5317 18.2649C13.5317 18.2741 13.5317 18.2833 13.5317 18.2925C13.5317 18.3017 13.5317 18.3108 13.5317 18.32C13.5317 18.3292 13.5317 18.3384 13.5317 18.3476C13.5317 18.3568 13.5317 18.366 13.5317 18.3751C13.5317 18.3843 13.5317 18.3935 13.5317 18.4027C13.5317 18.4119 13.5317 18.4211 13.5317 18.4303C13.5317 18.4395 13.5317 18.4487 13.5317 18.4579C13.5317 18.4671 13.5317 18.4763 13.5317 18.4855C13.5317 18.4947 13.5317 18.5039 13.5317 18.5131C13.5317 18.5223 13.5317 18.5315 13.5317 18.5407C13.5317 18.5499 13.5317 18.5591 13.5317 18.5683C13.5317 18.5775 13.5317 18.5867 13.5317 18.5959C13.5317 18.6051 13.5317 18.6143 13.5317 18.6235C13.5317 18.6327 13.5317 18.6419 13.5317 18.6511C13.5317 18.6604 13.5317 18.6696 13.5317 18.6788C13.5317 18.688 13.5317 18.6972 13.5317 18.7064C13.5317 18.7156 13.5317 18.7248 13.5317 18.7341C13.5317 18.7433 13.5317 18.7525 13.5317 18.7617C13.5317 18.7709 13.5317 18.7802 13.5317 18.7894C13.5317 18.7986 13.5317 18.8078 13.5317 18.817C13.5317 18.8263 13.5317 18.8355 13.5317 18.8447C13.5317 18.8539 13.5317 18.8632 13.5317 18.8724C13.5317 18.8816 13.5317 18.8908 13.5317 18.9001C13.5317 18.9093 13.5317 18.9185 13.5317 18.9277C13.5317 18.937 13.5317 18.9462 13.5317 18.9554C13.5317 18.9647 13.5317 18.9739 13.5317 18.9831C13.5317 18.9924 13.5317 19.0016 13.5317 19.0108C13.5317 19.0201 13.5317 19.0293 13.5317 19.0386C13.5317 19.0478 13.5317 19.057 13.5317 19.0663C13.5317 19.0755 13.5317 19.0847 13.5317 19.094C13.5317 19.1032 13.5317 19.1125 13.5317 19.1217C13.5317 19.131 13.5317 19.1402 13.5317 19.1494C13.5317 19.1587 13.5317 19.1679 13.5317 19.1772C13.5317 19.1864 13.5317 19.1957 13.5317 19.2049C13.5317 19.2142 13.5317 19.2234 13.5317 19.2327C13.5317 19.2419 13.5317 19.2512 13.5317 19.2604C13.5317 19.2697 13.5317 19.2789 13.5317 19.2882C13.5317 19.2974 13.5317 19.3067 13.5317 19.3159C13.5317 19.3252 13.5317 19.3344 13.5317 19.3437C13.5317 19.353 13.5317 19.3622 13.5317 19.3715C13.5317 19.3807 13.5317 19.39 13.5317 19.3992C13.5317 19.4085 13.5317 19.4178 13.5317 19.427C13.5317 19.4363 13.5317 19.4455 13.5317 19.4548C13.5317 19.4641 13.5317 19.4733 13.5317 19.4826C13.5317 19.4919 13.5317 19.5011 13.5317 19.5104C13.5317 19.5197 13.5317 19.5289 13.5317 19.5382C13.5317 19.5475 13.5317 19.5567 13.5317 19.566C13.5317 19.5753 13.5317 19.5845 13.5317 19.5938C13.5317 19.6031 13.5317 19.6123 13.5317 19.6216C13.5317 19.6309 13.5317 19.6402 13.5317 19.6494C13.5317 19.6587 13.5317 19.668 13.5317 19.6773C13.5317 19.6865 13.5317 19.6958 13.5317 19.7051C13.5317 19.7144 13.5317 19.7236 13.5317 19.7329C13.5317 19.7422 13.5317 19.7515 13.5317 19.7607C13.5317 19.77 13.5317 19.7793 13.5317 19.7886C13.5317 19.7979 13.5317 19.8071 13.5317 19.8164C13.5317 19.8257 13.5317 19.835 13.5317 19.8443C13.5317 19.8536 13.5317 19.8628 13.5317 19.8721C13.5317 19.8814 13.5317 19.8907 13.5317 19.9C13.5317 19.9093 13.5317 19.9185 13.5317 19.9278C13.5317 19.9371 13.5317 19.9464 13.5317 19.9557C13.5317 19.965 13.5317 19.9743 13.5317 19.9836C13.5317 19.9929 13.5317 20.0021 13.5317 20.0114C13.5317 20.0207 13.5317 20.03 13.5317 20.0393C13.5317 20.0486 13.5317 20.0579 13.5317 20.0672C13.5317 20.0765 13.5317 20.0858 13.5317 20.0951C13.5317 20.1044 13.5317 20.1137 13.5317 20.123C13.5317 20.1322 13.5317 20.1415 13.5317 20.1508C13.5317 20.1601 13.5317 20.1694 13.5317 20.1787C13.5317 20.188 13.5317 20.1973 13.5317 20.2066C13.5317 20.2159 13.5317 20.2252 13.5317 20.2345C13.5317 20.2438 13.5317 20.2531 13.5317 20.2624C13.5317 20.2717 13.5317 20.281 13.5317 20.2903C13.5317 20.2996 13.5317 20.3089 13.5317 20.3182C13.5317 20.3275 13.5317 20.3368 13.5317 20.3462C13.5317 20.3555 13.5317 20.3648 13.5317 20.3741C13.5317 20.3834 13.5317 20.3927 13.5317 20.402C13.5317 20.4113 13.5317 20.4206 13.5317 20.4299C13.5317 20.4392 13.5317 20.4485 13.5317 20.4578C13.5317 20.4671 13.5317 20.4764 13.5317 20.4858C13.5317 20.4951 13.5317 20.5044 13.5317 20.5137C13.5317 20.523 13.5317 20.5323 13.5317 20.5416C13.5317 20.5509 13.5317 20.5602 13.5317 20.5696C13.5317 20.5789 13.5317 20.5882 13.5317 20.5975C13.5317 20.6068 13.5317 20.6161 13.5317 20.6254C13.5317 20.6347 13.5317 20.6441 13.5317 20.6534C13.5317 20.6627 13.5317 20.672 13.5317 20.6813C13.5317 20.6906 13.5317 20.7 13.5317 20.7093C13.5317 20.7186 13.5317 20.7279 13.5317 20.7372C13.5317 20.7465 13.5317 20.7559 13.5317 20.7652C13.5317 20.7745 13.5317 20.7838 13.5317 20.7931C13.5317 20.8025 13.5317 20.8118 13.5317 20.8211C13.5317 20.8304 13.5317 20.8397 13.5317 20.8491C13.5317 20.8584 13.5317 20.8677 13.5317 20.877C13.5317 20.8863 13.5317 20.8957 13.5317 20.905C13.5317 20.9143 13.5317 20.9236 13.5317 20.933C13.5317 20.9423 13.5317 20.9516 13.5317 20.9609C13.5317 20.9702 13.5317 20.9796 13.5317 20.9889C13.5317 20.9982 13.5317 21.0075 13.5317 21.0169C13.5317 21.0262 13.5317 21.0355 13.5317 21.0448C13.5317 21.0542 13.5317 21.0635 13.5317 21.0728C13.5317 21.0821 13.5317 21.0915 13.5317 21.1008C13.5317 21.1101 13.5317 21.1195 13.5317 21.1288C13.5317 21.1381 13.5317 21.1474 13.5317 21.1568C13.5317 21.1661 13.5317 21.1754 13.5317 21.1848C13.5317 21.1941 13.5317 21.2034 13.5317 21.2127C13.5317 21.2221 13.5317 21.2314 13.5317 21.2407C13.5317 21.2501 13.5317 21.2594 13.5317 21.2687C13.5317 21.278 13.5317 21.2874 13.5317 21.2967C13.5317 21.306 13.5317 21.3154 13.5317 21.3247C13.5317 21.334 13.5317 21.3434 13.5317 21.3527C13.5317 21.362 13.5317 21.3714 13.5317 21.3807C13.5317 21.39 13.5317 21.3994 13.5317 21.4087C13.5317 21.418 13.5317 21.4274 13.5317 21.4367C13.5317 21.446 13.5317 21.4554 13.5317 21.4647C13.5317 21.474 13.5317 21.4834 13.5317 21.4927C13.5317 21.502 13.5317 21.5114 13.5317 21.5207C13.5317 21.53 13.5317 21.5394 13.5317 21.5487C13.5317 21.558 13.5317 21.5674 13.5317 21.5767C13.5317 21.586 13.5317 21.5954 13.5317 21.6047C13.5317 21.614 13.5317 21.6234 13.5317 21.6327C13.5317 21.6421 13.5317 21.6514 13.5317 21.6607C13.5317 21.6701 13.5317 21.6794 13.5317 21.6887C13.5317 21.6981 13.5317 21.7074 13.5317 21.7167C13.5317 21.7261 13.5317 21.7354 13.5317 21.7448C13.5317 21.7541 13.5317 21.7634 13.5317 21.7728C13.5317 21.7821 13.5317 21.7914 13.5317 21.8008C13.5317 21.8101 13.5317 21.8195 13.5317 21.8288C13.5317 21.8381 13.5317 21.8475 13.5317 21.8568C13.5317 21.8661 13.5317 21.8755 13.5317 21.8848C13.5317 21.8942 13.5317 21.9035 13.5317 21.9128C13.5317 21.9222 13.5317 21.9315 13.5317 21.9408C13.5317 21.9502 13.5317 21.9595 13.5317 21.9689C13.5317 21.9782 13.5317 21.9875 13.5317 21.9969C13.5317 22.0062 13.5317 22.0156 13.5317 22.0249C13.5317 22.0342 13.5317 22.0436 13.5317 22.0529C13.5317 22.0622 13.5317 22.0716 13.5317 22.0809C13.5317 22.0903 13.5317 22.0996 13.5317 22.1089C13.5317 22.1183 13.5317 22.1276 13.5317 22.137C13.5317 22.1463 13.5317 22.1556 13.5317 22.165C13.5317 22.1743 13.5317 22.1837 13.5317 22.193C13.5317 22.2023 13.5317 22.2117 13.5317 22.221C13.5317 22.2303 13.5317 22.2397 13.5317 22.249C13.5317 22.2584 13.5317 22.2677 13.5317 22.277C13.5317 22.2864 13.5317 22.2957 13.5317 22.3051C13.5317 22.3144 13.5317 22.3237 13.5317 22.3331C13.5317 22.3424 13.5317 22.3518 13.5317 22.3611C13.5317 22.3704 13.5317 22.3798 13.5317 22.3891C13.5317 22.3984 13.5317 22.4078 13.5317 22.4171C13.5317 22.4265 13.5317 22.4358 13.5317 22.4451C13.5317 22.4545 13.5317 22.4638 13.5317 22.4732C13.5317 22.4825 13.5317 22.4918 13.5317 22.5012C13.5317 22.5105 13.5317 22.5198 13.5317 22.5292C13.5317 22.5385 13.5317 22.5479 13.5317 22.5572C13.5317 22.5665 13.5317 22.5759 13.5317 22.5852C13.5317 22.5945 13.5317 22.6039 13.5317 22.6132C13.5317 22.6226 13.5317 22.6319 13.5317 22.6412C13.5317 22.6506 13.5317 22.6599 13.5317 22.6692C13.5317 22.6786 13.5317 22.6879 13.5317 22.6972C13.5317 22.7066 13.5317 22.7159 13.5317 22.7253C13.5317 22.7346 13.5317 22.7439 13.5317 22.7533C13.5317 22.7626 13.5317 22.7719 13.5317 22.7813C13.5317 22.7906 13.5317 22.7999 13.5317 22.8093C13.5317 22.8186 13.5317 22.8279 13.5317 22.8373C13.5317 22.8466 13.5317 22.8559 13.5317 22.8653C13.5317 22.8746 13.5317 22.8839 13.5317 22.8933C13.5317 22.9026 13.5317 22.9119 13.5317 22.9213C13.5317 22.9306 13.5317 22.9399 13.5317 22.9493C13.5317 22.9586 13.5317 22.9679 13.5317 22.9773C13.5317 22.9866 13.5317 22.9959 13.5317 23.0053C13.5317 23.0146 13.5317 23.0239 13.5317 23.0333C13.5317 23.0426 13.5317 23.0519 13.5317 23.0613C13.5317 23.0706 13.5317 23.0799 13.5317 23.0893C13.5317 23.0986 13.5317 23.1079 13.5317 23.1172C13.5317 23.1266 13.5317 23.1359 13.5317 23.1452C13.5317 23.1546 13.5317 23.1639 13.5317 23.1732C13.5317 23.1825 13.5317 23.1919 13.5317 23.2012C13.5317 23.2105 13.5317 23.2199 13.5317 23.2292C13.5317 23.2385 13.5317 23.2478 13.5317 23.2572C13.5317 23.2665 13.5317 23.2758 13.5317 23.2851C13.5317 23.2945 13.5317 23.3038 13.5317 23.3131C13.5317 23.3225 13.5317 23.3318 13.5317 23.3411C13.5317 23.3504 13.5317 23.3598 13.5317 23.3691C13.5317 23.3784 13.5317 23.3877 13.5317 23.3971C13.5317 23.4064 13.5317 23.4157 13.5317 23.425C13.5317 23.4343 13.5317 23.4437 13.5317 23.453C13.5317 23.4623 13.5317 23.4716 13.5317 23.481C13.5317 23.4903 13.5317 23.4996 13.5317 23.5089C13.5317 23.5182 13.5317 23.5276 13.5317 23.5369C13.5317 23.5462 13.5317 23.5555 13.5317 23.5648C13.5317 23.5742 13.5317 23.5835 13.5317 23.5928C13.5317 23.6021 13.5317 23.6114 13.5317 23.6207C13.5317 23.6301 13.5317 23.6394 13.5317 23.6487C13.5317 23.658 13.5317 23.6673 13.5317 23.6766C13.5317 23.686 13.5317 23.6953 13.5317 23.7046C13.5317 23.7139 13.5317 23.7232 13.5317 23.7325C13.5317 23.7419 13.5317 23.7512 13.5317 23.7605C13.5317 23.7698 13.5317 23.7791 13.5317 23.7884C13.5317 23.7977 13.5317 23.807 13.5317 23.8164C13.5317 23.8257 13.5317 23.835 13.5317 23.8443C13.5317 23.8536 13.5317 23.8629 13.5317 23.8722C13.5317 23.8815 13.5317 23.8908 13.5317 23.9001C13.5317 23.9095 13.5317 23.9188 13.5317 23.9281C13.5317 23.9374 13.5317 23.9467 13.5317 23.956C13.5317 23.9653 13.5317 23.9746 13.5317 23.9839C13.5317 23.9932 13.5317 24.0025 13.5317 24.0118C13.5317 24.0211 13.5317 24.0304 13.5317 24.0397C13.5317 24.049 13.5317 24.0583 13.5317 24.0676C13.5317 24.0769 13.5317 24.0862 13.5317 24.0955C13.5317 24.1048 13.5317 24.1141 13.5317 24.1234C13.5317 24.1327 13.5317 24.142 13.5317 24.1513C13.5317 24.1606 13.5317 24.1699 13.5317 24.1792C13.5317 24.1885 13.5317 24.1978 13.5317 24.2071C13.5317 24.2164 13.5317 24.2257 13.5317 24.235C13.5317 24.2443 13.5317 24.2536 13.5317 24.2629C13.5317 24.2722 13.5317 24.2815 13.5317 24.2908C13.5317 24.3001 13.5317 24.3094 13.5317 24.3187C13.5317 24.328 13.5317 24.3373 13.5317 24.3465C13.5317 24.3558 13.5317 24.3651 13.5317 24.3744C13.5317 24.3837 13.5317 24.393 13.5317 24.4023C13.5317 24.4116 13.5317 24.4209 13.5317 24.4301C13.5317 24.4394 13.5317 24.4487 13.5317 24.458C13.5317 24.4673 13.5317 24.4766 13.5317 24.4859C13.5317 24.4951 13.5317 24.5044 13.5317 24.5137C13.5317 24.523 13.5317 24.5323 13.5317 24.5416C13.5317 24.5508 13.5317 24.5601 13.5317 24.5694C13.5317 24.5787 13.5317 24.588 13.5317 24.5972C13.5317 24.6065 13.5317 24.6158 13.5317 24.6251C13.5317 24.6343 13.5317 24.6436 13.5317 24.6529C13.5317 24.6622 13.5317 24.6714 13.5317 24.6807C13.5317 24.69 13.5317 24.6993 13.5317 24.7085C13.5317 24.7178 13.5317 24.7271 13.5317 24.7364C13.5317 24.7456 13.5317 24.7549 13.5317 24.7642C13.5317 24.7734 13.5317 24.7827 13.5317 24.792C13.5317 24.8013 13.5317 24.8105 13.5317 24.8198C13.5317 24.8291 13.5317 24.8383 13.5317 24.8476C13.5317 24.8569 13.5317 24.8661 13.5317 24.8754C13.5317 24.8846 13.5317 24.8939 13.5317 24.9032C13.5317 24.9124 13.5317 24.9217 13.5317 24.931C13.5317 24.9402 13.5317 24.9495 13.5317 24.9587C13.5317 24.968 13.5317 24.9773 13.5317 24.9865C13.5317 24.9958 13.5317 25.005 13.5317 25.0143C13.5317 25.0235 13.5317 25.0328 13.5317 25.042C13.5317 25.0513 13.5317 25.0606 13.5317 25.0698C13.5317 25.0791 13.5317 25.0883 13.5317 25.0976C13.5317 25.1068 13.5317 25.1161 13.5317 25.1253C13.5317 25.1346 13.5317 25.1438 13.5317 25.1531C13.5317 25.1623 13.5317 25.1716 13.5317 25.1808C13.5317 25.1901 13.5317 25.1993 13.5317 25.2085C13.5317 25.2178 13.5317 25.227 13.5317 25.2363C13.5317 25.2455 13.5317 25.2548 13.5317 25.264C13.5317 25.2732 13.5317 25.2825 13.5317 25.2917C13.5317 25.301 13.5317 25.3102 13.5317 25.3194C13.5317 25.3287 13.5317 25.3379 13.5317 25.3471C13.5317 25.3564 13.5317 25.3656 13.5317 25.3748C13.5317 25.3841 13.5317 25.3933 13.5317 25.4025C13.5317 25.4118 13.5317 25.421 13.5317 25.4302C13.5317 25.4395 13.5317 25.4487 13.5317 25.4579C13.5317 25.4671 13.5317 25.4764 13.5317 25.4856C13.5317 25.4948 13.5317 25.5041 13.5317 25.5133C13.5317 25.5225 13.5317 25.5317 13.5317 25.5409C13.5317 25.5502 13.5317 25.5594 13.5317 25.5686C13.5317 25.5778 13.5317 25.5871 13.5317 25.5963C13.5317 25.6055 13.5317 25.6147 13.5317 25.6239C13.5317 25.6331 13.5317 25.6424 13.5317 25.6516C13.5317 25.6608 13.5317 25.67 13.5317 25.6792C13.5317 25.6884 13.5317 25.6976 13.5317 25.7068C13.5317 25.7161 13.5317 25.7253 13.5317 25.7345C13.5317 25.7437 13.5317 25.7529 13.5317 25.7621C13.5317 25.7713 13.5317 25.7805 13.5317 25.7897C13.5317 25.7989 13.5317 25.8081 13.5317 25.8173C13.5317 25.8265 13.5317 25.8357 13.5317 25.8449C13.5317 25.8541 13.5317 25.8633 13.5317 25.8725C13.5317 25.8817 13.5317 25.8909 13.5317 25.9001C13.5317 25.9093 13.5317 25.9185 13.5317 25.9277C13.5317 25.9369 13.5317 25.9461 13.5317 25.9553C13.5317 25.9645 13.5317 25.9737 13.5317 25.9828C13.5317 25.992 13.5317 26.0012 13.5317 26.0104C13.5317 26.0196 13.5317 26.0288 13.5317 26.038C13.5317 26.0471 13.5317 26.0563 13.5317 26.0655C13.5317 26.0747 13.5317 26.0839 13.5317 26.0931C13.5317 26.1022 13.5317 26.1114 13.5317 26.1206C13.5317 26.1298 13.5317 26.139 13.5317 26.1481C13.5317 26.1573 13.5317 26.1665 13.5317 26.1757C13.5317 26.1848 13.5317 26.194 13.5317 26.2032C13.5317 26.2123 13.5317 26.2215 13.5317 26.2307C13.5317 26.2398 13.5317 26.249 13.5317 26.2582C13.5317 26.2673 13.5317 26.2765 13.5317 26.2857C13.5317 26.2948 13.5317 26.304 13.5317 26.3132C13.5317 26.3223 13.5317 26.3315 13.5317 26.3406C13.5317 26.3498 13.5317 26.359 13.5317 26.3681C13.5317 26.3773 13.5317 26.3864 13.5317 26.3956C13.5317 26.4047 13.5317 26.4139 13.5317 26.4231C13.5317 26.4322 13.5317 26.4414 13.5317 26.4505C13.5317 26.4597 13.5317 26.4688 13.5317 26.4779C13.5317 26.4871 13.5317 26.4962 13.5317 26.5054C13.5317 26.5145 13.5317 26.5237 13.5317 26.5328C13.5317 26.542 13.5317 26.5511 13.5317 26.5602C13.5317 26.5694 13.5317 26.5785 13.5317 26.5877C13.5317 26.5968 13.5317 26.6059 13.5317 26.6151C13.5317 26.6242 13.5317 26.6333 13.5317 26.6425C13.5317 26.6516 13.5317 26.6607 13.5317 26.6699C13.5317 26.679 13.5317 26.6881 13.5317 26.6972C13.5317 26.7064 13.5317 26.7155 13.5317 26.7246C13.5317 26.7337 13.5317 26.7429 13.5317 26.752C13.5317 26.7611 13.5317 26.7702 13.5317 26.7793C13.5317 26.7885 13.5317 26.7976 13.5317 26.8067C13.5317 26.8158 13.5317 26.8249 13.5317 26.834C13.5317 26.8432 13.5317 26.8523 13.5317 26.8614C13.5317 26.8705 13.5317 26.8796 13.5317 26.8887C13.5317 26.8978 13.5317 26.9069 13.5317 26.916C13.5317 26.9251 13.5317 26.9342 13.5317 26.9433C13.5317 26.9524 13.5317 26.9615 13.5317 26.9706C13.5317 26.9797 13.5317 26.9888 13.5317 26.9979C13.5317 27.007 13.5317 27.0161 13.5317 27.0252C13.5317 27.0343 13.5317 27.0434 13.5317 27.0525C13.5317 27.0616 13.5317 27.0707 13.5317 27.0798C13.5317 27.0889 13.5317 27.098 13.5317 27.107C13.5317 27.1161 13.5317 27.1252 13.5317 27.1343C13.5317 27.1434 13.5317 27.1525 13.5317 27.1615C13.5317 27.1706 13.5317 27.1797 13.5317 27.1888C13.5317 27.1978 13.5317 27.2069 13.5317 27.216C13.5317 27.2251 13.5317 27.2341 13.5317 27.2432C13.5317 27.2523 13.5317 27.2614 13.5317 27.2704C13.5317 27.2795 13.5317 27.2886 13.5317 27.2976C13.5317 27.3067 13.5317 27.3158 13.5317 27.3248C13.5317 27.3339 13.5317 27.3429 13.5317 27.352C13.5317 27.3611 13.5317 27.3701 13.5317 27.3792C13.5317 27.3882 13.5317 27.3973 13.5317 27.4063C13.5317 27.4154 13.5317 27.4244 13.5317 27.4335C13.5317 27.4426 13.5317 27.4516 13.5317 27.4606C13.5317 27.4697 13.5317 27.4787 13.5317 27.4878C13.5317 27.4968 13.5317 27.5059 13.5317 27.5149C13.5317 27.524 13.5317 27.533 13.5317 27.542C13.5317 27.5511 13.5317 27.5601 13.5317 27.5691C13.5317 27.5782 13.5317 27.5872 13.5317 27.5962C13.5317 27.6053 13.5317 27.6143 13.5317 27.6233C13.5317 27.6324 13.5317 27.6414 13.5317 27.6504C13.5317 27.6594 13.5317 27.6685 13.5317 27.6775C13.5317 27.6865 13.5317 27.6955 13.5317 27.7045C13.5317 27.7136 13.5317 27.7226 13.5317 27.7316C13.5317 27.7406 13.5317 27.7496 13.5317 27.7586C13.5317 27.7677 13.5317 27.7767 13.5317 27.7857C13.5317 27.7947 13.5317 27.8037 13.5317 27.8127C13.5317 27.8217 13.5317 27.8307 13.5317 27.8397C13.5317 27.8487 13.5317 27.8577 13.5317 27.8667C13.5317 27.8757 13.5317 27.8847 13.5317 27.8937C13.5317 27.9027 13.5317 27.9117 13.5317 27.9207C13.5317 27.9297 13.5317 27.9387 13.5317 27.9477C13.5317 27.9567 13.5317 27.9657 13.5317 27.9746C13.5317 27.9836 13.5317 27.9926 13.5317 28.0016C13.5317 28.0106 13.5317 28.0196 13.5317 28.0285C13.5317 28.0375 13.5317 28.0465 13.5317 28.0555C13.5317 28.0644 13.5317 28.0734 13.5317 28.0824C13.5317 28.0914 13.5317 28.1003 13.5317 28.1093C13.5317 28.1183 13.5317 28.1272 13.5317 28.1362C13.5317 28.1452 13.5317 28.1541 13.5317 28.1631C13.5317 28.1721 13.5317 28.181 13.5317 28.19C13.5317 28.1989 13.5317 28.2079 13.5317 28.2169C13.5317 28.2258 13.5317 28.2348 13.5317 28.2437C13.5317 28.2527 13.5317 28.2616 13.5317 28.2706C13.5317 28.2795 13.5317 28.2885 13.5317 28.2974C13.5317 28.3064 13.5317 28.3153 13.5317 28.3242C13.5317 28.3332 13.5317 28.3421 13.5317 28.3511C13.5317 28.36 13.5317 28.3689 13.5317 28.3779C13.5317 28.3868 13.5317 28.3957 13.5317 28.4047H13.7317ZM13.7317 14.3412C13.7317 14.1497 13.8873 13.9941 14.0788 13.9941V13.7941C13.7769 13.7941 13.5317 14.0393 13.5317 14.3412H13.7317ZM14.0788 13.9941H18.0744V13.7941H14.0788V13.9941ZM18.0744 13.9941C18.2658 13.9941 18.4214 14.1497 18.4214 14.3412H18.6214C18.6214 14.0392 18.3762 13.7941 18.0744 13.7941V13.9941ZM18.4214 14.3412V28.4047H18.6214V14.3412H18.4214ZM31.4641 27.3337C31.4641 27.5085 31.329 27.6436 31.1542 27.6436V27.8436C31.4395 27.8436 31.6641 27.619 31.6641 27.3337H31.4641ZM31.1542 27.6436H19.4155V27.8436H31.1542V27.6436ZM19.5155 27.7436V15.0008H19.3155V27.7436H19.5155ZM19.4155 15.1008H31.1542V14.9008H19.4155V15.1008ZM31.1542 15.1008C31.3252 15.1008 31.4641 15.2399 31.4641 15.4103H31.6641C31.6641 15.1293 31.4356 14.9008 31.1542 14.9008V15.1008ZM31.4641 15.4103V27.3337H31.6641V15.4103H31.4641Z" fill="#1B438B"/>
</g>
<path id="Path 1626" fill-rule="evenodd" clip-rule="evenodd" d="M29.5358 16.392H21.3007C21.0535 16.392 20.8536 16.5919 20.8536 16.8391V19.8379C20.8536 20.085 21.0535 20.2849 21.3007 20.2849H29.5358C29.7829 20.2849 29.9829 20.085 29.9829 19.8379V16.8391C29.9829 16.5919 29.7829 16.392 29.5358 16.392ZM29.0888 19.3908H21.7477V17.2861H29.0888V19.3908Z" fill="#1B438B"/>
<path id="Path 1627" fill-rule="evenodd" clip-rule="evenodd" d="M23.1806 21.524H22.1097C21.8626 21.524 21.6626 21.7476 21.6626 22.024C21.6626 22.3003 21.8626 22.524 22.1097 22.524H23.1806C23.4277 22.524 23.6277 22.3003 23.6277 22.024C23.6277 21.7476 23.4277 21.524 23.1806 21.524Z" fill="#1B438B"/>
<path id="Path 1628" fill-rule="evenodd" clip-rule="evenodd" d="M25.9546 21.524H24.8837C24.6365 21.524 24.4366 21.7476 24.4366 22.024C24.4366 22.3003 24.6365 22.524 24.8837 22.524H25.9546C26.2017 22.524 26.4017 22.3003 26.4017 22.024C26.4017 21.7476 26.2017 21.524 25.9546 21.524Z" fill="#1B438B"/>
<path id="Path 1629" fill-rule="evenodd" clip-rule="evenodd" d="M28.7276 21.524H27.6567C27.4096 21.524 27.2096 21.7476 27.2096 22.024C27.2096 22.3003 27.4096 22.524 27.6567 22.524H28.7276C28.9747 22.524 29.1747 22.3003 29.1747 22.024C29.1747 21.7476 28.9747 21.524 28.7276 21.524Z" fill="#1B438B"/>
<path id="Path 1630" fill-rule="evenodd" clip-rule="evenodd" d="M23.1806 23.594H22.1097C21.8626 23.594 21.6626 23.8177 21.6626 24.094C21.6626 24.3703 21.8626 24.594 22.1097 24.594H23.1806C23.4277 24.594 23.6277 24.3703 23.6277 24.094C23.6277 23.8177 23.4277 23.594 23.1806 23.594Z" fill="#1B438B"/>
<path id="Path 1631" fill-rule="evenodd" clip-rule="evenodd" d="M25.9546 23.594H24.8837C24.6365 23.594 24.4366 23.8177 24.4366 24.094C24.4366 24.3703 24.6365 24.594 24.8837 24.594H25.9546C26.2017 24.594 26.4017 24.3703 26.4017 24.094C26.4017 23.8177 26.2017 23.594 25.9546 23.594Z" fill="#1B438B"/>
<path id="Path 1632" fill-rule="evenodd" clip-rule="evenodd" d="M28.7276 23.594H27.6567C27.4096 23.594 27.2096 23.8177 27.2096 24.094C27.2096 24.3703 27.4096 24.594 27.6567 24.594H28.7276C28.9747 24.594 29.1747 24.3703 29.1747 24.094C29.1747 23.8177 28.9747 23.594 28.7276 23.594Z" fill="#1B438B"/>
<path id="Path 1633" fill-rule="evenodd" clip-rule="evenodd" d="M23.1806 25.665H22.1097C21.8626 25.665 21.6626 25.8887 21.6626 26.165C21.6626 26.4414 21.8626 26.665 22.1097 26.665H23.1806C23.4277 26.665 23.6277 26.4414 23.6277 26.165C23.6277 25.8887 23.4277 25.665 23.1806 25.665Z" fill="#1B438B"/>
<path id="Path 1634" fill-rule="evenodd" clip-rule="evenodd" d="M25.9546 25.665H24.8837C24.6365 25.665 24.4366 25.8887 24.4366 26.165C24.4366 26.4414 24.6365 26.665 24.8837 26.665H25.9546C26.2017 26.665 26.4017 26.4414 26.4017 26.165C26.4017 25.8887 26.2017 25.665 25.9546 25.665Z" fill="#1B438B"/>
<path id="Path 1635" fill-rule="evenodd" clip-rule="evenodd" d="M28.7276 25.665H27.6567C27.4096 25.665 27.2096 25.8887 27.2096 26.165C27.2096 26.4414 27.4096 26.665 27.6567 26.665H28.7276C28.9747 26.665 29.1747 26.4414 29.1747 26.165C29.1747 25.8887 28.9747 25.665 28.7276 25.665Z" fill="#1B438B"/>
</g>
</g>
</svg>
