<svg xmlns="http://www.w3.org/2000/svg" xmlns:xlink="http://www.w3.org/1999/xlink" width="30" height="30" viewBox="0 0 30 30"><defs><clipPath id="b"><rect width="30" height="30"/></clipPath></defs><g id="a" clip-path="url(#b)"><g transform="translate(5.714 3.672)"><path d="M17.944,14.662a.251.251,0,0,0-.25.25v1.9a.25.25,0,0,0,.5,0v-1.9A.252.252,0,0,0,17.944,14.662Zm-2,0a.251.251,0,0,0-.25.25v1.9a.25.25,0,0,0,.5,0v-1.9A.252.252,0,0,0,15.946,14.662Zm-10.559-.1a1.248,1.248,0,1,0,1.249,1.249A1.25,1.25,0,0,0,5.387,14.563Zm.529,1.779a.749.749,0,1,1,.221-.529A.747.747,0,0,1,5.917,16.342Zm12.028-1.68a.251.251,0,0,0-.25.25v1.9a.25.25,0,0,0,.5,0v-1.9A.252.252,0,0,0,17.944,14.662Zm-2,0a.251.251,0,0,0-.25.25v1.9a.25.25,0,0,0,.5,0v-1.9A.252.252,0,0,0,15.946,14.662Zm-2,0a.251.251,0,0,0-.25.25v1.9a.249.249,0,0,0,.5,0v-1.9A.251.251,0,0,0,13.948,14.662Zm-5.062-.1a1.248,1.248,0,1,0,1.248,1.249A1.25,1.25,0,0,0,8.885,14.563Zm.529,1.779a.75.75,0,1,1,.22-.529A.747.747,0,0,1,9.415,16.342ZM5.387,14.563a1.248,1.248,0,1,0,1.249,1.249A1.25,1.25,0,0,0,5.387,14.563Zm.529,1.779a.749.749,0,1,1,.221-.529A.747.747,0,0,1,5.917,16.342ZM18.443,13.1H17.2l.985-8.56c0-.027,0-.054.005-.081a.722.722,0,0,0-1.428-.148L14.931,13.1H7.4L5.564,4.309a.721.721,0,0,0-1.426.148c0,.027,0,.056.005.083L5.128,13.1H3.89A1.25,1.25,0,0,0,2.64,14.347v2.931A1.248,1.248,0,0,0,3.89,18.526h.466v.418a.75.75,0,0,0,.749.749H6.738a.752.752,0,0,0,.749-.749v-.418h7.359v.418a.752.752,0,0,0,.749.749h1.633a.75.75,0,0,0,.749-.749v-.418h.466a1.248,1.248,0,0,0,1.249-1.248V14.347A1.25,1.25,0,0,0,18.443,13.1ZM17.257,4.411a.221.221,0,0,1,.437.045.111.111,0,0,1,0,.025L16.7,13.1H15.442ZM4.64,4.483a.136.136,0,0,1,0-.027.221.221,0,0,1,.437-.045L6.891,13.1H5.632Zm2.346,14.46a.249.249,0,0,1-.248.248H5.1a.249.249,0,0,1-.25-.248v-.418H6.986v.418Zm10.492,0a.249.249,0,0,1-.25.248H15.595a.249.249,0,0,1-.248-.248v-.418h2.132v.418Zm1.714-1.665a.75.75,0,0,1-.749.749H3.89a.75.75,0,0,1-.749-.749V14.347A.751.751,0,0,1,3.89,13.6H18.443a.751.751,0,0,1,.749.751v2.931Zm-1.248-2.616a.251.251,0,0,0-.25.25v1.9a.25.25,0,0,0,.5,0v-1.9A.252.252,0,0,0,17.944,14.662Zm-2,0a.251.251,0,0,0-.25.25v1.9a.25.25,0,0,0,.5,0v-1.9A.252.252,0,0,0,15.946,14.662Zm-2,0a.251.251,0,0,0-.25.25v1.9a.249.249,0,0,0,.5,0v-1.9A.251.251,0,0,0,13.948,14.662Zm-5.062-.1a1.248,1.248,0,1,0,1.248,1.249A1.25,1.25,0,0,0,8.885,14.563Zm.529,1.779a.75.75,0,1,1,.22-.529A.747.747,0,0,1,9.415,16.342ZM5.387,14.563a1.248,1.248,0,1,0,1.249,1.249A1.25,1.25,0,0,0,5.387,14.563Zm.529,1.779a.749.749,0,1,1,.221-.529A.747.747,0,0,1,5.917,16.342Zm8.031-1.68a.251.251,0,0,0-.25.25v1.9a.249.249,0,0,0,.5,0v-1.9A.251.251,0,0,0,13.948,14.662ZM15.764,4.545a6.5,6.5,0,0,0-9.2,0,.247.247,0,0,0,0,.353.25.25,0,0,0,.353,0,6,6,0,0,1,8.49,0,.249.249,0,1,0,.353-.353ZM13.058,7.252a2.677,2.677,0,0,0-3.784,0,.25.25,0,1,0,.351.356l0,0a2.173,2.173,0,0,1,3.075,0,.253.253,0,0,0,.176.074.251.251,0,0,0,.178-.427ZM14.412,5.9a4.59,4.59,0,0,0-6.492,0,.248.248,0,0,0,0,.353.252.252,0,0,0,.355,0,4.089,4.089,0,0,1,5.782,0,.253.253,0,0,0,.176.074.251.251,0,0,0,.178-.427ZM8.885,14.563a1.248,1.248,0,1,0,1.248,1.249A1.25,1.25,0,0,0,8.885,14.563Zm.529,1.779a.75.75,0,1,1,.22-.529A.747.747,0,0,1,9.415,16.342Zm1.752-7.973A.833.833,0,1,0,12,9.2.828.828,0,0,0,11.166,8.368Zm0,1.167A.333.333,0,1,1,11.5,9.2.333.333,0,0,1,11.166,9.535Z" transform="translate(-2.042 0)" fill="#94afd8" stroke="#94afd8" stroke-width="0.15"/></g></g></svg>