<svg xmlns="http://www.w3.org/2000/svg" xmlns:xlink="http://www.w3.org/1999/xlink" width="30" height="30" viewBox="0 0 30 30"><defs><clipPath id="b"><rect width="30" height="30"/></clipPath></defs><g id="a" clip-path="url(#b)"><g transform="translate(0.003)"><g transform="translate(4.051 -41.456)"><g transform="translate(1.949 48.456)"><path d="M52.172,49.664v3.708a4.394,4.394,0,0,1-.007.578c.007-.049.013-.1.02-.145a.731.731,0,0,1-.047.163l.054-.131a.945.945,0,0,1-.051.094c-.051.087.033-.047.036-.044s-.036.04-.04.044l-.034.033c-.042.044.116-.076.044-.034a1.171,1.171,0,0,1-.1.056l.131-.054a.731.731,0,0,1-.163.047l.145-.02a2.077,2.077,0,0,1-.281.007H50.685l.544.544V51.718a.551.551,0,0,0-.544-.544H40.056c-.488,0-.975-.007-1.463,0h-.02a.551.551,0,0,0-.544.544V54.51l.544-.544H37.385a2.077,2.077,0,0,1-.281-.007l.145.02a.731.731,0,0,1-.163-.047l.131.054a.944.944,0,0,1-.094-.051c-.087-.051.047.033.044.036s-.04-.036-.044-.04L37.09,53.9c-.044-.042.076.116.034.044a1.167,1.167,0,0,1-.056-.1l.054.131a.731.731,0,0,1-.047-.163c.007.049.013.1.02.145a3.7,3.7,0,0,1-.007-.491v-3.31a4.562,4.562,0,0,1,.007-.589c-.007.049-.013.1-.02.145a.731.731,0,0,1,.047-.163l-.054.131a.942.942,0,0,1,.051-.094c.051-.087-.033.047-.036.044s.036-.04.04-.044l.034-.033c.042-.044-.116.076-.044.034a1.17,1.17,0,0,1,.1-.056l-.131.054a.731.731,0,0,1,.163-.047l-.145.02a3.828,3.828,0,0,1,.479-.007h14.45a.884.884,0,0,1,.12.007l-.145-.02a.731.731,0,0,1,.163.047l-.131-.054a.941.941,0,0,1,.094.051c.087.051-.047-.033-.044-.036s.04.036.044.04l.033.034c.044.042-.076-.116-.034-.044a1.169,1.169,0,0,1,.056.1l-.054-.131a.731.731,0,0,1,.047.163c-.007-.049-.013-.1-.02-.145a.6.6,0,0,1,.009.1.544.544,0,0,0,1.088,0,1.246,1.246,0,0,0-.328-.827,1.208,1.208,0,0,0-.778-.373,1.359,1.359,0,0,0-.149-.007H37.222a1.256,1.256,0,0,0-.825.314,1.22,1.22,0,0,0-.4.926v4.132a1.236,1.236,0,0,0,.544,1.03,1.418,1.418,0,0,0,.843.2h1.188a.551.551,0,0,0,.544-.544V51.722l-.544.544H49.2c.488,0,.975.011,1.463,0h.02l-.544-.544v2.792a.551.551,0,0,0,.544.544H52a1.227,1.227,0,0,0,1.135-.669,1.527,1.527,0,0,0,.129-.664V49.666a.545.545,0,0,0-1.09,0Z" transform="translate(-36 -48.456)" fill="#94afd8"/><g transform="translate(2.036 13.295)"><path d="M160.4,782.323V783.9a2.081,2.081,0,0,1-.007.281c.007-.049.013-.1.02-.145a.733.733,0,0,1-.047.163l.054-.131a.934.934,0,0,1-.051.094c-.051.087.033-.047.036-.044s-.036.04-.04.044l-.034.033c-.042.043.116-.076.044-.034a1.158,1.158,0,0,1-.1.056l.131-.054a.735.735,0,0,1-.163.047l.145-.02a2.743,2.743,0,0,1-.368.007h-10.5a.764.764,0,0,1-.112-.007l.145.02a.735.735,0,0,1-.163-.047l.131.054a.933.933,0,0,1-.094-.051c-.087-.051.047.033.044.036s-.04-.036-.044-.04l-.033-.034c-.044-.042.076.116.034.044a1.164,1.164,0,0,1-.056-.1l.054.131a.73.73,0,0,1-.047-.163c.007.049.013.1.02.145a4.892,4.892,0,0,1-.007-.653v-1.206H148.3a1.226,1.226,0,0,0,1.206,1.208h10.765a1.207,1.207,0,0,0,1.227-1.208.549.549,0,0,0-.544-.544.559.559,0,0,0-.549.546.89.89,0,0,1-.007.1c.007-.049.013-.1.02-.145a.732.732,0,0,1-.047.163l.054-.131a.946.946,0,0,1-.051.094c-.051.087.033-.047.036-.044s-.036.04-.04.044l-.034.033c-.042.043.116-.076.044-.034a1.064,1.064,0,0,1-.1.056l.131-.054a.735.735,0,0,1-.163.047l.145-.02a2.763,2.763,0,0,1-.368.007h-10.5a.755.755,0,0,1-.112-.007l.145.02a.735.735,0,0,1-.163-.047l.131.054a.975.975,0,0,1-.094-.051c-.087-.051.047.033.044.036s-.04-.036-.044-.04l-.033-.034c-.044-.042.076.116.034.044a1.185,1.185,0,0,1-.056-.1l.054.13a.728.728,0,0,1-.047-.163c.007.049.013.1.02.145a.923.923,0,0,1-.007-.1.544.544,0,1,0-1.088,0v1.664a1.37,1.37,0,0,0,.06.469,1.224,1.224,0,0,0,.852.8,1.76,1.76,0,0,0,.413.036h10.646a1.234,1.234,0,0,0,1.173-.843,2.817,2.817,0,0,0,.056-.89v-1.231a.55.55,0,0,0-1.1,0Z" transform="translate(-148.3 -781.776)" fill="#94afd8"/></g><g transform="translate(2.035 2.713)"><path d="M160.362,198.673v10.564a.776.776,0,0,1-.007.112c.007-.049.013-.1.02-.145a.732.732,0,0,1-.047.163l.054-.131a.936.936,0,0,1-.051.094c-.051.087.033-.047.036-.044s-.036.04-.04.044l-.034.033c-.042.044.116-.076.044-.034a1.173,1.173,0,0,1-.1.056l.131-.054a.731.731,0,0,1-.163.047l.145-.02a2.773,2.773,0,0,1-.368.007h-10.5a.764.764,0,0,1-.112-.007l.145.02a.731.731,0,0,1-.163-.047l.131.054a.936.936,0,0,1-.094-.051c-.087-.051.047.033.043.036s-.04-.036-.043-.04l-.033-.034c-.044-.042.076.116.034.044a1.167,1.167,0,0,1-.056-.1l.054.131a.733.733,0,0,1-.047-.163c.007.049.013.1.02.145a2.654,2.654,0,0,1-.007-.361v-9c0-.431.011-.865,0-1.3v-.018l-.544.544h10.63c.488,0,.975.007,1.463,0h.02a.544.544,0,1,0,0-1.088h-10.63c-.488,0-.975-.007-1.463,0h-.02a.551.551,0,0,0-.544.544v10.572a1.223,1.223,0,0,0,1.213,1.207h10.773a1.224,1.224,0,0,0,1.211-1.209c0-.247,0-.495,0-.742v-9.835a.55.55,0,0,0-.544-.544.562.562,0,0,0-.549.555Z" transform="translate(-148.256 -198.122)" fill="#94afd8"/></g><g transform="translate(8.093 5.778)"><path d="M482.4,367.721v5.5a.544.544,0,1,0,1.088,0v-5.5a.544.544,0,1,0-1.088,0Z" transform="translate(-482.4 -367.177)" fill="#94afd8"/></g><g transform="translate(5.5 5.78)"><path d="M340.3,370.791l.874-.874,1.394-1.394.323-.323h-.769l.872.872,1.4,1.4.319.319a.544.544,0,1,0,.769-.769l-.872-.872-1.4-1.4-.319-.319a.551.551,0,0,0-.769,0l-.874.874-1.394,1.394-.323.323a.544.544,0,0,0,.769.769Z" transform="translate(-339.372 -367.275)" fill="#94afd8"/></g></g></g></g></g></svg>