<svg width="12" height="12" viewBox="0 0 12 12" fill="none" xmlns="http://www.w3.org/2000/svg">
<g id="Group 723">
<path id="Ellipse 15" fill-rule="evenodd" clip-rule="evenodd" d="M6 12C9.31371 12 12 9.31371 12 6C12 2.68629 9.31371 0 6 0C2.68629 0 0 2.68629 0 6C0 9.31371 2.68629 12 6 12Z" fill="#E95D6A"/>
<g id="Group 724">
<path id="Path 1382" fill-rule="evenodd" clip-rule="evenodd" d="M5.92895 2.57104C6.27134 2.57104 6.5489 2.7777 6.5489 3.03263V7.18692C6.5489 7.44185 6.27134 7.64851 5.92895 7.64851C5.58656 7.64851 5.309 7.44185 5.309 7.18692V3.03263C5.309 2.7777 5.58656 2.57104 5.92895 2.57104Z" fill="white"/>
<path id="Ellipse 14" fill-rule="evenodd" clip-rule="evenodd" d="M6.00014 9.78533C6.47353 9.78533 6.85728 9.40157 6.85728 8.92819C6.85728 8.4548 6.47353 8.07104 6.00014 8.07104C5.52675 8.07104 5.143 8.4548 5.143 8.92819C5.143 9.40157 5.52675 9.78533 6.00014 9.78533Z" fill="white"/>
</g>
</g>
</svg>
