<svg xmlns="http://www.w3.org/2000/svg" xmlns:xlink="http://www.w3.org/1999/xlink" width="30" height="30" viewBox="0 0 30 30"><defs><clipPath id="b"><rect width="30" height="30"/></clipPath></defs><g id="a" clip-path="url(#b)"><rect width="30" height="30" fill="#fff"/><g transform="translate(-18.271 -95.782)"><g transform="translate(26.271 100.782)"><g transform="translate(0 2.606)"><path d="M231.624,215.466v6.157c0,.383,0,.768,0,1.151,0,.038,0,.078,0,.116,0,.019,0,.144,0,.066s-.009.045-.012.064l-.028.125a2.174,2.174,0,0,1-.069.21c-.028.078.045-.087-.007.017-.019.038-.038.076-.057.111a1.865,1.865,0,0,1-.116.184.362.362,0,0,0-.026.038c-.04.057.019-.014.017-.021,0,.014-.071.083-.08.095a1.856,1.856,0,0,1-.154.151c-.026.024-.057.047-.083.071s.033-.028.033-.026-.054.04-.064.045c-.059.04-.123.078-.187.113l-.1.05-.043.019c-.054.028.109-.04.012,0a2.211,2.211,0,0,1-.213.066l-.095.021a.6.6,0,0,1-.064.012c-.024,0-.1,0-.033.007s.019,0,0,0a.581.581,0,0,1-.066,0l-.1,0h-8.859c-.033,0-.066,0-.1,0l-.114-.009c-.054,0,.045.007.045.007-.026-.007-.054-.009-.08-.014-.073-.014-.147-.031-.218-.052-.035-.012-.071-.021-.1-.035-.014,0-.028-.012-.045-.017-.057-.017.09.043.012,0a2.157,2.157,0,0,1-.194-.1l-.092-.057c-.021-.014-.125-.08-.066-.045s-.028-.026-.047-.04-.054-.047-.08-.073a2.108,2.108,0,0,1-.156-.17c-.054-.061.054.08-.012-.014l-.061-.09a1.713,1.713,0,0,1-.113-.2.336.336,0,0,1-.019-.043c-.04-.083.009.026.012.026s-.035-.095-.038-.1a1.944,1.944,0,0,1-.064-.229l-.021-.111c-.009-.052.007.045.007.045a.292.292,0,0,0-.007-.064c0-.054-.007-.111-.007-.166v-7.008c0-.128,0-.255,0-.383,0-.078.007-.154.012-.232,0-.033,0-.066.009-.1a.293.293,0,0,1,.007-.064c-.009.012-.014.1,0,.028a3.962,3.962,0,0,1,.1-.47c.04-.142.087-.281.142-.421.031-.078-.038.083.007-.017.014-.033.031-.066.045-.1.033-.071.069-.139.106-.208a3.987,3.987,0,0,1,.239-.383l.064-.087c.035-.052-.057.071-.017.021l.028-.035c.05-.061.1-.118.151-.177a3.641,3.641,0,0,1,.319-.314c.054-.047.111-.095.165-.139s-.071.052.014-.012c.033-.024.066-.05.1-.073a3.977,3.977,0,0,1,.385-.234c.064-.035.13-.066.2-.1.033-.017.066-.028.1-.045s-.043.019-.04.017a.3.3,0,0,1,.073-.028,3.925,3.925,0,0,1,.437-.139c.073-.019.144-.035.218-.05l.111-.021.047-.007c.012,0,.111-.007.033,0s.043,0,.066-.007.076-.007.113-.009c.083,0,.165-.009.248-.009h4.932c.064,0,.13,0,.194,0s.154.009.229.017a.353.353,0,0,0,.05,0c.087.009-.021-.007-.028,0a.477.477,0,0,1,.128.019,3.586,3.586,0,0,1,.452.106c.071.021.142.045.21.069.035.012.069.026.1.038.014,0,.028.012.045.017.054.021-.092-.04-.012,0a4.165,4.165,0,0,1,.783.454.275.275,0,0,1,.05.038s-.073-.061-.035-.026.057.045.085.069c.059.05.118.1.175.156a4.474,4.474,0,0,1,.31.326l.069.083c.069.083-.038-.052.012.014s.092.125.135.191a4.281,4.281,0,0,1,.227.39c.033.066.064.132.095.2s-.035-.092.007.017c.014.035.026.069.04.1a3.7,3.7,0,0,1,.125.409c.019.073.033.147.047.22.007.038.014.073.019.111a.585.585,0,0,0,.009.064s-.012-.1-.007-.045a2.984,2.984,0,0,1,.038.48.473.473,0,0,0,.946,0,4.492,4.492,0,0,0-3.525-4.362,5.4,5.4,0,0,0-1.1-.1h-4.509a5.744,5.744,0,0,0-.78.035,4.478,4.478,0,0,0-1.913.69,4.528,4.528,0,0,0-2.01,3.376c-.04.449-.017.91-.017,1.359v5.1c0,.4,0,.8,0,1.2a2.5,2.5,0,0,0,.837,1.863,2.558,2.558,0,0,0,1.676.636c.39,0,.78,0,1.17,0h7.62a2.515,2.515,0,0,0,2.532-2.237,4.048,4.048,0,0,0,.017-.508v-7.046a.472.472,0,1,0-.943,0Z" transform="translate(-218.708 -211)" fill="#1b438b"/></g><g transform="translate(2.003 12.078)"><path d="M305.164,612.981c0,.024-.007.142,0,.066s-.012.04-.019.061a.263.263,0,0,1-.021.059c-.007,0,.057-.106.009-.028a.63.63,0,0,1-.064.106s.064-.071.026-.035c-.014.014-.026.031-.04.045s-.071.078-.078.073.1-.064.021-.019c-.014.007-.026.016-.04.024l-.054.028c-.045.031.08-.024.026-.012-.035.007-.071.021-.106.031-.092.026.033-.007.031,0s-.069,0-.064,0c-.038,0-.076,0-.116,0s.047,0,.045.007a.622.622,0,0,1-.078-.019l-.045-.014c-.09-.024.031.007.026.012a.56.56,0,0,1-.095-.052l-.014-.007c-.033-.024-.033-.024,0,0,.026,0,.031.028,0,0s-.059-.057-.088-.088c-.064-.066.021.021.017.024s-.035-.057-.033-.052c-.009-.017-.064-.123-.031-.054s-.012-.045-.017-.062-.007-.031-.012-.047c-.017-.054,0,.1,0,.014,0-.038,0-.076,0-.116.007-.121-.019.062,0-.017.009-.035.024-.071.031-.106.012-.059-.047.073-.012.026.014-.019.024-.047.038-.069a.363.363,0,0,0,.026-.038c.019-.054-.061.059-.019.021.026-.024.047-.054.073-.078a.408.408,0,0,0,.035-.031c.04-.043-.076.038-.021.019a.48.48,0,0,0,.106-.061c.045-.036-.085.019-.026.012.014,0,.031-.012.045-.014s.04-.01.061-.017c.05-.014.007-.012,0,0l-.031,0,.05,0,.05,0,.066,0c.087,0-.069-.019-.014,0a.766.766,0,0,0,.121.033c.054.007-.047-.009-.04-.019a.471.471,0,0,1,.069.035c.017.009.033.024.052.033.047.021-.078-.073-.009-.009.031.028.059.057.087.087.052.052-.026-.019-.017-.024a.5.5,0,0,1,.033.052c.009.017.019.036.031.054.04.066-.012-.028-.009-.028a.583.583,0,0,1,.04.137c.014.047,0-.042,0-.047a.5.5,0,0,0,0,.1.473.473,0,1,0,.946,0,1.375,1.375,0,0,0-.913-1.277,1.349,1.349,0,0,0-1.456.39,1.351,1.351,0,1,0,2.369.889.473.473,0,0,0-.946,0Z" transform="translate(-303.41 -611.629)" fill="#1b438b"/></g><g transform="translate(9.171 12.078)"><path d="M608.364,612.981c0,.024-.007.142,0,.066s-.012.04-.019.061a.255.255,0,0,1-.021.059c-.007,0,.057-.106.01-.028a.632.632,0,0,1-.064.106s.064-.071.026-.035c-.014.014-.026.031-.04.045s-.071.078-.078.073.1-.064.021-.019c-.014.007-.026.016-.04.024l-.054.028c-.045.031.08-.024.026-.012-.036.007-.071.021-.106.031-.092.026.033-.007.031,0s-.069,0-.064,0c-.038,0-.076,0-.116,0s.047,0,.045.007a.623.623,0,0,1-.078-.019l-.045-.014c-.09-.024.031.007.026.012a.554.554,0,0,1-.094-.052l-.014-.007c-.033-.024-.033-.024,0,0,.026,0,.031.028,0,0s-.059-.057-.087-.088c-.064-.066.021.021.016.024s-.035-.057-.033-.052c-.009-.017-.064-.123-.031-.054s-.012-.045-.017-.062-.007-.031-.012-.047c-.017-.054,0,.1,0,.014,0-.038,0-.076,0-.116.007-.121-.019.062,0-.017.01-.035.024-.071.031-.106.012-.059-.047.073-.012.026.014-.019.024-.047.038-.069a.333.333,0,0,0,.026-.038c.019-.054-.061.059-.019.021.026-.024.047-.054.073-.078a.407.407,0,0,0,.035-.031c.04-.043-.076.038-.021.019a.48.48,0,0,0,.106-.061c.045-.036-.085.019-.026.012.014,0,.031-.012.045-.014s.04-.01.062-.017c.05-.014.007-.012,0,0l-.031,0,.05,0,.05,0,.066,0c.088,0-.069-.019-.014,0a.767.767,0,0,0,.121.033c.054.007-.047-.009-.04-.019a.466.466,0,0,1,.069.035c.017.009.033.024.052.033.047.021-.078-.073-.009-.009.031.028.059.057.088.087.052.052-.026-.019-.017-.024a.534.534,0,0,1,.033.052c.009.017.019.036.031.054.04.066-.012-.028-.01-.028a.573.573,0,0,1,.04.137c.014.047,0-.042,0-.047a.5.5,0,0,0,0,.1.473.473,0,1,0,.946,0,1.375,1.375,0,0,0-.913-1.277,1.349,1.349,0,0,0-1.457.39,1.351,1.351,0,1,0,2.369.889.473.473,0,0,0-.946,0Z" transform="translate(-606.61 -611.629)" fill="#1b438b"/></g><g transform="translate(2.021 5.05)"><path d="M312.422,319.333h-4.71c-.624,0-1.246,0-1.87,0-.05,0-.1-.012-.149-.007.014,0,.111.024.031,0l-.061-.014a.587.587,0,0,1-.118-.038c0-.007.092.047.028.012l-.054-.028c-.014-.007-.132-.069-.13-.083s.09.08.024.017l-.045-.043a.7.7,0,0,1-.083-.09s.066.1.019.024a.393.393,0,0,1-.033-.052.786.786,0,0,1-.073-.137s.04.116.014.026c0-.019-.014-.04-.019-.059a.517.517,0,0,0-.028-.123c.007.009.009.116,0,.031a.583.583,0,0,0,0-.064v-.038c0-.333,0-.667,0-1v-1.442c0-.1,0-.2,0-.293a.578.578,0,0,1,0-.064c0-.076,0,.033,0,.031a1.254,1.254,0,0,1,.028-.123c0-.019.014-.04.019-.059.021-.071-.007.033-.014.026s.061-.121.073-.137a.387.387,0,0,0,.033-.052c.04-.061-.014.028-.019.024a.681.681,0,0,1,.083-.09l.045-.043c.052-.052-.024.024-.024.017s.1-.069.116-.076l.054-.028c.085-.047-.014,0-.014,0a.635.635,0,0,1,.118-.038l.061-.014c.073-.019-.033,0-.031,0s.116-.007.13-.007h6.5a1.078,1.078,0,0,1,.222.007c0,.01-.106-.021-.031,0,.026.007.052.012.076.019a.44.44,0,0,1,.059.019c.026.007.076.007.017,0s-.014-.007.014.007l.054.028c.012.007.118.061.116.076s-.076-.069-.024-.017l.045.043a.693.693,0,0,1,.083.09s-.061-.092-.009-.009a.392.392,0,0,1,.033.052.556.556,0,0,1,.064.123c-.007.007-.033-.1-.014-.026,0,.019.014.04.019.059a1.232,1.232,0,0,1,.028.123c-.007,0-.009-.106,0-.031,0,.021,0,.043,0,.064v2.773a.582.582,0,0,1,0,.064c0,.085,0-.021,0-.031a.517.517,0,0,0-.028.123c0,.019-.014.04-.019.059-.026.087.009-.031.014-.026a.78.78,0,0,1-.073.137.386.386,0,0,0-.033.052c-.05.076.017-.026.019-.024a.706.706,0,0,1-.083.09l-.045.043c-.066.064.024-.021.024-.017s-.092.062-.1.069a.539.539,0,0,1-.109.057s.106-.035.012-.007a.577.577,0,0,0-.059.019l-.061.014s-.009,0-.017,0c-.043.007-.043.007,0,0l.031,0-.047,0a.456.456,0,0,0-.08,0,.473.473,0,0,0,0,.946,1.631,1.631,0,0,0,1.608-1.622c0-.376,0-.752,0-1.128V316.12a2.192,2.192,0,0,0-.054-.567,1.607,1.607,0,0,0-.825-1.019,2.213,2.213,0,0,0-1.007-.177h-4.234c-.683,0-1.369,0-2.052,0a1.637,1.637,0,0,0-1.586,1.2,4.723,4.723,0,0,0-.054,1.17v1.936a1.657,1.657,0,0,0,.4,1.069,1.61,1.61,0,0,0,1.208.551h6.6a.473.473,0,1,0,0-.946Z" transform="translate(-304.207 -314.356)" fill="#1b438b"/></g><g transform="translate(0.194 15.934)"><g transform="translate(0 0)"><path d="M239.907,777.315H228.925c-.5,0-1.012-.019-1.516,0h-.021c.137.236.272.475.409.712l1.615-2.267.229-.322-.409.234h7.743c.357,0,.716.017,1.071,0h.014l-.409-.234,1.615,2.267.229.322a.485.485,0,0,0,.648.17.48.48,0,0,0,.17-.648c-.608-.854-1.213-1.714-1.825-2.563a.544.544,0,0,0-.433-.26c-.026,0-.052,0-.078,0H230c-.255,0-.511-.01-.766,0-.291.012-.421.243-.567.452-.18.251-.357.5-.537.754q-.543.762-1.088,1.525c-.021.031-.045.061-.066.092a.476.476,0,0,0,.409.712h10.982c.5,0,1.012.012,1.516,0h.021a.473.473,0,0,0,0-.946Z" transform="translate(-226.903 -774.722)" fill="#1b438b"/></g></g><g transform="translate(6.466)"><path d="M492.2,101.255v2.591a.477.477,0,0,0,.473.473.482.482,0,0,0,.473-.473v-2.591a.473.473,0,1,0-.946,0Z" transform="translate(-492.2 -100.782)" fill="#1b438b"/></g><g transform="translate(2.536 0.005)"><path d="M326.455,101.946h7.873a.473.473,0,0,0,0-.946h-7.873a.473.473,0,0,0,0,.946Z" transform="translate(-325.982 -101)" fill="#1b438b"/></g></g></g></g></svg>