<svg xmlns="http://www.w3.org/2000/svg" xmlns:xlink="http://www.w3.org/1999/xlink" width="30" height="30" viewBox="0 0 30 30"><defs><clipPath id="b"><rect width="30" height="30"/></clipPath></defs><g id="a" clip-path="url(#b)"><g transform="translate(0.501 -0.498)"><path d="M66.914,30.826v.825a3.2,3.2,0,0,1,0,6.381v.449h.31a.248.248,0,0,1,.249.249v2.79a.25.25,0,0,1-.249.249H66.1a.248.248,0,0,1-.249-.249V38.727a.248.248,0,0,1,.249-.249h.31v-.449a3.2,3.2,0,0,1,0-6.381v-.825a3.085,3.085,0,0,0-2.386,1.4.248.248,0,0,1-.421,0,3.161,3.161,0,0,0-3.685-1.238,3,3,0,0,0-.919.5.247.247,0,0,1-.4-.2v-.18a6.274,6.274,0,0,1,2.379-4.81,8.868,8.868,0,0,1,5.442-1.965v-1.39a.247.247,0,1,1,.494,0v1.393a8.834,8.834,0,0,1,5.438,1.969,6.259,6.259,0,0,1,2.374,5,.248.248,0,0,1-.4.188h0a3.173,3.173,0,0,0-4.6.735.248.248,0,0,1-.421,0,3.1,3.1,0,0,0-2.386-1.409Zm.065,8.15h-.625v2.292h.625Zm-1.842-4.281a.245.245,0,0,1,.425-.245l.588,1.017,2.035-2.035a.248.248,0,0,1,.351.351l-2.263,2.263h0a.246.246,0,0,1-.388-.053Zm3.44-1.765a2.7,2.7,0,1,0,0,3.824,2.7,2.7,0,0,0,0-3.824Zm-4.551-2.047a.248.248,0,0,1-.494-.033,9.177,9.177,0,0,1,2.647-5.838.247.247,0,0,1,.351.347,8.7,8.7,0,0,0-2.5,5.523Zm5.773-.029a.248.248,0,0,1-.494.033,8.666,8.666,0,0,0-2.5-5.523.247.247,0,0,1,.351-.347A9.156,9.156,0,0,1,69.8,30.854ZM66.71,24.828a8.366,8.366,0,0,0-5.41,1.855,5.839,5.839,0,0,0-2.19,4.147,3.674,3.674,0,0,1,4.714.846,3.666,3.666,0,0,1,5.691,0,3.669,3.669,0,0,1,4.715-.846,5.839,5.839,0,0,0-2.19-4.147,8.4,8.4,0,0,0-5.331-1.855Z" transform="translate(-52.1 -17.2)" fill="#94afd8" stroke="#94afd8" stroke-width="0.25"/></g></g></svg>