<svg id="select-biller-icon" xmlns="http://www.w3.org/2000/svg" width="14.42" height="14.492" viewBox="0 0 14.42 14.492">
  <g id="Group_491" data-name="Group 491">
    <path id="Path_1191" data-name="Path 1191" d="M94.469,102.022A1.022,1.022,0,0,0,93.447,101H92.022A1.022,1.022,0,0,0,91,102.022v1.425a1.022,1.022,0,0,0,1.022,1.022h1.425a1.022,1.022,0,0,0,1.022-1.022Z" transform="translate(-91 -101)" fill="#1b438b"/>
    <path id="Path_1192" data-name="Path 1192" d="M94.469,239.022A1.022,1.022,0,0,0,93.447,238H92.022A1.022,1.022,0,0,0,91,239.022v1.425a1.022,1.022,0,0,0,1.022,1.022h1.425a1.022,1.022,0,0,0,1.022-1.022Z" transform="translate(-91 -232.407)" fill="#1b438b"/>
    <path id="Path_1193" data-name="Path 1193" d="M94.469,372.022A1.022,1.022,0,0,0,93.447,371H92.022A1.022,1.022,0,0,0,91,372.022v1.425a1.022,1.022,0,0,0,1.022,1.022h1.425a1.022,1.022,0,0,0,1.022-1.022Z" transform="translate(-91 -359.977)" fill="#1b438b"/>
    <path id="Path_1194" data-name="Path 1194" d="M238.873,122.021A1.021,1.021,0,0,0,237.853,121h-6.832A1.021,1.021,0,0,0,230,122.021v0a1.021,1.021,0,0,0,1.021,1.021h6.832a1.021,1.021,0,0,0,1.021-1.021Z" transform="translate(-224.453 -120.27)" fill="#1b438b"/>
    <path id="Path_1195" data-name="Path 1195" d="M238.873,258.021A1.021,1.021,0,0,0,237.853,257h-6.832A1.021,1.021,0,0,0,230,258.021v0a1.021,1.021,0,0,0,1.021,1.021h6.832a1.021,1.021,0,0,0,1.021-1.021Z" transform="translate(-224.453 -250.716)" fill="#1b438b"/>
    <path id="Path_1196" data-name="Path 1196" d="M238.873,391.021A1.021,1.021,0,0,0,237.853,390h-6.832A1.021,1.021,0,0,0,230,391.021v0a1.021,1.021,0,0,0,1.021,1.021h6.832a1.021,1.021,0,0,0,1.021-1.021Z" transform="translate(-224.453 -378.283)" fill="#1b438b"/>
  </g>
</svg>
