<svg width="26" height="26" viewBox="0 0 26 26" fill="none" xmlns="http://www.w3.org/2000/svg">
<g id="Group 319">
<g id="home 1">
<mask id="mask0_0_1920" style="mask-type:luminance" maskUnits="userSpaceOnUse" x="0" y="0" width="26" height="26">
<path id="Rectangle 995" fill-rule="evenodd" clip-rule="evenodd" d="M0.5 0H25.6615V25.1615H0.5V0Z" fill="white"/>
</mask>
<g mask="url(#mask0_0_1920)">
<path id="Path 1039" fill-rule="evenodd" clip-rule="evenodd" d="M25.3939 10.225L13.467 1.49231C13.237 1.32394 12.9246 1.32394 12.6946 1.49231L0.767615 10.225C0.476295 10.4383 0.412995 10.8473 0.626325 11.1387C0.839655 11.43 1.24877 11.4932 1.54004 11.2799L13.0807 2.83005L24.6215 11.2799C24.7378 11.3652 24.8731 11.4062 25.0071 11.4062C25.2084 11.4062 25.4071 11.3136 25.5352 11.1386C25.7485 10.8473 25.6852 10.4383 25.3939 10.225V10.225Z" fill="#1B438B" stroke="#1B438B"/>
<path id="Path 1040" fill-rule="evenodd" clip-rule="evenodd" d="M22.2332 11.428C21.8722 11.428 21.5795 11.7207 21.5795 12.0817V22.4878H16.3495V16.8075C16.3495 15.0049 14.883 13.5384 13.0805 13.5384C11.278 13.5384 9.8115 15.005 9.8115 16.8075V22.4879H4.58149V12.0818C4.58149 11.7207 4.28874 11.428 3.92774 11.428C3.56673 11.428 3.27399 11.7207 3.27399 12.0818V23.1416C3.27399 23.5027 3.56674 23.7954 3.92774 23.7954H10.4653C10.8091 23.7954 11.0904 23.5298 11.1165 23.1926C11.1181 23.1773 11.119 23.1606 11.119 23.1416V16.8076C11.119 15.726 11.999 14.846 13.0805 14.846C14.1621 14.846 15.0421 15.726 15.0421 16.8076V23.1416C15.0421 23.1604 15.043 23.1769 15.0446 23.192C15.0703 23.5295 15.3518 23.7954 15.6958 23.7954H22.2333C22.5944 23.7954 22.8871 23.5027 22.8871 23.1417V12.0818C22.887 11.7207 22.5943 11.428 22.2332 11.428H22.2332Z" fill="#1B438B" stroke="#1B438B"/>
</g>
</g>
</g>
</svg>
