<svg width="61" height="61" viewBox="0 0 61 61" fill="none" xmlns="http://www.w3.org/2000/svg">
<g id="Group 767">
<g id="Group 918">
<g id="Ellipse 18" filter="url(#filter0_d_0_4275)">
<path fill-rule="evenodd" clip-rule="evenodd" d="M30.5 52C44.031 52 55 41.031 55 27.5C55 13.969 44.031 3 30.5 3C16.969 3 6 13.969 6 27.5C6 41.031 16.969 52 30.5 52Z" fill="#1B438B"/>
</g>
<g id="Group 917">
<mask id="mask0_0_4275" style="mask-type:luminance" maskUnits="userSpaceOnUse" x="19" y="16" width="23" height="23">
<path id="Rectangle 1041" fill-rule="evenodd" clip-rule="evenodd" d="M19 16H42V39H19V16Z" fill="white"/>
</mask>
<g mask="url(#mask0_0_4275)">
<g id="Path 1434">
<path fill-rule="evenodd" clip-rule="evenodd" d="M28.6723 29.0164C28.3532 29.0164 28.0945 29.2751 28.0945 29.5942C28.0945 29.5942 28.0945 34.6681 28.0944 36.9937C28.0944 37.4317 28.3355 37.8342 28.7217 38.0409C29.108 38.2476 29.5766 38.2249 29.941 37.9819C30.754 37.4398 31.8721 36.6943 32.3807 36.3552C32.7111 36.1349 32.9095 35.7641 32.9095 35.367C32.9095 34.1022 32.9094 29.5942 32.9094 29.5942C32.9094 29.2751 32.6507 29.0164 32.3316 29.0164H28.6723ZM31.7538 30.172H29.2501L29.25 36.9937C29.25 37.0055 29.2566 37.0164 29.267 37.0219C29.2774 37.0276 29.2901 37.0269 29.2999 37.0203C30.1129 36.4783 31.231 35.7328 31.7396 35.3937C31.7485 35.3878 31.7539 35.3777 31.7539 35.367L31.7538 30.172Z" fill="white"/>
<path d="M28.0945 29.5942L28.2445 29.5942V29.5942H28.0945ZM28.0944 36.9937L27.9444 36.9937V36.9937H28.0944ZM28.7217 38.0409L28.6509 38.1732L28.6509 38.1732L28.7217 38.0409ZM29.941 37.9819L29.8578 37.8571L29.8578 37.8571L29.941 37.9819ZM32.3807 36.3552L32.2975 36.2304L32.2975 36.2304L32.3807 36.3552ZM32.9094 29.5942L32.7594 29.5942L32.7594 29.5942L32.9094 29.5942ZM31.7538 30.172L31.9038 30.172L31.9038 30.022H31.7538V30.172ZM29.2501 30.172V30.022H29.1002L29.1001 30.172L29.2501 30.172ZM29.25 36.9937L29.1 36.9937V36.9937H29.25ZM29.267 37.0219L29.3382 36.8899L29.3378 36.8897L29.267 37.0219ZM29.2999 37.0203L29.2167 36.8955L29.2165 36.8957L29.2999 37.0203ZM31.7396 35.3937L31.6566 35.2688L31.6564 35.2689L31.7396 35.3937ZM31.7539 35.367L31.9039 35.367L31.9039 35.367L31.7539 35.367ZM28.6723 28.8664C28.2704 28.8664 27.9445 29.1922 27.9445 29.5942H28.2445C28.2445 29.3579 28.4361 29.1664 28.6723 29.1664V28.8664ZM28.0945 29.5942C27.9445 29.5942 27.9445 29.5942 27.9445 29.5943C27.9445 29.5943 27.9445 29.5944 27.9445 29.5944C27.9445 29.5946 27.9445 29.5948 27.9445 29.5951C27.9445 29.5957 27.9445 29.5967 27.9445 29.5979C27.9445 29.6003 27.9445 29.604 27.9445 29.6088C27.9445 29.6185 27.9445 29.6329 27.9445 29.6517C27.9445 29.6895 27.9445 29.7451 27.9445 29.8168C27.9445 29.96 27.9445 30.1673 27.9445 30.4233C27.9445 30.9354 27.9445 31.6423 27.9445 32.4219C27.9445 33.981 27.9444 35.8309 27.9444 36.9937L28.2444 36.9937C28.2444 35.8309 28.2445 33.981 28.2445 32.4219C28.2445 31.6423 28.2445 30.9354 28.2445 30.4233C28.2445 30.1673 28.2445 29.96 28.2445 29.8168C28.2445 29.7451 28.2445 29.6895 28.2445 29.6517C28.2445 29.6329 28.2445 29.6185 28.2445 29.6088C28.2445 29.604 28.2445 29.6003 28.2445 29.5979C28.2445 29.5967 28.2445 29.5957 28.2445 29.5951C28.2445 29.5948 28.2445 29.5946 28.2445 29.5944C28.2445 29.5944 28.2445 29.5943 28.2445 29.5943C28.2445 29.5942 28.2445 29.5942 28.0945 29.5942ZM27.9444 36.9937C27.9444 37.487 28.2159 37.9403 28.6509 38.1732L28.7925 37.9087C28.455 37.728 28.2444 37.3764 28.2444 36.9937H27.9444ZM28.6509 38.1732C29.086 38.406 29.6138 38.3804 30.0242 38.1067L29.8578 37.8571C29.5394 38.0694 29.13 38.0893 28.7925 37.9087L28.6509 38.1732ZM30.0242 38.1067C30.8372 37.5646 31.9553 36.8191 32.4639 36.48L32.2975 36.2304C31.7889 36.5695 30.6708 37.315 29.8578 37.8571L30.0242 38.1067ZM32.4639 36.4801C32.8361 36.2319 33.0595 35.8142 33.0595 35.367H32.7595C32.7595 35.7139 32.5862 36.0379 32.2975 36.2304L32.4639 36.4801ZM33.0595 35.367C33.0595 34.7346 33.0595 33.2914 33.0595 32.0063C33.0595 31.3638 33.0595 30.7607 33.0594 30.3183C33.0594 30.0971 33.0594 29.9161 33.0594 29.7904C33.0594 29.7275 33.0594 29.6785 33.0594 29.6451C33.0594 29.6285 33.0594 29.6157 33.0594 29.6072C33.0594 29.6029 33.0594 29.5996 33.0594 29.5975C33.0594 29.5964 33.0594 29.5956 33.0594 29.595C33.0594 29.5947 33.0594 29.5945 33.0594 29.5944C33.0594 29.5943 33.0594 29.5943 33.0594 29.5942C33.0594 29.5942 33.0594 29.5942 32.9094 29.5942C32.7594 29.5942 32.7594 29.5942 32.7594 29.5943C32.7594 29.5943 32.7594 29.5943 32.7594 29.5944C32.7594 29.5945 32.7594 29.5947 32.7594 29.595C32.7594 29.5956 32.7594 29.5964 32.7594 29.5975C32.7594 29.5996 32.7594 29.6029 32.7594 29.6072C32.7594 29.6157 32.7594 29.6285 32.7594 29.6451C32.7594 29.6785 32.7594 29.7275 32.7594 29.7904C32.7594 29.9161 32.7594 30.0971 32.7594 30.3183C32.7595 30.7607 32.7595 31.3638 32.7595 32.0063C32.7595 33.2914 32.7595 34.7346 32.7595 35.367H33.0595ZM33.0594 29.5942C33.0594 29.1922 32.7336 28.8664 32.3316 28.8664V29.1664C32.5679 29.1664 32.7594 29.3579 32.7594 29.5942H33.0594ZM32.3316 28.8664H28.6723V29.1664H32.3316V28.8664ZM31.7538 30.022H29.2501V30.322H31.7538V30.022ZM29.1001 30.172L29.1 36.9937L29.4 36.9937L29.4001 30.172L29.1001 30.172ZM29.1 36.9937C29.1 37.0611 29.1373 37.1226 29.1962 37.1542L29.3378 36.8897C29.3759 36.9101 29.4 36.9499 29.4 36.9937H29.1ZM29.1958 37.154C29.2555 37.1862 29.3276 37.1823 29.3834 37.145L29.2165 36.8957C29.2525 36.8716 29.2994 36.869 29.3382 36.8899L29.1958 37.154ZM29.3832 37.1451C30.1962 36.6031 31.3142 35.8576 31.8228 35.5185L31.6564 35.2689C31.1478 35.608 30.0297 36.3535 29.2167 36.8955L29.3832 37.1451ZM31.8226 35.5186C31.8733 35.4849 31.9039 35.4281 31.9039 35.367H31.6039C31.6039 35.3274 31.6238 35.2906 31.6566 35.2688L31.8226 35.5186ZM31.9039 35.367L31.9038 30.172L31.6038 30.172L31.6039 35.367L31.9039 35.367Z" fill="white"/>
</g>
<g id="Path 1435">
<path fill-rule="evenodd" clip-rule="evenodd" d="M20.7413 19.2573C20.5184 19.2573 20.3153 19.3855 20.2195 19.5868C20.1237 19.7881 20.1522 20.0266 20.2928 20.1996L28.2233 29.9585C28.3331 30.0935 28.4978 30.1719 28.6718 30.1719H32.3312C32.5051 30.1719 32.6698 30.0936 32.7796 29.9586L40.7103 20.2027C40.8509 20.0298 40.8795 19.7913 40.7837 19.59C40.6879 19.3887 40.4849 19.2604 40.262 19.2604L20.7413 19.2573V19.2573ZM28.9468 29.0162H32.0563L39.0476 20.4159L21.9555 20.4132L28.9468 29.0162Z" fill="white"/>
<path d="M20.7413 19.2573L20.7413 19.4073L20.8913 19.4074V19.2573H20.7413ZM20.2195 19.5868L20.3549 19.6513L20.3549 19.6513L20.2195 19.5868ZM20.2928 20.1996L20.1764 20.2942L20.1764 20.2942L20.2928 20.1996ZM28.2233 29.9585L28.1069 30.0531L28.107 30.0531L28.2233 29.9585ZM32.7796 29.9586L32.8959 30.0532L32.8959 30.0532L32.7796 29.9586ZM40.7103 20.2027L40.5939 20.1081L40.5939 20.1081L40.7103 20.2027ZM40.7837 19.59L40.6482 19.6544L40.6482 19.6545L40.7837 19.59ZM40.262 19.2604L40.262 19.4104H40.262V19.2604ZM20.7413 19.2573L20.7413 19.1073L20.5913 19.1073V19.2573H20.7413ZM28.9468 29.0162L28.8304 29.1108L28.8754 29.1662H28.9468V29.0162ZM32.0563 29.0162V29.1662H32.1276L32.1727 29.1109L32.0563 29.0162ZM39.0476 20.4159L39.164 20.5105L39.3628 20.2659L39.0477 20.2659L39.0476 20.4159ZM21.9555 20.4132L21.9556 20.2632L21.6403 20.2631L21.8391 20.5078L21.9555 20.4132ZM20.7414 19.1073C20.4605 19.1073 20.2047 19.2688 20.0841 19.5224L20.3549 19.6513C20.4259 19.5022 20.5762 19.4073 20.7413 19.4073L20.7414 19.1073ZM20.0841 19.5223C19.9633 19.7759 19.9993 20.0763 20.1764 20.2942L20.4092 20.105C20.3051 19.9769 20.284 19.8003 20.3549 19.6513L20.0841 19.5223ZM20.1764 20.2942L28.1069 30.0531L28.3398 29.8639L20.4092 20.105L20.1764 20.2942ZM28.107 30.0531C28.2452 30.2231 28.4526 30.3219 28.6718 30.3219V30.0219C28.543 30.0219 28.4211 29.9639 28.3397 29.8639L28.107 30.0531ZM28.6718 30.3219H32.3312V30.0219H28.6718V30.3219ZM32.3312 30.3219C32.5503 30.3219 32.7577 30.2232 32.8959 30.0532L32.6632 29.864C32.5819 29.9639 32.46 30.0219 32.3312 30.0219V30.3219ZM32.8959 30.0532L40.8267 20.2974L40.5939 20.1081L32.6632 29.864L32.8959 30.0532ZM40.8267 20.2974C41.0038 20.0795 41.0398 19.7791 40.9191 19.5255L40.6482 19.6545C40.7192 19.8035 40.698 19.9801 40.5939 20.1081L40.8267 20.2974ZM40.9191 19.5256C40.7985 19.272 40.5428 19.1104 40.262 19.1104V19.4104C40.427 19.4104 40.5773 19.5054 40.6482 19.6544L40.9191 19.5256ZM40.262 19.1104L20.7413 19.1073L20.7413 19.4073L40.262 19.4104L40.262 19.1104ZM20.5913 19.2573V19.2573H20.8913V19.2573H20.5913ZM28.9468 29.1662H32.0563V28.8662H28.9468V29.1662ZM32.1727 29.1109L39.164 20.5105L38.9312 20.3212L31.9399 28.9216L32.1727 29.1109ZM39.0477 20.2659L21.9556 20.2632L21.9555 20.5632L39.0476 20.5659L39.0477 20.2659ZM21.8391 20.5078L28.8304 29.1108L29.0632 28.9216L22.072 20.3186L21.8391 20.5078Z" fill="white"/>
</g>
<g id="Path 1436">
<path fill-rule="evenodd" clip-rule="evenodd" d="M42.0566 18.006C42.0566 17.3505 41.5244 16.8184 40.8689 16.8184H20.131C19.4755 16.8184 18.9434 17.3505 18.9434 18.006V19.2256C18.9434 19.8811 19.4755 20.4132 20.131 20.4132H40.8689C41.5244 20.4132 42.0566 19.8811 42.0566 19.2256V18.006V18.006ZM40.9009 18.006V19.2256C40.9009 19.2432 40.8866 19.2576 40.869 19.2576H20.131C20.1134 19.2576 20.099 19.2432 20.099 19.2256V18.006C20.099 17.9883 20.1134 17.974 20.131 17.974H40.869C40.8866 17.974 40.9009 17.9883 40.9009 18.006Z" fill="white"/>
<path d="M42.2066 18.006C42.2066 17.2677 41.6072 16.6684 40.8689 16.6684V16.9684C41.4416 16.9684 41.9066 17.4333 41.9066 18.006H42.2066ZM40.8689 16.6684H20.131V16.9684H40.8689V16.6684ZM20.131 16.6684C19.3927 16.6684 18.7934 17.2677 18.7934 18.006H19.0934C19.0934 17.4333 19.5584 16.9684 20.131 16.9684V16.6684ZM18.7934 18.006V19.2256H19.0934V18.006H18.7934ZM18.7934 19.2256C18.7934 19.9639 19.3927 20.5632 20.131 20.5632V20.2632C19.5584 20.2632 19.0934 19.7982 19.0934 19.2256H18.7934ZM20.131 20.5632H40.8689V20.2632H20.131V20.5632ZM40.8689 20.5632C41.6072 20.5632 42.2066 19.9639 42.2066 19.2256H41.9066C41.9066 19.7982 41.4416 20.2632 40.8689 20.2632V20.5632ZM42.2066 19.2256V18.006H41.9066V19.2256H42.2066ZM41.9066 18.006V18.006H42.2066V18.006H41.9066ZM40.7509 18.006V19.2256H41.0509V18.006H40.7509ZM40.7509 19.2256C40.7509 19.1604 40.8038 19.1076 40.869 19.1076V19.4076C40.9694 19.4076 41.0509 19.3261 41.0509 19.2256H40.7509ZM40.869 19.1076H20.131V19.4076H40.869V19.1076ZM20.131 19.1076C20.1959 19.1076 20.249 19.16 20.249 19.2256H19.949C19.949 19.3265 20.0309 19.4076 20.131 19.4076V19.1076ZM20.249 19.2256V18.006H19.949V19.2256H20.249ZM20.249 18.006C20.249 18.0713 20.1961 18.124 20.131 18.124V17.824C20.0308 17.824 19.949 17.9053 19.949 18.006H20.249ZM20.131 18.124H40.869V17.824H20.131V18.124ZM40.869 18.124C40.8036 18.124 40.7509 18.071 40.7509 18.006H41.0509C41.0509 17.9056 40.9696 17.824 40.869 17.824V18.124Z" fill="white"/>
</g>
</g>
</g>
</g>
</g>
<defs>
<filter id="filter0_d_0_4275" x="0" y="0" width="61" height="61" filterUnits="userSpaceOnUse" color-interpolation-filters="sRGB">
<feFlood flood-opacity="0" result="BackgroundImageFix"/>
<feColorMatrix in="SourceAlpha" type="matrix" values="0 0 0 0 0 0 0 0 0 0 0 0 0 0 0 0 0 0 127 0" result="hardAlpha"/>
<feOffset dy="3"/>
<feGaussianBlur stdDeviation="3"/>
<feColorMatrix type="matrix" values="0 0 0 0 0 0 0 0 0 0 0 0 0 0 0 0 0 0 0.160784 0"/>
<feBlend mode="normal" in2="BackgroundImageFix" result="effect1_dropShadow_0_4275"/>
<feBlend mode="normal" in="SourceGraphic" in2="effect1_dropShadow_0_4275" result="shape"/>
</filter>
</defs>
</svg>
