<svg width="43" height="44" viewBox="0 0 43 44" fill="none" xmlns="http://www.w3.org/2000/svg">
<g id="Group 1165">
<path id="Path 1600" fill-rule="evenodd" clip-rule="evenodd" d="M21.5 0.5C33.3741 0.5 43 10.1259 43 22C43 33.8741 33.3741 43.5 21.5 43.5C9.62588 43.5 0 33.8741 0 22C0 10.1259 9.62588 0.5 21.5 0.5Z" fill="white"/>
<g id="router-device 1">
<path id="Path 1601" fill-rule="evenodd" clip-rule="evenodd" d="M16.78 17.947H17.8892V25.416H16.78V17.947Z" fill="#1B438B"/>
<path id="Path 1602" fill-rule="evenodd" clip-rule="evenodd" d="M19.8412 18.1876C18.5101 16.8565 16.3656 16.8565 15.0345 18.1876L14.221 17.3741C15.9958 15.5993 18.8799 15.5993 20.6547 17.3741L19.8412 18.1876Z" fill="#1B438B"/>
<path id="Path 1603" fill-rule="evenodd" clip-rule="evenodd" d="M22.0188 16.6576C19.6524 14.3651 15.8809 14.3651 13.5884 16.6576L12.775 15.8441C15.5111 13.108 20.0221 13.108 22.7583 15.8441L22.0188 16.6576Z" fill="#1B438B"/>
<path id="Path 1604" fill-rule="evenodd" clip-rule="evenodd" d="M23.6455 15.0311C20.3917 11.7773 15.1413 11.7773 11.8875 15.0311L11.148 14.2177C14.8455 10.5941 20.7615 10.5941 24.459 14.2177L23.6455 15.0311Z" fill="#1B438B"/>
<path id="Path 1605" fill-rule="evenodd" clip-rule="evenodd" d="M28.002 31.169H29.1113V32.5001H28.002V31.169Z" fill="#1B438B"/>
<path id="Path 1606" fill-rule="evenodd" clip-rule="evenodd" d="M13.884 31.169H14.9933V32.5001H13.884V31.169Z" fill="#1B438B"/>
<path id="Path 1607" fill-rule="evenodd" clip-rule="evenodd" d="M30.2003 31.6871H12.7957C11.7597 31.6871 11 30.7997 11 29.7644V26.2887C11 25.1795 11.8288 24.366 12.7957 24.366H30.2003C31.2363 24.366 31.996 25.2534 31.996 26.2887V29.7644C32.0651 30.8736 31.2363 31.6871 30.2003 31.6871ZM12.7957 25.4753C12.3813 25.4753 12.036 25.845 12.036 26.2887V29.7644C12.036 30.2081 12.3813 30.5778 12.7957 30.5778H30.2003C30.6147 30.5778 30.96 30.2081 30.96 29.7644V26.2887C30.96 25.845 30.6146 25.4753 30.2003 25.4753H12.7957Z" fill="#1B438B"/>
<path id="Path 1608" fill-rule="evenodd" clip-rule="evenodd" d="M22.354 27.586H23.4632V28.8431H22.354V27.586Z" fill="#1B438B"/>
<path id="Path 1609" fill-rule="evenodd" clip-rule="evenodd" d="M25.451 27.586H26.5603V28.8431H25.451V27.586Z" fill="#1B438B"/>
<path id="Path 1610" fill-rule="evenodd" clip-rule="evenodd" d="M28.372 27.586H29.4813V28.8431H28.372V27.586Z" fill="#1B438B"/>
</g>
</g>
</svg>
