<svg xmlns="http://www.w3.org/2000/svg" xmlns:xlink="http://www.w3.org/1999/xlink" width="30" height="30" viewBox="0 0 30 30"><defs><clipPath id="b"><rect width="30" height="30"/></clipPath></defs><g id="a" clip-path="url(#b)"><g transform="translate(-7.252 3.159)"><g transform="translate(16.252 6.616)"><path d="M25.353,35.566H19a.276.276,0,0,1-.149-.043,5.408,5.408,0,0,1-2.6-4.556V28a5.407,5.407,0,0,1,2.6-4.555A.274.274,0,0,1,19,23.4h6.353a.273.273,0,0,1,.147.043A5.407,5.407,0,0,1,28.1,28v2.971a5.409,5.409,0,0,1-2.6,4.556A.272.272,0,0,1,25.353,35.566Zm-6.272-.555h6.191a4.848,4.848,0,0,0,2.272-4.043V28a4.847,4.847,0,0,0-2.273-4.043h-6.19A4.847,4.847,0,0,0,16.807,28v2.971A4.847,4.847,0,0,0,19.081,35.011Z" transform="translate(-16.252 -23.399)" fill="#94afd8" stroke="#94afd8" stroke-width="0.05"/></g><g transform="translate(18.736 18.228)"><path d="M36.381,88.568H30.058a.278.278,0,0,1-.278-.278V86.914a.278.278,0,0,1,.278-.278h6.323a.277.277,0,0,1,.278.278v1.377A.277.277,0,0,1,36.381,88.568Zm-6.046-.555H36.1v-.822H30.335Z" transform="translate(-29.78 -86.636)" fill="#94afd8" stroke="#94afd8" stroke-width="0.05"/></g><g transform="translate(18.737 2.841)"><path d="M36.386,7.171H30.064a.277.277,0,0,1-.278-.278V5.479a.277.277,0,0,1,.278-.278h.8V3.119a.278.278,0,0,1,.278-.278h4.165a.277.277,0,0,1,.278.278V5.2h.8a.277.277,0,0,1,.278.278V6.894A.277.277,0,0,1,36.386,7.171Zm-6.045-.555h5.767v-.86h-.8a.278.278,0,0,1-.278-.278V3.4h-3.61V5.479a.277.277,0,0,1-.278.278h-.8Z" transform="translate(-29.786 -2.841)" fill="#94afd8" stroke="#94afd8" stroke-width="0.05"/></g><g transform="translate(16.418 8.822)"><g transform="translate(0.317 0)"><path d="M29.485,35.966H19.16a.278.278,0,1,1,0-.555H29.485a.278.278,0,1,1,0,.555Z" transform="translate(-18.882 -35.411)" fill="#94afd8" stroke="#94afd8" stroke-width="0.05"/></g><g transform="translate(0 0.857)"><path d="M28.395,40.631H17.435a.278.278,0,0,1,0-.555h10.96a.278.278,0,0,1,0,.555Z" transform="translate(-17.157 -40.076)" fill="#94afd8" stroke="#94afd8" stroke-width="0.05"/></g></g><g transform="translate(16.418 14.989)"><g transform="translate(0.317 0.857)"><path d="M29.485,74.217H19.16a.278.278,0,0,1,0-.555H29.485a.278.278,0,1,1,0,.555Z" transform="translate(-18.882 -73.662)" fill="#94afd8" stroke="#94afd8" stroke-width="0.05"/></g><g transform="translate(0)"><path d="M28.395,69.551H17.435a.278.278,0,1,1,0-.555h10.96a.278.278,0,1,1,0,.555Z" transform="translate(-17.157 -68.996)" fill="#94afd8" stroke="#94afd8" stroke-width="0.05"/></g></g><g transform="translate(21.17 3.822)"><path d="M44.041,10.2a1.007,1.007,0,1,1,1.006-1.006A1.008,1.008,0,0,1,44.041,10.2Zm0-1.458a.451.451,0,1,0,.451.451A.451.451,0,0,0,44.041,8.741Z" transform="translate(-43.035 -8.186)" fill="#94afd8" stroke="#94afd8" stroke-width="0.05"/></g><g transform="translate(21.899 5.28)"><path d="M47.282,18.016A.277.277,0,0,1,47,17.739V16.4a.278.278,0,1,1,.555,0v1.336A.278.278,0,0,1,47.282,18.016Z" transform="translate(-47.004 -16.125)" fill="#94afd8" stroke="#94afd8" stroke-width="0.05"/></g><g transform="translate(20.863 11.029)"><path d="M42.549,51.066a1.1,1.1,0,0,1-.974-.454c-.485-.717,0-1.988.061-2.131a.278.278,0,0,1,.406-.131.612.612,0,0,0,.292.122c.08-.048.115-.395.059-.717a.277.277,0,0,1,.463-.251,2.889,2.889,0,0,1,.9,2.815A1.2,1.2,0,0,1,42.549,51.066Zm-.495-2.09a1.864,1.864,0,0,0-.019,1.325c.035.052.141.21.513.21a.653.653,0,0,0,.689-.4,2.047,2.047,0,0,0-.3-1.624.825.825,0,0,1-.157.333A.619.619,0,0,1,42.054,48.976Z" transform="translate(-41.362 -47.43)" fill="#94afd8" stroke="#94afd8" stroke-width="0.05"/></g></g></g></svg>