<svg width="44" height="44" viewBox="0 0 44 44" fill="none" xmlns="http://www.w3.org/2000/svg">
<g id="Group 1173">
<g id="Group 1172">
<path id="Path 1614" fill-rule="evenodd" clip-rule="evenodd" d="M22.333 0.5C34.2071 0.5 43.833 10.1259 43.833 22C43.833 33.8741 34.2071 43.5 22.333 43.5C10.4589 43.5 0.833008 33.8741 0.833008 22C0.833008 10.1259 10.4589 0.5 22.333 0.5Z" fill="white"/>
<g id="first-aid-kit 1 (1)">
<mask id="mask0_0_2401" style="mask-type:luminance" maskUnits="userSpaceOnUse" x="11" y="11" width="22" height="23">
<path id="Rectangle 1074" fill-rule="evenodd" clip-rule="evenodd" d="M11.833 11.5H32.833V33.5H11.833V11.5Z" fill="white"/>
</mask>
<g mask="url(#mask0_0_2401)">
<path id="Path 1615" fill-rule="evenodd" clip-rule="evenodd" d="M25.5154 22.2677C25.514 22.2677 25.5127 22.2677 25.5114 22.2677H23.883V20.4558C23.8852 20.0903 23.6201 19.7921 23.2909 19.7896C23.2895 19.7896 23.2882 19.7896 23.2869 19.7896H20.9343C20.6051 19.7896 20.3381 20.0859 20.3381 20.4513V22.2633H18.7098C18.3805 22.2609 18.1118 22.555 18.1096 22.9205C18.1096 22.9235 18.1096 22.9264 18.1096 22.9294V25.5363C18.1096 25.9018 18.3765 26.1981 18.7058 26.1981H20.3381V28.0055C20.3359 28.371 20.6011 28.6693 20.9303 28.6717C20.9317 28.6717 20.933 28.6717 20.9343 28.6717H23.2828C23.6121 28.6717 23.879 28.3755 23.879 28.01V26.1981H25.5114C25.8406 26.2005 26.1093 25.9062 26.1115 25.5408C26.1115 25.5393 26.1115 25.5377 26.1115 25.5363V22.9294C26.1115 22.564 25.8447 22.2677 25.5154 22.2677L25.5154 22.2677ZM25.3114 25.3098H23.4829C23.262 25.3098 23.0828 25.5087 23.0828 25.7539V27.7835H21.1384V25.7539C21.1384 25.5087 20.9592 25.3098 20.7383 25.3098H18.9098V23.1559H20.7383C20.9592 23.1559 21.1384 22.9571 21.1384 22.7118V20.6778H23.0788V22.7073C23.0788 22.9526 23.258 23.1515 23.4789 23.1515H25.3114V25.3098Z" fill="#1B438B"/>
<g id="Path 1616">
<path fill-rule="evenodd" clip-rule="evenodd" d="M24.6516 13.4994C24.6177 13.4982 24.5836 13.4985 24.5497 13.5004H19.6718C18.9947 13.4622 18.4174 14.0401 18.3821 14.7919V14.7919C18.3803 14.8297 18.3799 14.8677 18.3811 14.9058V16.387H15.1491C14.5018 16.387 13.7959 16.5913 13.2506 17.0878C12.703 17.5863 12.3236 18.3736 12.3236 19.5233V29.1826C12.3236 30.3323 12.703 31.1196 13.2506 31.618C13.7959 32.1145 14.5018 32.3189 15.1491 32.3189H29.0723C29.7197 32.3189 30.4255 32.1145 30.9709 31.618C31.5184 31.1196 31.8978 30.3323 31.8978 29.1826V19.5322C31.8978 18.3825 31.5194 17.5952 30.9724 17.0967C30.4275 16.6002 29.7216 16.3959 29.0723 16.3959H25.8404V14.9057C25.8617 14.1532 25.3297 13.5237 24.6516 13.4993L24.6516 13.4994ZM19.3109 14.9046C19.3109 14.8389 19.312 14.7387 19.3557 14.6548C19.3954 14.5786 19.4784 14.5014 19.6741 14.5014H24.5513C24.7474 14.5014 24.8303 14.5778 24.8699 14.6532C24.9135 14.7365 24.9146 14.8364 24.9146 14.9046V16.3871H19.3109V14.9046ZM30.968 29.1826C30.968 30.1421 30.6353 30.6622 30.2395 30.9463C29.8388 31.234 29.3635 31.2868 29.0724 31.2868H15.1491C14.86 31.2868 14.3847 31.234 13.9835 30.9463C13.5871 30.6622 13.2535 30.1421 13.2535 29.1826V19.5322C13.2535 18.5727 13.5862 18.0526 13.982 17.7685C14.3827 17.4809 14.858 17.428 15.1491 17.428H29.0724C29.3615 17.428 29.8368 17.4809 30.238 17.7685C30.6344 18.0526 30.968 18.5728 30.968 19.5322V29.1826Z" fill="#1B438B"/>
<path d="M24.6516 13.4994L24.6481 13.5993L24.9023 13.6084L24.7223 13.4286L24.6516 13.4994ZM24.5497 13.5004V13.6005L24.5553 13.6002L24.5497 13.5004ZM19.6718 13.5004L19.6662 13.6004H19.6718V13.5004ZM18.3821 14.7919L18.2821 14.7872V14.7919H18.3821ZM18.3821 14.7919L18.4821 14.7966V14.7919H18.3821ZM18.3811 14.9058H18.4811L18.481 14.9029L18.3811 14.9058ZM18.3811 16.387V16.487H18.4811V16.387H18.3811ZM13.2506 17.0878L13.3179 17.1618L13.3179 17.1618L13.2506 17.0878ZM13.2506 31.618L13.1832 31.692L13.1832 31.692L13.2506 31.618ZM30.9709 31.618L31.0382 31.692L31.0382 31.692L30.9709 31.618ZM30.9724 17.0967L30.9051 17.1707L30.9051 17.1707L30.9724 17.0967ZM25.8404 16.3959H25.7404V16.4959H25.8404V16.3959ZM25.8404 14.9057L25.7404 14.9029V14.9057H25.8404ZM24.6516 13.4993L24.6552 13.3994L24.4009 13.3903L24.581 13.5701L24.6516 13.4993ZM19.3557 14.6548L19.4444 14.701L19.4444 14.701L19.3557 14.6548ZM24.8699 14.6532L24.9584 14.6068L24.9584 14.6068L24.8699 14.6532ZM24.9146 16.3871V16.4871H25.0146V16.3871H24.9146ZM19.3109 16.3871H19.2109V16.4871H19.3109V16.3871ZM30.2395 30.9463L30.1812 30.8651L30.1812 30.8651L30.2395 30.9463ZM13.9835 30.9463L13.9252 31.0276L13.9252 31.0276L13.9835 30.9463ZM13.982 17.7685L14.0403 17.8497L14.0403 17.8497L13.982 17.7685ZM30.238 17.7685L30.2963 17.6872L30.2963 17.6872L30.238 17.7685ZM24.6552 13.3994C24.6182 13.3981 24.5812 13.3985 24.5441 13.4005L24.5553 13.6002C24.5861 13.5985 24.6171 13.5982 24.6481 13.5993L24.6552 13.3994ZM24.5497 13.4004H19.6718V13.6004H24.5497V13.4004ZM19.6774 13.4005C18.9352 13.3587 18.3197 13.99 18.2822 14.7872L18.482 14.7966C18.5152 14.0902 19.0542 13.5658 19.6662 13.6002L19.6774 13.4005ZM18.2821 14.7919V14.7919H18.4821V14.7919H18.2821ZM18.2822 14.7872C18.2803 14.8275 18.2799 14.8681 18.2811 14.9088L18.481 14.9029C18.48 14.8674 18.4803 14.832 18.482 14.7966L18.2822 14.7872ZM18.2811 14.9058V16.387H18.4811V14.9058H18.2811ZM18.3811 16.287H15.1491V16.487H18.3811V16.287ZM15.1491 16.287C14.4821 16.287 13.7506 16.4974 13.1832 17.0139L13.3179 17.1618C13.8413 16.6852 14.5215 16.487 15.1491 16.487V16.287ZM13.1832 17.0139C12.6117 17.5342 12.2236 18.3501 12.2236 19.5233H12.4236C12.4236 18.397 12.7944 17.6383 13.3179 17.1618L13.1832 17.0139ZM12.2236 19.5233V29.1826H12.4236V19.5233H12.2236ZM12.2236 29.1826C12.2236 30.3558 12.6117 31.1717 13.1832 31.692L13.3179 31.5441C12.7944 31.0676 12.4236 30.3089 12.4236 29.1826H12.2236ZM13.1832 31.692C13.7506 32.2084 14.4821 32.4189 15.1491 32.4189V32.2189C14.5215 32.2189 13.8413 32.0206 13.3179 31.5441L13.1832 31.692ZM15.1491 32.4189H29.0723V32.2189H15.1491V32.4189ZM29.0723 32.4189C29.7394 32.4189 30.4709 32.2085 31.0382 31.692L30.9036 31.5441C30.3801 32.0206 29.7 32.2189 29.0723 32.2189V32.4189ZM31.0382 31.692C31.6098 31.1717 31.9978 30.3558 31.9978 29.1826H31.7978C31.7978 30.3088 31.427 31.0676 30.9036 31.5441L31.0382 31.692ZM31.9978 29.1826V19.5322H31.7978V29.1826H31.9978ZM31.9978 19.5322C31.9978 18.3591 31.6109 17.5432 31.0398 17.0228L30.9051 17.1707C31.428 17.6472 31.7978 18.4059 31.7978 19.5322H31.9978ZM31.0398 17.0228C30.4729 16.5063 29.7413 16.2959 29.0723 16.2959V16.4959C29.702 16.4959 30.3821 16.6941 30.9051 17.1707L31.0398 17.0228ZM29.0723 16.2959H25.8404V16.4959H29.0723V16.2959ZM25.9404 16.3959V14.9057H25.7404V16.3959H25.9404ZM25.9404 14.9086C25.963 14.1111 25.3976 13.426 24.6552 13.3994L24.648 13.5993C25.2618 13.6213 25.7605 14.1954 25.7404 14.9029L25.9404 14.9086ZM24.581 13.5701L24.581 13.5701L24.7223 13.4286L24.7223 13.4286L24.581 13.5701ZM19.4109 14.9046C19.4109 14.8366 19.4135 14.7603 19.4444 14.701L19.267 14.6086C19.2105 14.7171 19.2109 14.8412 19.2109 14.9046H19.4109ZM19.4444 14.701C19.457 14.6768 19.4753 14.654 19.5062 14.6362C19.5378 14.6181 19.5893 14.6014 19.6741 14.6014V14.4014C19.5632 14.4014 19.4753 14.4233 19.4066 14.4628C19.3371 14.5027 19.2941 14.5566 19.267 14.6086L19.4444 14.701ZM19.6741 14.6014H24.5513V14.4014H19.6741V14.6014ZM24.5513 14.6014C24.6365 14.6014 24.6882 14.618 24.7199 14.636C24.7507 14.6535 24.7689 14.676 24.7813 14.6997L24.9584 14.6068C24.9313 14.5551 24.8883 14.5016 24.8187 14.4621C24.75 14.423 24.6622 14.4014 24.5513 14.4014V14.6014ZM24.7813 14.6997C24.8119 14.7581 24.8146 14.8338 24.8146 14.9046H25.0146C25.0146 14.839 25.0151 14.7149 24.9584 14.6068L24.7813 14.6997ZM24.8146 14.9046V16.3871H25.0146V14.9046H24.8146ZM24.9146 16.2871H19.3109V16.4871H24.9146V16.2871ZM19.4109 16.3871V14.9046H19.2109V16.3871H19.4109ZM30.868 29.1826C30.868 30.116 30.5463 30.6031 30.1812 30.8651L30.2978 31.0276C30.7244 30.7214 31.068 30.1683 31.068 29.1826H30.868ZM30.1812 30.8651C29.8051 31.135 29.3545 31.1868 29.0724 31.1868V31.3868C29.3725 31.3868 29.8725 31.3329 30.2978 31.0276L30.1812 30.8651ZM29.0724 31.1868H15.1491V31.3868H29.0724V31.1868ZM15.1491 31.1868C14.8691 31.1868 14.4184 31.1351 14.0418 30.8651L13.9252 31.0276C14.351 31.3329 14.851 31.3868 15.1491 31.3868V31.1868ZM14.0418 30.8651C13.6761 30.6029 13.3535 30.1158 13.3535 29.1826H13.1535C13.1535 30.1683 13.4982 30.7214 13.9252 31.0276L14.0418 30.8651ZM13.3535 29.1826V19.5322H13.1535V29.1826H13.3535ZM13.3535 19.5322C13.3535 18.5988 13.6753 18.1117 14.0403 17.8497L13.9237 17.6872C13.4971 17.9934 13.1535 18.5465 13.1535 19.5322H13.3535ZM14.0403 17.8497C14.4164 17.5798 14.867 17.528 15.1491 17.528V17.328C14.849 17.328 14.349 17.3819 13.9237 17.6872L14.0403 17.8497ZM15.1491 17.528H29.0724V17.328H15.1491V17.528ZM29.0724 17.528C29.3525 17.528 29.8031 17.5798 30.1797 17.8498L30.2963 17.6872C29.8705 17.382 29.3706 17.328 29.0724 17.328V17.528ZM30.1797 17.8498C30.5454 18.1119 30.868 18.599 30.868 19.5322H31.068C31.068 18.5465 30.7233 17.9934 30.2963 17.6872L30.1797 17.8498ZM30.868 19.5322V29.1826H31.068V19.5322H30.868Z" fill="#1B438B"/>
</g>
</g>
</g>
</g>
</g>
</svg>
