<svg xmlns="http://www.w3.org/2000/svg" width="13.509" height="14.57" viewBox="0 0 13.509 14.57"><g transform="translate(0 0.023)"><path d="M156.871,51.559h-6.234V50.52a.52.52,0,1,0-1.039,0v1.039h-1.039A1.559,1.559,0,0,0,147,53.117v9.871a1.559,1.559,0,0,0,1.559,1.559H158.95a1.559,1.559,0,0,0,1.559-1.559V53.117a1.559,1.559,0,0,0-1.559-1.559h-1.04V50.52a.52.52,0,0,0-1.039,0Zm2.6,3.637v7.793a.52.52,0,0,1-.52.52H148.559a.52.52,0,0,1-.52-.52V55.2ZM149.6,61.43h1.039a.52.52,0,0,0,0-1.039H149.6a.52.52,0,1,0,0,1.039Zm3.637,0h1.039a.52.52,0,0,0,0-1.039h-1.039a.52.52,0,1,0,0,1.039Zm3.637,0h1.039a.52.52,0,0,0,0-1.039h-1.039a.52.52,0,1,0,0,1.039ZM149.6,58.313h1.039a.52.52,0,0,0,0-1.039H149.6a.52.52,0,1,0,0,1.039Zm3.637,0h1.039a.52.52,0,0,0,0-1.039h-1.039a.52.52,0,1,0,0,1.039Zm3.637,0h1.039a.52.52,0,0,0,0-1.039h-1.039a.52.52,0,1,0,0,1.039ZM148.559,52.6H158.95a.52.52,0,0,1,.52.52v1.039H148.04V53.117a.52.52,0,0,1,.52-.52Z" transform="translate(-147 -50)" fill="#94afd8" fill-rule="evenodd"/></g></svg>