<svg xmlns="http://www.w3.org/2000/svg" xmlns:xlink="http://www.w3.org/1999/xlink" width="30" height="30" viewBox="0 0 30 30"><defs><clipPath id="b"><rect width="30" height="30"/></clipPath></defs><g id="a" clip-path="url(#b)"><g transform="translate(0 0)"><g transform="translate(-4.221 1.298)"><g transform="translate(12.221 3.702)"><path d="M34.544,36.249H32.187a.341.341,0,1,1,0-.682h2.357a.341.341,0,0,1,0,.682Z" transform="translate(-25.156 -24.705)" fill="#94afd8"/><path d="M25.7,16.108a.338.338,0,0,0-.021-.1.023.023,0,0,0-.007-.02c-.007-.006,0-.007,0-.01l-1.017-2.1a.935.935,0,0,0-.837-.525H22.053a1.863,1.863,0,0,0-.345-2.389c.01-.308.024-.669.037-1.032l.024-.657a5.554,5.554,0,0,0-1.641-3.336,1.01,1.01,0,0,0-.65-.293,18.855,18.855,0,0,0-2.62-.061.519.519,0,0,1-.086,0,.712.712,0,0,0-.273-.939l-1.507-.9a.341.341,0,1,0-.347.587l1.508.892.174-.293-.161.345-1.88,2.993.289.181-.341-.17L12.756,7.264a.341.341,0,0,0-.388.561l1.478,1.021a.721.721,0,0,0,.409.127.7.7,0,0,0,.144-.015.72.72,0,0,0,.43-.278,9.2,9.2,0,0,0,2.24,1.618,5.475,5.475,0,0,1,.624.38l.216.172c.349.279.633.5.877.681a1.855,1.855,0,0,0,.09,1.819H17.043a.936.936,0,0,0-.837.524l-1.017,2.1v.01a.028.028,0,0,1-.007.02.338.338,0,0,0-.021.1s0,.009,0,.014V22.36a.636.636,0,0,0,.629.64h9.28a.636.636,0,0,0,.635-.636V16.121A.044.044,0,0,1,25.7,16.108Zm-9.867.354h9.188v.89H15.837Zm2.28-6.319A5.717,5.717,0,0,0,17.4,9.7a8.216,8.216,0,0,1-2.19-1.616l1.2-1.906a1.058,1.058,0,0,0,.47.087,18.338,18.338,0,0,1,2.52.055.374.374,0,0,1,.228.079,5.008,5.008,0,0,1,1.46,2.849l-.024.656c-.008.23-.017.454-.025.672a1.862,1.862,0,0,0-.18-.048.67.67,0,0,0-.015-.1,2.931,2.931,0,0,0-1.267-2.384.844.844,0,0,0-.85-.011,1.208,1.208,0,0,0-.657.878c-.022.344.284.663.708,1.107.381.4.881.921.919,1.312a15.054,15.054,0,0,1-1.363-1.011Zm1.969.384a6.571,6.571,0,0,0-.815-.982,3.708,3.708,0,0,1-.516-.607.65.65,0,0,1,.3-.308c.1-.047.146-.021.162-.011a2.274,2.274,0,0,1,.952,1.892l-.082.015Zm-.221,1.563a.5.5,0,0,0,.108-.012.431.431,0,0,0,.3-.232,1.046,1.046,0,0,0,.09-.67c.034,0,.068-.009.1-.009a1.2,1.2,0,1,1-1.1.751,1.067,1.067,0,0,0,.506.172ZM16.82,14.172a.25.25,0,0,1,.223-.14H19.62a1.856,1.856,0,0,0,1.688,0h2.51a.249.249,0,0,1,.223.14l.78,1.609H16.04Zm-.983,8.142v-4.28h9.188v4.28Z" transform="translate(-12.221 -3.702)" fill="#94afd8"/></g></g></g></g></svg>