<svg xmlns="http://www.w3.org/2000/svg" xmlns:xlink="http://www.w3.org/1999/xlink" width="30" height="30" viewBox="0 0 30 30"><defs><clipPath id="b"><rect width="30" height="30"/></clipPath></defs><g id="a" clip-path="url(#b)"><g transform="translate(-8 1)"><path d="M25.086,11.051V7.683A2.685,2.685,0,0,0,22.4,5h-4.72A2.685,2.685,0,0,0,15,7.683V20.472a2.685,2.685,0,0,0,2.683,2.683h3.369a.5.5,0,0,0,0-1.009H17.683a1.676,1.676,0,0,1-1.674-1.674V7.683a1.674,1.674,0,0,1,1.614-1.674,1.009,1.009,0,0,0,1.009,1.009h3.026a1.009,1.009,0,0,0,1.009-.987,1.674,1.674,0,0,1,1.412,1.652v3.453a6.052,6.052,0,1,0,1.009-.085Zm0,11.094A5.043,5.043,0,1,1,30.129,17.1,5.043,5.043,0,0,1,25.086,22.146Z" transform="translate(0)" fill="#94afd8"/><path d="M53.86,48.262h.758c.928,0,1.495.309,1.644.928h-2.4v.535h2.435c-.075.736-.694,1.21-1.846,1.21H53.86V51.6c1.009,1.067,1.781,1.995,2.622,3H57.5c-.9-1.089-1.8-2.181-2.634-3.046,1.366-.042,2.231-.736,2.338-1.815h1.152v-.543H57.19a1.6,1.6,0,0,0-.605-1.089h1.761V47.57H53.86Z" transform="translate(-31.021 -33.983)" fill="#94afd8"/></g></g></svg>