<svg width="25" height="25" viewBox="0 0 25 25" fill="none" xmlns="http://www.w3.org/2000/svg">
<g id="Group 321">
<g id="Group 320">
<path id="Path 1045" fill-rule="evenodd" clip-rule="evenodd" d="M17.6674 16.797C17.8645 16.502 17.936 16.1406 17.8666 15.7925C17.7969 15.4444 17.5917 15.1385 17.2963 14.9418L13.8785 12.6634V8.02784C13.8785 7.54989 13.6237 7.10822 13.2098 6.86924C12.7959 6.63026 12.2857 6.63026 11.8718 6.86924C11.4579 7.10822 11.203 7.54988 11.203 8.02784V13.3792C11.2028 13.8266 11.4265 14.2444 11.7988 14.4923L15.8123 17.1681C16.1075 17.3649 16.4688 17.4364 16.8166 17.3667C17.1647 17.2971 17.4706 17.0921 17.6675 16.7969L17.6674 16.797Z" fill="#A4B4D1"/>
<path id="Path 1046" fill-rule="evenodd" clip-rule="evenodd" d="M12.5406 0.00019C10.548 -0.00429 8.58573 0.49024 6.8332 1.43853C5.08042 2.38682 3.59324 3.75888 2.50677 5.42943V3.01035C2.50677 2.65177 2.3155 2.32054 2.00508 2.14136C1.69465 1.96218 1.31211 1.96218 1.00169 2.14136C0.69127 2.32054 0.5 2.65179 0.5 3.01035V7.02391C0.50067 7.64452 0.74771 8.23962 1.18649 8.67858C1.62547 9.11756 2.22055 9.36438 2.84116 9.36507H6.85472C7.2133 9.36507 7.54453 9.1738 7.72371 8.86338C7.90289 8.55296 7.90289 8.17041 7.72371 7.85999C7.54453 7.54957 7.21328 7.3583 6.85472 7.3583H3.68615C4.81184 5.24964 6.6551 3.61332 8.88273 2.74611C11.1104 1.87867 13.5747 1.83767 15.8302 2.6301C18.0854 3.42249 19.9824 4.99638 21.1777 7.06652C22.3731 9.13666 22.7876 11.5663 22.3467 13.9153C21.9057 16.2648 20.638 18.3786 18.7732 19.8743C16.9085 21.37 14.5699 22.1485 12.1807 22.0692C9.79157 21.9897 7.50999 21.0575 5.74866 19.4414C3.98734 17.8252 2.86281 15.6319 2.57882 13.2582C2.53582 12.9025 2.30647 12.5968 1.97702 12.4562C1.64734 12.3155 1.26794 12.3612 0.98149 12.5762C0.69481 12.7913 0.54475 13.1429 0.58775 13.4986C0.96402 16.5849 2.5197 19.4059 4.92898 21.3714C7.33803 23.3368 10.4143 24.294 13.5128 24.043C16.6119 23.7917 19.4936 22.3515 21.5548 20.0238C23.6161 17.6961 24.697 14.6613 24.5713 11.5546C24.4456 8.44792 23.1233 5.51023 20.8807 3.35666C18.6383 1.20298 15.6496 0.00023 12.5405 0L12.5406 0.00019Z" fill="#A4B4D1"/>
</g>
</g>
</svg>
