<svg width="18" height="20" viewBox="0 0 18 20" fill="none" xmlns="http://www.w3.org/2000/svg">
<g id="noun-arrow-3134190">
<path id="Path 1100" fill-rule="evenodd" clip-rule="evenodd" d="M14.6265 10.9081C14.7015 11.1121 14.6547 11.341 14.5057 11.4992C14.3567 11.6575 14.1311 11.7179 13.9229 11.6554C13.7148 11.5928 13.5598 11.418 13.5227 11.2039L12.0096 5.57007L5.92372 16.1112C5.75695 16.3676 5.41868 16.4487 5.15377 16.2958C4.88887 16.1428 4.78997 15.8093 4.92866 15.5367L11.0146 4.99558L5.37998 6.51009C5.07625 6.58401 4.76807 6.40608 4.68022 6.10609C4.64075 5.95971 4.66117 5.80364 4.73697 5.67235C4.81277 5.54106 4.93772 5.44534 5.08423 5.40633L12.06 3.53719C12.2064 3.49495 12.3638 3.51412 12.4958 3.59034C12.6278 3.66655 12.7231 3.79324 12.7597 3.9412L14.6265 10.9081Z" fill="#CF1E2F"/>
</g>
</svg>
