<svg xmlns="http://www.w3.org/2000/svg" xmlns:xlink="http://www.w3.org/1999/xlink" width="30" height="30" viewBox="0 0 30 30"><defs><clipPath id="a"><rect width="25.161" height="25.161" fill="#fff" stroke="#1b438b" stroke-width="1"/></clipPath><clipPath id="b"><rect width="25" height="22" transform="translate(-1.267)" fill="#a4b4d1" stroke="#a4b4d1" stroke-width="1"/></clipPath><clipPath id="c"><rect x="7.167" y="-20" width="353" height="629.75" fill="none"/></clipPath><clipPath id="d"><rect width="21" height="21" fill="#fff"/></clipPath><clipPath id="f"><rect width="21" height="21" transform="translate(-0.167 -0.167)" fill="#fff"/></clipPath><clipPath id="g"><rect width="22" height="22" fill="#fff"/></clipPath><clipPath id="h"><rect width="20" height="20" transform="translate(-1 0.133)" fill="#fff"/></clipPath><clipPath id="j"><rect width="30" height="30"/></clipPath></defs><g id="i" clip-path="url(#j)"><g transform="translate(17.5 15)"><rect width="375" height="33" fill="none"/><g transform="translate(0 -3)"><g transform="translate(-1 749)" fill="#fff" stroke="#e8ecf3" stroke-width="1"><rect width="377" height="67" stroke="none"/><rect x="0.5" y="0.5" width="376" height="66" fill="none"/></g><g transform="translate(16 762)"><g transform="translate(3.5 0)"><g clip-path="url(#a)"><path d="M24.894,10.488,12.967,1.755a.654.654,0,0,0-.772,0L.268,10.488a.654.654,0,1,0,.772,1.055l11.541-8.45,11.541,8.45a.654.654,0,0,0,.772-1.055Z" transform="translate(0 -0.263)" fill="#1b438b" stroke="#1b438b" stroke-width="1"/><path d="M22.267,13.626a.654.654,0,0,0-.654.654V24.685h-5.23v-5.68a3.269,3.269,0,1,0-6.538,0v5.68H4.615V14.279a.654.654,0,1,0-1.308,0v11.06a.654.654,0,0,0,.654.654H10.5a.653.653,0,0,0,.651-.6.488.488,0,0,0,0-.051V19.005a1.962,1.962,0,1,1,3.923,0v6.334a.476.476,0,0,0,0,.05.653.653,0,0,0,.651.6h6.538a.654.654,0,0,0,.654-.654V14.279A.654.654,0,0,0,22.267,13.626Z" transform="translate(-0.533 -2.198)" fill="#1b438b" stroke="#1b438b" stroke-width="1"/></g></g><text transform="translate(0 39)" fill="#1b438b" font-size="11" font-family="Poppins-Medium, Poppins" font-weight="500"><tspan x="0" y="0">Home</tspan></text></g><g transform="translate(170.267 762)"><g transform="translate(5)"><g clip-path="url(#b)"><path d="M19.966,1.269a.479.479,0,0,0-.251-.071H5.388A2.225,2.225,0,0,0,3.154,3.406L3.07,15.744H.481A.481.481,0,0,0,0,16.225v2.223A2.96,2.96,0,0,0,2.957,21.4a.489.489,0,0,0,.1-.01H15.009c.071.005.143.008.215.008a3.006,3.006,0,0,0,3-3V11.186h3.243a.481.481,0,0,0,.481-.481V3.563A2.332,2.332,0,0,0,19.966,1.269Zm-19,17.179V16.706H12.224V18.4a2.994,2.994,0,0,0,.794,2.034H2.891a.475.475,0,0,0-.068.005A2,2,0,0,1,.962,18.448Zm16.3-14.885V18.4a2.054,2.054,0,0,1-1.973,2.041.487.487,0,0,0-.079-.007h-.169A2.057,2.057,0,0,1,13.186,18.4V16.225a.481.481,0,0,0-.481-.481H4.032L4.117,3.409A1.262,1.262,0,0,1,5.388,2.16H17.74A2.3,2.3,0,0,0,17.262,3.563Zm3.724,6.661H18.225V3.563a1.381,1.381,0,0,1,2.762,0Z" transform="translate(0.156 0.567)" fill="#a4b4d1" stroke="#a4b4d1" stroke-width="1"/><path d="M8.266,7.969h4.557a.481.481,0,1,0,0-.962H8.266a.481.481,0,0,0,0,.962Z" transform="translate(-1.934 -0.991)" fill="#a4b4d1" stroke="#a4b4d1" stroke-width="1"/><path d="M16.766,11.708h-8.5a.481.481,0,0,0,0,.962h8.5a.481.481,0,0,0,0-.962Z" transform="translate(-1.934 -2.253)" fill="#a4b4d1" stroke="#a4b4d1" stroke-width="1"/><path d="M16.766,16.41h-8.5a.481.481,0,0,0,0,.962h8.5a.481.481,0,0,0,0-.962Z" transform="translate(-1.934 -3.515)" fill="#a4b4d1" stroke="#a4b4d1" stroke-width="1"/></g></g><text transform="translate(-0.267 38)" fill="#a4b4d1" font-size="11" font-family="Poppins-Regular, Poppins"><tspan x="0" y="0">Billers</tspan></text></g><g transform="translate(321.5 762)"><g transform="translate(0 0)"><g transform="translate(6)"><path d="M21.337,20.339a1.337,1.337,0,0,0-.371-1.855l-3.418-2.278V11.569a1.338,1.338,0,1,0-2.676,0v5.351a1.337,1.337,0,0,0,.6,1.113l4.014,2.676a1.338,1.338,0,0,0,1.855-.371Z" transform="translate(-4.17 -3.542)" fill="#a4b4d1"/><path d="M14.543,2.5A11.937,11.937,0,0,0,4.509,7.929V5.51a1,1,0,1,0-2.007,0V9.524a2.344,2.344,0,0,0,2.341,2.341H8.857a1,1,0,1,0,0-2.007H5.689a10.006,10.006,0,1,1-1.107,5.9A1,1,0,1,0,2.59,16,12.041,12.041,0,1,0,14.543,2.5Z" transform="translate(-2.502 -2.5)" fill="#a4b4d1"/></g><text transform="translate(0.5 39)" fill="#a4b4d1" font-size="11" font-family="Poppins-Regular, Poppins"><tspan x="0" y="0">History</tspan></text></g></g></g><g transform="translate(11 120)" clip-path="url(#c)" style="isolation:isolate"><g transform="translate(-11 -120)"><g transform="translate(18.167 112.333)"><g transform="translate(0)"><g transform="translate(9 31)" fill="#fff"><path d="M 338.6429748535156 202.5 L -3.976262331008911 202.5 C -6.470671653747559 202.5 -8.49998950958252 200.4813232421875 -8.49998950958252 198 L -8.49998950958252 5 C -8.49998950958252 2.518681764602661 -6.470671653747559 0.5 -3.976262331008911 0.5 L 338.6429748535156 0.5 C 341.1373596191406 0.5 343.166748046875 2.518681764602661 343.166748046875 5 L 343.166748046875 198 C 343.166748046875 200.4813232421875 341.1373596191406 202.5 338.6429748535156 202.5 Z" stroke="none"/><path d="M -3.97625732421875 1 C -6.1949462890625 1 -8 2.794403076171875 -8 5 L -8 198 C -8 200.2055969238281 -6.1949462890625 202 -3.97625732421875 202 L 338.6429748535156 202 C 340.8616943359375 202 342.666748046875 200.2055969238281 342.666748046875 198 L 342.666748046875 5 C 342.666748046875 2.794403076171875 340.8616943359375 1 338.6429748535156 1 L -3.97625732421875 1 M -3.97625732421875 0 L 338.6429748535156 0 C 341.4175415039062 0 343.666748046875 2.238540649414062 343.666748046875 5 L 343.666748046875 198 C 343.666748046875 200.7614135742188 341.4175415039062 203 338.6429748535156 203 L -3.97625732421875 203 C -6.75079345703125 203 -9 200.7614135742188 -9 198 L -9 5 C -9 2.238540649414062 -6.75079345703125 0 -3.97625732421875 0 Z" stroke="none" fill="#d1d9e8"/></g><text transform="translate(0 7)" fill="#1b438b" font-size="15" font-family="Poppins-SemiBold, Poppins" font-weight="600"><tspan x="0" y="0">Bill Categories</tspan></text><g transform="translate(-1 1)"><g transform="translate(19 142)"><circle cx="21.5" cy="21.5" r="21.5" fill="#fff"/><g transform="translate(11 11)" clip-path="url(#d)"><path d="M20.64,24.76a.4.4,0,1,0-.4-.4A.4.4,0,0,0,20.64,24.76Z" transform="translate(-6.276 -7.644)" fill="#1b438b"/><path d="M23.01,24.76a.4.4,0,1,0-.4-.4A.4.4,0,0,0,23.01,24.76Z" transform="translate(-7.032 -7.644)" fill="#1b438b"/><path d="M25.38,24.76a.4.4,0,1,0-.4-.4A.4.4,0,0,0,25.38,24.76Z" transform="translate(-7.788 -7.644)" fill="#1b438b"/><path d="M14.818,22.8a.4.4,0,1,0-.4-.4A.4.4,0,0,0,14.818,22.8Z" transform="translate(-4.419 -7.018)" fill="#1b438b"/><path d="M11.417.437,10.183,2.123,8.95.437h0a.472.472,0,1,0-.761.557h0L9.295,2.506H1.582A1.684,1.684,0,0,0-.1,4.189V16.98a1.684,1.684,0,0,0,1.682,1.682H2.69V19.87a.472.472,0,1,0,.943,0V18.662h13.1V19.87a.472.472,0,1,0,.943,0V18.662h1.108a1.684,1.684,0,0,0,1.682-1.682V4.189a1.684,1.684,0,0,0-1.682-1.682H11.072L12.178.994h0a.472.472,0,0,0-.761-.557ZM19.523,16.98v.008a.74.74,0,0,1-.739.731H1.582a.74.74,0,0,1-.739-.739V4.189a.74.74,0,0,1,.739-.739h17.2a.74.74,0,0,1,.739.739Z" transform="translate(0.213 -0.078)" fill="#1b438b" stroke="#1b438b" stroke-width="0.2"/><path d="M17.655,6.369H4.7A1.684,1.684,0,0,0,3.018,8.051v8.167A1.684,1.684,0,0,0,4.7,17.9H9.362a.472.472,0,0,0,0-.943H4.7a.74.74,0,0,1-.739-.739V8.051A.74.74,0,0,1,4.7,7.312H17.655a.74.74,0,0,1,.739.739v8.167a.74.74,0,0,1-.739.739H13.007a.472.472,0,0,0,0,.943h4.648a1.684,1.684,0,0,0,1.682-1.682V8.051A1.684,1.684,0,0,0,17.655,6.369Z" transform="translate(-0.782 -2.032)" fill="#1b438b" stroke="#1b438b" stroke-width="0.2"/></g><text transform="translate(22 53)" fill="#4c4c4c" font-size="12" font-family="Poppins-Regular, Poppins"><tspan x="-17.94" y="0">Cable</tspan><tspan x="-7.302" y="15">TV</tspan></text><g transform="translate(90)"><path d="M21.5,0A21.5,21.5,0,1,1,0,21.5,21.5,21.5,0,0,1,21.5,0Z" fill="#fff"/><g transform="translate(15 12)"><path d="M12.983,7.344A4.535,4.535,0,0,0,9.229,2.882V.754a.451.451,0,0,0-.2-.854H4.438a.451.451,0,0,0-.2.854V2.882A4.535,4.535,0,0,0,.483,7.344V17.492a2.233,2.233,0,0,0,.574,1.5.45.45,0,0,0,.341.745h10.67a.45.45,0,0,0,.341-.745,2.233,2.233,0,0,0,.574-1.5Zm-11.6.628h10.7v8.46H1.384ZM8.328.8V2.816H7.184V2.2A.451.451,0,0,0,7.108,1.3H6.358a.451.451,0,0,0-.075.895v.621H5.139V.8ZM5.011,3.717H8.455a3.632,3.632,0,0,1,3.617,3.354H1.394A3.632,3.632,0,0,1,5.011,3.717ZM2.725,18.832a1.342,1.342,0,0,1-1.341-1.341v-.158h10.7v.158a1.342,1.342,0,0,1-1.341,1.341Z" transform="translate(-0.483 0.1)" fill="#1b438b" stroke="#1b438b" stroke-width="0.2"/><path d="M10.512,16.886c-.007-.035-.015-.076-.025-.126a.345.345,0,0,0-.461-.26,1.9,1.9,0,0,0-1.244-1.724c-.062-.031-.115-.058-.152-.08a.345.345,0,0,0-.519.335,2.561,2.561,0,0,1-.006.859A1.915,1.915,0,0,1,8,15.715a.389.389,0,0,0-.4-.243.346.346,0,0,0-.288.271,3.421,3.421,0,0,1-.208.6,2.96,2.96,0,0,0-.292,1.216A1.732,1.732,0,0,0,7.315,18.8a1.915,1.915,0,0,0,1.368.545h0a1.9,1.9,0,0,0,1.373-.563,1.8,1.8,0,0,0,.509-1.308A2.61,2.61,0,0,0,10.512,16.886ZM9.565,18.3a1.217,1.217,0,0,1-.88.355h0a1.23,1.23,0,0,1-.88-.343,1.033,1.033,0,0,1-.3-.748,2.291,2.291,0,0,1,.239-.95l.034-.082a.652.652,0,0,0,.321.131.562.562,0,0,0,.458-.17,1.268,1.268,0,0,0,.28-.894A1.073,1.073,0,0,1,9.3,16.868a.345.345,0,0,0,.056.269.584.584,0,0,0,.45.241.576.576,0,0,0,.074,0c0,.032,0,.068,0,.11A1.114,1.114,0,0,1,9.565,18.3Z" transform="translate(-2.438 -4.604)" fill="#1b438b"/></g></g><text transform="translate(112 53)" fill="#4c4c4c" font-size="12" font-family="Poppins-Regular, Poppins"><tspan x="-10.734" y="0">LPG</tspan><tspan x="-11.856" y="15">Gas</tspan></text><g transform="translate(180)"><path d="M21.5,0A21.5,21.5,0,1,1,0,21.5,21.5,21.5,0,0,1,21.5,0Z" fill="#fff"/><g transform="translate(11 12)"><path d="M20,9.267a.6.6,0,0,0-.6.6v.6H14.816a5.477,5.477,0,0,0-1.5-1.5V5.645h.6a.6.6,0,0,0,0-1.207h-.6V1.42a.6.6,0,0,0-.6-.6H7.887a.6.6,0,0,0-.6.6V4.438h-.6a.6.6,0,0,0,0,1.207h.6V8.977a5.477,5.477,0,0,0-1.5,1.5H1.207v-.6A.6.6,0,0,0,0,9.87v7.243a.6.6,0,0,0,1.207,0v-.6H5.787a5.428,5.428,0,0,0,9.029,0H19.4v.6a.6.6,0,0,0,1.207,0V9.87A.6.6,0,0,0,20,9.267ZM8.49,2.024h3.621V4.438H8.49Zm0,3.621h3.621V8.37a5.432,5.432,0,0,0-3.621,0ZM1.207,15.3V11.681H5.18a5.432,5.432,0,0,0,0,3.622ZM10.3,17.717a4.225,4.225,0,1,1,4.225-4.225A4.23,4.23,0,0,1,10.3,17.717ZM15.423,15.3a5.431,5.431,0,0,0,0-3.622H19.4V15.3Z" transform="translate(0 -0.816)" fill="#1b438b" stroke="#fff" stroke-width="0.2"/><path d="M15.226,16.085l-.5.5A1.81,1.81,0,0,0,12.312,19l-.5.5a.6.6,0,0,0,.854.854l.5-.5a1.81,1.81,0,0,0,2.414-2.414l.5-.5a.6.6,0,0,0-.854-.854Zm-1.28,2.738a.6.6,0,1,1,.6-.6A.6.6,0,0,1,13.946,18.823Z" transform="translate(-3.645 -5.544)" fill="#1b438b" stroke="#fff" stroke-width="0.2"/></g></g><text transform="translate(201 51)" fill="#4c4c4c" font-size="12" font-family="Poppins-Regular, Poppins"><tspan x="-11.856" y="0">Gas</tspan><tspan x="-23.82" y="16">Booking</tspan></text><g transform="translate(276 5)"><path d="M14.208,0A14.208,14.208,0,1,1,0,14.208,14.208,14.208,0,0,1,14.208,0Z" fill="#e8ecf3"/><g transform="translate(7.6 9.587)"><path d="M9.055,14.793a.47.47,0,1,0-.662.662l3.378,3.382H.605a.471.471,0,0,0,0,.942H11.771L8.388,23.157a.479.479,0,0,0,0,.662.467.467,0,0,0,.662,0l4.185-4.185a.46.46,0,0,0,0-.662Z" transform="translate(-0.159 -14.624)" fill="#1b438b" stroke="#1b438b" stroke-width="0.5"/></g></g><text transform="translate(290 51)" fill="#1b438b" font-size="12" font-family="Poppins-Regular, Poppins"><tspan x="-22.77" y="0">View All</tspan></text></g><g transform="translate(15 45)"><text transform="translate(25.833 53)" fill="#4c4c4c" font-size="12" font-family="Poppins-Regular, Poppins"><tspan x="-17.148" y="0">Metro</tspan><tspan x="-28.92" y="15">Recharge</tspan></text><g transform="translate(86)"><g transform="translate(6)"><path d="M21.5,0A21.5,21.5,0,1,1,0,21.5,21.5,21.5,0,0,1,21.5,0Z" fill="#fff"/><g transform="translate(10.242 11.042)"><path d="M4.974,18.6a.5.5,0,0,1,.474-.515h.072l10.522-11.7a.8.8,0,0,1,1.174-.016l.509.539a.957.957,0,0,1,.015,1.273L8.662,18.275a.536.536,0,0,1,.108.322v9.33h2.622v-1.8H10.324a.372.372,0,0,1-.356-.386V22.683a3.059,3.059,0,0,1,.93-2.219,1.29,1.29,0,0,1,.019-2.57h1.325l.423-1.963a1.6,1.6,0,0,1,1.456-1.253h8.066a1.547,1.547,0,0,1,1.419,1.261l.361,1.954h1.186a1.29,1.29,0,0,1,.019,2.57,3.06,3.06,0,0,1,.93,2.219V25.74a.372.372,0,0,1-.356.386H24.677v1.8h1.285a.387.387,0,0,1,0,.772H5.337a.372.372,0,0,1-.356-.386c0-.01,0-.02,0-.03a.559.559,0,0,1-.01-.1V18.6Zm3.084.257H5.686v9.067H8.058Zm-.218-.772,1.2-1.337-.675-.723-1.854,2.06Zm4.841-6.855-1.66,1.845.675.723,1.659-1.845Zm1.172.171,1.659-1.845-.675-.723-1.659,1.845Zm-3.328,2.227L8.865,15.469l.675.723L11.2,14.348Zm6.739-6.073a.134.134,0,0,0-.035-.091l-.509-.539a.114.114,0,0,0-.168,0L15.335,8.278,16.01,9l1.221-1.358A.135.135,0,0,0,17.264,7.552Zm-3.5,20.375v-1.8H12.1v1.8Zm.712,0h7.117v-1.8H14.476Zm-3.559-9.261a.516.516,0,0,0,0,1.029h.937l.222-1.029Zm11.99-2.575a.818.818,0,0,0-.721-.641H14.12a.887.887,0,0,0-.762.656l-.78,3.625c.04,0,.079-.006.119-.006H23.373c.07,0,.139.006.207.011Zm2.719,3.089a.5.5,0,0,0-.474-.514H24.108l.19,1.029h.854A.5.5,0,0,0,25.626,19.18Zm-.237,6.174V22.683A2.109,2.109,0,0,0,23.373,20.5H12.7a2.109,2.109,0,0,0-2.017,2.187v2.672H25.389Zm-1.423.772H22.305v1.8h1.661Z" transform="translate(-4.974 -6.123)" fill="#1b438b" stroke="#1b438b" stroke-width="0.2"/><path d="M13.478,64.877a1.5,1.5,0,1,1-1.5,1.5A1.505,1.505,0,0,1,13.478,64.877Zm0,2.313a.81.81,0,1,0-.81-.81A.811.811,0,0,0,13.478,67.19Z" transform="translate(4.764 -49.498)" fill="#1b438b" stroke="#1b438b" stroke-width="0.2"/><path d="M56.478,64.877a1.5,1.5,0,1,1-1.5,1.5A1.505,1.505,0,0,1,56.478,64.877Zm0,2.313a.81.81,0,1,0-.81-.81A.811.811,0,0,0,56.478,67.19Z" transform="translate(-48.529 -49.498)" fill="#1b438b" stroke="#1b438b" stroke-width="0.2"/></g></g><text transform="translate(27 53)" fill="#4c4c4c" font-size="12" font-family="Poppins-Regular, Poppins"><tspan x="-21.948" y="0">FASTag</tspan><tspan x="-28.92" y="15">Recharge</tspan></text></g><g transform="translate(178)"><g transform="translate(5)"><circle cx="21.5" cy="21.5" r="21.5" fill="#fff"/><g transform="translate(11 11)" clip-path="url(#d)"><path d="M5.772,10.812A6.093,6.093,0,0,0,7.51,15.187a5.824,5.824,0,0,1,1.577,4.129v.606a2.367,2.367,0,0,0,2.367,2.367H12.4a2.367,2.367,0,0,0,2.367-2.367v-.776a5.587,5.587,0,0,1,1.548-3.911A6.155,6.155,0,0,0,11.672,4.771,6.231,6.231,0,0,0,5.772,10.812ZM13.85,18.5c0,.213-.028.426-.028.644v.3H10.033v-.133a7.763,7.763,0,0,0-.047-.814ZM12.4,21.342h-.947a1.42,1.42,0,0,1-1.335-.947h3.617A1.421,1.421,0,0,1,12.4,21.342ZM11.709,5.717h.218a5.208,5.208,0,0,1,3.717,8.854,6.25,6.25,0,0,0-1.629,2.983H12.274l1.957.947a.473.473,0,0,0,0-.947H9.5a.473.473,0,0,0,0,.947l2.142-.947H9.82a6.486,6.486,0,0,0-1.629-3.006,5.156,5.156,0,0,1-1.472-3.717A5.27,5.27,0,0,1,11.709,5.717Z" transform="translate(-2.167 -1.218)" fill="#1b438b" stroke="#1b438b" stroke-width="0.1"/><path d="M14.413,2.86h0a.508.508,0,0,0,.508-.508V.458a.508.508,0,1,0-1.016,0V2.352A.508.508,0,0,0,14.413,2.86Z" transform="translate(-4.653 0.254)" fill="#1b438b" stroke="#1b438b" stroke-width="0.1"/><path d="M24.126,3.506l.025.025-.025-.025L22.233,5.4h0a.508.508,0,0,0,0,.719h0l0,0h0a.508.508,0,0,0,.719,0h0l0,0h0l1.894-1.894a.51.51,0,1,0-.721-.721Z" transform="translate(-7.152 -0.787)" fill="#1b438b" stroke="#1b438b" stroke-width="0.1"/><path d="M5.755,6.124h0l0,0h0a.508.508,0,0,0,0-.719h0l0,0L3.863,3.506a.51.51,0,0,0-.721.721L5.036,6.121h0A.508.508,0,0,0,5.755,6.124Z" transform="translate(-1.318 -0.787)" fill="#1b438b" stroke="#1b438b" stroke-width="0.1"/><path d="M24.132,14.776a.508.508,0,0,0,.508.508h1.894a.508.508,0,1,0,0-1.016H24.64A.508.508,0,0,0,24.132,14.776Z" transform="translate(-7.778 -4.122)" fill="#1b438b" stroke="#1b438b" stroke-width="0.1"/><path d="M.95,14.776a.508.508,0,0,0,.508.508H3.352a.508.508,0,0,0,0-1.016H1.458A.508.508,0,0,0,.95,14.776Z" transform="translate(-0.694 -4.122)" fill="#1b438b" stroke="#1b438b" stroke-width="0.1"/></g></g><text transform="translate(26 53)" fill="#4c4c4c" font-size="12" font-family="Poppins-Regular, Poppins"><tspan x="-28.494" y="0">Electricity</tspan><tspan x="-8.106" y="15">Bill</tspan></text></g><g transform="translate(272)"><path d="M21.5,0A21.5,21.5,0,1,1,0,21.5,21.5,21.5,0,0,1,21.5,0Z" fill="#fff"/><g transform="translate(11 11)"><path d="M8.625,9.844H9.734v7.469H8.625Z" transform="translate(-2.845 -3.396)" fill="#1b438b"/><path d="M10.87,9.27a3.392,3.392,0,0,0-4.807,0L5.25,8.456a4.553,4.553,0,0,1,6.434,0Z" transform="translate(-2.029 -2.582)" fill="#1b438b"/><path d="M12.244,6.827a6.026,6.026,0,0,0-8.43,0L3,6.013a7.1,7.1,0,0,1,9.983,0Z" transform="translate(-1.225 -1.669)" fill="#1b438b"/><path d="M13.435,4.586a8.3,8.3,0,0,0-11.758,0L.937,3.772a9.508,9.508,0,0,1,13.311,0Z" transform="translate(-0.79 -1.055)" fill="#1b438b"/><path d="M24.187,27.281H25.3v1.331H24.187Z" transform="translate(-7.185 -7.612)" fill="#1b438b"/><path d="M4.406,27.281H5.515v1.331H4.406Z" transform="translate(-1.522 -7.612)" fill="#1b438b"/><path d="M19.95,25.977H2.546a1.85,1.85,0,0,1-1.8-1.923V20.579a1.849,1.849,0,0,1,1.8-1.923h17.4a1.85,1.85,0,0,1,1.8,1.923v3.476A1.768,1.768,0,0,1,19.95,25.977Zm-17.4-6.212a.8.8,0,0,0-.76.813v3.476a.8.8,0,0,0,.76.813h17.4a.8.8,0,0,0,.76-.813V20.579a.8.8,0,0,0-.76-.813Z" transform="translate(-0.75 -5.791)" fill="#1b438b"/><path d="M16.219,22.5h1.109v1.257H16.219Z" transform="translate(-4.865 -6.414)" fill="#1b438b"/><path d="M20.437,22.5h1.109v1.257H20.437Z" transform="translate(-5.987 -6.414)" fill="#1b438b"/><path d="M24.656,22.5h1.109v1.257H24.656Z" transform="translate(-7.284 -6.414)" fill="#1b438b"/></g></g><text transform="translate(293 53)" fill="#4c4c4c" font-size="12" font-family="Poppins-Regular, Poppins"><tspan x="-33.876" y="0">Broadband</tspan></text><g transform="translate(4.833)"><circle cx="21.5" cy="21.5" r="21.5" fill="#fff"/><g transform="translate(-12.67 -89.24)"><g transform="translate(26.271 100.782)"><g transform="translate(0 2.918)"><path d="M233.171,216V222.9c0,.429.005.86,0,1.289,0,.042,0,.087-.005.13,0,.021-.005.161-.005.074s-.011.05-.013.072l-.032.14a2.436,2.436,0,0,1-.077.236c-.032.087.05-.1-.008.019-.021.042-.042.085-.064.124a2.087,2.087,0,0,1-.13.206.4.4,0,0,0-.029.042c-.045.064.021-.016.019-.024.005.016-.079.093-.09.106a2.077,2.077,0,0,1-.172.169c-.029.026-.064.053-.093.079-.045.04.037-.032.037-.029s-.061.045-.071.05c-.066.045-.138.087-.209.127l-.109.056-.048.021c-.061.032.122-.045.013-.005a2.474,2.474,0,0,1-.238.074l-.106.024a.674.674,0,0,1-.071.013c-.026.005-.117,0-.037.008s.021,0,0,0a.649.649,0,0,1-.074.005l-.111.005h-9.92c-.037,0-.074,0-.114,0l-.127-.011c-.061,0,.05.008.05.008-.029-.008-.061-.011-.09-.016-.082-.016-.164-.034-.244-.058-.04-.013-.079-.024-.116-.04-.016-.005-.032-.013-.05-.019-.064-.019.1.048.013.005a2.416,2.416,0,0,1-.217-.114l-.1-.064c-.024-.016-.14-.09-.074-.05s-.032-.029-.053-.045-.061-.053-.09-.082a2.361,2.361,0,0,1-.175-.191c-.061-.069.061.09-.013-.016l-.069-.1a1.919,1.919,0,0,1-.127-.228.376.376,0,0,1-.021-.048c-.045-.093.011.029.013.029-.013,0-.04-.106-.042-.116a2.176,2.176,0,0,1-.072-.257l-.024-.124c-.011-.058.008.05.008.05a.327.327,0,0,0-.008-.071c-.005-.061-.008-.124-.008-.185v-7.847c0-.143,0-.286,0-.429,0-.087.008-.172.013-.259,0-.037.005-.074.011-.109a.328.328,0,0,1,.008-.071c-.011.013-.016.111-.005.032a4.438,4.438,0,0,1,.111-.527c.045-.159.1-.315.159-.471.034-.087-.042.093.008-.019.016-.037.034-.074.05-.111.037-.079.077-.156.119-.233a4.464,4.464,0,0,1,.267-.429l.071-.1c.04-.058-.064.079-.019.024l.032-.04c.056-.069.111-.132.169-.2a4.077,4.077,0,0,1,.357-.352c.061-.053.124-.106.185-.156s-.079.058.016-.013c.037-.026.074-.056.114-.082a4.451,4.451,0,0,1,.432-.262c.071-.04.146-.074.22-.109.037-.019.074-.032.111-.05.053-.026-.048.021-.045.019a.332.332,0,0,1,.082-.032,4.4,4.4,0,0,1,.49-.156c.082-.021.161-.04.244-.056l.124-.024.053-.008c.013,0,.124-.008.037-.005s.048-.005.074-.008c.042-.005.085-.008.127-.011.093-.005.185-.011.278-.011h5.523c.071,0,.146,0,.217.005s.172.011.257.019a.394.394,0,0,0,.056.005c.1.011-.024-.008-.032-.005a.534.534,0,0,1,.143.021,4.014,4.014,0,0,1,.506.119c.079.024.159.05.236.077.04.013.077.029.117.042.016.005.032.013.05.019.061.024-.1-.045-.013-.005a4.664,4.664,0,0,1,.876.508.308.308,0,0,1,.056.042s-.082-.069-.04-.029.064.05.1.077c.066.056.132.114.2.175a5.013,5.013,0,0,1,.347.365l.077.093c.077.093-.042-.058.013.016s.1.14.151.214a4.8,4.8,0,0,1,.254.437c.037.074.071.148.106.222s-.04-.1.008.019c.016.04.029.077.045.116a4.144,4.144,0,0,1,.14.458c.021.082.037.164.053.246.008.042.016.082.021.124a.658.658,0,0,0,.011.071s-.013-.111-.008-.05a3.342,3.342,0,0,1,.042.537.53.53,0,0,0,1.059,0,5.03,5.03,0,0,0-3.947-4.885,6.048,6.048,0,0,0-1.234-.117H224a6.433,6.433,0,0,0-.874.04,5.014,5.014,0,0,0-2.142.773,5.07,5.07,0,0,0-2.25,3.781c-.045.5-.019,1.019-.019,1.522v5.711c0,.447,0,.895,0,1.34a2.8,2.8,0,0,0,.937,2.086,2.865,2.865,0,0,0,1.877.712c.437,0,.874,0,1.311,0h8.533a2.816,2.816,0,0,0,2.836-2.5,4.533,4.533,0,0,0,.019-.569V216a.528.528,0,1,0-1.056,0Z" transform="translate(-218.708 -211)" fill="#1b438b"/></g><g transform="translate(2.243 13.525)"><path d="M305.375,613.143c0,.027-.008.159,0,.074s-.013.045-.021.069a.3.3,0,0,1-.024.066c-.008,0,.064-.119.011-.032a.707.707,0,0,1-.071.119c-.005,0,.071-.079.029-.04-.016.016-.029.034-.045.05s-.079.087-.087.082.114-.071.024-.021c-.016.008-.029.018-.045.026l-.061.032c-.05.034.09-.026.029-.013-.04.008-.079.024-.119.034-.1.029.037-.008.034,0s-.077.005-.072.005c-.042,0-.085,0-.13,0-.061,0,.053,0,.05.008a.688.688,0,0,1-.087-.021l-.05-.016c-.1-.026.034.008.029.013a.623.623,0,0,1-.106-.058l-.016-.008c-.037-.027-.037-.027,0,0,.029,0,.034.032,0,0s-.066-.064-.1-.1c-.071-.074.024.024.019.026s-.04-.064-.037-.058c-.011-.019-.071-.138-.034-.061s-.013-.05-.019-.069-.008-.034-.013-.053c-.019-.061,0,.114,0,.016,0-.042,0-.085,0-.13.008-.135-.021.069,0-.018.011-.04.026-.079.034-.119.013-.066-.053.082-.013.029.016-.021.026-.053.042-.077a.4.4,0,0,0,.029-.042c.021-.061-.069.066-.021.024.029-.027.053-.061.082-.087a.459.459,0,0,0,.04-.034c.045-.048-.085.042-.024.021a.538.538,0,0,0,.119-.069c.05-.04-.1.021-.029.013.016,0,.034-.013.05-.016s.045-.011.069-.019c.056-.016.008-.013,0,0s-.024,0-.034.005l.056-.005.056,0,.074,0c.1,0-.077-.021-.016,0a.857.857,0,0,0,.135.037c.061.008-.053-.011-.045-.021a.532.532,0,0,1,.077.04c.019.01.037.026.058.037.053.024-.087-.082-.011-.011.034.032.066.064.1.1.058.058-.029-.021-.018-.026a.551.551,0,0,1,.037.058c.011.019.021.04.034.061.045.074-.013-.032-.011-.032a.651.651,0,0,1,.045.154c.016.053-.005-.048-.005-.053a.561.561,0,0,0,0,.117.53.53,0,1,0,1.059,0,1.54,1.54,0,0,0-1.022-1.43,1.511,1.511,0,0,0-1.631.437,1.513,1.513,0,1,0,2.653,1,.53.53,0,0,0-1.059,0Z" transform="translate(-303.41 -611.629)" fill="#1b438b"/></g><g transform="translate(10.27 13.525)"><path d="M608.575,613.143c0,.027-.008.159,0,.074s-.013.045-.021.069a.285.285,0,0,1-.024.066c-.008,0,.064-.119.011-.032a.7.7,0,0,1-.072.119c-.005,0,.072-.079.029-.04-.016.016-.029.034-.045.05s-.079.087-.087.082.114-.071.024-.021c-.016.008-.029.018-.045.026l-.061.032c-.05.034.09-.026.029-.013-.04.008-.079.024-.119.034-.1.029.037-.008.035,0s-.077.005-.072.005c-.042,0-.085,0-.13,0-.061,0,.053,0,.05.008a.688.688,0,0,1-.087-.021l-.05-.016c-.1-.026.034.008.029.013a.62.62,0,0,1-.106-.058l-.016-.008c-.037-.027-.037-.027,0,0,.029,0,.035.032,0,0s-.066-.064-.1-.1c-.072-.074.024.024.018.026s-.04-.064-.037-.058c-.011-.019-.072-.138-.034-.061s-.013-.05-.019-.069-.008-.034-.013-.053c-.018-.061,0,.114,0,.016,0-.042,0-.085,0-.13.008-.135-.021.069,0-.018.011-.04.027-.079.034-.119.013-.066-.053.082-.013.029.016-.021.027-.053.042-.077a.373.373,0,0,0,.029-.042c.021-.061-.069.066-.021.024.029-.027.053-.061.082-.087a.454.454,0,0,0,.04-.034c.045-.048-.085.042-.024.021a.539.539,0,0,0,.119-.069c.05-.04-.1.021-.029.013.016,0,.034-.013.05-.016s.045-.011.069-.019c.055-.016.008-.013,0,0s-.024,0-.035.005l.056-.005.056,0,.074,0c.1,0-.077-.021-.016,0a.856.856,0,0,0,.135.037c.061.008-.053-.011-.045-.021a.528.528,0,0,1,.077.04c.019.01.037.026.058.037.053.024-.087-.082-.011-.011.034.032.066.064.1.1.058.058-.029-.021-.019-.026a.577.577,0,0,1,.037.058c.01.019.021.04.034.061.045.074-.013-.032-.011-.032a.644.644,0,0,1,.045.154c.016.053-.005-.048-.005-.053a.559.559,0,0,0,0,.117.53.53,0,0,0,1.059,0,1.54,1.54,0,0,0-1.022-1.43,1.511,1.511,0,0,0-1.631.437,1.513,1.513,0,1,0,2.653,1,.53.53,0,0,0-1.059,0Z" transform="translate(-606.61 -611.629)" fill="#1b438b"/></g><g transform="translate(2.264 5.654)"><path d="M313.406,319.93h-5.274c-.7,0-1.4,0-2.094,0-.056,0-.114-.013-.167-.008.016,0,.124.026.034,0l-.069-.016a.655.655,0,0,1-.132-.042c0-.008.1.053.032.013l-.061-.032c-.016-.008-.148-.077-.146-.093s.1.09.026.018l-.05-.048a.786.786,0,0,1-.093-.1s.074.111.021.026a.441.441,0,0,1-.037-.058.879.879,0,0,1-.082-.154c.005-.005.045.13.016.029-.005-.021-.016-.045-.021-.066a.581.581,0,0,0-.032-.138c.008.011.011.13.005.034a.648.648,0,0,0-.005-.072v-.042c-.005-.373,0-.747,0-1.117v-1.615c0-.109,0-.22,0-.328a.648.648,0,0,1,.005-.072c.005-.085,0,.037-.005.034a1.4,1.4,0,0,1,.032-.138c.005-.021.016-.045.021-.066.024-.079-.008.037-.016.029s.069-.135.082-.154a.432.432,0,0,0,.037-.058c.045-.069-.016.032-.021.026a.767.767,0,0,1,.093-.1l.05-.048c.058-.058-.026.027-.026.019s.116-.077.13-.085l.061-.032c.1-.053-.016,0-.016.005a.707.707,0,0,1,.132-.042l.069-.016c.082-.021-.037.005-.034,0s.13-.008.146-.008H313.3a1.2,1.2,0,0,1,.249.008c0,.011-.119-.024-.034,0,.029.008.058.013.085.021a.483.483,0,0,1,.066.021c.029.008.085.008.018.005s-.016-.008.016.008l.061.032c.013.008.132.069.13.085s-.085-.077-.026-.019l.05.048a.769.769,0,0,1,.093.1s-.069-.1-.011-.011a.435.435,0,0,1,.037.058.623.623,0,0,1,.071.138c-.008.008-.037-.111-.016-.029.005.021.016.045.021.066a1.384,1.384,0,0,1,.032.138c-.008,0-.011-.119-.005-.034,0,.024,0,.048.005.071v3.106a.647.647,0,0,1-.005.071c-.005.1,0-.024.005-.034a.577.577,0,0,0-.032.138c-.005.021-.016.045-.021.066-.029.1.011-.034.016-.029a.873.873,0,0,1-.082.154.436.436,0,0,0-.037.058c-.056.085.019-.029.021-.026a.786.786,0,0,1-.093.1l-.05.048c-.074.071.026-.024.026-.018s-.1.069-.114.077a.6.6,0,0,1-.122.064s.119-.04.013-.008a.642.642,0,0,0-.066.021l-.069.016c-.005,0-.011,0-.019,0-.048.008-.048.008,0,0,.011,0,.024,0,.034-.005-.019,0-.037,0-.053.005a.515.515,0,0,0-.09-.005.529.529,0,1,0,0,1.059,1.826,1.826,0,0,0,1.8-1.816c0-.421,0-.842,0-1.263v-1.578a2.454,2.454,0,0,0-.061-.635,1.8,1.8,0,0,0-.924-1.141,2.478,2.478,0,0,0-1.128-.2h-4.742c-.765,0-1.533,0-2.3,0a1.833,1.833,0,0,0-1.777,1.34,5.288,5.288,0,0,0-.061,1.311v2.168a1.856,1.856,0,0,0,.447,1.2,1.8,1.8,0,0,0,1.353.617h7.389a.529.529,0,1,0,0-1.059Z" transform="translate(-304.206 -314.356)" fill="#1b438b"/></g><g transform="translate(0.217 17.843)"><g transform="translate(0 0)"><path d="M241.465,777.626h-12.3c-.564,0-1.133-.021-1.7,0h-.024c.154.265.3.532.458.8l1.808-2.539.257-.36-.458.262h8.671c.4,0,.8.018,1.2,0h.016l-.458-.262,1.808,2.539.257.36a.543.543,0,0,0,.725.191.538.538,0,0,0,.191-.725c-.68-.956-1.358-1.919-2.044-2.87a.61.61,0,0,0-.484-.291c-.029,0-.058,0-.087,0h-8.933c-.286,0-.572-.011-.858,0-.326.013-.471.273-.635.506-.2.281-.4.564-.6.845q-.608.854-1.218,1.708c-.024.034-.05.069-.074.1a.533.533,0,0,0,.458.8h12.3c.564,0,1.133.013,1.7,0h.024a.53.53,0,0,0,0-1.059Z" transform="translate(-226.903 -774.722)" fill="#1b438b"/></g></g><g transform="translate(7.241)"><path d="M492.2,101.312v2.9a.534.534,0,0,0,.529.53.54.54,0,0,0,.53-.53v-2.9a.529.529,0,1,0-1.059,0Z" transform="translate(-492.2 -100.782)" fill="#1b438b"/></g><g transform="translate(2.84 0.006)"><path d="M326.512,102.059h8.816a.53.53,0,0,0,0-1.059h-8.816a.53.53,0,0,0,0,1.059Z" transform="translate(-325.982 -101)" fill="#1b438b"/></g></g></g></g></g></g></g></g><g transform="translate(18.333 366.333)"><g transform="translate(0)"><g transform="translate(9 -9)" fill="#fff"><path d="M 338.6429748535156 135.25 L -3.976262331008911 135.25 C -5.220671653747559 135.25 -6.383853435516357 134.9319610595703 -7.251534938812256 134.3544616699219 C -8.056626319885254 133.8186340332031 -8.49998950958252 133.1268157958984 -8.49998950958252 132.4064025878906 L -8.49998950958252 3.343590974807739 C -8.49998950958252 2.62322735786438 -8.056626319885254 1.931409120559692 -7.251534938812256 1.395545482635498 C -6.383853435516357 0.818045437335968 -5.220671653747559 0.5 -3.976262331008911 0.5 L 338.6429748535156 0.5 C 339.8873596191406 0.5 341.0505981445312 0.818045437335968 341.9182739257812 1.395545482635498 C 342.723388671875 1.931363582611084 343.166748046875 2.62322735786438 343.166748046875 3.343590974807739 L 343.166748046875 132.4064025878906 C 343.166748046875 133.1268157958984 342.723388671875 133.8186340332031 341.9182739257812 134.3544616699219 C 341.0505981445312 134.9319610595703 339.8873596191406 135.25 338.6429748535156 135.25 Z" stroke="none"/><path d="M -3.97625732421875 1 C -5.1065673828125 1 -6.19940185546875 1.295867919921875 -6.97454833984375 1.811767578125 C -7.35748291015625 2.066680908203125 -8 2.604629516601562 -8 3.343597412109375 L -8 132.4064025878906 C -8 133.1453704833984 -7.35748291015625 133.6833190917969 -6.97454833984375 133.9381866455078 C -6.1993408203125 134.4540863037109 -5.106536865234375 134.75 -3.97625732421875 134.75 L 338.6429748535156 134.75 C 339.7732849121094 134.75 340.8660888671875 134.4540863037109 341.6412963867188 133.9381866455078 C 342.0242309570312 133.6833190917969 342.666748046875 133.1453704833984 342.666748046875 132.4064025878906 L 342.666748046875 3.343597412109375 C 342.666748046875 2.604629516601562 342.0242309570312 2.066680908203125 341.6412963867188 1.811767578125 C 340.8660888671875 1.295867919921875 339.7732849121094 1 338.6429748535156 1 L -3.97625732421875 1 M -3.97625732421875 0 L 338.6429748535156 0 C 341.4175415039062 0 343.666748046875 1.4969482421875 343.666748046875 3.343597412109375 L 343.666748046875 132.4064025878906 C 343.666748046875 134.2530059814453 341.4175415039062 135.75 338.6429748535156 135.75 L -3.97625732421875 135.75 C -6.75079345703125 135.75 -9 134.2530059814453 -9 132.4064025878906 L -9 3.343597412109375 C -9 1.4969482421875 -6.75079345703125 0 -3.97625732421875 0 Z" stroke="none" fill="#d1d9e8"/></g><text transform="translate(17.833 23)" fill="#1b438b" font-size="15" font-family="Poppins-SemiBold, Poppins" font-weight="600"><tspan x="0" y="0">More Services</tspan></text><g transform="translate(-1 -11)"><g transform="translate(15 45)"><text transform="translate(24 53)" fill="#4c4c4c" font-size="12" font-family="Poppins-Regular, Poppins"><tspan x="-24.33" y="0">Housing</tspan><tspan x="-21.762" y="15">Society</tspan></text><g transform="translate(86)"><g transform="translate(6)"><path d="M21.5,0A21.5,21.5,0,1,1,0,21.5,21.5,21.5,0,0,1,21.5,0Z" transform="translate(-0.333)" fill="#fff"/><g transform="translate(10.833 11.167)" clip-path="url(#f)"><path d="M5.466,3.118a.386.386,0,0,1,.386-.386h9.238a.386.386,0,0,1,.386.386v4.2a.454.454,0,0,0,.454.454h2.52a.386.386,0,0,1,.386.386V19.076a.386.386,0,0,1-.386.386H2.493a.386.386,0,0,1-.386-.386V8.158a.386.386,0,0,1,.386-.386h2.52a.454.454,0,0,0,.454-.454Zm.386-1.293A1.293,1.293,0,0,0,4.559,3.118V6.864H2.493A1.293,1.293,0,0,0,1.2,8.158V19.076a1.293,1.293,0,0,0,1.293,1.293H18.451a1.293,1.293,0,0,0,1.293-1.293V8.158a1.293,1.293,0,0,0-1.293-1.293H16.385V3.118a1.293,1.293,0,0,0-1.293-1.293Z" transform="translate(-0.394 -0.599)" fill="#1b438b" stroke="#1b438b" stroke-width="0.3"/><g transform="translate(7.559 3.779)"><path d="M14.921,6.25a.546.546,0,0,1,.546.546v4.367a.546.546,0,0,1-1.092,0V6.8A.546.546,0,0,1,14.921,6.25Z" transform="translate(-12.191 -6.25)" fill="#1b438b" fill-rule="evenodd"/><path d="M17.334,9.3a.546.546,0,0,1-.546.546H12.421a.546.546,0,1,1,0-1.092h4.367A.546.546,0,0,1,17.334,9.3Z" transform="translate(-11.875 -6.566)" fill="#1b438b" fill-rule="evenodd"/></g><path d="M7.279,15.575a.454.454,0,0,0-.454.454v8.4a.454.454,0,0,0,.454.454H17.357a.454.454,0,0,0,.454-.454v-8.4a.454.454,0,0,0-.454-.454Zm9.625,8.4H7.732V16.482H16.9Z" transform="translate(-2.239 -5.11)" fill="#1b438b" stroke="#1b438b" stroke-width="0.3"/><path d="M14.795,15.625a.42.42,0,0,1,.42.42v8.4a.42.42,0,0,1-.84,0v-8.4A.42.42,0,0,1,14.795,15.625Z" transform="translate(-4.717 -5.127)" fill="#1b438b" fill-rule="evenodd"/><path d="M11.045,21.25a.42.42,0,0,1,.42.42v.84a.42.42,0,1,1-.84,0v-.84A.42.42,0,0,1,11.045,21.25Z" transform="translate(-3.486 -6.972)" fill="#1b438b" fill-rule="evenodd"/><path d="M18.545,21.25a.42.42,0,0,1,.42.42v.84a.42.42,0,1,1-.84,0v-.84A.42.42,0,0,1,18.545,21.25Z" transform="translate(-5.947 -6.972)" fill="#1b438b" fill-rule="evenodd"/></g></g><text transform="translate(27 53)" fill="#4c4c4c" font-size="12" font-family="Poppins-Regular, Poppins"><tspan x="-24.366" y="0">Hospital</tspan><tspan x="-24.816" y="15">Services</tspan></text></g><g transform="translate(178)"><g transform="translate(5)"><circle cx="21.5" cy="21.5" r="21.5" transform="translate(-0.167)" fill="#fff"/><g transform="translate(10.833 9)"><g transform="translate(0.833 1)" clip-path="url(#g)"><path d="M17.184,22.834V14.611a.506.506,0,1,0-1.012,0v8.223a.506.506,0,1,0,1.012,0Z" transform="translate(-4.288 -3.74)" fill="#1b438b" stroke="#5518b5" stroke-width="0.1"/><path d="M20.986,22.834V14.611a.506.506,0,1,0-1.012,0v8.223a.506.506,0,1,0,1.012,0Z" transform="translate(-5.296 -3.74)" fill="#1b438b" stroke="#5518b5" stroke-width="0.1"/><path d="M21.364,24.839V22.494a.506.506,0,0,0-.506-.506H18.812v-8.66a.506.506,0,0,0-1.012,0v9.166a.506.506,0,0,0,.506.506h2.047v1.334H2.464V23H4.51a.506.506,0,0,0,.506-.506V13.328a.506.506,0,0,0-1.012,0v8.66H1.958a.506.506,0,0,0-.506.506v2.345a.506.506,0,0,0,.506.506h18.9A.506.506,0,0,0,21.364,24.839Z" transform="translate(-0.385 -3.399)" fill="#1b438b" stroke="#1b438b" stroke-width="0.1"/><path d="M9.66,22.834V14.611a.506.506,0,1,0-1.012,0v8.223a.506.506,0,1,0,1.012,0Z" transform="translate(-2.293 -3.74)" fill="#1b438b" stroke="#5518b5" stroke-width="0.1"/><path d="M13.461,22.834V14.611a.506.506,0,1,0-1.012,0v8.223a.506.506,0,1,0,1.012,0Z" transform="translate(-3.301 -3.74)" fill="#1b438b" stroke="#5518b5" stroke-width="0.1"/><path d="M21.585,8.061h0a.473.473,0,0,1-.452.311H1.433A.472.472,0,0,1,.98,8.06h0l.035-.012Zm0,0a.434.434,0,0,0-.178-.5m.178.5-.178-.5m0,0h0m0,0h0m0,0L11.622,1.032m9.786,6.527L11.622,1.032m0,0a.5.5,0,0,0-.545,0ZM2.942,7.477l8.4-5.532,8.295,5.532Z" transform="translate(-0.26 -0.252)" fill="#1b438b" stroke="#1b438b" stroke-width="0.1"/></g></g></g><text transform="translate(26 53)" fill="#4c4c4c" font-size="12" font-family="Poppins-Regular, Poppins"><tspan x="-29.028" y="0">Municipal</tspan><tspan x="-24.816" y="15">Services</tspan></text></g><g transform="translate(272)"><path d="M21.5,0A21.5,21.5,0,1,1,0,21.5,21.5,21.5,0,0,1,21.5,0Z" transform="translate(-0.333)" fill="#fff"/><g transform="translate(13.667 12)"><path d="M16.349,0H4.952A2.274,2.274,0,0,0,2.681,2.272V17.136a2.274,2.274,0,0,0,2.272,2.272h11.4a2.274,2.274,0,0,0,2.272-2.272V2.272A2.274,2.274,0,0,0,16.349,0Zm1.362,17.136A1.364,1.364,0,0,1,16.349,18.5H4.952A1.363,1.363,0,0,1,3.59,17.136V2.272A1.363,1.363,0,0,1,4.952.91h11.4a1.363,1.363,0,0,1,1.362,1.362ZM7.435,6.241a.455.455,0,0,0,.455-.455V5.338H8.4a.455.455,0,1,0,0-.91H7.89V2.2a.455.455,0,0,0-.815-.278L5.007,4.605a.455.455,0,0,0,.36.733H6.98v.449a.455.455,0,0,0,.455.455ZM6.293,4.428l.687-.891v.891Zm5.268,2.3a.455.455,0,0,0-.643,0L7.805,9.842a2.388,2.388,0,0,0,0,3.369,2.189,2.189,0,0,0,1.682.72L9.056,15.4a.455.455,0,0,0,.436.583h3.494a.455.455,0,0,0,.437-.583l-.431-1.471a2.19,2.19,0,0,0,1.682-.72,2.385,2.385,0,0,0,0-3.369Zm2.469,5.838a1.231,1.231,0,0,1-1.51.32.455.455,0,0,0-.623.543l.482,1.645H10.1l.482-1.645a.455.455,0,0,0-.623-.543,1.231,1.231,0,0,1-1.51-.32,1.478,1.478,0,0,1,0-2.082L11.239,7.7l2.791,2.791a1.474,1.474,0,0,1,0,2.082Z" transform="translate(-2.681)" fill="#1b438b" stroke="#1b438b" stroke-width="0.2"/><path d="M8.975,7.062A.455.455,0,0,1,8.2,6.74V6.292H6.585a.455.455,0,0,1-.36-.733l2.068-2.68a.455.455,0,0,1,.815.278V5.382h.51a.455.455,0,1,1,0,.91h-.51V6.74A.455.455,0,0,1,8.975,7.062Z" transform="translate(-3.899 -0.954)" fill="#1b438b"/><path d="M8,6.47l.97-.97v.97Z" transform="translate(-4.559 -1.942)" fill="#fff"/></g></g><text transform="translate(293 53)" fill="#4c4c4c" font-size="12" font-family="Poppins-Regular, Poppins"><tspan x="-23.172" y="0">Clubs &amp;</tspan><tspan x="-34.662" y="13">Association</tspan></text><g transform="translate(3)"><circle cx="21.5" cy="21.5" r="21.5" transform="translate(-0.333)" fill="#fff"/><g transform="translate(12.667 11.867)" clip-path="url(#h)"><path d="M18.316,8.8,9.541,1.731a.446.446,0,0,0-.568,0L.2,8.8a.564.564,0,0,0-.1.739.453.453,0,0,0,.672.114L9.257,2.814l8.491,6.839a.45.45,0,0,0,.284.1.468.468,0,0,0,.389-.217A.564.564,0,0,0,18.316,8.8Z" transform="translate(0 -0.754)" fill="#1b438b" stroke="#1b438b" stroke-width="0.3"/><path d="M17.257,13.625a.507.507,0,0,0-.481.529v8.422H12.928v-4.6a2.537,2.537,0,0,0-2.405-2.646,2.537,2.537,0,0,0-2.405,2.646v4.6H4.27V14.155a.507.507,0,0,0-.481-.529.507.507,0,0,0-.481.529v8.951a.507.507,0,0,0,.481.529H8.6a.5.5,0,0,0,.479-.488c0-.012,0-.026,0-.041V17.979a1.522,1.522,0,0,1,1.443-1.588,1.522,1.522,0,0,1,1.443,1.588v5.126c0,.015,0,.029,0,.041a.5.5,0,0,0,.479.488h4.81a.507.507,0,0,0,.481-.529V14.155A.507.507,0,0,0,17.257,13.625Z" transform="translate(-1.266 -4.607)" fill="#1b438b" stroke="#1b438b" stroke-width="0.3"/></g></g></g></g></g><rect width="353" height="33" transform="translate(-0.167 146.667)" fill="none"/></g></g></g></g><g transform="translate(1 1.268)"><g transform="translate(4 3.732)"><path d="M5.541,15.068h1.6V23.6a.528.528,0,0,0,.533.533H21.531a.528.528,0,0,0,.533-.533V15.068h1.6a.544.544,0,0,0,.384-.917L14.986,5.09a.294.294,0,0,0-.085-.064c-.021,0-.021-.021-.043-.021s-.043-.021-.064-.021a.074.074,0,0,1-.043-.021c-.021,0-.021-.021-.043-.021a.363.363,0,0,0-.213,0c-.021,0-.021,0-.043.021-.021,0-.043,0-.043.021-.021,0-.043.021-.064.021s-.021.021-.043.021c-.021.021-.064.043-.085.064L5.157,14.152A.544.544,0,0,0,5.541,15.068Zm8.528-8.315a.738.738,0,0,1,1.052,0L22.384,14h-.853a.528.528,0,0,0-.533.533v8.528H8.206V14.535A.528.528,0,0,0,7.673,14H6.82Z" transform="translate(-5.01 -4.925)" fill="#94afd8"/></g><g transform="translate(9.965 7.848)"><g transform="translate(0 0)"><path d="M7.544.273a.332.332,0,0,0-.252.154L2.617,7.771a.358.358,0,0,0-.017.357.333.333,0,0,0,.3.183H4.836l-.72,4.717a.349.349,0,0,0,.21.376.328.328,0,0,0,.4-.133L9.4,5.929a.358.358,0,0,0,.017-.357.333.333,0,0,0-.3-.183H7.181L7.9.672a.355.355,0,0,0-.085-.29A.328.328,0,0,0,7.544.273ZM7,2.146,6.461,5.683a.356.356,0,0,0,.076.277.329.329,0,0,0,.252.122H8.5L5.019,11.554l.538-3.537a.356.356,0,0,0-.077-.278.329.329,0,0,0-.254-.121H3.517Z" transform="translate(-2.56 -0.272)" fill="#94afd8" fill-rule="evenodd"/></g></g></g></g></svg>