<svg xmlns="http://www.w3.org/2000/svg" width="18.274" height="20.067" viewBox="0 0 18.274 20.067"><g transform="translate(-294.804 -56)"><g transform="translate(295 57.817)"><path d="M40.45,35.468a1.928,1.928,0,0,1,0,3.856H26.432a1.928,1.928,0,0,1,0-3.856.176.176,0,0,0,.175-.176V31.086a6.836,6.836,0,1,1,13.672,0v4.207a.174.174,0,0,0,.171.175Zm0,1.052a1.225,1.225,0,0,1-1.226-1.228V31.086a5.784,5.784,0,1,0-11.569,0v4.207a1.228,1.228,0,0,1-1.226,1.228.876.876,0,0,0,0,1.753H40.447a.876.876,0,1,0,0-1.753Zm-9.99,2.8h1.052a1.928,1.928,0,1,0,3.856,0H36.42a2.98,2.98,0,0,1-5.96,0Z" transform="translate(-24.5 -24.25)" fill="#94afd8" stroke="#94afd8" stroke-width="0.4"/></g><g transform="translate(302.267 56)" fill="#94afd8" stroke="#94afd8" stroke-width="1"><circle cx="1.363" cy="1.363" r="1.363" stroke="none"/><circle cx="1.363" cy="1.363" r="0.863" fill="none"/></g></g></svg>