<svg xmlns="http://www.w3.org/2000/svg" xmlns:xlink="http://www.w3.org/1999/xlink" width="30" height="30" viewBox="0 0 30 30"><defs><clipPath id="b"><rect width="30" height="30"/></clipPath></defs><g id="a" clip-path="url(#b)"><g transform="translate(-4 -1)"><g transform="translate(11 6)"><path d="M25.989,52H23.374a.374.374,0,1,0,0,.747h2.615a.374.374,0,1,0,0-.747Z" transform="translate(-18.516 -34.813)" fill="#94afd8"/><path d="M27.44,14.967a4.857,4.857,0,0,0-4.11-4.794V7.121A1.121,1.121,0,0,0,22.209,6H12.121A1.121,1.121,0,0,0,11,7.121V24.308a1.121,1.121,0,0,0,1.121,1.121H22.209a1.121,1.121,0,0,0,1.121-1.121V19.761A4.857,4.857,0,0,0,27.44,14.967Zm-4.857,9.341a.374.374,0,0,1-.374.374H12.121a.374.374,0,0,1-.374-.374V7.121a.374.374,0,0,1,.374-.374H22.209a.374.374,0,0,1,.374.374V10.11a4.917,4.917,0,0,0-.747.064V7.868a.374.374,0,0,0-.374-.374H12.868a.374.374,0,0,0-.374.374v14.2a.374.374,0,0,0,.374.374h8.593a.374.374,0,0,0,.374-.374V19.761a4.918,4.918,0,0,0,.747.064ZM21.088,10.349a4.857,4.857,0,0,0,0,9.236v2.107H13.242V8.242h7.846Zm1.495,8.728a4.11,4.11,0,1,1,4.11-4.11A4.11,4.11,0,0,1,22.583,19.077Z" transform="translate(-11 -6)" fill="#94afd8"/><path d="M39.858,23.844l-1.229,2.145h.818a1.868,1.868,0,1,1-1.831-2.242.374.374,0,1,0,0-.747,2.615,2.615,0,1,0,2.589,2.989h.882Z" transform="translate(-26.034 -16.648)" fill="#94afd8"/></g></g></g></svg>