<svg xmlns="http://www.w3.org/2000/svg" xmlns:xlink="http://www.w3.org/1999/xlink" width="30" height="30" viewBox="0 0 30 30"><defs><clipPath id="b"><rect width="30" height="30"/></clipPath></defs><g id="a" clip-path="url(#b)"><g transform="translate(-0.001 0.003)"><g transform="translate(3.654 -20.63)"><g transform="translate(2.346 27.63)"><path d="M9.566,49.831a.388.388,0,0,0,.067-.535c-.067-.067-.134-.156-.2-.223a4.048,4.048,0,0,0-1.382-.914,2.568,2.568,0,1,0-4.058-2.073,2.536,2.536,0,0,0,1.092,2.1A4.032,4.032,0,0,0,2.5,51.949V53a.376.376,0,0,0,.379.379H7.827A.376.376,0,0,0,8.206,53a.391.391,0,0,0-.379-.379H3.279v-.669a3.3,3.3,0,0,1,3.277-3.3,3.252,3.252,0,0,1,2.318.959l.156.156a.367.367,0,0,0,.536.067ZM6.557,44.28a1.784,1.784,0,1,1-1.784,1.784A1.761,1.761,0,0,1,6.557,44.28Z" transform="translate(-2.499 -43.047)" fill="#94afd8"/><path d="M71.4,49.316a4.17,4.17,0,0,0-1.424-.942,2.632,2.632,0,1,0-3.052.026,4.316,4.316,0,0,0-1.631,1.148.392.392,0,1,0,.6.505,3.371,3.371,0,0,1,5.926,2.2v.689H67.135a.387.387,0,0,0-.39.39.4.4,0,0,0,.39.39h5.1a.387.387,0,0,0,.39-.39v-1.08a4.192,4.192,0,0,0-1.217-2.94Zm-2.96-4.937a1.837,1.837,0,1,1-1.84,1.837A1.837,1.837,0,0,1,68.44,44.379Z" transform="translate(-55.035 -43.598)" fill="#94afd8"/><path d="M37.459,54.071a2.625,2.625,0,1,0-3.014,0A4.15,4.15,0,0,0,31.8,57.928v1.1a.385.385,0,0,0,.388.388H39.7a.385.385,0,0,0,.388-.388v-1.1a4.094,4.094,0,0,0-2.623-3.857ZM35.952,50.1a1.826,1.826,0,1,1-1.826,1.826A1.826,1.826,0,0,1,35.952,50.1Zm3.355,8.536H32.6v-.685a3.355,3.355,0,0,1,6.71-.022Z" transform="translate(-27.211 -43.91)" fill="#94afd8"/></g></g></g></g></svg>