<svg width="15" height="14" viewBox="0 0 15 14" fill="none" xmlns="http://www.w3.org/2000/svg">
<path id="Path 1056" fill-rule="evenodd" clip-rule="evenodd" d="M7.5004 13.5C11.0845 13.5 14 10.5843 14 7.00001C14 6.71216 13.7671 6.4793 13.4793 6.4793C13.1915 6.4793 12.9586 6.71216 12.9586 7.00001C12.9586 10.0095 10.5105 12.4586 7.5004 12.4586C4.49032 12.4586 2.04216 10.0095 2.04216 7.00001C2.04216 3.99055 4.49113 1.54143 7.5004 1.54143C9.02686 1.54143 10.4636 2.18504 11.4839 3.27336L10.7587 3.07931C10.4806 3.00492 10.1952 3.16987 10.1216 3.44801C10.0472 3.72615 10.2121 4.01157 10.4903 4.08515L12.5156 4.62607C12.5601 4.6382 12.6053 4.64386 12.6498 4.64386C12.7541 4.64386 12.8568 4.61233 12.9441 4.55249C12.9578 4.54279 12.97 4.53066 12.9829 4.51934C13.2028 4.38754 13.2901 4.1191 13.1988 3.88543L13.3815 2.18827C13.4122 1.90204 13.2052 1.64573 12.919 1.615C12.6336 1.58427 12.3765 1.79127 12.3458 2.0775L12.2884 2.61034C11.0708 1.28511 9.34057 0.5 7.4996 0.5C3.91548 0.5 1 3.41566 1 7C1 10.5843 3.91629 13.5 7.5004 13.5V13.5Z" fill="#94AFD8" stroke="#94AFD8" stroke-width="0.7"/>
</svg>
