<svg xmlns="http://www.w3.org/2000/svg" xmlns:xlink="http://www.w3.org/1999/xlink" width="30" height="30" viewBox="0 0 30 30"><defs><clipPath id="b"><rect width="30" height="30"/></clipPath></defs><g id="a" clip-path="url(#b)"><g transform="translate(3.04 1.81)"><path d="M20.186,5.386H11.548a.613.613,0,0,0,.016-.075A1.122,1.122,0,0,0,10.442,4.19H5.533A1.122,1.122,0,0,0,4.411,5.312a.278.278,0,0,0,.016.075H3.863a1.9,1.9,0,0,0-1.9,1.9V19.773a1.9,1.9,0,0,0,1.9,1.9h.564a.465.465,0,0,0-.013.071A1.122,1.122,0,0,0,5.536,22.87h4.909a1.122,1.122,0,0,0,1.122-1.122.465.465,0,0,0-.013-.071h8.638a1.9,1.9,0,0,0,1.9-1.9V7.287A1.913,1.913,0,0,0,20.186,5.386ZM4.411,20.85H3.863A1.075,1.075,0,0,1,2.79,19.777V7.287a1.074,1.074,0,0,1,1.073-1.07h.548V8.811a1.118,1.118,0,0,0,.457.9h0l.665.493v6.654l-.668.493a1.123,1.123,0,0,0-.457.9v2.6Zm6.031,1.193H5.533a.293.293,0,0,1-.292-.292.4.4,0,0,0-.088-.243.4.4,0,0,0,.088-.243V18.253a.293.293,0,0,1,.12-.233l.833-.613a.41.41,0,0,0,.169-.334V10a.415.415,0,0,0-.169-.334l-.833-.616a.3.3,0,0,1-.123-.237V5.8a.4.4,0,0,0-.088-.243.409.409,0,0,0,.091-.246.293.293,0,0,1,.292-.292h4.909a.293.293,0,0,1,.292.292.4.4,0,0,0,.088.243.409.409,0,0,0-.091.246V8.811a.286.286,0,0,1-.117.233l-.84.619A.41.41,0,0,0,9.606,10v7.072a.41.41,0,0,0,.169.334l.833.613a.29.29,0,0,1,.12.237v3.012a.414.414,0,0,0,.088.246.4.4,0,0,0-.088.243A.28.28,0,0,1,10.442,22.043Zm10.817-2.267a1.075,1.075,0,0,1-1.073,1.073H11.561v-2.6a1.124,1.124,0,0,0-.457-.9l-.668-.49v-6.65l.671-.5a1.112,1.112,0,0,0,.451-.9V6.217h8.625a1.072,1.072,0,0,1,1.073,1.07v12.49Z" transform="translate(0)" fill="#94afd8"/><path d="M42.062,15.19H36.777a.709.709,0,0,0-.707.707V17.81a.709.709,0,0,0,.707.707h5.285a.709.709,0,0,0,.707-.707V15.9A.7.7,0,0,0,42.062,15.19Zm-.12,2.5H36.9V16.02h5.042Z" transform="translate(-23.05 -7.433)" fill="#94afd8"/><path d="M38.085,31.36h-.61a.415.415,0,0,0,0,.83h.61a.415.415,0,1,0,0-.83Z" transform="translate(-23.719 -18.36)" fill="#94afd8"/><path d="M45.2,31.36H44.6a.415.415,0,1,0,0,.83h.61a.415.415,0,0,0,0-.83Z" transform="translate(-28.53 -18.36)" fill="#94afd8"/><path d="M52.325,31.36h-.61a.415.415,0,0,0,0,.83h.61a.415.415,0,1,0,0-.83Z" transform="translate(-33.342 -18.36)" fill="#94afd8"/><path d="M38.085,37.58h-.61a.415.415,0,0,0,0,.83h.61a.415.415,0,0,0,0-.83Z" transform="translate(-23.719 -22.563)" fill="#94afd8"/><path d="M45.2,37.58H44.6a.415.415,0,1,0,0,.83h.61a.415.415,0,0,0,0-.83Z" transform="translate(-28.53 -22.563)" fill="#94afd8"/><path d="M52.325,37.58h-.61a.415.415,0,0,0,0,.83h.61a.415.415,0,1,0,0-.83Z" transform="translate(-33.342 -22.563)" fill="#94afd8"/><path d="M38.085,43.8h-.61a.415.415,0,0,0,0,.83h.61a.415.415,0,1,0,0-.83Z" transform="translate(-23.719 -26.766)" fill="#94afd8"/><path d="M45.2,43.8H44.6a.415.415,0,1,0,0,.83h.61a.415.415,0,0,0,0-.83Z" transform="translate(-28.53 -26.766)" fill="#94afd8"/><path d="M52.325,43.8h-.61a.415.415,0,0,0,0,.83h.61a.415.415,0,1,0,0-.83Z" transform="translate(-33.342 -26.766)" fill="#94afd8"/></g></g></svg>