<svg xmlns="http://www.w3.org/2000/svg" xmlns:xlink="http://www.w3.org/1999/xlink" width="30" height="30" viewBox="0 0 30 30"><defs><clipPath id="b"><rect width="30" height="30"/></clipPath></defs><g id="a" clip-path="url(#b)"><g transform="translate(2.531 -0.083)"><path d="M53.73,22.826a3.231,3.231,0,0,0,2.861-4.738l-2.564-4.867a.334.334,0,0,0-.591,0L50.87,18.088a3.231,3.231,0,0,0,2.861,4.738ZM51.463,18.4l2.268-4.305L56,18.4a2.564,2.564,0,1,1-4.537,0Z" transform="translate(-38.565 -6.185)" fill="#94afd8" stroke="#94afd8" stroke-width="0.3"/><path d="M17.066,10.273a1.953,1.953,0,0,0,3.106-2.292l-1.429-2.72a.334.334,0,0,0-.591,0l-1.434,2.72A1.944,1.944,0,0,0,17.066,10.273Zm.245-1.98,1.137-2.158,1.137,2.158A1.284,1.284,0,0,1,17.539,9.8h0a1.28,1.28,0,0,1-.227-1.509Z" transform="translate(-9.463 0)" fill="#94afd8" stroke="#94afd8" stroke-width="0.3"/><path d="M26.146,83.59a4.49,4.49,0,0,0,.892.852.334.334,0,0,0,.368-.557,3.931,3.931,0,0,1-.756-.731,2.568,2.568,0,0,0-4.383,0,2.118,2.118,0,0,1-1.688,1,2.123,2.123,0,0,1-1.688-1A2.753,2.753,0,0,0,16.7,81.92a2.721,2.721,0,0,0-2.185,1.231,2.118,2.118,0,0,1-1.688,1,2.119,2.119,0,0,1-1.686-1,3.735,3.735,0,0,0-1.162-.99.335.335,0,0,0-.294.6,3.184,3.184,0,0,1,.941.838,2.747,2.747,0,0,0,2.192,1.231,2.753,2.753,0,0,0,2.194-1.242,2.118,2.118,0,0,1,1.688-1,2.123,2.123,0,0,1,1.688,1,2.561,2.561,0,0,0,4.377,0,1.931,1.931,0,0,1,3.382,0Z" transform="translate(-6.028 -59.705)" fill="#94afd8" stroke="#94afd8" stroke-width="0.3"/><path d="M9.979,65.161a.335.335,0,1,0-.294.6,3.182,3.182,0,0,1,.941.838,2.753,2.753,0,0,0,2.192,1.231,2.753,2.753,0,0,0,2.194-1.242,2.118,2.118,0,0,1,1.688-1,2.123,2.123,0,0,1,1.688,1,2.753,2.753,0,0,0,2.192,1.231,2.724,2.724,0,0,0,2.185-1.231,1.924,1.924,0,0,1,3.376,0,4.5,4.5,0,0,0,.892.852.334.334,0,0,0,.368-.557,3.933,3.933,0,0,1-.756-.731,2.565,2.565,0,0,0-4.379,0,2.118,2.118,0,0,1-1.688,1,2.123,2.123,0,0,1-1.688-1A2.753,2.753,0,0,0,16.7,64.92a2.716,2.716,0,0,0-2.183,1.231,2.118,2.118,0,0,1-1.688,1,2.119,2.119,0,0,1-1.686-1,3.735,3.735,0,0,0-1.162-.99Z" transform="translate(-6.028 -46.495)" fill="#94afd8" stroke="#94afd8" stroke-width="0.3"/></g></g></svg>