<svg xmlns="http://www.w3.org/2000/svg" xmlns:xlink="http://www.w3.org/1999/xlink" width="30" height="30" viewBox="0 0 30 30"><defs><clipPath id="b"><rect width="30" height="30"/></clipPath></defs><g id="a" clip-path="url(#b)"><rect width="30" height="30" fill="#fff"/><path d="M21.462,8.533h-.116l-.006,0h-.005l-.007,0h-.01l-.006,0-.005,0-.006,0,0,0h-.007l0,0h-.036l0,0h0l0,0,0,0-.007,0-.005,0h0l0,0-.006,0a.5.5,0,0,0-.1.076l0,0,0,0,0,0a8.726,8.726,0,0,1-7.068,2.757,1.495,1.495,0,0,0-1.557,1.493c0,1.188,0,3.179,0,5.016a8.531,8.531,0,0,0,3.81,7.105l4.9,3.254a.49.49,0,0,0,.052.031l.009,0h0a.5.5,0,0,0,.207.052h.031a.5.5,0,0,0,.207-.052l.009,0h0a.516.516,0,0,0,.052-.031l4.9-3.254a8.53,8.53,0,0,0,3.81-7.105c0-1.837,0-3.827,0-5.017a1.494,1.494,0,0,0-1.558-1.492A8.727,8.727,0,0,1,21.826,8.69l0,0h0l0,0,0,0a.5.5,0,0,0-.1-.076l-.006,0,0,0-.006,0,0,0-.007,0,0,0h0l0,0H21.64l0,0h-.007l0,0h0l-.008,0H21.6l-.006,0-.012,0-.012,0-.012,0-.012,0h-.08Zm0,1.21a9.693,9.693,0,0,1-7.473,2.7h0a.5.5,0,0,0-.517.5h0c0,1.189,0,3.178,0,5.014a7.533,7.533,0,0,0,3.364,6.274l4.63,3.076,4.63-3.076a7.533,7.533,0,0,0,3.364-6.274c0-1.836,0-3.825,0-5.014h0a.5.5,0,0,0-.517-.5h0A9.693,9.693,0,0,1,21.462,9.743Zm1.889,6.836V14.266a.486.486,0,0,0-.486-.486H20.059a.486.486,0,0,0-.486.486v2.313H17.26a.486.486,0,0,0-.486.486v2.806a.486.486,0,0,0,.486.486h2.313v2.313a.486.486,0,0,0,.486.486h2.806a.486.486,0,0,0,.486-.486V20.358h2.313a.486.486,0,0,0,.486-.486V17.065a.486.486,0,0,0-.486-.486Zm-.972.486a.486.486,0,0,0,.486.486h2.313v1.834H22.865a.486.486,0,0,0-.486.486v2.313H20.545V19.872a.486.486,0,0,0-.486-.486H17.746V17.551h2.313a.486.486,0,0,0,.486-.486V14.752h1.834Z" transform="translate(-6.263 -3.199)" fill="#1a438b" fill-rule="evenodd"/></g></svg>