<svg width="43" height="43" viewBox="0 0 43 43" fill="none" xmlns="http://www.w3.org/2000/svg">
<g id="Group 1195">
<g id="Group 1194">
<path id="Ellipse 30" fill-rule="evenodd" clip-rule="evenodd" d="M21.5 43C33.3741 43 43 33.3741 43 21.5C43 9.62588 33.3741 0 21.5 0C9.62588 0 0 9.62588 0 21.5C0 33.3741 9.62588 43 21.5 43Z" fill="white"/>
<g id="idea 1">
<mask id="mask0_0_2554" style="mask-type:luminance" maskUnits="userSpaceOnUse" x="10" y="11" width="22" height="21">
<path id="Rectangle 1082" fill-rule="evenodd" clip-rule="evenodd" d="M10.9996 11H31.9996V32H10.9996V11Z" fill="white"/>
</mask>
<g mask="url(#mask0_0_2554)">
<g id="Path 1651">
<path fill-rule="evenodd" clip-rule="evenodd" d="M14.6047 20.5936C14.5745 22.2258 15.2004 23.8017 16.3423 24.9684C17.3898 26.084 17.9562 27.567 17.9189 29.097V29.7031C17.9189 31.0106 18.9789 32.0705 20.2863 32.0705H21.2332C22.5406 32.0705 23.6006 31.0106 23.6006 29.7031V28.9267C23.5875 27.4712 24.143 26.068 25.1489 25.0158C27.5313 22.591 27.497 18.694 25.0722 16.3116C23.8582 15.1189 22.2045 14.4819 20.5042 14.5523C17.2648 14.7232 14.6988 17.351 14.6047 20.5936ZM22.682 28.2826C22.682 28.5075 22.6536 28.7327 22.6536 28.9627V29.2826H18.8659V29.1426C18.8643 28.8552 18.8486 28.5682 18.8185 28.2826H22.682ZM21.2332 31.1764H20.2863C19.6858 31.1745 19.1513 30.7742 18.9511 30.1764H22.5684C22.3682 30.7742 21.8337 31.1745 21.2332 31.1764H21.2332ZM20.542 15.499H20.7598C23.6361 15.5005 25.9668 17.8334 25.9652 20.7097C25.9646 22.0721 25.43 23.3798 24.4764 24.3528C23.6684 25.1776 23.1046 26.2099 22.8477 27.3357H21.7871H21.107L23.0638 28.2826C23.3253 28.2826 23.5373 28.0706 23.5373 27.8091C23.5373 27.5477 23.3253 27.3357 23.0638 27.3357H18.3293C18.0678 27.3357 17.8558 27.5477 17.8558 27.8091C17.8558 28.0706 18.0679 28.2826 18.3293 28.2826L20.4717 27.3357H19.7324H18.6528C18.3886 26.2058 17.8261 25.1676 17.0241 24.3292C16.0535 23.3387 15.5227 21.999 15.5516 20.6125C15.6292 17.8683 17.8006 15.6434 20.542 15.499H20.542Z" fill="#1B438B"/>
<path d="M14.6047 20.5936L14.5547 20.5921L14.5547 20.5926L14.6047 20.5936ZM16.3423 24.9684L16.3787 24.9341L16.378 24.9334L16.3423 24.9684ZM17.9189 29.097L17.8689 29.0958V29.097H17.9189ZM23.6006 28.9267H23.6506L23.6506 28.9262L23.6006 28.9267ZM25.1489 25.0158L25.1132 24.9808L25.1127 24.9813L25.1489 25.0158ZM25.0722 16.3116L25.0372 16.3473L25.0372 16.3473L25.0722 16.3116ZM20.5042 14.5523L20.5021 14.5023L20.5016 14.5023L20.5042 14.5523ZM22.682 28.2826H22.732V28.2326H22.682V28.2826ZM22.6536 29.2826V29.3326H22.7036V29.2826H22.6536ZM18.8659 29.2826H18.8159V29.3326H18.8659V29.2826ZM18.8659 29.1426H18.9159L18.9159 29.1424L18.8659 29.1426ZM18.8185 28.2826V28.2326H18.763L18.7688 28.2879L18.8185 28.2826ZM20.2863 31.1764L20.2861 31.2264H20.2863V31.1764ZM18.9511 30.1764V30.1264H18.8817L18.9037 30.1922L18.9511 30.1764ZM22.5684 30.1764L22.6158 30.1922L22.6379 30.1264H22.5684V30.1764ZM21.2332 31.1764V31.2264L21.2334 31.2264L21.2332 31.1764ZM20.7598 15.499L20.7598 15.449H20.7598V15.499ZM25.9652 20.7097L25.9152 20.7097L25.9152 20.7097L25.9652 20.7097ZM24.4764 24.3528L24.4407 24.3178L24.4407 24.3178L24.4764 24.3528ZM22.8477 27.3357V27.3857H22.8876L22.8965 27.3468L22.8477 27.3357ZM21.107 27.3357V27.2857L21.0852 27.3807L21.107 27.3357ZM23.0638 28.2826L23.042 28.3276L23.0524 28.3326H23.0638V28.2826ZM18.3293 28.2826V28.3326H18.3399L18.3495 28.3284L18.3293 28.2826ZM20.4717 27.3357L20.4919 27.3814L20.4717 27.2857V27.3357ZM18.6528 27.3357L18.6041 27.347L18.6132 27.3857H18.6528V27.3357ZM17.0241 24.3292L17.0603 24.2946L17.0598 24.2942L17.0241 24.3292ZM15.5516 20.6125L15.5017 20.6111L15.5017 20.6115L15.5516 20.6125ZM20.542 15.499L20.5446 15.5489L20.542 15.449V15.499ZM14.5547 20.5926C14.5243 22.2383 15.1553 23.8271 16.3065 25.0034L16.378 24.9334C15.2455 23.7763 14.6247 22.2133 14.6547 20.5945L14.5547 20.5926ZM16.3058 25.0026C17.3444 26.1087 17.9059 27.5789 17.8689 29.0958L17.9689 29.0982C18.0065 27.5551 17.4353 26.0594 16.3787 24.9342L16.3058 25.0026ZM17.8689 29.097V29.7031H17.9689V29.097H17.8689ZM17.8689 29.7031C17.8689 31.0382 18.9512 32.1205 20.2863 32.1205V32.0205C19.0065 32.0205 17.9689 30.9829 17.9689 29.7031H17.8689ZM20.2863 32.1205H21.2332V32.0205H20.2863V32.1205ZM21.2332 32.1205C22.5683 32.1205 23.6506 31.0382 23.6506 29.7031H23.5506C23.5506 30.9829 22.513 32.0205 21.2332 32.0205V32.1205ZM23.6506 29.7031V28.9267H23.5506V29.7031H23.6506ZM23.6506 28.9262C23.6377 27.4838 24.1882 26.0931 25.185 25.0504L25.1127 24.9813C24.0979 26.0429 23.5374 27.4586 23.5506 28.9271L23.6506 28.9262ZM25.1845 25.0509C27.5864 22.6063 27.5517 18.6777 25.1073 16.276L25.0372 16.3473C27.4422 18.7103 27.4763 22.5756 25.1132 24.9808L25.1845 25.0509ZM25.1073 16.276C23.8834 15.0735 22.2163 14.4314 20.5021 14.5023L20.5063 14.6022C22.1928 14.5325 23.833 15.1642 25.0372 16.3473L25.1073 16.276ZM20.5016 14.5023C17.2362 14.6746 14.6496 17.3236 14.5547 20.5921L14.6547 20.595C14.7481 17.3785 17.2935 14.7718 20.5068 14.6022L20.5016 14.5023ZM22.632 28.2826C22.632 28.3932 22.625 28.5042 22.6179 28.6176C22.6108 28.7305 22.6036 28.8459 22.6036 28.9627H22.7036C22.7036 28.8495 22.7106 28.7373 22.7177 28.6239C22.7248 28.511 22.732 28.3969 22.732 28.2826H22.632ZM22.6036 28.9627V29.2826H22.7036V28.9627H22.6036ZM22.6536 29.2326H18.8659V29.3326H22.6536V29.2326ZM18.9159 29.2826V29.1426H18.8159V29.2826H18.9159ZM18.9159 29.1424C18.9143 28.8533 18.8985 28.5646 18.8682 28.2774L18.7688 28.2879C18.7987 28.5718 18.8143 28.8571 18.8159 29.1429L18.9159 29.1424ZM18.8185 28.3326H22.682V28.2326H18.8185V28.3326ZM21.2332 31.1264H20.2863V31.2264H21.2332V31.1264ZM20.2865 31.1264C19.7088 31.1246 19.1923 30.7394 18.9986 30.1605L18.9037 30.1922C19.1102 30.809 19.6628 31.2245 20.2861 31.2264L20.2865 31.1264ZM18.9511 30.2264H22.5684V30.1264H18.9511V30.2264ZM22.521 30.1605C22.3272 30.7394 21.8107 31.1246 21.2331 31.1264L21.2334 31.2264C21.8567 31.2245 22.4093 30.8091 22.6158 30.1922L22.521 30.1605ZM21.2332 31.1264H21.2332V31.2264H21.2332V31.1264ZM20.542 15.549H20.7598V15.449H20.542V15.549ZM20.7597 15.549C23.6085 15.5505 25.9167 17.861 25.9152 20.7097L26.0152 20.7097C26.0168 17.8058 23.6637 15.4505 20.7598 15.449L20.7597 15.549ZM25.9152 20.7097C25.9146 22.0589 25.3852 23.3542 24.4407 24.3178L24.5121 24.3878C25.4749 23.4055 26.0146 22.0852 26.0152 20.7097L25.9152 20.7097ZM24.4407 24.3178C23.6263 25.1492 23.058 26.1898 22.799 27.3245L22.8965 27.3468C23.1513 26.2301 23.7106 25.2059 24.5121 24.3878L24.4407 24.3178ZM22.8477 27.2857H21.7871V27.3857H22.8477V27.2857ZM21.7871 27.2857H21.107V27.3857H21.7871V27.2857ZM21.0852 27.3807L23.042 28.3276L23.0856 28.2376L21.1287 27.2906L21.0852 27.3807ZM23.0638 28.3326C23.3529 28.3326 23.5873 28.0982 23.5873 27.8091H23.4873C23.4873 28.043 23.2977 28.2326 23.0638 28.2326V28.3326ZM23.5873 27.8091C23.5873 27.52 23.3529 27.2857 23.0638 27.2857V27.3857C23.2976 27.3857 23.4873 27.5753 23.4873 27.8091H23.5873ZM23.0638 27.2857H18.3293V27.3857H23.0638V27.2857ZM18.3293 27.2857C18.0402 27.2857 17.8058 27.5201 17.8058 27.8091H17.9058C17.9058 27.5753 18.0955 27.3857 18.3293 27.3857V27.2857ZM17.8058 27.8091C17.8058 28.0982 18.0402 28.3326 18.3293 28.3326V28.2326C18.0955 28.2326 17.9058 28.043 17.9058 27.8091H17.8058ZM18.3495 28.3284L20.4919 27.3814L20.4515 27.2899L18.3091 28.2369L18.3495 28.3284ZM20.4717 27.2857H19.7324V27.3857H20.4717V27.2857ZM19.7324 27.2857H18.6528V27.3857H19.7324V27.2857ZM18.7015 27.3243C18.4352 26.1857 17.8684 25.1395 17.0603 24.2946L16.988 24.3637C17.7838 25.1956 18.342 26.2259 18.6041 27.347L18.7015 27.3243ZM17.0598 24.2942C16.0986 23.3133 15.573 21.9866 15.6016 20.6136L15.5017 20.6115C15.4724 22.0114 16.0083 23.3641 16.9884 24.3642L17.0598 24.2942ZM15.6016 20.6139C15.6785 17.8957 17.8292 15.692 20.5446 15.5489L20.5394 15.4491C17.7719 15.5948 15.58 17.8408 15.5017 20.6111L15.6016 20.6139ZM20.542 15.449H20.542V15.549H20.542V15.449Z" fill="#1B438B"/>
</g>
<g id="Path 1652">
<path fill-rule="evenodd" clip-rule="evenodd" d="M20.7598 14.1143C21.0404 14.1142 21.268 13.8868 21.268 13.6061V11.7122C21.268 11.4316 21.0404 11.204 20.7598 11.204C20.4792 11.204 20.2516 11.4316 20.2516 11.7122V13.6061C20.2516 13.8867 20.4792 14.1143 20.7598 14.1143Z" fill="#1B438B"/>
<path d="M20.7598 14.1143V14.1143ZM20.7598 14.1143C21.0404 14.1142 21.268 13.8868 21.268 13.6061V11.7122C21.268 11.4316 21.0404 11.204 20.7598 11.204C20.4792 11.204 20.2516 11.4316 20.2516 11.7122V13.6061C20.2516 13.8868 20.4792 14.1143 20.7598 14.1143Z" stroke="#1B438B" stroke-width="0.1"/>
</g>
<g id="Path 1653">
<path fill-rule="evenodd" clip-rule="evenodd" d="M27.9747 13.7184L27.9992 13.743L27.9747 13.7184L26.081 15.6122C26.0809 15.6122 26.0809 15.6123 26.0809 15.6123C25.8816 15.8099 25.8804 16.1317 26.0781 16.3309L26.0782 16.331L26.0808 16.3337C26.0808 16.3337 26.0808 16.3337 26.0808 16.3337C26.2784 16.533 26.6002 16.5343 26.7995 16.3366L26.7996 16.3365L26.8023 16.3338L28.6962 14.4399C28.8955 14.2406 28.8955 13.9177 28.6962 13.7184C28.4969 13.5192 28.1739 13.5192 27.9747 13.7184V13.7184Z" fill="#1B438B"/>
<path d="M27.9747 13.7184L27.9992 13.743L27.9747 13.7184ZM27.9747 13.7184L26.081 15.6122C26.0809 15.6122 26.0809 15.6123 26.0809 15.6123C25.8816 15.8099 25.8804 16.1317 26.0781 16.3309L26.0782 16.331L26.0808 16.3337C26.0808 16.3337 26.0808 16.3337 26.0808 16.3337C26.2784 16.533 26.6002 16.5343 26.7995 16.3366L26.7996 16.3365L26.8023 16.3338M27.9747 13.7184V13.7184C28.1739 13.5192 28.4969 13.5192 28.6962 13.7184C28.8955 13.9177 28.8955 14.2406 28.6962 14.4399L26.8023 16.3338M26.8023 16.3338V16.3338Z" stroke="#1B438B" stroke-width="0.1"/>
</g>
<path id="Path 1654" fill-rule="evenodd" clip-rule="evenodd" d="M15.4356 16.3366L15.4357 16.3365L15.4383 16.3339C15.4383 16.3339 15.4384 16.3338 15.4384 16.3338C15.6376 16.1362 15.639 15.8145 15.4412 15.6152L15.4412 15.6151L15.4384 15.6123L13.5445 13.7184C13.3453 13.5192 13.0223 13.5192 12.8231 13.7184C12.6238 13.9177 12.6238 14.2406 12.8231 14.4399L14.7169 16.3337C14.7169 16.3337 14.7169 16.3337 14.7169 16.3337C14.9146 16.533 15.2363 16.5343 15.4356 16.3366V16.3366Z" fill="#1B438B" stroke="#1B438B" stroke-width="0.1"/>
<path id="Path 1655" fill-rule="evenodd" clip-rule="evenodd" d="M27.3536 21.6542C27.3536 21.9348 27.5812 22.1624 27.8618 22.1624H29.7557C30.0364 22.1624 30.2639 21.9348 30.2639 21.6542C30.2639 21.3736 30.0364 21.146 29.7557 21.146H27.8618C27.5812 21.146 27.3536 21.3736 27.3536 21.6542Z" fill="#1B438B" stroke="#1B438B" stroke-width="0.1"/>
<path id="Path 1656" fill-rule="evenodd" clip-rule="evenodd" d="M11.2556 21.6542C11.2556 21.9348 11.4832 22.1624 11.7638 22.1624H13.6577C13.9384 22.1624 14.1659 21.9348 14.1659 21.6542C14.1659 21.3736 13.9384 21.146 13.6577 21.146H11.7638C11.4832 21.146 11.2556 21.3736 11.2556 21.6542Z" fill="#1B438B" stroke="#1B438B" stroke-width="0.1"/>
</g>
</g>
</g>
</g>
</svg>
