<svg xmlns="http://www.w3.org/2000/svg" xmlns:xlink="http://www.w3.org/1999/xlink" width="30" height="30" viewBox="0 0 30 30"><defs><clipPath id="b"><rect width="30" height="30"/></clipPath></defs><g id="a" clip-path="url(#b)"><rect width="30" height="30" fill="#fff"/><g transform="translate(-2.59 -0.01)"><path d="M26.024,9.138H22.017V5.731A.722.722,0,0,0,21.3,5.01H14.042a.722.722,0,0,0-.721.721V9.138H9.311a.722.722,0,0,0-.721.721V24.494a.24.24,0,0,0,.241.241H26.5a.24.24,0,0,0,.241-.241V9.859A.723.723,0,0,0,26.024,9.138Zm0,.482a.24.24,0,0,1,.241.241V21.407H22.017V9.62ZM14.042,5.492H21.3a.242.242,0,0,1,.241.241V23.108H20.62V18.237a.722.722,0,0,0-.721-.721H15.438a.722.722,0,0,0-.721.721v4.869H13.8V5.731A.24.24,0,0,1,14.042,5.492ZM15.2,23.108V18.237A.24.24,0,0,1,15.438,18h1.988v5.11H15.2ZM17.909,18H19.9a.24.24,0,0,1,.241.241v4.869H17.909ZM9.311,9.62h4.007V21.407H9.072V9.859A.24.24,0,0,1,9.311,9.62ZM9.072,21.887h4.248v1.219h-.142a.562.562,0,0,0-.561.561v.5a.484.484,0,0,0,.009.081H9.072Zm4.106,2.365a.082.082,0,0,1-.081-.081v-.5a.082.082,0,0,1,.081-.081h8.981a.082.082,0,0,1,.081.081v.5a.082.082,0,0,1-.081.081Zm9.534,0a.484.484,0,0,0,.009-.081v-.5a.562.562,0,0,0-.561-.561h-.142V21.887h4.248v2.365Zm-12.6-12.1h2.168a.441.441,0,0,0,.441-.441v-.809a.441.441,0,0,0-.441-.441H10.111a.441.441,0,0,0-.441.441v.809A.441.441,0,0,0,10.111,12.156Zm.039-1.208H12.24v.728H10.151Zm-.039,4.733h2.168a.441.441,0,0,0,.441-.441v-.809a.441.441,0,0,0-.441-.441H10.111a.441.441,0,0,0-.441.441v.809A.441.441,0,0,0,10.111,15.681Zm.039-1.208H12.24V15.2H10.151Zm-.039,4.733h2.168a.441.441,0,0,0,.441-.441v-.809a.441.441,0,0,0-.441-.441H10.111a.441.441,0,0,0-.441.441v.809A.441.441,0,0,0,10.111,19.206ZM10.151,18H12.24v.728H10.151Zm12.905-5.842h2.168a.441.441,0,0,0,.441-.441v-.809a.441.441,0,0,0-.441-.441H23.056a.441.441,0,0,0-.441.441v.809A.441.441,0,0,0,23.056,12.156Zm.039-1.208h2.089v.728H23.1Zm-.039,4.733h2.168a.441.441,0,0,0,.441-.441v-.809a.441.441,0,0,0-.441-.441H23.056a.441.441,0,0,0-.441.441v.809A.441.441,0,0,0,23.056,15.681Zm.039-1.208h2.089V15.2H23.1Zm-.039,4.733h2.168a.441.441,0,0,0,.441-.441v-.809a.441.441,0,0,0-.441-.441H23.056a.441.441,0,0,0-.441.441v.809A.441.441,0,0,0,23.056,19.206ZM23.1,18h2.089v.728H23.1Zm-7.938-2.317h5.02a.441.441,0,0,0,.441-.441v-.809a.441.441,0,0,0-.441-.441h-5.02a.441.441,0,0,0-.441.441v.809A.441.441,0,0,0,15.158,15.681Zm.039-1.208h4.939V15.2H15.2Z" transform="translate(0 0)" fill="#1b438b" stroke="#1b438b" stroke-width="0.25"/><g transform="translate(14.897 6.812)"><path d="M18.356,12.358A2.808,2.808,0,1,0,15.548,9.55,2.812,2.812,0,0,0,18.356,12.358Zm0-5.134A2.326,2.326,0,1,1,16.03,9.55,2.329,2.329,0,0,1,18.356,7.225Z" transform="translate(-15.548 -6.742)" fill="#1b438b"/><path d="M17.29,10.482h.4v.4a.4.4,0,0,0,.4.4h.8a.4.4,0,0,0,.4-.4v-.4h.4a.4.4,0,0,0,.4-.4v-.8a.4.4,0,0,0-.4-.4h-.4v-.4a.4.4,0,0,0-.4-.4h-.8a.4.4,0,0,0-.4.4v.4h-.4a.4.4,0,0,0-.4.4v.8A.4.4,0,0,0,17.29,10.482Zm.085-1.114h.559a.24.24,0,0,0,.241-.241V8.568h.631v.559a.24.24,0,0,0,.241.241h.559V10h-.559a.24.24,0,0,0-.241.241V10.8h-.631v-.559A.24.24,0,0,0,17.935,10h-.559Z" transform="translate(-15.785 -6.877)" fill="#1b438b"/></g></g></g></svg>