<svg width="18" height="21" viewBox="0 0 18 21" fill="none" xmlns="http://www.w3.org/2000/svg">
<g id="noun-edit-1673091">
<g id="Group 406">
<path id="Path 1115" fill-rule="evenodd" clip-rule="evenodd" d="M11.4978 6.15661L4.79567 12.8588C4.69912 12.9553 4.646 13.0839 4.646 13.2205C4.646 13.3574 4.69912 13.4858 4.79567 13.5821C4.89241 13.6789 5.02076 13.732 5.15744 13.732C5.29393 13.732 5.42247 13.6789 5.51902 13.5821L12.2212 6.88016C12.3177 6.7838 12.3708 6.65526 12.3708 6.51838C12.3708 6.3815 12.3177 6.25316 12.2212 6.1568C12.0219 5.9573 11.6973 5.9571 11.4978 6.15661Z" fill="#1B438B" stroke="#1B438B" stroke-width="0.5"/>
<g id="Path 1116">
<path fill-rule="evenodd" clip-rule="evenodd" d="M1.00826 17.9866L5.93236 16.5391C6.01166 16.5143 6.08436 16.4705 6.14291 16.4119L16.2162 6.33842L16.3663 6.19379C17.0867 5.47353 17.3804 4.86805 17.3804 4.10379C17.3804 2.39243 15.988 1 14.2765 1C13.5124 1 12.9075 1.29314 12.1896 2.01088L12.0445 2.15067C11.9478 2.24741 11.8947 2.37576 11.8947 2.51245C11.8947 2.64913 11.9478 2.77748 12.0445 2.87403L15.139 5.9689L5.78133 15.3268L3.04824 12.5939L11.2925 4.34944L13.2737 6.33068C13.4732 6.52979 13.7978 6.53018 13.9973 6.33068C14.1966 6.13118 14.1966 5.80663 13.9973 5.60713L11.6545 3.26431C11.4548 3.0652 11.1304 3.06481 10.9309 3.26431L1.96969 12.2255L1.94216 12.2529L1.92975 12.2732C1.91754 12.2893 1.90649 12.3062 1.89563 12.3244L1.88167 12.3481C1.87062 12.3667 1.86054 12.3853 1.85007 12.4111L0.394051 17.3454C0.342481 17.5184 0.387461 17.7082 0.511541 17.8408C0.608291 17.9434 0.744191 18.0021 0.884751 18.0021C0.923911 18.0021 0.962111 17.9975 1.00825 17.9866L1.00826 17.9866ZM1.63022 16.7681L2.57208 13.5652L4.81486 15.8076L1.63022 16.7681ZM13.1402 2.5231C13.5434 2.16869 13.8753 2.02328 14.2765 2.02328C15.4236 2.02328 16.3572 2.9568 16.3572 4.10417C16.3572 4.5055 16.212 4.83761 15.8575 5.24029L13.1402 2.5231Z" fill="#1B438B"/>
<path d="M1.00826 17.9866L0.937754 17.7467L0.830702 17.7782L0.78264 17.8789L1.00826 17.9866ZM5.93236 16.5391L6.00288 16.779L6.00701 16.7777L5.93236 16.5391ZM6.14291 16.4119L6.31969 16.5887L6.31969 16.5887L6.14291 16.4119ZM16.2162 6.33842L16.0427 6.15839L16.0394 6.16164L16.2162 6.33842ZM16.3663 6.19379L16.5398 6.37382L16.543 6.37059L16.3663 6.19379ZM12.1896 2.01088L12.3631 2.1909L12.3663 2.18768L12.1896 2.01088ZM12.0445 2.15067L11.871 1.97065L11.8678 1.97389L12.0445 2.15067ZM12.0445 2.87403L12.2213 2.69726L12.2211 2.69707L12.0445 2.87403ZM15.139 5.9689L15.3158 6.14568L15.4926 5.96891L15.3158 5.79213L15.139 5.9689ZM5.78133 15.3268L5.60456 15.5036L5.78134 15.6803L5.95811 15.5036L5.78133 15.3268ZM3.04824 12.5939L2.87146 12.4171L2.69468 12.5939L2.87147 12.7707L3.04824 12.5939ZM11.2925 4.34944L11.4693 4.17266L11.2925 3.99588L11.1157 4.17267L11.2925 4.34944ZM13.2737 6.33068L13.097 6.50746L13.0971 6.50763L13.2737 6.33068ZM13.9973 6.33068L14.1741 6.50746L14.1741 6.50737L13.9973 6.33068ZM13.9973 5.60713L14.1741 5.43044L14.1741 5.43035L13.9973 5.60713ZM11.6545 3.26431L11.8312 3.08753L11.831 3.08728L11.6545 3.26431ZM10.9309 3.26431L11.1077 3.44109L11.1077 3.44109L10.9309 3.26431ZM1.96969 12.2255L2.14586 12.4029L2.14647 12.4023L1.96969 12.2255ZM1.94216 12.2529L1.766 12.0755L1.74448 12.0968L1.72869 12.1227L1.94216 12.2529ZM1.92975 12.2732L2.1289 12.4243L2.1366 12.4142L2.14322 12.4033L1.92975 12.2732ZM1.89563 12.3244L1.68088 12.1964L1.68034 12.1973L1.89563 12.3244ZM1.88167 12.3481L2.09663 12.4757L2.09696 12.4751L1.88167 12.3481ZM1.85007 12.4111L1.61843 12.317L1.61379 12.3285L1.61029 12.3403L1.85007 12.4111ZM0.394051 17.3454L0.633627 17.4169L0.63383 17.4162L0.394051 17.3454ZM0.511541 17.8408L0.328982 18.0116L0.329688 18.0123L0.511541 17.8408ZM1.00825 17.9866L1.06552 18.23L1.18223 18.2025L1.23387 18.0943L1.00825 17.9866ZM1.63022 16.7681L1.39038 16.6975L1.26001 17.1408L1.70241 17.0074L1.63022 16.7681ZM2.57208 13.5652L2.74884 13.3884L2.45104 13.0907L2.33224 13.4947L2.57208 13.5652ZM4.81486 15.8076L4.88705 16.0469L5.28715 15.9263L4.99162 15.6308L4.81486 15.8076ZM13.1402 2.5231L12.9751 2.33532L12.7748 2.51134L12.9634 2.69988L13.1402 2.5231ZM15.8575 5.24029L15.6808 5.41707L15.8692 5.60547L16.0452 5.40546L15.8575 5.24029ZM1.07877 18.2264L6.00287 16.7789L5.86185 16.2992L0.937754 17.7467L1.07877 18.2264ZM6.00701 16.7777C6.12446 16.7409 6.2323 16.6761 6.31969 16.5887L5.96613 16.2351C5.93642 16.2649 5.89886 16.2876 5.85771 16.3005L6.00701 16.7777ZM6.31969 16.5887L16.393 6.51519L16.0394 6.16164L5.96613 16.2351L6.31969 16.5887ZM16.3897 6.51842L16.5398 6.37379L16.1928 6.01379L16.0427 6.15842L16.3897 6.51842ZM16.543 6.37059C17.2943 5.61955 17.6304 4.95412 17.6304 4.10379H17.1304C17.1304 4.78198 16.8792 5.32751 16.1895 6.01699L16.543 6.37059ZM17.6304 4.10379C17.6304 2.25435 16.1261 0.75 14.2765 0.75V1.25C15.8499 1.25 17.1304 2.53051 17.1304 4.10379H17.6304ZM14.2765 0.75C13.4265 0.75 12.7617 1.08543 12.0128 1.83408L12.3663 2.18768C13.0533 1.50085 13.5983 1.25 14.2765 1.25V0.75ZM12.0161 1.83089L11.871 1.97068L12.218 2.33066L12.3631 2.19087L12.0161 1.83089ZM11.8678 1.97389C11.7241 2.11753 11.6447 2.30947 11.6447 2.51245H12.1447C12.1447 2.44205 12.1715 2.37729 12.2213 2.32745L11.8678 1.97389ZM11.6447 2.51245C11.6447 2.71537 11.7241 2.90743 11.8679 3.05099L12.2211 2.69707C12.1715 2.64753 12.1447 2.58289 12.1447 2.51245H11.6447ZM11.8678 3.0508L14.9622 6.14567L15.3158 5.79213L12.2213 2.69726L11.8678 3.0508ZM14.9622 5.79213L5.60455 15.15L5.95811 15.5036L15.3158 6.14568L14.9622 5.79213ZM5.9581 15.15L3.22501 12.4171L2.87147 12.7707L5.60456 15.5036L5.9581 15.15ZM3.22502 12.7707L11.4693 4.52621L11.1157 4.17267L2.87146 12.4171L3.22502 12.7707ZM11.1157 4.52622L13.097 6.50746L13.4505 6.1539L11.4693 4.17266L11.1157 4.52622ZM13.0971 6.50763C13.394 6.80392 13.8767 6.80481 14.1741 6.50746L13.8205 6.1539C13.7189 6.25555 13.5525 6.25566 13.4503 6.15373L13.0971 6.50763ZM14.1741 6.50737C14.471 6.21026 14.471 5.72755 14.1741 5.43044L13.8204 5.78382C13.9222 5.88571 13.9222 6.0521 13.8204 6.15399L14.1741 6.50737ZM14.1741 5.43035L11.8312 3.08753L11.4777 3.44109L13.8205 5.78391L14.1741 5.43035ZM11.831 3.08728C11.534 2.79114 11.0515 2.79014 10.7541 3.08753L11.1077 3.44109C11.2093 3.33948 11.3756 3.33926 11.4779 3.44134L11.831 3.08728ZM10.7541 3.08753L1.79291 12.0487L2.14647 12.4023L11.1077 3.44109L10.7541 3.08753ZM1.79353 12.0481L1.766 12.0755L2.11832 12.4302L2.14585 12.4029L1.79353 12.0481ZM1.72869 12.1227L1.71628 12.1431L2.14322 12.4033L2.15563 12.383L1.72869 12.1227ZM1.7306 12.1221C1.71138 12.1474 1.69518 12.1724 1.68088 12.1964L2.11038 12.4524C2.11781 12.4399 2.1237 12.4312 2.1289 12.4243L1.7306 12.1221ZM1.68034 12.1973L1.66638 12.221L2.09696 12.4751L2.11092 12.4515L1.68034 12.1973ZM1.66671 12.2204C1.65136 12.2463 1.63494 12.2764 1.61843 12.317L2.08171 12.5051C2.08422 12.4989 2.08635 12.4944 2.0883 12.4906C2.09033 12.4866 2.09278 12.4822 2.09663 12.4757L1.66671 12.2204ZM1.61029 12.3403L0.154272 17.2747L0.63383 17.4162L2.08985 12.4818L1.61029 12.3403ZM0.154475 17.274C0.0773346 17.5327 0.144639 17.8146 0.328984 18.0116L0.694097 17.67C0.630283 17.6018 0.607627 17.5041 0.633626 17.4169L0.154475 17.274ZM0.329688 18.0123C0.473491 18.1648 0.675097 18.2521 0.884751 18.2521V17.7521C0.813285 17.7521 0.74309 17.7219 0.693393 17.6692L0.329688 18.0123ZM0.884751 18.2521C0.945929 18.2521 1.00348 18.2446 1.06552 18.23L0.95098 17.7432C0.920746 17.7504 0.901892 17.7521 0.884751 17.7521V18.2521ZM1.23387 18.0943L1.23388 18.0943L0.78264 17.8789L0.78263 17.8789L1.23387 18.0943ZM1.87007 16.8386L2.81193 13.6357L2.33224 13.4947L1.39038 16.6975L1.87007 16.8386ZM2.39532 13.742L4.6381 15.9844L4.99162 15.6308L2.74884 13.3884L2.39532 13.742ZM4.74267 15.5682L1.55803 16.5287L1.70241 17.0074L4.88705 16.0469L4.74267 15.5682ZM13.3052 2.71088C13.6782 2.38309 13.9538 2.27328 14.2765 2.27328V1.77328C13.7969 1.77328 13.4087 1.95429 12.9751 2.33532L13.3052 2.71088ZM14.2765 2.27328C15.2856 2.27328 16.1072 3.09486 16.1072 4.10417H16.6072C16.6072 2.81874 15.5617 1.77328 14.2765 1.77328V2.27328ZM16.1072 4.10417C16.1072 4.42716 15.9974 4.70293 15.6699 5.07512L16.0452 5.40546C16.4265 4.97229 16.6072 4.58384 16.6072 4.10417H16.1072ZM16.0343 5.06351L13.3169 2.34632L12.9634 2.69988L15.6808 5.41707L16.0343 5.06351Z" fill="#1B438B"/>
</g>
<path id="Path 1117" fill-rule="evenodd" clip-rule="evenodd" d="M16.8512 18.9771H0.90279C0.62283 18.9771 0.39502 19.2066 0.39502 19.4887C0.39502 19.6256 0.44775 19.7537 0.54372 19.8505C0.6395 19.947 0.76707 20.0003 0.90278 20.0003H16.8511C17.1311 20.0003 17.3589 19.7706 17.3589 19.4885C17.3589 19.2064 17.1311 18.9771 16.8511 18.9771H16.8512Z" fill="#1B438B" stroke="#1B438B" stroke-width="0.5"/>
</g>
</g>
</svg>
