<svg xmlns="http://www.w3.org/2000/svg" xmlns:xlink="http://www.w3.org/1999/xlink" width="30" height="30" viewBox="0 0 30 30"><defs><clipPath id="b"><rect width="30" height="30"/></clipPath></defs><g id="a" clip-path="url(#b)"><g transform="translate(3.057 1)"><g transform="translate(1.943 6)"><path d="M7.386,6a1.515,1.515,0,0,0-.96.34A1.036,1.036,0,0,0,6,7.125V18.181a1.031,1.031,0,0,0,.419.785,1.534,1.534,0,0,0,.967.346H9.927v2.057a1.031,1.031,0,0,0,.419.785,1.534,1.534,0,0,0,.967.346h13.63a1.526,1.526,0,0,0,.96-.346,1.027,1.027,0,0,0,.426-.779V10.312a1.036,1.036,0,0,0-.426-.785,1.515,1.515,0,0,0-.96-.34H22.4V7.125a1.036,1.036,0,0,0-.426-.785,1.515,1.515,0,0,0-.96-.34Zm0,.75h13.63a.558.558,0,0,1,.31.123.381.381,0,0,1,.152.252V9.187H11.314a1.515,1.515,0,0,0-.96.34,1.036,1.036,0,0,0-.426.785v8.25H7.386a.562.562,0,0,1-.31-.129.377.377,0,0,1-.152-.252V7.125a.381.381,0,0,1,.152-.252A.558.558,0,0,1,7.386,6.75Zm3.927,3.187h13.63a.558.558,0,0,1,.31.123.381.381,0,0,1,.152.252V21.375a.375.375,0,0,1-.152.252.559.559,0,0,1-.31.123H11.314a.562.562,0,0,1-.31-.129.377.377,0,0,1-.152-.252V10.312A.381.381,0,0,1,11,10.06.558.558,0,0,1,11.314,9.937Z" transform="translate(-6 -6)" fill="#94afd8"/></g></g><g transform="translate(12.98 12.622)"><g transform="translate(2.02 1.378)"><path d="M151.6,197.064a.64.64,0,0,0,0-1.129l-4.637-2.481a.64.64,0,0,0-.942.565v4.969a.64.64,0,0,0,.943.564Zm-.2-.376-4.637,2.488a.213.213,0,0,1-.314-.188v-4.969a.213.213,0,0,1,.314-.188l4.637,2.481a.214.214,0,0,1,0,.376Z" transform="translate(-146.02 -193.378)" fill="none" stroke="#94afd8" stroke-width="0.5" fill-rule="evenodd"/></g></g></g></svg>