<svg width="44" height="55" viewBox="0 0 44 55" fill="none" xmlns="http://www.w3.org/2000/svg">
<g id="noun-delete-5005296">
<g id="Path 1175">
<path fill-rule="evenodd" clip-rule="evenodd" d="M39.4986 7.11809H29.4953V5.33072C29.4922 2.69681 27.3578 0.562365 24.7239 0.559265H19.5406C16.9066 0.562355 14.7722 2.6968 14.7691 5.33072V7.11809H4.76589C2.68726 7.12015 1.00256 8.80443 1 10.8831V12.8569C1.00141 13.9011 1.84757 14.7473 2.8918 14.7487H30.5959C31.123 14.7488 31.5503 14.3215 31.5503 13.7944C31.5503 13.2673 31.123 12.84 30.5959 12.84L2.90851 12.8569V10.8832C2.90999 9.8581 3.74086 9.02765 4.7659 9.02668C15.0243 9.03069 29.2403 9.02493 39.4987 9.02668C40.5237 9.02769 41.3545 9.85808 41.356 10.8831L41.3728 12.8401H36.086C35.5589 12.8399 35.1316 13.2672 35.1316 13.7944C35.1316 14.3215 35.5589 14.7488 36.086 14.7488L37.2953 14.7487L35.7849 49.5467C35.7259 50.9709 34.5524 52.0941 33.1271 52.0908H11.1374C9.71199 52.0941 8.53855 50.9709 8.47954 49.5467L7.20652 20.2117C7.18398 19.6851 6.73874 19.2766 6.21216 19.2992C5.68557 19.3219 5.27705 19.7671 5.2997 20.2937L6.57283 49.6287C6.67395 52.0749 8.68911 54.0045 11.1374 53.9994H33.1271C35.5752 54.0042 37.5902 52.0748 37.6916 49.6287L39.2055 14.7487H41.3727C42.417 14.7473 43.2631 13.9011 43.2645 12.8569V10.8832C43.262 8.80445 41.5773 7.12012 39.4986 7.11809H39.4986ZM27.5867 7.1181H16.6777V5.33072C16.6794 3.75032 17.9602 2.46958 19.5406 2.46786H24.7239C26.3043 2.46958 27.5851 3.75032 27.5868 5.33072L27.5867 7.1181Z" fill="#D94B59"/>
<path d="M29.4953 7.11809H29.2953V7.31809H29.4953V7.11809ZM29.4953 5.33072L29.6953 5.33072L29.6953 5.33048L29.4953 5.33072ZM24.7239 0.559265L24.7241 0.359265H24.7239V0.559265ZM19.5406 0.559265L19.5406 0.359265L19.5403 0.359265L19.5406 0.559265ZM14.7691 5.33072L14.5691 5.33048V5.33072H14.7691ZM14.7691 7.11809V7.31809H14.9691V7.11809H14.7691ZM4.76589 7.11809L4.76589 6.91809L4.76569 6.9181L4.76589 7.11809ZM1 10.8831L0.8 10.8828V10.8831H1ZM1 12.8569L0.8 12.8569L0.8 12.8571L1 12.8569ZM2.8918 14.7487L2.89153 14.9487H2.8918V14.7487ZM30.5959 14.7487L30.596 14.5487H30.5959V14.7487ZM30.5959 12.84L30.5959 12.64L30.5958 12.64L30.5959 12.84ZM2.90851 12.8569H2.70851V13.057L2.90863 13.0569L2.90851 12.8569ZM2.90851 10.8832L2.70851 10.8829V10.8832H2.90851ZM4.7659 9.02668L4.76598 8.82668L4.76571 8.82668L4.7659 9.02668ZM39.4987 9.02668L39.4989 8.82668L39.4987 8.82668L39.4987 9.02668ZM41.356 10.8831L41.156 10.8833L41.156 10.8848L41.356 10.8831ZM41.3728 12.8401V13.0401H41.5745L41.5728 12.8384L41.3728 12.8401ZM36.086 12.8401L36.0859 13.0401H36.086V12.8401ZM36.086 14.7488L36.086 14.9488L36.086 14.9488L36.086 14.7488ZM37.2953 14.7487L37.4951 14.7573L37.5042 14.5486L37.2953 14.5487L37.2953 14.7487ZM35.7849 49.5467L35.585 49.5381L35.585 49.5384L35.7849 49.5467ZM33.1271 52.0908L33.1275 51.8908H33.1271V52.0908ZM11.1374 52.0908L11.1374 51.8908L11.1369 51.8908L11.1374 52.0908ZM8.47954 49.5467L8.67937 49.5384L8.67935 49.5381L8.47954 49.5467ZM7.20652 20.2117L7.0067 20.2202L7.00671 20.2204L7.20652 20.2117ZM6.21216 19.2992L6.20357 19.0994L6.20356 19.0994L6.21216 19.2992ZM5.2997 20.2937L5.09988 20.3023L5.09989 20.3024L5.2997 20.2937ZM6.57283 49.6287L6.77266 49.6205L6.77264 49.6201L6.57283 49.6287ZM11.1374 53.9994L11.1374 53.7994L11.137 53.7994L11.1374 53.9994ZM33.1271 53.9994L33.1275 53.7994H33.1271V53.9994ZM37.6916 49.6287L37.4918 49.6201L37.4918 49.6204L37.6916 49.6287ZM39.2055 14.7487V14.5487H39.014L39.0057 14.74L39.2055 14.7487ZM41.3727 14.7487L41.3727 14.9487L41.373 14.9487L41.3727 14.7487ZM43.2645 12.8569L43.4645 12.8572V12.8569H43.2645ZM43.2645 10.8832L43.4645 10.8832L43.4645 10.8829L43.2645 10.8832ZM39.4986 7.11809L39.4988 6.91809H39.4986V7.11809ZM27.5867 7.1181V7.3181H27.7867L27.7867 7.1181L27.5867 7.1181ZM16.6777 7.1181H16.4777V7.3181H16.6777V7.1181ZM16.6777 5.33072L16.4777 5.3305V5.33072H16.6777ZM19.5406 2.46786L19.5406 2.26785L19.5404 2.26786L19.5406 2.46786ZM24.7239 2.46786L24.7241 2.26786H24.7239V2.46786ZM27.5868 5.33072L27.7868 5.33072L27.7868 5.33049L27.5868 5.33072ZM39.4986 6.91809H29.4953V7.31809H39.4986V6.91809ZM29.6953 7.11809V5.33072H29.2953V7.11809H29.6953ZM29.6953 5.33048C29.6921 2.5863 27.4683 0.362495 24.7241 0.359265L24.7237 0.759265C27.2473 0.762235 29.2924 2.80731 29.2953 5.33095L29.6953 5.33048ZM24.7239 0.359265H19.5406V0.759265H24.7239V0.359265ZM19.5403 0.359265C16.7961 0.362485 14.5723 2.58629 14.5691 5.33048L14.9691 5.33095C14.9721 2.8073 17.0172 0.762226 19.5408 0.759265L19.5403 0.359265ZM14.5691 5.33072V7.11809H14.9691V5.33072H14.5691ZM14.7691 6.91809H4.76589V7.31809H14.7691V6.91809ZM4.76569 6.9181C2.57678 6.92025 0.802696 8.69389 0.8 10.8828L1.2 10.8833C1.20242 8.91496 2.79774 7.32004 4.76609 7.31809L4.76569 6.9181ZM0.8 10.8831V12.8569H1.2V10.8831H0.8ZM0.8 12.8571C0.801559 14.0116 1.73705 14.9471 2.89153 14.9487L2.89207 14.5487C1.95809 14.5474 1.20126 13.7906 1.2 12.8566L0.8 12.8571ZM2.8918 14.9487H30.5959V14.5487H2.8918V14.9487ZM30.5959 14.9487C31.2335 14.9488 31.7503 14.4319 31.7503 13.7944H31.3503C31.3503 14.211 31.0125 14.5488 30.596 14.5487L30.5959 14.9487ZM31.7503 13.7944C31.7503 13.1568 31.2335 12.64 30.5959 12.64V13.04C31.0125 13.04 31.3503 13.3777 31.3503 13.7944H31.7503ZM30.5958 12.64L2.90839 12.6569L2.90863 13.0569L30.596 13.04L30.5958 12.64ZM3.10851 12.8569V10.8832H2.70851V12.8569H3.10851ZM3.10851 10.8834C3.10983 9.96866 3.85132 9.22754 4.76609 9.22668L4.76571 8.82668C3.6304 8.82775 2.71015 9.74755 2.70851 10.8829L3.10851 10.8834ZM4.76582 9.22668C15.0242 9.23069 29.2405 9.22493 39.4986 9.22668L39.4987 8.82668C29.24 8.82493 15.0245 8.83069 4.76598 8.82668L4.76582 9.22668ZM39.4985 9.22668C40.4132 9.22758 41.1546 9.96864 41.156 10.8833L41.556 10.8828C41.5543 9.74751 40.6341 8.82779 39.4989 8.82668L39.4985 9.22668ZM41.156 10.8848L41.1728 12.8418L41.5728 12.8384L41.556 10.8813L41.156 10.8848ZM41.3728 12.6401H36.086V13.0401H41.3728V12.6401ZM36.0861 12.6401C35.4485 12.6399 34.9316 13.1568 34.9316 13.7944H35.3316C35.3316 13.3777 35.6694 13.04 36.0859 13.0401L36.0861 12.6401ZM34.9316 13.7944C34.9316 14.432 35.4485 14.9488 36.086 14.9488V14.5488C35.6694 14.5488 35.3316 14.211 35.3316 13.7944H34.9316ZM36.086 14.9488L37.2953 14.9487L37.2953 14.5487L36.086 14.5488L36.086 14.9488ZM37.0955 14.74L35.585 49.5381L35.9847 49.5554L37.4951 14.7573L37.0955 14.74ZM35.585 49.5384C35.5305 50.8553 34.4455 51.8939 33.1275 51.8908L33.1266 52.2908C34.6594 52.2943 35.9212 51.0865 35.9847 49.555L35.585 49.5384ZM33.1271 51.8908H11.1374V52.2908H33.1271V51.8908ZM11.1369 51.8908C9.81894 51.8939 8.73393 50.8553 8.67937 49.5384L8.27971 49.555C8.34317 51.0865 9.60504 52.2944 11.1379 52.2908L11.1369 51.8908ZM8.67935 49.5381L7.40633 20.203L7.00671 20.2204L8.27973 49.5554L8.67935 49.5381ZM7.40634 20.2031C7.37907 19.5662 6.84049 19.072 6.20357 19.0994L6.22075 19.499C6.63699 19.4811 6.98889 19.8041 7.0067 20.2202L7.40634 20.2031ZM6.20356 19.0994C5.56662 19.1268 5.07249 19.6654 5.09988 20.3023L5.49952 20.2851C5.48161 19.8689 5.80452 19.517 6.22076 19.499L6.20356 19.0994ZM5.09989 20.3024L6.37302 49.6374L6.77264 49.6201L5.49951 20.285L5.09989 20.3024ZM6.373 49.637C6.47856 52.1905 8.58212 54.2047 11.1378 54.1994L11.137 53.7994C8.7961 53.8043 6.86934 51.9594 6.77266 49.6205L6.373 49.637ZM11.1374 54.1994H33.1271V53.7994H11.1374V54.1994ZM33.1267 54.1994C35.6822 54.2044 37.7856 52.1904 37.8915 49.637L37.4918 49.6204C37.3948 51.9592 35.4682 53.804 33.1275 53.7994L33.1267 54.1994ZM37.8914 49.6374L39.4053 14.7574L39.0057 14.74L37.4918 49.6201L37.8914 49.6374ZM39.2055 14.9487H41.3727V14.5487H39.2055V14.9487ZM41.373 14.9487C42.5275 14.9471 43.463 14.0116 43.4645 12.8572L43.0645 12.8566C43.0633 13.7906 42.3065 14.5474 41.3724 14.5487L41.373 14.9487ZM43.4645 12.8569V10.8832H43.0645V12.8569H43.4645ZM43.4645 10.8829C43.4619 8.69393 41.6878 6.92022 39.4988 6.9181L39.4984 7.31809C41.4668 7.32001 43.0622 8.91498 43.0645 10.8834L43.4645 10.8829ZM39.4986 6.91809H39.4986V7.31809H39.4986V6.91809ZM27.5867 6.9181H16.6777V7.3181H27.5867V6.9181ZM16.8777 7.1181V5.33072H16.4777V7.1181H16.8777ZM16.8777 5.33093C16.8793 3.86082 18.0707 2.66945 19.5408 2.66785L19.5404 2.26786C17.8497 2.2697 16.4796 3.63981 16.4777 5.3305L16.8777 5.33093ZM19.5406 2.66786H24.7239V2.26786H19.5406V2.66786ZM24.7237 2.66785C26.1938 2.66945 27.3852 3.86082 27.3868 5.33094L27.7868 5.33049C27.7849 3.63981 26.4148 2.2697 24.7241 2.26786L24.7237 2.66785ZM27.3868 5.33071L27.3867 7.11809L27.7867 7.1181L27.7868 5.33072L27.3868 5.33071Z" fill="#D94B59"/>
</g>
<path id="Path 1176" fill-rule="evenodd" clip-rule="evenodd" d="M14.6087 45.216C14.8691 45.2162 15.1182 45.11 15.2983 44.9221C15.4785 44.7341 15.5741 44.4808 15.563 44.2207L14.6218 22.5367C14.5993 22.01 14.154 21.6015 13.6274 21.6242C13.1007 21.6468 12.6922 22.0921 12.7149 22.6188L13.6563 44.3027C13.6783 44.8129 14.098 45.2154 14.6087 45.216L14.6087 45.216Z" fill="#D94B59" stroke="#D94B59" stroke-width="0.4"/>
<path id="Path 1177" fill-rule="evenodd" clip-rule="evenodd" d="M30.6075 44.3027L31.5488 22.6187C31.5716 22.0921 31.1631 21.6468 30.6364 21.6242C30.1098 21.6015 29.6645 22.0101 29.6419 22.5367L28.7009 44.2207C28.678 44.7473 29.0865 45.1926 29.6132 45.2152C30.1398 45.2379 30.5851 44.8293 30.6077 44.3027L30.6075 44.3027Z" fill="#D94B59" stroke="#D94B59" stroke-width="0.4"/>
<path id="Path 1178" fill-rule="evenodd" clip-rule="evenodd" d="M23.0867 44.2617V22.5777C23.0869 22.0506 22.6596 21.6233 22.1325 21.6233C21.6053 21.6233 21.178 22.0506 21.178 22.5778L21.1782 44.2617C21.178 44.7889 21.6053 45.2162 22.1325 45.2162C22.6596 45.2162 23.0869 44.7889 23.0869 44.2617L23.0867 44.2617Z" fill="#D94B59" stroke="#D94B59" stroke-width="0.4"/>
</g>
</svg>
