<svg width="43" height="43" viewBox="0 0 43 43" fill="none" xmlns="http://www.w3.org/2000/svg">
<g id="Group 1189">
<path id="Path 1642" fill-rule="evenodd" clip-rule="evenodd" d="M21.5 0C33.3741 0 43 9.62588 43 21.5C43 33.3741 33.3741 43 21.5 43C9.62588 43 0 33.3741 0 21.5C0 9.62588 9.62588 0 21.5 0Z" fill="white"/>
<g id="credit-card 1 (1)">
<mask id="mask0_0_2519" style="mask-type:luminance" maskUnits="userSpaceOnUse" x="11" y="11" width="22" height="21">
<path id="Rectangle 1081" fill-rule="evenodd" clip-rule="evenodd" d="M11 11H33V32H11V11Z" fill="white"/>
</mask>
<g mask="url(#mask0_0_2519)">
<g id="Path 1643">
<path fill-rule="evenodd" clip-rule="evenodd" d="M30.1709 13.82H13.1832C12.5447 13.82 12.025 14.3807 12.025 15.0697V26.7335C12.025 27.4225 12.5447 27.9832 13.1832 27.9832H30.1709C30.8095 27.9832 31.3292 27.4225 31.3292 26.7335V15.0697C31.3292 14.3807 30.8095 13.82 30.1709 13.82ZM30.557 26.7335C30.557 26.9626 30.3833 27.15 30.1709 27.15H13.1832C12.9701 27.15 12.7972 26.9626 12.7972 26.7335V15.0697C12.7972 14.8397 12.9701 14.6531 13.1832 14.6531H30.1709C30.3833 14.6531 30.557 14.8397 30.557 15.0697V26.7335Z" fill="#1B438B"/>
<path d="M30.1709 13.67H13.1832V13.97H30.1709V13.67ZM13.1832 13.67C12.4513 13.67 11.875 14.3088 11.875 15.0697H12.175C12.175 14.4526 12.638 13.97 13.1832 13.97V13.67ZM11.875 15.0697V26.7335H12.175V15.0697H11.875ZM11.875 26.7335C11.875 27.4944 12.4513 28.1332 13.1832 28.1332V27.8332C12.638 27.8332 12.175 27.3506 12.175 26.7335H11.875ZM13.1832 28.1332H30.1709V27.8332H13.1832V28.1332ZM30.1709 28.1332C30.9029 28.1332 31.4792 27.4944 31.4792 26.7335H31.1792C31.1792 27.3506 30.7161 27.8332 30.1709 27.8332V28.1332ZM31.4792 26.7335V15.0697H31.1792V26.7335H31.4792ZM31.4792 15.0697C31.4792 14.3088 30.9029 13.67 30.1709 13.67V13.97C30.7161 13.97 31.1792 14.4526 31.1792 15.0697H31.4792ZM30.407 26.7335C30.407 26.8907 30.2899 27 30.1709 27V27.3C30.4766 27.3 30.707 27.0345 30.707 26.7335H30.407ZM30.1709 27H13.1832V27.3H30.1709V27ZM13.1832 27C13.0637 27 12.9472 26.8909 12.9472 26.7335H12.6472C12.6472 27.0343 12.8766 27.3 13.1832 27.3V27ZM12.9472 26.7335V15.0697H12.6472V26.7335H12.9472ZM12.9472 15.0697C12.9472 14.9117 13.0635 14.8031 13.1832 14.8031V14.5031C12.8768 14.5031 12.6472 14.7678 12.6472 15.0697H12.9472ZM13.1832 14.8031H30.1709V14.5031H13.1832V14.8031ZM30.1709 14.8031C30.2901 14.8031 30.407 14.9118 30.407 15.0697H30.707C30.707 14.7676 30.4765 14.5031 30.1709 14.5031V14.8031ZM30.407 15.0697V26.7335H30.707V15.0697H30.407Z" fill="#1B438B"/>
</g>
<path id="Path 1644" fill-rule="evenodd" clip-rule="evenodd" d="M30.943 17.569H12.411V19.2353H30.943V17.569Z" fill="#1B438B"/>
<path id="Path 1645" fill-rule="evenodd" clip-rule="evenodd" d="M30.9431 17.153H12.4111C12.198 17.153 12.025 17.3396 12.025 17.5696V19.2358C12.025 19.4658 12.198 19.6524 12.4111 19.6524H30.9431C31.1562 19.6524 31.3292 19.4658 31.3292 19.2358V17.5696C31.3292 17.3396 31.1561 17.153 30.9431 17.153ZM30.557 18.9861H12.7972V17.9861H30.557V18.9861Z" fill="#1B438B"/>
<path id="Path 1646" fill-rule="evenodd" clip-rule="evenodd" d="M22.4496 22.151H15.5001C15.287 22.151 15.114 22.375 15.114 22.651C15.114 22.927 15.287 23.151 15.5001 23.151H22.4496C22.6627 23.151 22.8357 22.927 22.8357 22.651C22.8357 22.375 22.6627 22.151 22.4496 22.151Z" fill="#1B438B"/>
<path id="Path 1647" fill-rule="evenodd" clip-rule="evenodd" d="M19.3609 23.818H15.5001C15.287 23.818 15.114 24.042 15.114 24.318C15.114 24.594 15.287 24.818 15.5001 24.818H19.3609C19.5741 24.818 19.747 24.594 19.747 24.318C19.747 24.042 19.574 23.818 19.3609 23.818Z" fill="#1B438B"/>
</g>
</g>
</g>
</svg>
