<svg width="22" height="19" viewBox="0 0 22 19" fill="none" xmlns="http://www.w3.org/2000/svg">
<g id="noun-history-5961311">
<path id="Path 1110" fill-rule="evenodd" clip-rule="evenodd" d="M21.8001 9.10009L18.8001 13.1001C18.6111 13.3518 18.3147 13.5 18 13.5C17.6853 13.5 17.3889 13.3518 17.2 13.1001L14.2 9.10009C13.8687 8.6582 13.9583 8.03124 14.3999 7.69995C14.8423 7.36938 15.4688 7.45825 15.8 7.8999L17 9.4999C17 5.3644 13.6355 2 9.5 2C5.3645 2 2 5.3645 2 9.5C2 13.6355 5.3645 17 9.5 17C10.0522 17 10.5 17.4478 10.5 18C10.5 18.5522 10.0522 19 9.5 19C4.2617 19 0 14.7383 0 9.5C0 4.2617 4.2617 0 9.5 0C14.7382 0 19 4.26163 19 9.4999L20.1999 7.89993C20.5315 7.45877 21.1584 7.36941 21.6001 7.69998C22.0417 8.03126 22.1313 8.65821 21.8001 9.10011L21.8001 9.10009ZM10 3.99999C9.44776 3.99999 9.00001 4.44774 9.00001 4.99999V8.71923L5.75758 9.52977C5.22169 9.6638 4.89601 10.2068 5.02979 10.7424C5.14356 11.197 5.55127 11.5002 5.99927 11.5002C6.07959 11.5002 6.16113 11.4904 6.24243 11.4702L10.2424 10.4702C10.6878 10.3589 11 9.95897 11 9.49997V4.99997C11 4.44772 10.5523 3.99997 10 3.99997L10 3.99999Z" fill="#1B438B"/>
</g>
</svg>
