<svg xmlns="http://www.w3.org/2000/svg" xmlns:xlink="http://www.w3.org/1999/xlink" width="30" height="30" viewBox="0 0 30 30"><defs><clipPath id="b"><rect width="30" height="30"/></clipPath></defs><g id="a" clip-path="url(#b)"><g transform="translate(4 4)"><path d="M4.974,18.6a.5.5,0,0,1,.474-.515h.072l10.522-11.7a.8.8,0,0,1,1.174-.016l.509.539a.957.957,0,0,1,.015,1.273L8.662,18.275a.536.536,0,0,1,.108.322v9.33h2.622v-1.8H10.324a.372.372,0,0,1-.356-.386V22.683a3.059,3.059,0,0,1,.93-2.219,1.29,1.29,0,0,1,.019-2.57h1.325l.423-1.963a1.6,1.6,0,0,1,1.456-1.253h8.066a1.547,1.547,0,0,1,1.419,1.261l.361,1.954h1.186a1.29,1.29,0,0,1,.019,2.57,3.06,3.06,0,0,1,.93,2.219V25.74a.372.372,0,0,1-.356.386H24.677v1.8h1.285a.387.387,0,0,1,0,.772H5.337a.372.372,0,0,1-.356-.386c0-.01,0-.02,0-.03a.559.559,0,0,1-.01-.1V18.6Zm3.084.257H5.686v9.067H8.058Zm-.218-.772,1.2-1.337-.675-.723-1.854,2.06Zm4.841-6.855-1.66,1.845.675.723,1.659-1.845Zm1.172.171,1.659-1.845-.675-.723-1.659,1.845Zm-3.328,2.227L8.865,15.469l.675.723L11.2,14.348Zm6.739-6.073a.134.134,0,0,0-.035-.091l-.509-.539a.114.114,0,0,0-.168,0L15.335,8.278,16.01,9l1.221-1.358A.135.135,0,0,0,17.264,7.552Zm-3.5,20.375v-1.8H12.1v1.8Zm.712,0h7.117v-1.8H14.476Zm-3.559-9.261a.516.516,0,0,0,0,1.029h.937l.222-1.029Zm11.99-2.575a.818.818,0,0,0-.721-.641H14.12a.887.887,0,0,0-.762.656l-.78,3.625c.04,0,.079-.006.119-.006H23.373c.07,0,.139.006.207.011Zm2.719,3.089a.5.5,0,0,0-.474-.514H24.108l.19,1.029h.854A.5.5,0,0,0,25.626,19.18Zm-.237,6.174V22.683A2.109,2.109,0,0,0,23.373,20.5H12.7a2.109,2.109,0,0,0-2.017,2.187v2.672H25.389Zm-1.423.772H22.305v1.8h1.661Z" transform="translate(-4.974 -6.123)" fill="#94afd8" stroke="#94afd8" stroke-width="0.2"/><path d="M13.478,64.877a1.5,1.5,0,1,1-1.5,1.5A1.505,1.505,0,0,1,13.478,64.877Zm0,2.313a.81.81,0,1,0-.81-.81A.811.811,0,0,0,13.478,67.19Z" transform="translate(4.764 -49.498)" fill="#94afd8" stroke="#94afd8" stroke-width="0.2"/><path d="M56.478,64.877a1.5,1.5,0,1,1-1.5,1.5A1.505,1.505,0,0,1,56.478,64.877Zm0,2.313a.81.81,0,1,0-.81-.81A.811.811,0,0,0,56.478,67.19Z" transform="translate(-48.529 -49.498)" fill="#94afd8" stroke="#94afd8" stroke-width="0.2"/></g></g></svg>