<svg xmlns="http://www.w3.org/2000/svg" xmlns:xlink="http://www.w3.org/1999/xlink" width="30" height="30" viewBox="0 0 30 30"><defs><clipPath id="b"><rect width="30" height="30"/></clipPath></defs><g id="a" clip-path="url(#b)"><g transform="translate(2.154 3)"><path d="M17.441,7.894H13.133l3.729-4.329a.342.342,0,0,0-.519-.446L12.482,7.6,8.621,3.119a.342.342,0,0,0-.519.446l3.729,4.329H7.523A2.679,2.679,0,0,0,4.846,10.57v7.553A2.679,2.679,0,0,0,7.523,20.8h9.919a2.679,2.679,0,0,0,2.677-2.676V10.571A2.68,2.68,0,0,0,17.441,7.894Zm1.992,10.229a1.994,1.994,0,0,1-1.992,1.992H7.523a1.994,1.994,0,0,1-1.992-1.992V10.571A1.994,1.994,0,0,1,7.523,8.58h9.919a1.994,1.994,0,0,1,1.992,1.992Z" fill="#94afd8" stroke="#94afd8" stroke-width="0.1"/><path d="M17.943,12.155H8.287A1.436,1.436,0,0,0,6.852,13.59v5.92a1.436,1.436,0,0,0,1.435,1.434h9.656a1.436,1.436,0,0,0,1.435-1.434V13.59A1.437,1.437,0,0,0,17.943,12.155Zm.75,7.355a.751.751,0,0,1-.75.75H8.287a.751.751,0,0,1-.75-.75V13.59a.751.751,0,0,1,.75-.75h9.656a.751.751,0,0,1,.75.75v5.92Z" transform="translate(-0.633 -2.887)" fill="#94afd8" stroke="#94afd8" stroke-width="0.1"/><path d="M15.4,25.965H9.314a.342.342,0,1,0,0,.685H15.4a.342.342,0,1,0,0-.685Z" transform="translate(-1.301 -7.243)" fill="#94afd8" stroke="#94afd8" stroke-width="0.1"/><path d="M21.67,25.965H20.149a.342.342,0,0,0,0,.685H21.67a.342.342,0,0,0,0-.685Z" transform="translate(-4.719 -7.243)" fill="#94afd8" stroke="#94afd8" stroke-width="0.1"/></g></g></svg>