<svg width="43" height="44" viewBox="0 0 43 44" fill="none" xmlns="http://www.w3.org/2000/svg">
<g id="Group 1167">
<path id="Ellipse 26" fill-rule="evenodd" clip-rule="evenodd" d="M21.5 43.5C33.3741 43.5 43 33.8741 43 22C43 10.1259 33.3741 0.5 21.5 0.5C9.62588 0.5 0 10.1259 0 22C0 33.8741 9.62588 43.5 21.5 43.5Z" fill="white"/>
<g id="Group 1166">
<g id="noun-mobile-recharge-5080587">
<g id="Path 1611">
<path fill-rule="evenodd" clip-rule="evenodd" d="M21.8333 31.8874C22.3847 31.8874 22.8317 31.4404 22.8317 30.889C22.8317 30.3376 22.3847 29.8906 21.8333 29.8906C21.2819 29.8906 20.8349 30.3376 20.8349 30.889C20.8356 31.4401 21.2822 31.8868 21.8333 31.8874ZM22.0005 30.5562C22.2766 30.5562 22.5005 30.7801 22.5005 31.0562C22.5005 31.3323 22.2766 31.5562 22.0005 31.5562C21.7244 31.5562 21.5005 31.3323 21.5005 31.0562C21.5008 30.7802 21.7245 30.5565 22.0005 30.5562ZM27.0027 10.5H16.6639C15.7454 10.501 15.001 11.2454 15 12.164V31.5546C15.001 32.4731 15.7454 33.2175 16.6639 33.2185H27.0027C27.9212 33.2175 28.6656 32.4731 28.6666 31.5546V12.164C28.6656 11.2454 27.9212 10.501 27.0027 10.5H27.0027ZM28.001 31.5546C28.0004 32.1057 27.5538 32.5523 27.0027 32.553H16.6639C16.1128 32.5524 15.6662 32.1057 15.6656 31.5546V29.225H28.001V31.5546H28.001ZM28.001 28.5595H15.6656V13.8279H28.001V28.5595ZM28.001 13.1623H15.6656V12.164C15.6662 11.6128 16.1128 11.1662 16.6639 11.1656H27.0027C27.5538 11.1662 28.0004 11.6128 28.001 12.164V13.1623ZM22.714 11.8312H20.9526C20.7688 11.8312 20.6198 12.055 20.6198 12.3312C20.6198 12.6073 20.7688 12.8312 20.9526 12.8312H22.714C22.8978 12.8312 23.0468 12.6073 23.0468 12.3312C23.0468 12.055 22.8978 11.8312 22.714 11.8312Z" fill="#1B438B"/>
<path d="M21.8333 31.8874L21.8331 32.0374H21.8333V31.8874ZM20.8349 30.889L20.6849 30.889L20.6849 30.8892L20.8349 30.889ZM22.0005 30.5562L22.0005 30.4062L22.0003 30.4062L22.0005 30.5562ZM21.5005 31.0562L21.3505 31.0561V31.0562H21.5005ZM16.6639 10.5L16.6639 10.35L16.6638 10.35L16.6639 10.5ZM15 12.164L14.85 12.1638V12.164H15ZM15 31.5546H14.85L14.85 31.5548L15 31.5546ZM16.6639 33.2185L16.6638 33.3685H16.6639V33.2185ZM27.0027 33.2185L27.0027 33.3685L27.0028 33.3685L27.0027 33.2185ZM28.6666 31.5546L28.8166 31.5548V31.5546H28.6666ZM28.6666 12.164L28.8166 12.164L28.8166 12.1638L28.6666 12.164ZM27.0027 10.5V10.35L27.0025 10.65L27.0027 10.5ZM28.001 31.5546V31.4046H27.8512L27.851 31.5544L28.001 31.5546ZM27.0027 32.553L27.0027 32.703L27.0028 32.703L27.0027 32.553ZM16.6639 32.553L16.6638 32.703H16.6639V32.553ZM15.6656 31.5546L15.5156 31.5546L15.5156 31.5548L15.6656 31.5546ZM15.6656 29.225V29.075H15.5156V29.225H15.6656ZM28.001 29.225H28.151V29.075H28.001V29.225ZM28.001 31.5546V31.7046H28.151V31.5546H28.001ZM28.001 28.5595V28.7095H28.151V28.5595H28.001ZM15.6656 28.5595H15.5156V28.7095H15.6656V28.5595ZM15.6656 13.8279V13.6779H15.5156V13.8279H15.6656ZM28.001 13.8279H28.151V13.6779H28.001V13.8279ZM28.001 13.1623V13.3123H28.151V13.1623H28.001ZM15.6656 13.1623H15.5156V13.3123H15.6656V13.1623ZM15.6656 12.164L15.5156 12.1638V12.164H15.6656ZM16.6639 11.1656V11.0156L16.6638 11.0156L16.6639 11.1656ZM27.0027 11.1656L27.0028 11.0156H27.0027V11.1656ZM28.001 12.164L28.151 12.164L28.151 12.1638L28.001 12.164ZM21.8333 32.0374C22.4675 32.0374 22.9817 31.5232 22.9817 30.889H22.6817C22.6817 31.3575 22.3018 31.7374 21.8333 31.7374V32.0374ZM22.9817 30.889C22.9817 30.2548 22.4675 29.7406 21.8333 29.7406V30.0406C22.3018 30.0406 22.6817 30.4205 22.6817 30.889H22.9817ZM21.8333 29.7406C21.1991 29.7406 20.6849 30.2548 20.6849 30.889H20.9849C20.9849 30.4205 21.3648 30.0406 21.8333 30.0406V29.7406ZM20.6849 30.8892C20.6857 31.523 21.1993 32.0367 21.8331 32.0374L21.8335 31.7374C21.3651 31.7369 20.9855 31.3573 20.9849 30.8888L20.6849 30.8892ZM22.0005 30.7062C22.1938 30.7062 22.3505 30.8629 22.3505 31.0562H22.6505C22.6505 30.6972 22.3595 30.4062 22.0005 30.4062V30.7062ZM22.3505 31.0562C22.3505 31.2495 22.1938 31.4062 22.0005 31.4062V31.7062C22.3595 31.7062 22.6505 31.4152 22.6505 31.0562H22.3505ZM22.0005 31.4062C21.8072 31.4062 21.6505 31.2495 21.6505 31.0562H21.3505C21.3505 31.4152 21.6415 31.7062 22.0005 31.7062V31.4062ZM21.6505 31.0564C21.6507 30.863 21.8074 30.7064 22.0007 30.7062L22.0003 30.4062C21.6416 30.4066 21.3509 30.6973 21.3505 31.0561L21.6505 31.0564ZM27.0027 10.35H16.6639V10.65H27.0027V10.35ZM16.6638 10.35C15.6625 10.3511 14.8511 11.1625 14.85 12.1638L15.15 12.1641C15.1509 11.3283 15.8283 10.6509 16.6641 10.65L16.6638 10.35ZM14.85 12.164V31.5546H15.15V12.164H14.85ZM14.85 31.5548C14.8511 32.556 15.6625 33.3674 16.6638 33.3685L16.6641 33.0685C15.8283 33.0676 15.1509 32.3903 15.15 31.5544L14.85 31.5548ZM16.6639 33.3685H27.0027V33.0685H16.6639V33.3685ZM27.0028 33.3685C28.0041 33.3674 28.8155 32.556 28.8166 31.5548L28.5166 31.5544C28.5157 32.3903 27.8383 33.0676 27.0025 33.0685L27.0028 33.3685ZM28.8166 31.5546V12.164H28.5166V31.5546H28.8166ZM28.8166 12.1638C28.8155 11.1625 28.0041 10.3511 27.0028 10.35L27.0025 10.65C27.8383 10.6509 28.5157 11.3283 28.5166 12.1641L28.8166 12.1638ZM27.0027 10.65H27.0027V10.35H27.0027V10.65ZM27.851 31.5544C27.8505 32.0228 27.4709 32.4024 27.0025 32.403L27.0028 32.703C27.6367 32.7022 28.1503 32.1886 28.151 31.5548L27.851 31.5544ZM27.0027 32.403H16.6639V32.703H27.0027V32.403ZM16.6641 32.403C16.1957 32.4024 15.8161 32.0228 15.8156 31.5544L15.5156 31.5548C15.5163 32.1886 16.03 32.7023 16.6638 32.703L16.6641 32.403ZM15.8156 31.5546V29.225H15.5156V31.5546H15.8156ZM15.6656 29.375H28.001V29.075H15.6656V29.375ZM27.851 29.225V31.5546H28.151V29.225H27.851ZM28.001 31.4046H28.001V31.7046H28.001V31.4046ZM28.001 28.4095H15.6656V28.7095H28.001V28.4095ZM15.8156 28.5595V13.8279H15.5156V28.5595H15.8156ZM15.6656 13.9779H28.001V13.6779H15.6656V13.9779ZM27.851 13.8279V28.5595H28.151V13.8279H27.851ZM28.001 13.0123H15.6656V13.3123H28.001V13.0123ZM15.8156 13.1623V12.164H15.5156V13.1623H15.8156ZM15.8156 12.1641C15.8161 11.6957 16.1957 11.3161 16.6641 11.3156L16.6638 11.0156C16.0299 11.0163 15.5163 11.5299 15.5156 12.1638L15.8156 12.1641ZM16.6639 11.3156H27.0027V11.0156H16.6639V11.3156ZM27.0025 11.3156C27.4709 11.3161 27.8505 11.6957 27.851 12.1641L28.151 12.1638C28.1503 11.53 27.6367 11.0163 27.0028 11.0156L27.0025 11.3156ZM27.851 12.164V13.1623H28.151V12.164H27.851ZM22.714 11.6812H20.9526V11.9812H22.714V11.6812ZM20.9526 11.6812C20.7948 11.6812 20.6705 11.7772 20.5924 11.8945C20.5137 12.0128 20.4698 12.1677 20.4698 12.3312H20.7698C20.7698 12.2185 20.8005 12.1233 20.8422 12.0607C20.8846 11.997 20.9266 11.9812 20.9526 11.9812V11.6812ZM20.4698 12.3312C20.4698 12.4947 20.5137 12.6495 20.5924 12.7678C20.6705 12.8851 20.7948 12.9812 20.9526 12.9812V12.6812C20.9266 12.6812 20.8846 12.6653 20.8422 12.6016C20.8005 12.539 20.7698 12.4438 20.7698 12.3312H20.4698ZM20.9526 12.9812H22.714V12.6812H20.9526V12.9812ZM22.714 12.9812C22.8718 12.9812 22.9961 12.8851 23.0742 12.7678C23.153 12.6495 23.1968 12.4947 23.1968 12.3312H22.8968C22.8968 12.4438 22.8661 12.539 22.8245 12.6016C22.7821 12.6653 22.74 12.6812 22.714 12.6812V12.9812ZM23.1968 12.3312C23.1968 12.1677 23.153 12.0128 23.0742 11.8945C22.9961 11.7772 22.8718 11.6812 22.714 11.6812V11.9812C22.74 11.9812 22.7821 11.997 22.8245 12.0607C22.8661 12.1233 22.8968 12.2185 22.8968 12.3312H23.1968Z" fill="#1B438B"/>
</g>
</g>
<g id="noun-mobile-recharge-5080587_2">
<g id="Path 1612">
<path fill-rule="evenodd" clip-rule="evenodd" d="M19.0531 21.6085L20.4205 22.8013L19.2032 25.656C19.107 25.8733 19.1771 26.1282 19.3709 26.2658C19.5608 26.4086 19.825 26.3979 20.0029 26.2404L23.7174 23.0363C23.93 22.8529 23.9536 22.5318 23.7702 22.3193C23.7628 22.3107 23.755 22.3023 23.747 22.2942L22.2211 20.7484L23.3166 17.9911C23.4203 17.7302 23.2929 17.4346 23.032 17.331C22.8442 17.2563 22.6301 17.3 22.4866 17.4421L19.0297 20.8641C18.8302 21.0616 18.8286 21.3835 19.0261 21.5831C19.0348 21.5919 19.0438 21.6003 19.0531 21.6085V21.6085ZM22.692 18.0336L21.6825 20.5742C21.608 20.7617 21.6515 20.9754 21.7932 21.119L23.3027 22.648L19.8183 25.6536L20.9561 22.9851C21.0429 22.7825 20.989 22.5471 20.8227 22.4026L19.4703 21.2227L22.692 18.0336Z" fill="#1B438B"/>
<path d="M19.0531 21.6085L19.1189 21.5331L18.9531 21.3886V21.6085H19.0531ZM20.4205 22.8013L20.5125 22.8405L20.5409 22.7737L20.4862 22.7259L20.4205 22.8013ZM19.2032 25.656L19.2946 25.6964L19.2952 25.6952L19.2032 25.656ZM19.3709 26.2658L19.4309 26.1859L19.4288 26.1843L19.3709 26.2658ZM20.0029 26.2404L19.9375 26.1646L19.9366 26.1655L20.0029 26.2404ZM23.7174 23.0363L23.7827 23.112L23.7827 23.112L23.7174 23.0363ZM23.7702 22.3193L23.8459 22.2539L23.8459 22.2539L23.7702 22.3193ZM23.747 22.2942L23.6759 22.3645L23.6759 22.3645L23.747 22.2942ZM22.2211 20.7484L22.1281 20.7115L22.104 20.7722L22.1499 20.8187L22.2211 20.7484ZM23.3166 17.9911L23.2237 17.9542L23.2237 17.9542L23.3166 17.9911ZM23.032 17.331L22.995 17.4239L22.995 17.4239L23.032 17.331ZM22.4866 17.4421L22.5569 17.5132L22.5569 17.5132L22.4866 17.4421ZM19.0297 20.8641L19.1001 20.9352L19.1001 20.9352L19.0297 20.8641ZM19.0261 21.5831L18.955 21.6534L18.955 21.6535L19.0261 21.5831ZM19.0531 21.6085L18.9872 21.6837L19.1531 21.8291V21.6085H19.0531ZM22.692 18.0336L22.7849 18.0705L22.6216 17.9625L22.692 18.0336ZM21.6825 20.5742L21.5895 20.5372L21.5895 20.5373L21.6825 20.5742ZM21.7932 21.119L21.8644 21.0487L21.8643 21.0487L21.7932 21.119ZM23.3027 22.648L23.368 22.7237L23.449 22.6539L23.3738 22.5778L23.3027 22.648ZM19.8183 25.6536L19.7263 25.6144L19.8836 25.7293L19.8183 25.6536ZM20.9561 22.9851L20.8642 22.9457L20.8642 22.9459L20.9561 22.9851ZM20.8227 22.4026L20.7569 22.4779L20.7571 22.478L20.8227 22.4026ZM19.4703 21.2227L19.3999 21.1517L19.3235 21.2274L19.4045 21.2981L19.4703 21.2227ZM18.9874 21.6839L20.3547 22.8766L20.4862 22.7259L19.1189 21.5331L18.9874 21.6839ZM20.3285 22.7621L19.1112 25.6168L19.2952 25.6952L20.5125 22.8405L20.3285 22.7621ZM19.1117 25.6155C18.9964 25.8763 19.0805 26.1822 19.3129 26.3474L19.4288 26.1843C19.2738 26.0742 19.2177 25.8703 19.2946 25.6964L19.1117 25.6155ZM19.3108 26.3458C19.5387 26.5171 19.8558 26.5043 20.0692 26.3152L19.9366 26.1655C19.7943 26.2916 19.5829 26.3001 19.4309 26.1859L19.3108 26.3458ZM20.0682 26.3161L23.7827 23.112L23.6521 22.9606L19.9376 26.1646L20.0682 26.3161ZM23.7827 23.112C24.0371 22.8925 24.0654 22.5083 23.8459 22.2539L23.6945 22.3846C23.8418 22.5554 23.8228 22.8132 23.652 22.9606L23.7827 23.112ZM23.8459 22.2539C23.837 22.2436 23.8278 22.2336 23.8182 22.2239L23.6759 22.3645C23.6823 22.371 23.6885 22.3777 23.6945 22.3846L23.8459 22.2539ZM23.8182 22.224L22.2922 20.6782L22.1499 20.8187L23.6759 22.3645L23.8182 22.224ZM22.314 20.7853L23.4096 18.0281L23.2237 17.9542L22.1281 20.7115L22.314 20.7853ZM23.4096 18.0281C23.5337 17.7158 23.3811 17.3621 23.0689 17.238L22.995 17.4239C23.2046 17.5072 23.307 17.7446 23.2237 17.9542L23.4096 18.0281ZM23.0689 17.238C22.8442 17.1487 22.588 17.201 22.4162 17.371L22.5569 17.5132C22.6722 17.399 22.8442 17.3639 22.995 17.4239L23.0689 17.238ZM22.4162 17.371L18.9594 20.7931L19.1001 20.9352L22.5569 17.5132L22.4162 17.371ZM18.9594 20.7931C18.7206 21.0294 18.7186 21.4146 18.955 21.6534L19.0971 21.5127C18.9385 21.3524 18.9398 21.0939 19.1001 20.9352L18.9594 20.7931ZM18.955 21.6535C18.9655 21.664 18.9762 21.6741 18.9872 21.6837L19.1191 21.5333C19.1114 21.5266 19.1041 21.5198 19.0971 21.5127L18.955 21.6535ZM19.1531 21.6085V21.6085H18.9531V21.6085H19.1531ZM22.5991 17.9967L21.5895 20.5372L21.7754 20.6111L22.7849 18.0705L22.5991 17.9967ZM21.5895 20.5373C21.5004 20.7616 21.5524 21.0175 21.722 21.1893L21.8643 21.0487C21.7505 20.9334 21.7156 20.7617 21.7754 20.6111L21.5895 20.5373ZM21.722 21.1893L23.2315 22.7183L23.3738 22.5778L21.8644 21.0487L21.722 21.1893ZM23.2373 22.5723L19.753 25.5779L19.8836 25.7293L23.368 22.7237L23.2373 22.5723ZM19.9103 25.6928L21.0481 23.0243L20.8642 22.9459L19.7263 25.6144L19.9103 25.6928ZM21.0481 23.0245C21.152 22.782 21.0874 22.5002 20.8883 22.3271L20.7571 22.478C20.8906 22.5941 20.9339 22.7831 20.8642 22.9457L21.0481 23.0245ZM20.8884 22.3272L19.536 21.1474L19.4045 21.2981L20.7569 22.4779L20.8884 22.3272ZM19.5406 21.2938L22.7623 18.1047L22.6216 17.9625L19.3999 21.1517L19.5406 21.2938Z" fill="#1B438B"/>
</g>
</g>
</g>
</g>
</svg>
