<svg width="11" height="12" viewBox="0 0 11 12" fill="none" xmlns="http://www.w3.org/2000/svg">
<g id="noun-date-5978080">
<g id="Group 483">
<path id="Path 1185" fill-rule="evenodd" clip-rule="evenodd" d="M7.80356 1.23214H2.875V0.41071C2.875 0.18399 2.69099 0 2.46428 0C2.23756 0 2.05357 0.184 2.05357 0.41071V1.23214H1.23211C0.90518 1.23214 0.59185 1.36192 0.36102 1.59315C0.12977 1.82398 0 2.13735 0 2.46429C0 4.25254 0 8.47961 0 10.2679C0 10.5948 0.12978 10.9082 0.36102 11.139C0.59185 11.3702 0.90518 11.5 1.23211 11.5C3.08856 11.5 7.58996 11.5 9.4464 11.5C9.77333 11.5 10.0867 11.3702 10.3175 11.139C10.5487 10.9082 10.6786 10.5948 10.6786 10.2679V2.46429C10.6786 2.13736 10.5487 1.82399 10.3175 1.59315C10.0867 1.36192 9.77333 1.23214 9.4464 1.23214H8.62499V0.41071C8.62499 0.18399 8.44097 0 8.21427 0C7.98754 0 7.80355 0.184 7.80355 0.41071L7.80356 1.23214ZM9.85712 4.10715V10.2679C9.85712 10.3767 9.81403 10.4814 9.73682 10.5582C9.65999 10.6354 9.55527 10.6786 9.44641 10.6786H1.23212C1.12329 10.6786 1.01854 10.6354 0.94176 10.5582C0.86455 10.4814 0.82141 10.3767 0.82141 10.2679V4.10715H9.85712ZM2.05358 9.21429H2.87501C3.10171 9.21429 3.2857 8.9903 3.2857 8.71429C3.2857 8.43828 3.10171 8.21429 2.87501 8.21429H2.05358C1.82686 8.21429 1.64284 8.43828 1.64284 8.71429C1.64284 8.9903 1.82686 9.21429 2.05358 9.21429ZM4.92858 9.21429H5.74999C5.97671 9.21429 6.1607 8.9903 6.1607 8.71429C6.1607 8.43828 5.97671 8.21429 5.74999 8.21429H4.92858C4.70185 8.21429 4.51784 8.43828 4.51784 8.71429C4.51784 8.9903 4.70185 9.21429 4.92858 9.21429ZM7.80356 9.21429H8.625C8.85172 9.21429 9.03569 8.9903 9.03569 8.71429C9.03569 8.43828 8.85171 8.21429 8.625 8.21429H7.80356C7.57684 8.21429 7.39284 8.43828 7.39284 8.71429C7.39284 8.9903 7.57685 9.21429 7.80356 9.21429ZM2.05358 6.74999H2.87501C3.10171 6.74999 3.2857 6.52598 3.2857 6.24999C3.2857 5.97399 3.10171 5.74999 2.87501 5.74999H2.05358C1.82686 5.74999 1.64284 5.97399 1.64284 6.24999C1.64284 6.52599 1.82686 6.74999 2.05358 6.74999ZM4.92858 6.74999H5.74999C5.97671 6.74999 6.1607 6.52598 6.1607 6.24999C6.1607 5.97399 5.97671 5.74999 5.74999 5.74999H4.92858C4.70185 5.74999 4.51784 5.97399 4.51784 6.24999C4.51784 6.52599 4.70185 6.74999 4.92858 6.74999ZM7.80356 6.74999H8.625C8.85172 6.74999 9.03569 6.52598 9.03569 6.24999C9.03569 5.97399 8.85171 5.74999 8.625 5.74999H7.80356C7.57684 5.74999 7.39284 5.97399 7.39284 6.24999C7.39284 6.52599 7.57685 6.74999 7.80356 6.74999ZM1.23212 2.05357H9.44641C9.55527 2.05357 9.65999 2.0967 9.73682 2.17392C9.81403 2.25072 9.85712 2.35545 9.85712 2.46429V3.28571H0.82141V2.46429C0.82141 2.35545 0.86455 2.25072 0.94176 2.17392C1.01854 2.0967 1.12329 2.05357 1.23212 2.05357Z" fill="#808080"/>
</g>
</g>
</svg>
