<svg width="43" height="43" viewBox="0 0 43 43" fill="none" xmlns="http://www.w3.org/2000/svg">
<g id="Group 1192">
<g id="Group 1191">
<path id="Path 1648" fill-rule="evenodd" clip-rule="evenodd" d="M21.5 0C33.3741 0 43 9.62588 43 21.5C43 33.3741 33.3741 43 21.5 43C9.62586 43 -1.52588e-05 33.3741 -1.52588e-05 21.5C-1.52588e-05 9.62588 9.62586 0 21.5 0Z" fill="white"/>
<g id="Group (1)">
<g id="Path 1649">
<path fill-rule="evenodd" clip-rule="evenodd" d="M31.9844 20.8666C31.6346 20.8666 31.351 21.1502 31.351 21.5V22.1333H26.5459C26.13 21.5132 25.5957 20.9789 24.9755 20.5629V17.0667H25.6089C25.9586 17.0667 26.2422 16.7831 26.2422 16.4333C26.2422 16.0835 25.9586 15.8 25.6089 15.8H24.9755V12.6333C24.9755 12.2836 24.6919 12 24.3421 12H19.2755C18.9257 12 18.6422 12.2836 18.6422 12.6333V15.8H18.0089C17.6591 15.8 17.3755 16.0836 17.3755 16.4333C17.3755 16.7831 17.6591 17.0667 18.0089 17.0667H18.6422V20.5629C18.022 20.9789 17.4877 21.5132 17.0718 22.1333H12.2666V21.5C12.2666 21.1502 11.9831 20.8666 11.6333 20.8666C11.2835 20.8666 11 21.1502 11 21.5V29.1C11 29.4498 11.2835 29.7333 11.6333 29.7333C11.9831 29.7333 12.2666 29.4498 12.2666 29.1V28.4667H17.0718C18.0956 29.9932 19.8368 31 21.8088 31C23.7809 31 25.5222 29.9932 26.5459 28.4667H31.351V29.1C31.351 29.4498 31.6346 29.7333 31.9844 29.7333C32.3341 29.7333 32.6177 29.4498 32.6177 29.1V21.5C32.6177 21.1502 32.3341 20.8666 31.9844 20.8666ZM19.9088 13.2667H23.7088V15.8H19.9088V13.2667ZM19.9088 17.0667H23.7088V19.926C23.1143 19.7151 22.4748 19.6 21.8088 19.6C21.1429 19.6 20.5034 19.7151 19.9089 19.926L19.9088 17.0667ZM12.2666 27.2V23.4H16.4349C16.224 23.9945 16.1089 24.634 16.1089 25.2999C16.1089 25.9659 16.224 26.6054 16.4349 27.2H12.2666ZM21.8088 29.7333C19.3643 29.7333 17.3755 27.7445 17.3755 25.2999C17.3755 22.8554 19.3643 20.8666 21.8088 20.8666C24.2534 20.8666 26.2422 22.8554 26.2422 25.2999C26.2422 27.7445 24.2534 29.7333 21.8088 29.7333ZM27.1828 27.2C27.3936 26.6054 27.5089 25.9659 27.5089 25.2999C27.5089 24.634 27.3936 23.9945 27.1828 23.4H31.351V27.2H27.1828Z" fill="#1B438B"/>
<path d="M31.351 22.1333V22.2333H31.451V22.1333H31.351ZM26.5459 22.1333L26.4629 22.189L26.4926 22.2333H26.5459V22.1333ZM24.9755 20.5629H24.8755V20.6163L24.9198 20.646L24.9755 20.5629ZM24.9755 17.0667V16.9667H24.8755V17.0667H24.9755ZM24.9755 15.8H24.8755V15.9H24.9755V15.8ZM18.6422 15.8V15.9H18.7422V15.8H18.6422ZM18.6422 17.0667H18.7422V16.9667H18.6422V17.0667ZM18.6422 20.5629L18.6979 20.646L18.7422 20.6163V20.5629H18.6422ZM17.0718 22.1333V22.2333H17.1251L17.1548 22.189L17.0718 22.1333ZM12.2666 22.1333H12.1666V22.2333H12.2666V22.1333ZM12.2666 28.4667V28.3667H12.1666V28.4667H12.2666ZM17.0718 28.4667L17.1548 28.411L17.1251 28.3667H17.0718V28.4667ZM26.5459 28.4667V28.3667H26.4926L26.4629 28.411L26.5459 28.4667ZM31.351 28.4667H31.451V28.3667H31.351V28.4667ZM19.9088 13.2667V13.1667H19.8088V13.2667H19.9088ZM23.7088 13.2667H23.8088V13.1667H23.7088V13.2667ZM23.7088 15.8V15.9H23.8088V15.8H23.7088ZM19.9088 15.8H19.8088V15.9H19.9088V15.8ZM19.9088 17.0667V16.9667H19.8088L19.8088 17.0667L19.9088 17.0667ZM23.7088 17.0667H23.8088V16.9667H23.7088V17.0667ZM23.7088 19.926L23.6754 20.0202L23.8088 20.0676V19.926H23.7088ZM19.9089 19.926L19.8089 19.926L19.8089 20.0676L19.9423 20.0202L19.9089 19.926ZM12.2666 27.2H12.1666V27.3H12.2666V27.2ZM12.2666 23.4V23.3H12.1666V23.4H12.2666ZM16.4349 23.4L16.5291 23.4334L16.5765 23.3H16.4349V23.4ZM16.4349 27.2V27.3H16.5765L16.5291 27.1666L16.4349 27.2ZM27.1828 27.2L27.0885 27.1666L27.0412 27.3H27.1828V27.2ZM27.1828 23.4V23.3H27.0412L27.0885 23.4334L27.1828 23.4ZM31.351 23.4H31.451V23.3H31.351V23.4ZM31.351 27.2V27.3H31.451V27.2H31.351ZM31.9844 20.7666C31.5794 20.7666 31.251 21.095 31.251 21.5H31.451C31.451 21.2054 31.6898 20.9666 31.9844 20.9666V20.7666ZM31.251 21.5V22.1333H31.451V21.5H31.251ZM31.351 22.0333H26.5459V22.2333H31.351V22.0333ZM26.629 22.0776C26.2058 21.4467 25.6622 20.903 25.0312 20.4799L24.9198 20.646C25.5292 21.0547 26.0542 21.5797 26.4629 22.189L26.629 22.0776ZM25.0755 20.5629V17.0667H24.8755V20.5629H25.0755ZM24.9755 17.1667H25.6089V16.9667H24.9755V17.1667ZM25.6089 17.1667C26.0138 17.1667 26.3422 16.8383 26.3422 16.4333H26.1422C26.1422 16.7279 25.9034 16.9667 25.6089 16.9667V17.1667ZM26.3422 16.4333C26.3422 16.0283 26.0138 15.7 25.6089 15.7V15.9C25.9034 15.9 26.1422 16.1388 26.1422 16.4333H26.3422ZM25.6089 15.7H24.9755V15.9H25.6089V15.7ZM25.0755 15.8V12.6333H24.8755V15.8H25.0755ZM25.0755 12.6333C25.0755 12.2283 24.7471 11.9 24.3421 11.9V12.1C24.6367 12.1 24.8755 12.3388 24.8755 12.6333H25.0755ZM24.3421 11.9H19.2755V12.1H24.3421V11.9ZM19.2755 11.9C18.8705 11.9 18.5422 12.2283 18.5422 12.6333H18.7422C18.7422 12.3388 18.981 12.1 19.2755 12.1V11.9ZM18.5422 12.6333V15.8H18.7422V12.6333H18.5422ZM18.6422 15.7H18.0089V15.9H18.6422V15.7ZM18.0089 15.7C17.6039 15.7 17.2755 16.0283 17.2755 16.4333H17.4755C17.4755 16.1388 17.7143 15.9 18.0089 15.9V15.7ZM17.2755 16.4333C17.2755 16.8383 17.6039 17.1667 18.0089 17.1667V16.9667C17.7143 16.9667 17.4755 16.7279 17.4755 16.4333H17.2755ZM18.0089 17.1667H18.6422V16.9667H18.0089V17.1667ZM18.5422 17.0667V20.5629H18.7422V17.0667H18.5422ZM18.5865 20.4799C17.9555 20.9031 17.4119 21.4467 16.9887 22.0776L17.1548 22.189C17.5635 21.5797 18.0885 21.0547 18.6979 20.646L18.5865 20.4799ZM17.0718 22.0333H12.2666V22.2333H17.0718V22.0333ZM12.3666 22.1333V21.5H12.1666V22.1333H12.3666ZM12.3666 21.5C12.3666 21.095 12.0383 20.7666 11.6333 20.7666V20.9666C11.9279 20.9666 12.1666 21.2054 12.1666 21.5H12.3666ZM11.6333 20.7666C11.2283 20.7666 10.9 21.095 10.9 21.5H11.1C11.1 21.2054 11.3388 20.9666 11.6333 20.9666V20.7666ZM10.9 21.5V29.1H11.1V21.5H10.9ZM10.9 29.1C10.9 29.505 11.2283 29.8333 11.6333 29.8333V29.6333C11.3388 29.6333 11.1 29.3945 11.1 29.1H10.9ZM11.6333 29.8333C12.0383 29.8333 12.3666 29.505 12.3666 29.1H12.1666C12.1666 29.3945 11.9279 29.6333 11.6333 29.6333V29.8333ZM12.3666 29.1V28.4667H12.1666V29.1H12.3666ZM12.2666 28.5667H17.0718V28.3667H12.2666V28.5667ZM16.9887 28.5224C18.0302 30.0753 19.8019 31.1 21.8088 31.1V30.9C19.8716 30.9 18.1609 29.9111 17.1548 28.411L16.9887 28.5224ZM21.8088 31.1C23.8158 31.1 25.5875 30.0753 26.629 28.5224L26.4629 28.411C25.4568 29.9111 23.7461 30.9 21.8088 30.9V31.1ZM26.5459 28.5667H31.351V28.3667H26.5459V28.5667ZM31.251 28.4667V29.1H31.451V28.4667H31.251ZM31.251 29.1C31.251 29.505 31.5794 29.8333 31.9844 29.8333V29.6333C31.6898 29.6333 31.451 29.3945 31.451 29.1H31.251ZM31.9844 29.8333C32.3894 29.8333 32.7177 29.505 32.7177 29.1H32.5177C32.5177 29.3945 32.2789 29.6333 31.9844 29.6333V29.8333ZM32.7177 29.1V21.5H32.5177V29.1H32.7177ZM32.7177 21.5C32.7177 21.095 32.3894 20.7666 31.9844 20.7666V20.9666C32.2789 20.9666 32.5177 21.2054 32.5177 21.5H32.7177ZM19.9088 13.3667H23.7088V13.1667H19.9088V13.3667ZM23.6088 13.2667V15.8H23.8088V13.2667H23.6088ZM23.7088 15.7H19.9088V15.9H23.7088V15.7ZM20.0088 15.8V13.2667H19.8088V15.8H20.0088ZM19.9088 17.1667H23.7088V16.9667H19.9088V17.1667ZM23.6088 17.0667V19.926H23.8088V17.0667H23.6088ZM23.7422 19.8317C23.1372 19.6172 22.4864 19.5 21.8088 19.5V19.7C22.4632 19.7 23.0914 19.8131 23.6754 20.0202L23.7422 19.8317ZM21.8088 19.5C21.1313 19.5 20.4805 19.6172 19.8754 19.8317L19.9423 20.0202C20.5263 19.8131 21.1545 19.7 21.8088 19.7V19.5ZM20.0089 19.926L20.0088 17.0667L19.8088 17.0667L19.8089 19.926L20.0089 19.926ZM12.3666 27.2V23.4H12.1666V27.2H12.3666ZM12.2666 23.5H16.4349V23.3H12.2666V23.5ZM16.3406 23.3665C16.1261 23.9716 16.0089 24.6224 16.0089 25.2999H16.2089C16.2089 24.6456 16.322 24.0174 16.5291 23.4334L16.3406 23.3665ZM16.0089 25.2999C16.0089 25.9775 16.1261 26.6283 16.3406 27.2334L16.5291 27.1666C16.322 26.5825 16.2089 25.9543 16.2089 25.2999H16.0089ZM16.4349 27.1H12.2666V27.3H16.4349V27.1ZM21.8088 29.6333C19.4195 29.6333 17.4755 27.6893 17.4755 25.2999H17.2755C17.2755 27.7997 19.3091 29.8333 21.8088 29.8333V29.6333ZM17.4755 25.2999C17.4755 22.9106 19.4195 20.9666 21.8088 20.9666V20.7666C19.3091 20.7666 17.2755 22.8002 17.2755 25.2999H17.4755ZM21.8088 20.9666C24.1981 20.9666 26.1422 22.9106 26.1422 25.2999H26.3422C26.3422 22.8002 24.3086 20.7666 21.8088 20.7666V20.9666ZM26.1422 25.2999C26.1422 27.6893 24.1981 29.6333 21.8088 29.6333V29.8333C24.3086 29.8333 26.3422 27.7997 26.3422 25.2999H26.1422ZM27.277 27.2334C27.4916 26.6283 27.6089 25.9775 27.6089 25.2999H27.4089C27.4089 25.9543 27.2957 26.5825 27.0885 27.1666L27.277 27.2334ZM27.6089 25.2999C27.6089 24.6224 27.4916 23.9716 27.277 23.3665L27.0885 23.4334C27.2957 24.0174 27.4089 24.6456 27.4089 25.2999H27.6089ZM27.1828 23.5H31.351V23.3H27.1828V23.5ZM31.251 23.4V27.2H31.451V23.4H31.251ZM31.351 27.1H27.1828V27.3H31.351V27.1Z" fill="white"/>
</g>
<g id="Path 1650">
<path fill-rule="evenodd" clip-rule="evenodd" d="M23.1521 23.0605L22.6272 23.5854C22.3792 23.4664 22.1016 23.3997 21.8086 23.3997C20.761 23.3997 19.9086 24.252 19.9086 25.2997C19.9086 25.5926 19.9754 25.8703 20.0943 26.1183L19.5695 26.6432C19.3222 26.8905 19.3222 27.2915 19.5695 27.5388C19.8167 27.7862 20.2178 27.7862 20.4651 27.5388L20.9899 27.0139C21.238 27.1329 21.5156 27.1996 21.8086 27.1996C22.8563 27.1996 23.7086 26.3473 23.7086 25.2997C23.7086 25.0067 23.6419 24.7291 23.5229 24.4811L24.0478 23.9562C24.2951 23.7088 24.2951 23.3079 24.0478 23.0605C23.8005 22.8132 23.3995 22.8132 23.1521 23.0605V23.0605ZM21.8086 25.933C21.4594 25.933 21.1753 25.6489 21.1753 25.2996C21.1753 24.9504 21.4594 24.6663 21.8086 24.6663C22.1578 24.6663 22.442 24.9504 22.442 25.2996C22.442 25.6489 22.1578 25.933 21.8086 25.933Z" fill="#1B438B"/>
<path d="M23.1521 23.0605H23.2521V22.8191L23.0814 22.9898L23.1521 23.0605ZM22.6272 23.5854L22.584 23.6755L22.6479 23.7062L22.6979 23.6561L22.6272 23.5854ZM20.0943 26.1183L20.165 26.189L20.2151 26.1389L20.1845 26.0751L20.0943 26.1183ZM19.5695 26.6432L19.6402 26.7139L19.6402 26.7139L19.5695 26.6432ZM19.5695 27.5388L19.6402 27.4681L19.6402 27.4681L19.5695 27.5388ZM20.4651 27.5388L20.3944 27.4681L20.3944 27.4681L20.4651 27.5388ZM20.9899 27.0139L21.0331 26.9238L20.9693 26.8931L20.9192 26.9432L20.9899 27.0139ZM23.5229 24.4811L23.4522 24.4103L23.4021 24.4604L23.4328 24.5243L23.5229 24.4811ZM24.0478 23.9562L24.1185 24.0269L24.1185 24.0269L24.0478 23.9562ZM24.0478 23.0605L24.1185 22.9898L24.1185 22.9898L24.0478 23.0605ZM23.1521 23.0605H23.0521V23.3019L23.2228 23.1312L23.1521 23.0605ZM23.0814 22.9898L22.5565 23.5146L22.6979 23.6561L23.2228 23.1312L23.0814 22.9898ZM22.6705 23.4952C22.4093 23.3699 22.117 23.2997 21.8086 23.2997V23.4997C22.0863 23.4997 22.3491 23.5629 22.584 23.6755L22.6705 23.4952ZM21.8086 23.2997C20.7057 23.2997 19.8086 24.1967 19.8086 25.2997H20.0086C20.0086 24.3072 20.8162 23.4997 21.8086 23.4997V23.2997ZM19.8086 25.2997C19.8086 25.6079 19.8789 25.9004 20.0041 26.1615L20.1845 26.0751C20.0719 25.8402 20.0086 25.5772 20.0086 25.2997H19.8086ZM20.0236 26.0476L19.4988 26.5725L19.6402 26.7139L20.165 26.189L20.0236 26.0476ZM19.4988 26.5725C19.2124 26.8588 19.2124 27.3232 19.4988 27.6095L19.6402 27.4681C19.4319 27.2599 19.4319 26.9222 19.6402 26.7139L19.4988 26.5725ZM19.4987 27.6095C19.785 27.896 20.2495 27.896 20.5358 27.6095L20.3944 27.4681C20.1861 27.6764 19.8484 27.6764 19.6402 27.4681L19.4987 27.6095ZM20.5358 27.6095L21.0606 27.0846L20.9192 26.9432L20.3944 27.4681L20.5358 27.6095ZM20.9467 27.1041C21.2079 27.2294 21.5003 27.2996 21.8086 27.2996V27.0996C21.531 27.0996 21.2681 27.0364 21.0331 26.9238L20.9467 27.1041ZM21.8086 27.2996C22.9115 27.2996 23.8086 26.4026 23.8086 25.2997H23.6086C23.6086 26.2921 22.8011 27.0996 21.8086 27.0996V27.2996ZM23.8086 25.2997C23.8086 24.9913 23.7384 24.699 23.6131 24.4378L23.4328 24.5243C23.5454 24.7592 23.6086 25.022 23.6086 25.2997H23.8086ZM23.5936 24.5518L24.1185 24.0269L23.9771 23.8855L23.4522 24.4103L23.5936 24.5518ZM24.1185 24.0269C24.4049 23.7404 24.4049 23.2762 24.1185 22.9898L23.9771 23.1312C24.1853 23.3395 24.1853 23.6771 23.9771 23.8855L24.1185 24.0269ZM24.1185 22.9898C23.8322 22.7034 23.3678 22.7034 23.0814 22.9898L23.2228 23.1312C23.4311 22.9229 23.7688 22.9229 23.9771 23.1312L24.1185 22.9898ZM23.2521 23.0605V23.0605H23.0521V23.0605H23.2521ZM21.8086 25.833C21.5146 25.833 21.2753 25.5937 21.2753 25.2996H21.0753C21.0753 25.7041 21.4041 26.033 21.8086 26.033V25.833ZM21.2753 25.2996C21.2753 25.0056 21.5146 24.7663 21.8086 24.7663V24.5663C21.4041 24.5663 21.0753 24.8952 21.0753 25.2996H21.2753ZM21.8086 24.7663C22.1026 24.7663 22.342 25.0057 22.342 25.2996H22.542C22.542 24.8952 22.2131 24.5663 21.8086 24.5663V24.7663ZM22.342 25.2996C22.342 25.5937 22.1026 25.833 21.8086 25.833V26.033C22.2131 26.033 22.542 25.7041 22.542 25.2996H22.342Z" fill="white"/>
</g>
</g>
</g>
</g>
</svg>
