<svg width="25" height="25" viewBox="0 0 25 25" fill="none" xmlns="http://www.w3.org/2000/svg">
<g id="Group 2899">
<path id="Rectangle 1115" d="M0.5 12.5C0.5 5.87258 5.87258 0.5 12.5 0.5C19.1274 0.5 24.5 5.87258 24.5 12.5C24.5 19.1274 19.1274 24.5 12.5 24.5C5.87258 24.5 0.5 19.1274 0.5 12.5Z" fill="" stroke="#CF1E2F"/>
<g id="noun-error-2503775">
<path id="Path 1720" fill-rule="evenodd" clip-rule="evenodd" d="M18.7263 16.6142L12.7565 6.21195C12.6791 6.07906 12.5428 6 12.3914 6C12.2401 6 12.1038 6.07906 12.0264 6.21195L6.05657 16.6142C5.98087 16.7471 5.98087 16.9069 6.05824 17.0398C6.13394 17.1727 6.27019 17.2501 6.42158 17.2501H18.3613C18.5127 17.2501 18.649 17.1727 18.7246 17.0398C18.802 16.9069 18.802 16.7471 18.7263 16.6142ZM12.7867 13.9379C12.7867 14.16 12.6084 14.34 12.3914 14.34C12.1745 14.34 11.9961 14.16 11.9961 13.9379V13.9211L11.6395 10.3365V10.318L11.621 10.1431C11.621 9.71244 11.9659 9.36256 12.3914 9.36256C12.4671 9.36256 12.5395 9.37265 12.6101 9.39452C12.8389 9.46348 13.0239 9.63675 13.1097 9.86383C13.1434 9.94962 13.1602 10.0405 13.1619 10.1347L12.7867 13.9379ZM12.3914 16.5738C11.9877 16.5738 11.6597 16.2425 11.6597 15.8371C11.6597 15.43 11.9877 15.0986 12.3914 15.0986C12.7935 15.0986 13.1215 15.43 13.1215 15.8371C13.1215 16.2425 12.7935 16.5738 12.3914 16.5738Z" fill="#CF1E2F"/>
</g>
</g>
</svg>
