<svg width="33" height="33" viewBox="0 0 33 33" fill="none" xmlns="http://www.w3.org/2000/svg">
<g id="Group 1042">
<path id="Ellipse 2" fill-rule="evenodd" clip-rule="evenodd" d="M16.5 33C25.6127 33 33 25.6127 33 16.5C33 7.3873 25.6127 0 16.5 0C7.3873 0 0 7.3873 0 16.5C0 25.6127 7.3873 33 16.5 33Z" fill="#4969A2"/>
<g id="Group 775">
<path id="Path 1396" fill-rule="evenodd" clip-rule="evenodd" d="M22.8767 10.0802H17.8877C16.7297 7.88745 14.3018 6.67801 11.854 7.0747C9.40616 7.47139 7.48442 9.38575 7.07831 11.832C6.6722 14.2783 7.87229 16.7109 10.0606 17.8772V18.8666C10.0503 20.7703 11.5044 22.3625 13.4013 22.5244C13.4466 22.5287 13.4887 22.5492 13.52 22.5823L17.1598 26.2262C17.4501 26.5193 17.8886 26.6082 18.2701 26.4513C18.6517 26.2945 18.9008 25.9228 18.9009 25.5103V22.7445C18.9003 22.6899 18.9218 22.6372 18.9605 22.5986C18.9991 22.5599 19.0518 22.5385 19.1064 22.5391H22.8767C24.9034 22.5364 26.5455 20.8934 26.5469 18.8666V13.7525C26.5453 11.7258 24.9033 10.0829 22.8767 10.0802V10.0802ZM8.2212 12.779C8.2212 10.2619 10.2617 8.22132 12.7788 8.22128C15.2961 8.22128 17.3366 10.2618 17.3367 12.7789C17.3367 15.2961 15.2961 17.3367 12.779 17.3367C10.2629 17.3341 8.2239 15.2951 8.2212 12.779ZM25.3252 18.8666C25.3244 20.2187 24.2293 21.315 22.8771 21.3173H19.1064C18.3185 21.3182 17.68 21.9567 17.6792 22.7446V25.017L14.3887 21.7225C14.1547 21.4845 13.8438 21.3373 13.5115 21.3071C12.2456 21.1992 11.2752 20.1366 11.2823 18.8661V18.3603C13.2734 18.8948 15.3984 18.3281 16.8588 16.873C18.3192 15.4179 18.8938 13.295 18.3666 11.302H22.8767C24.2289 11.304 25.3243 12.4003 25.3252 13.7525L25.3252 18.8666Z" fill="white"/>
<path id="Ellipse 16" fill-rule="evenodd" clip-rule="evenodd" d="M12.7791 15.7525C13.1164 15.7525 13.3899 15.479 13.3899 15.1416C13.3899 14.8043 13.1164 14.5308 12.7791 14.5308C12.4417 14.5308 12.1682 14.8043 12.1682 15.1416C12.1682 15.479 12.4417 15.7525 12.7791 15.7525Z" fill="white"/>
<path id="Path 1397" fill-rule="evenodd" clip-rule="evenodd" d="M12.7749 13.7206C13.1123 13.7206 13.3858 13.4471 13.3858 13.1097V10.3269C13.3858 9.98955 13.1123 9.71606 12.7749 9.71606C12.4376 9.71606 12.1641 9.98955 12.1641 10.3269V13.1097C12.1641 13.4471 12.4376 13.7206 12.7749 13.7206Z" fill="white"/>
</g>
</g>
</svg>
