<svg xmlns="http://www.w3.org/2000/svg" xmlns:xlink="http://www.w3.org/1999/xlink" width="30" height="30" viewBox="0 0 30 30"><defs><clipPath id="b"><rect width="30" height="30"/></clipPath></defs><g id="a" clip-path="url(#b)"><g transform="translate(0 -0.018)"><g transform="translate(4 4)"><path d="M21.182,11.107V10.22A2.947,2.947,0,0,0,19.1,7.394l-.039-.012V6.939a.33.33,0,1,0-.659,0v.443l-.039.012a2.947,2.947,0,0,0-2.082,2.827v.853h-.659V6.4a5.146,5.146,0,0,0-4.044-5.027V.33a.33.33,0,0,0-.659,0V1.377A5.146,5.146,0,0,0,6.877,6.4v4.671H6.218v-.853A2.947,2.947,0,0,0,4.137,7.394L4.1,7.382V6.939a.33.33,0,1,0-.659,0v.443L3.4,7.394a2.947,2.947,0,0,0-2.082,2.827v.887A1.651,1.651,0,0,0,0,12.722V22.17a.33.33,0,0,0,.33.33H22.17a.33.33,0,0,0,.33-.33V12.722a1.651,1.651,0,0,0-1.318-1.615Zm-19.2-.887A2.291,2.291,0,0,1,3.6,8.023l.173-.054.173.054a2.291,2.291,0,0,1,1.618,2.2v.853H1.978ZM4.791,21.84H2.75V19.047a1.437,1.437,0,0,1,.8-1.283l.217-.106.217.106a1.437,1.437,0,0,1,.8,1.283Zm2.091,0H5.446V19.047a2.1,2.1,0,0,0-1.17-1.875L3.914,17a.329.329,0,0,0-.29,0l-.362.177a2.1,2.1,0,0,0-1.17,1.875v2.794H.659V15.732H6.877Zm0-6.768H.659v-2.35a.99.99,0,0,1,.989-.989H6.877ZM16.945,10.22a2.291,2.291,0,0,1,1.618-2.2l.173-.054.173.054a2.291,2.291,0,0,1,1.618,2.2v.853H16.941ZM8.606,3.5A4.494,4.494,0,0,1,11.25,1.982a4.489,4.489,0,0,1,3.7,4.038h-7.4A4.493,4.493,0,0,1,8.606,3.5Zm3.663,18.345H10.232v-2.8a1.437,1.437,0,0,1,.8-1.283l.217-.106.217.106a1.437,1.437,0,0,1,.8,1.283Zm2.7,0H12.927v-2.8a2.1,2.1,0,0,0-1.17-1.875L11.4,17a.329.329,0,0,0-.29,0l-.362.177a2.1,2.1,0,0,0-1.17,1.875v2.794H7.537v-10.3l3.637-3.558a.11.11,0,0,1,.154,0l3.637,3.558Zm0-11.221-3.181-3.11a.773.773,0,0,0-1.076,0L7.537,10.62V6.68h7.427ZM19.75,21.841H17.714V19.047a1.437,1.437,0,0,1,.8-1.283l.217-.106.217.106a1.437,1.437,0,0,1,.8,1.283Zm2.091,0H20.409V19.047a2.1,2.1,0,0,0-1.17-1.875L18.877,17a.329.329,0,0,0-.29,0l-.362.177a2.1,2.1,0,0,0-1.17,1.875v2.794H15.623V15.732h6.218Zm0-6.768H15.623v-3.34h5.229a.99.99,0,0,1,.989.989ZM9.973,11.4a.33.33,0,0,0,.33.33h.345a.7.7,0,0,1,.622.375H10.3a.33.33,0,0,0,0,.659h.966a.7.7,0,0,1-.622.375H10.3a.33.33,0,0,0-.238.557l1.378,1.443a.33.33,0,1,0,.477-.455l-.9-.939a1.368,1.368,0,0,0,.947-.981H12.2a.33.33,0,1,0,0-.659h-.23a1.356,1.356,0,0,0-.156-.375H12.2a.33.33,0,1,0,0-.659H10.3a.33.33,0,0,0-.33.33Z" fill="#94afd8" stroke="#94afd8" stroke-width="0.16"/></g></g></g></svg>